<svg width="41" height="43" viewBox="0 0 41 43" fill="none" xmlns="http://www.w3.org/2000/svg">
<path opacity="0.5" d="M14.88 0.927997C3.072 4.24 0.192 12.304 0.192 25.408V40.672C0.192 41.536 0.768 42.112 1.632 42.112H15.168C16.032 42.112 16.608 41.536 16.608 40.672V23.392C16.608 22.528 16.032 21.952 15.168 21.952H9.984C9.984 15.328 11.136 11.152 15.312 9.424C16.176 9.13599 16.608 8.704 16.608 7.83999V2.08C16.608 1.07199 15.888 0.495994 14.88 0.927997ZM39.072 0.927997C27.264 4.24 24.384 12.304 24.384 25.408V40.672C24.384 41.536 24.96 42.112 25.824 42.112H39.36C40.224 42.112 40.8 41.536 40.8 40.672V23.392C40.8 22.528 40.224 21.952 39.36 21.952H34.176C34.176 15.328 35.328 11.152 39.504 9.424C40.368 9.13599 40.8 8.704 40.8 7.83999V2.08C40.8 1.07199 40.08 0.495994 39.072 0.927997Z" fill="white"/>
</svg>
