<svg width="52" height="79" viewBox="0 0 52 79" fill="none" xmlns="http://www.w3.org/2000/svg">
<path d="M35.9047 43.6304C36.5237 40.6869 35.9523 37.6484 34.2856 35.1322C30.857 29.9099 23.8094 28.4856 18.5713 31.9038C17.1427 32.8534 15.9999 34.0403 15.1427 35.4645C14.857 35.8918 14.9999 36.509 15.4761 36.7464C15.9046 37.0312 16.5237 36.8888 16.7618 36.4141C17.4761 35.2272 18.4285 34.2302 19.6189 33.4706C23.9523 30.622 29.8094 31.8089 32.6666 36.1767C35.5237 40.497 34.3332 46.3365 29.9523 49.1851C25.6189 52.0336 19.7618 50.8467 16.9046 46.479C15.7142 44.7224 15.1904 42.6809 15.3808 40.5445C15.4285 40.0222 15.0475 39.5475 14.5237 39.5C13.9999 39.4525 13.5237 39.8323 13.4761 40.3546C13.2856 42.8708 13.9046 45.3395 15.2856 47.476C17.4761 50.7518 21.0951 52.5559 24.7618 52.5559C26.9046 52.5559 29.0475 51.9387 30.9999 50.7043C33.5713 49.0901 35.2856 46.5739 35.9047 43.6304Z" fill="#00AEEF"/>
<path d="M51 69.2199L38.8095 50.7043C38.381 50.0396 37.8095 49.4699 37.1905 49.0426C38.0952 47.5709 38.7619 45.9567 39.1429 44.2475C39.9524 40.4495 39.1905 36.5564 37.0476 33.3281C32.619 26.634 23.5714 24.7349 16.8095 29.1502C10.0952 33.5655 8.19048 42.5859 12.619 49.3275C15.4286 53.5528 20.0952 55.8791 24.8571 55.8791C25.619 55.8791 26.4286 55.8317 27.1905 55.6892C27.3333 56.4489 27.619 57.161 28.0476 57.7782L40.2381 76.2938C41.1429 77.6231 42.4762 78.5727 44.0476 78.8575C44.4762 78.9525 44.8571 78.9999 45.2857 78.9999C46.4286 78.9999 47.5714 78.6676 48.5714 78.0029L49.2857 77.5282C50.619 76.6261 51.5714 75.2968 51.8571 73.7301C52.1905 72.1634 51.9048 70.5492 51 69.2199ZM14.1905 48.283C10.3333 42.4435 11.9524 34.6099 17.8095 30.7644C19.9524 29.3401 22.381 28.6754 24.7619 28.6754C28.9048 28.6754 32.9524 30.6694 35.381 34.3725C37.2381 37.1736 37.9048 40.5919 37.1905 43.8677C36.4762 47.1436 34.5714 50.0396 31.7143 51.8912C25.9048 55.7367 18.0476 54.1225 14.1905 48.283ZM50 73.3503C49.7619 74.4422 49.1429 75.3443 48.2381 75.9615L47.5238 76.4362C46.619 77.0534 45.5238 77.2433 44.4286 77.0059C43.3333 76.7686 42.4286 76.1514 41.8095 75.2493L29.619 56.7337C29.3333 56.259 29.0952 55.7842 29 55.262C30.3333 54.8822 31.619 54.265 32.8095 53.5054C34.0476 52.6983 35.1429 51.7487 36.0476 50.6568C36.5238 50.9416 36.9048 51.3689 37.1905 51.7962L49.3809 70.3118C50 71.1664 50.2381 72.2584 50 73.3503Z" fill="#00AEEF"/>
<path d="M39.7618 58.348C39.4761 57.9207 38.9047 57.7783 38.4285 58.0631C37.9999 58.348 37.8571 58.9177 38.1428 59.3924L45.8571 71.0715C46.6666 72.2584 46.9999 72.8756 46.5237 73.9201C46.2856 74.3948 46.5237 74.9645 46.9999 75.2019C47.1428 75.2494 47.2856 75.2969 47.3809 75.2969C47.7618 75.2969 48.0952 75.107 48.238 74.7272C49.1904 72.6857 48.1904 71.214 47.4285 70.0745L39.7618 58.348Z" fill="#00AEEF"/>
<path d="M38.1904 55.9742L36.0952 52.7933C35.8095 52.366 35.2381 52.2236 34.7619 52.5084C34.3333 52.7933 34.1904 53.363 34.4762 53.8378L36.5714 57.0186C36.7619 57.3035 37.0476 57.4459 37.3809 57.4459C37.5714 57.4459 37.7619 57.3984 37.9047 57.3035C38.3809 57.0186 38.4762 56.4489 38.1904 55.9742Z" fill="#00AEEF"/>
<path d="M39.7619 16.9964C38.9048 16.9964 38.2857 16.6166 37.619 15.7145L37.4762 15.4771L36 16.9964L36.0952 17.1388C36.9048 18.3257 38.0476 18.9904 39.4286 19.1328V20.652H40.8571V19.0378C42.5714 18.5631 43.619 17.3287 43.619 15.6196C43.619 14.765 43.2857 14.0054 42.7619 13.4832C42.3333 13.1033 41.7619 12.771 40.8095 12.3912C40.1429 12.1538 39.9048 12.0114 39.7619 11.9164C39.4286 11.6791 39.2857 11.4417 39.2857 11.2043C39.2857 10.7295 39.7619 10.3497 40.381 10.3497C40.9524 10.3497 41.4286 10.5871 41.9048 11.1094L42.0952 11.2993L43.4286 9.59013L43.2857 9.4477C42.5714 8.73556 41.9048 8.35575 40.9524 8.21332V6.69409H39.5238V8.21332C39 8.30827 38.6667 8.4507 38.3333 8.68808C37.4762 9.25779 36.9048 10.2548 36.9048 11.3467C36.9048 12.2013 37.2857 13.0084 37.9048 13.4832C38.2381 13.768 38.8571 14.1003 39.9048 14.5276C41.0476 15.0024 41.1905 15.2872 41.1905 15.762C41.0476 16.5216 40.4762 16.9964 39.7619 16.9964Z" fill="#00AEEF"/>
<path d="M5.52381 6.07692C4.95238 5.83954 4.57143 5.69712 4.42857 5.60216C4 5.31731 4 5.07993 4 5.03245C4 4.65264 4.42857 4.36779 4.95238 4.36779C5.52381 4.36779 5.95238 4.60517 6.42857 5.1274L6.80952 5.55469L8.47619 3.32332L8.19048 3.03846C7.47619 2.27885 6.71429 1.89904 5.71429 1.70913V0H3.76191V1.70913C3.33333 1.80409 2.95238 1.89904 2.57143 2.18389C1.57143 2.80108 0.952381 3.98798 0.952381 5.22236C0.952381 6.21935 1.38095 7.12139 2.09524 7.69111C2.47619 8.02344 3.14286 8.35577 4.28571 8.83053C5.47619 9.35277 5.57143 9.59014 5.57143 9.96995C5.57143 10.5397 5.04762 10.9669 4.38095 10.9669C3.52381 10.9669 2.90476 10.5871 2.2381 9.6851L1.90476 9.21034L0 11.1569L0.238095 11.4892C1.09524 12.771 2.33333 13.5306 3.76191 13.7206V15.3822H5.76191V13.5781C7.61905 13.0084 8.71429 11.5841 8.71429 9.78005C8.71429 8.78305 8.33333 7.92849 7.71429 7.35877C7.19048 6.83654 6.57143 6.50421 5.52381 6.07692Z" fill="#00AEEF"/>
<path d="M24.7619 43.9627C24.0952 43.9627 23.5714 43.6778 23.0476 42.9182L22.7143 42.4909L21 44.2L21.2381 44.5324C21.9524 45.5768 22.9524 46.2415 24.1429 46.3839V47.7607H25.9524V46.2415C27.4762 45.7667 28.381 44.5798 28.381 43.0131C28.381 42.1586 28.0952 41.4464 27.5238 40.9242C27.0952 40.5444 26.5714 40.2595 25.7143 39.8797C25.2381 39.6898 24.9524 39.5474 24.8095 39.4999C24.4762 39.2625 24.4762 39.1201 24.4762 39.0726C24.4762 38.8353 24.8095 38.5979 25.1905 38.5979C25.619 38.5979 25.9524 38.7878 26.3333 39.1676L26.7143 39.5949L28.2381 37.6484L27.9524 37.3635C27.3333 36.7463 26.7143 36.414 25.9524 36.2241V34.7998H24.1429V36.2241C23.8095 36.319 23.5238 36.414 23.1905 36.6514C22.3333 37.1736 21.8095 38.1706 21.8095 39.2151C21.8095 40.0696 22.1905 40.8292 22.8095 41.3515C23.1429 41.6363 23.7143 41.9212 24.6667 42.301C25.6667 42.7283 25.6667 42.9182 25.6667 43.1556C25.6667 43.6303 25.2857 43.9627 24.7619 43.9627Z" fill="#00AEEF"/>
<path d="M13.3334 13.0084C17.0953 13.0084 20.1429 16.0469 20.1429 19.7975C20.1429 20.4622 20.6667 20.9844 21.3334 20.9844C22 20.9844 22.5238 20.4622 22.5238 19.7975C22.5238 14.7176 18.381 10.6346 13.3334 10.6346C12.6667 10.6346 12.1429 11.1569 12.1429 11.8215C12.1429 12.4862 12.6667 13.0084 13.3334 13.0084Z" fill="#00AEEF"/>
<path d="M27.6667 18.3258C27.762 18.3258 27.8572 18.3732 27.9524 18.3732C28.4762 18.3732 28.9524 17.9934 29.0953 17.4712C29.2381 16.8065 29.6667 16.2368 30.2858 15.857C30.9048 15.4772 31.5715 15.3822 32.2858 15.5721C32.9048 15.7146 33.5715 15.3348 33.7143 14.7176C33.8572 14.1004 33.4762 13.4357 32.8572 13.2933C31.5715 12.961 30.1905 13.1984 29.0477 13.863C27.9048 14.5752 27.0953 15.6671 26.762 16.949C26.6191 17.5661 27.0477 18.1833 27.6667 18.3258Z" fill="#00AEEF"/>
</svg>
