<svg width="113" height="55" viewBox="0 0 113 55" fill="none" xmlns="http://www.w3.org/2000/svg">
<g clip-path="url(#clip0)">
<path d="M84.442 22.7994C83.77 22.1802 82.8741 21.6735 81.4742 21.1106C80.4662 20.7165 80.0743 20.5476 79.9623 20.435C79.7383 20.2662 79.5703 20.0973 79.4583 19.9284C79.3463 19.7595 79.3463 19.6469 79.3463 19.5343C79.3463 19.3091 79.4583 19.0277 79.7383 18.8588C79.9623 18.6336 80.3542 18.521 80.7462 18.521C81.1382 18.521 81.4742 18.5773 81.8101 18.7462C82.1461 18.9151 82.4821 19.1966 82.8181 19.5906L83.266 20.0973L85.5059 17.2262L85.1699 16.8885C84.6099 16.3255 83.994 15.8752 83.378 15.5374C82.8741 15.3122 82.3141 15.1433 81.7541 15.0307V12.7227H79.1783V15.087C78.8983 15.1433 78.6744 15.1996 78.4504 15.2559C78.1144 15.3685 77.7784 15.5374 77.4425 15.7626C76.0985 16.6633 75.2586 18.2395 75.2586 19.8721C75.2586 21.2232 75.8186 22.4617 76.8265 23.2498C77.3865 23.7001 78.3384 24.2068 79.8503 24.826C80.6902 25.1638 81.1382 25.4453 81.3622 25.6705C81.4742 25.783 81.5302 25.8956 81.5862 26.0082C81.6422 26.1208 81.6422 26.2897 81.6422 26.4586C81.6422 26.8526 81.4742 27.2467 81.1942 27.5282C80.9142 27.8097 80.4662 27.9785 79.9063 27.9785C79.2903 27.9785 78.7864 27.866 78.3384 27.5845C77.8344 27.303 77.3865 26.8526 76.8825 26.1771L76.4905 25.6705L73.9707 28.26L74.2507 28.6541C74.9226 29.6111 75.7066 30.3429 76.6025 30.9059C77.3865 31.3562 78.2264 31.5814 79.1223 31.694V34.0021H81.6981V31.5251C82.8741 31.1873 83.882 30.5681 84.5539 29.7237C85.3379 28.823 85.7859 27.5845 85.7859 26.2897C85.8419 24.826 85.3379 23.6438 84.442 22.7994Z" fill="#00AEEF"/>
<path d="M52.5245 35.3531C51.8525 34.959 51.0126 35.1842 50.6206 35.8597C50.2286 36.5353 50.4526 37.3797 51.1246 37.7738L58.0121 41.7707C58.684 42.1648 59.524 41.9396 59.916 41.264C60.3079 40.5885 60.0839 39.7441 59.412 39.35L52.5245 35.3531Z" fill="#00AEEF"/>
<path d="M103.2 43.6285C103.592 44.3041 104.432 44.5293 105.104 44.1352L111.992 40.1383C112.664 39.7442 112.888 38.8998 112.496 38.2242C112.104 37.5487 111.264 37.3235 110.592 37.7176L103.704 41.7145C103.032 42.1086 102.808 42.953 103.2 43.6285Z" fill="#00AEEF"/>
<path d="M97.4332 36.9857C98.0491 37.4924 98.9451 37.3798 99.393 36.7605L104.321 30.5118C104.825 29.8926 104.713 28.9918 104.097 28.5415C103.481 28.0348 102.585 28.1474 102.137 28.7667L97.2092 35.0154C96.7612 35.5783 96.8172 36.4791 97.4332 36.9857Z" fill="#00AEEF"/>
<path d="M49.0525 27.5281C49.3325 27.2467 49.4445 26.9089 49.4445 26.5148V26.2334H66.1873V34.3961C66.1873 34.9591 66.3553 35.522 66.6353 35.9724C67.1392 36.7605 67.8672 37.3234 68.7071 37.8301C69.995 38.5619 71.6189 39.0686 73.5228 39.4626C75.4267 39.8567 77.6105 40.0256 79.9623 40.0256C83.4901 40.0256 86.7379 39.5189 89.1457 38.7308C90.3776 38.3367 91.3855 37.8301 92.2255 37.1546C92.6174 36.8168 93.0094 36.4227 93.2894 35.9724C93.5694 35.5783 93.6814 35.0716 93.7374 34.5087C93.7374 34.4524 93.7374 34.4524 93.7374 34.3961V34.3398C93.7374 34.2835 93.7374 34.2272 93.7374 34.1709L91.4415 20.6039L93.6254 6.4739C93.6814 6.19243 93.7374 5.91095 93.7374 5.62948V5.57318C93.7374 5.46059 93.7374 5.4043 93.7374 5.29171C93.6814 4.84135 93.5134 4.39099 93.2894 4.05322C92.7854 3.2651 92.0575 2.70215 91.2175 2.1955C89.9296 1.46366 88.3057 0.957011 86.4019 0.562948C84.498 0.168884 82.3142 0 79.9623 0C76.4346 0 73.1868 0.506653 70.779 1.29478C69.5471 1.68884 68.5391 2.1955 67.6992 2.87103C67.3072 3.2088 66.9153 3.60287 66.6353 4.05322C66.4113 4.39099 66.2433 4.84135 66.1873 5.29171C66.1873 5.348 66.1873 5.46059 66.1873 5.57318V5.62948V14.9744H49.4445V14.6366C49.4445 14.2426 49.2765 13.9048 49.0525 13.6233C48.8285 13.3419 48.4366 13.2293 48.0446 13.2293H6.43954C6.32755 13.2293 6.21556 13.2293 6.15956 13.2856C4.42369 13.4545 2.91179 14.2989 1.84787 15.5937C0.671952 16.8884 0 18.6899 0 20.6039C0 22.5179 0.671952 24.3193 1.79187 25.6141C2.8558 26.9089 4.36769 27.7533 6.10357 27.9222C6.21556 27.9222 6.27156 27.9785 6.38355 27.9785H48.0446C48.4366 27.9222 48.7725 27.8096 49.0525 27.5281ZM90.9376 34.5087C90.8256 34.6776 90.4896 35.0154 89.9296 35.3531C89.0337 35.8598 87.6338 36.3101 85.8979 36.6479C84.162 36.9857 82.1462 37.1546 80.0183 37.1546C76.7146 37.1546 73.7468 36.7042 71.7309 35.9724C70.723 35.6346 69.939 35.2405 69.4911 34.8465C69.2671 34.6776 69.1551 34.5087 69.0991 34.4524C69.0431 34.3398 69.0431 34.3398 69.0431 34.3398V9.17605C70.275 9.79529 71.8429 10.3019 73.5788 10.6397C75.4827 11.0338 77.6665 11.2027 80.0183 11.2027C80.0743 11.2027 80.1303 11.2027 80.1863 11.2027C80.2983 11.2027 80.3543 11.2027 80.4663 11.2027C80.7463 11.2027 81.0263 11.2027 81.3062 11.2027H81.3622C82.5382 11.1464 83.7141 11.0901 84.834 10.9212C85.058 10.8649 85.282 10.8649 85.5059 10.8086C85.6739 10.8086 85.8419 10.7523 86.0099 10.7523C87.1858 10.5271 88.2497 10.3019 89.2577 9.96418C89.6497 9.85159 90.0416 9.6827 90.4336 9.51382L88.7537 20.435C88.7537 20.6039 88.7537 20.7165 88.7537 20.8854L91.0496 34.5087C90.9936 34.4524 90.9936 34.4524 90.9376 34.5087ZM88.3057 3.99693C89.3137 4.3347 90.0976 4.72876 90.5456 5.12283C90.7696 5.29171 90.8816 5.46059 90.9376 5.51689C90.9936 5.62948 90.9936 5.62948 90.9936 5.62948C90.9936 5.62948 90.9936 5.62948 90.9376 5.74207C90.8816 5.79836 90.7696 5.91095 90.6576 6.07984C90.3216 6.30502 89.8736 6.58649 89.4257 6.75537C88.4177 7.26203 87.0738 7.65609 85.6179 7.93756C83.994 8.21904 82.1462 8.38792 80.1303 8.44422C78.4504 8.44422 76.8266 8.27533 75.2027 7.99386C73.4668 7.65609 72.1229 7.14944 71.339 6.58649C70.947 6.30502 70.667 6.07984 70.555 5.85466C70.443 5.62948 70.387 5.57318 70.387 5.46059C70.387 5.4043 70.387 5.348 70.443 5.17912C70.499 5.06653 70.611 4.89765 70.891 4.67247C71.115 4.50358 71.4509 4.2784 71.8989 4.05322C72.5149 3.77175 73.4108 3.49028 74.3627 3.32139C75.3147 3.15251 76.3786 3.03992 77.4425 3.03992C78.5064 3.03992 79.6264 3.15251 80.6343 3.32139C81.6982 3.54657 82.4822 3.82805 82.9301 4.16581C83.0981 4.2784 83.2101 4.39099 83.2661 4.44729C83.2661 4.50358 83.2101 4.50358 83.1541 4.55988C83.0421 4.61617 82.8741 4.78506 82.6502 4.89765C82.3142 5.06653 81.7542 5.23541 81.1943 5.348C80.6343 5.46059 79.9623 5.51689 79.2904 5.51689C78.6184 5.51689 77.9465 5.46059 77.3305 5.348C76.5466 5.17912 75.8186 5.68577 75.7066 6.4739C75.5387 7.26203 76.0426 7.99386 76.8266 8.10645C77.6665 8.27533 78.5064 8.33163 79.3464 8.33163C80.4663 8.33163 81.5302 8.21904 82.4822 7.93756C82.9861 7.82497 83.4341 7.65609 83.8261 7.43091C84.274 7.20573 84.666 6.98055 85.002 6.69908C85.338 6.4176 85.5619 6.07984 85.7859 5.74207C86.0099 5.348 86.1219 4.95394 86.1219 4.50358C86.1219 4.10952 86.0099 3.71546 85.8419 3.37769C86.7939 3.54657 87.6338 3.71546 88.3057 3.99693ZM49.4445 17.7329H66.0753V23.4186H49.4445V17.7329ZM46.6447 16.3255V24.826V25.1075H6.49554C6.49554 25.1075 6.49554 25.1075 6.43954 25.1075C5.43162 25.0512 4.53568 24.6008 3.86373 23.7564C3.19177 22.9683 2.74381 21.8424 2.74381 20.5476C2.74381 19.3091 3.19177 18.1832 3.86373 17.3388C4.53568 16.5507 5.43162 16.044 6.43954 15.9877C6.43954 15.9877 6.43954 15.9877 6.49554 15.9877H46.6447V16.3255Z" fill="#00AEEF"/>
<path d="M110.984 48.5824C109.808 47.3439 108.184 46.5557 106.392 46.3869C106.28 46.3869 106.168 46.3306 106.113 46.3306H102.473H57.6759H54.0362C53.9242 46.3306 53.8122 46.3306 53.7562 46.3869C51.9643 46.5557 50.3405 47.3439 49.1645 48.5824C47.9326 49.8771 47.1487 51.6223 47.1487 53.5926C47.1487 53.9867 47.3167 54.3244 47.5407 54.6059C47.7646 54.8874 48.1566 55 48.5486 55H111.712C112.104 55 112.44 54.8311 112.72 54.6059C113 54.3244 113.112 53.9867 113.112 53.5926C113 51.6786 112.216 49.8771 110.984 48.5824ZM50.0605 52.1852C50.2845 51.566 50.6204 51.003 51.0684 50.5527C51.8523 49.7645 52.8603 49.2579 54.0362 49.2016H54.0922H57.6199H102.417H105.945H106.001C107.176 49.2579 108.184 49.7645 108.968 50.5527C109.416 51.003 109.752 51.566 109.976 52.1852H50.0605Z" fill="#00AEEF"/>
</g>
<defs>
<clipPath id="clip0">
<rect width="113" height="55" fill="white"/>
</clipPath>
</defs>
</svg>
