<svg width="25" height="20" viewBox="0 0 25 20" fill="none" xmlns="http://www.w3.org/2000/svg">
<path d="M21.7483 19.2768H20.2569V18.2644C20.2569 18.2068 20.2098 18.1597 20.1522 18.1597C20.0944 18.1597 20.0475 18.2068 20.0475 18.2644V19.2768H18.1625V18.2644C18.1625 18.2068 18.1154 18.1597 18.0578 18.1597C18 18.1597 17.9531 18.2068 17.9531 18.2644V19.2768H16.0682V18.2644C16.0682 18.2068 16.0211 18.1597 15.9635 18.1597C15.9057 18.1597 15.8588 18.2068 15.8588 18.2644V19.2768H13.9738V18.2644C13.9738 18.2068 13.9267 18.1597 13.8691 18.1597C13.8113 18.1597 13.7644 18.2068 13.7644 18.2644V19.2768H11.8795V18.2644C11.8795 18.2068 11.8326 18.1597 11.7748 18.1597C11.717 18.1597 11.6701 18.2068 11.6701 18.2644V19.2768H9.78514V18.2644C9.78514 18.2068 9.73823 18.1597 9.68042 18.1597C9.62262 18.1597 9.57571 18.2068 9.57571 18.2644V19.2768H7.69079V18.2644C7.69079 18.2068 7.64388 18.1597 7.58607 18.1597C7.52827 18.1597 7.48135 18.2068 7.48135 18.2644V19.2768H5.59644V18.2644C5.59644 18.2068 5.54953 18.1597 5.49172 18.1597C5.43392 18.1597 5.387 18.2068 5.387 18.2644V19.2768H1.58241V16.9033H2.4235C2.4813 16.9033 2.52822 16.8564 2.52822 16.7986C2.52822 16.7408 2.4813 16.6938 2.4235 16.6938H1.58241V14.8089H2.4235C2.4813 14.8089 2.52822 14.762 2.52822 14.7042C2.52822 14.6464 2.4813 14.5995 2.4235 14.5995H1.58241V12.7146H2.4235C2.4813 12.7146 2.52822 12.6677 2.52822 12.6099C2.52822 12.5521 2.4813 12.5051 2.4235 12.5051H1.58241V10.6202H2.4235C2.4813 10.6202 2.52822 10.5733 2.52822 10.5155C2.52822 10.4577 2.4813 10.4108 2.4235 10.4108H1.58241V8.52588H2.4235C2.4813 8.52588 2.52822 8.47897 2.52822 8.42117C2.52822 8.36336 2.4813 8.31645 2.4235 8.31645H1.58241V6.43153H2.4235C2.4813 6.43153 2.52822 6.38462 2.52822 6.32682C2.52822 6.26901 2.4813 6.2221 2.4235 6.2221H1.58241V4.33718H2.4235C2.4813 4.33718 2.52822 4.29027 2.52822 4.23247C2.52822 4.17466 2.4813 4.12775 2.4235 4.12775H1.58241V2.24283H2.4235C2.4813 2.24283 2.52822 2.19592 2.52822 2.13812C2.52822 2.08031 2.4813 2.0334 2.4235 2.0334H1.58241V0.322942C1.58241 0.149529 1.44167 0.00878906 1.26825 0.00878906C1.09484 0.00878906 0.954102 0.149529 0.954102 0.322942V19.591C0.954102 19.7644 1.09484 19.9051 1.26825 19.9051H21.7483C21.9217 19.9051 22.0624 19.7644 22.0624 19.591C22.0624 19.4176 21.9217 19.2768 21.7483 19.2768Z" fill="#00AEEF"/>
<path d="M6.37754 2.85771H4.23083V17.0564H6.37754V2.85771Z" fill="#00AEEF"/>
<path d="M10.9328 9.54001C10.6517 9.17266 10.4239 8.77746 10.2496 8.36487H8.78607V17.0564H10.9328V9.54001Z" fill="#00AEEF"/>
<path d="M15.4358 11.6546C15.3663 11.6575 15.2968 11.6619 15.2272 11.6619C14.5533 11.6619 13.8994 11.5384 13.2891 11.3049V17.0561H15.4358V11.6546Z" fill="#00AEEF"/>
<path d="M20.1482 12.9464L18.0825 10.8504C18.0559 10.8667 18.0281 10.881 18.0015 10.8967V17.0562H20.1482V12.9464Z" fill="#00AEEF"/>
<path d="M24.7776 15.1189L18.9811 9.23733C20.4346 7.36247 20.3051 4.64798 18.5842 2.92726C16.719 1.06182 13.6834 1.06182 11.8176 2.92726C9.95233 4.79291 9.95233 7.82804 11.8176 9.6939C13.5385 11.4148 16.2526 11.544 18.1278 10.0908L23.9244 15.9719C24.16 16.2075 24.5416 16.2075 24.7772 15.9721C25.0132 15.7365 25.0132 15.3545 24.7776 15.1189ZM17.7318 8.84087C16.3365 10.2361 14.0663 10.2363 12.671 8.84087C11.2758 7.44582 11.276 5.17555 12.671 3.7805C14.0663 2.38545 16.3363 2.38503 17.7318 3.7805C19.1271 5.17555 19.1271 7.44582 17.7318 8.84087Z" fill="#00AEEF"/>
<path d="M15.3756 5.79882C14.8284 5.57242 14.67 5.43545 14.67 5.18748C14.67 4.98935 14.8152 4.75772 15.224 4.75772C15.6087 4.75772 15.8508 4.89616 15.9543 4.95522C15.9807 4.9705 16.0125 4.97302 16.0416 4.96297C16.0705 4.95249 16.0931 4.93029 16.1042 4.9016L16.2596 4.49111C16.2779 4.44336 16.2588 4.38953 16.2146 4.36377C15.992 4.23413 15.7438 4.15978 15.459 4.13821V3.63452C15.459 3.57671 15.4121 3.5298 15.3543 3.5298H14.9693C14.9115 3.5298 14.8646 3.57671 14.8646 3.63452V4.17549C14.2918 4.30199 13.9267 4.72065 13.9267 5.26204C13.9267 5.91527 14.4512 6.21141 15.0164 6.43383C15.4686 6.61666 15.6529 6.80285 15.6529 7.07554C15.6529 7.37691 15.3978 7.57944 15.0189 7.57944C14.7257 7.57944 14.4208 7.48854 14.1825 7.33021C14.1559 7.3122 14.1224 7.30801 14.0916 7.31785C14.0608 7.3277 14.0365 7.35157 14.026 7.38194L13.8769 7.79767C13.8612 7.84186 13.8765 7.89108 13.9148 7.9183C14.1326 8.07371 14.4794 8.18303 14.821 8.2067V8.73364C14.821 8.79144 14.8682 8.83835 14.9257 8.83835H15.317C15.3748 8.83835 15.4217 8.79144 15.4217 8.73364V8.17423C16.0121 8.04208 16.4031 7.59242 16.4031 7.03198C16.4029 6.46085 16.0954 6.09203 15.3756 5.79882Z" fill="#00AEEF"/>
</svg>
