<svg width="25" height="25" viewBox="0 0 25 25" fill="none" xmlns="http://www.w3.org/2000/svg">
<path d="M17.0611 11.126C17.7967 12.3229 18.2294 13.7255 18.2294 15.2304C18.2294 19.5679 14.701 23.0965 10.3629 23.0965C6.02465 23.0965 2.49626 19.5679 2.49626 15.2304C2.49626 10.8926 6.02465 7.36355 10.3629 7.36355C11.8671 7.36355 13.2703 7.79585 14.4668 8.53142L15.6684 7.32956C14.1505 6.30734 12.3257 5.70992 10.3629 5.70992C5.11395 5.70992 0.842773 9.9808 0.842773 15.2304C0.842773 20.4797 5.11395 24.75 10.3629 24.75C15.6117 24.75 19.8829 20.4797 19.8829 15.2304C19.8829 13.2673 19.2854 11.4416 18.2634 9.9246L17.0611 11.126Z" fill="#00AEEF"/>
<path d="M13.0333 9.96414C12.2307 9.55523 11.3249 9.31944 10.3632 9.31944C7.10364 9.31944 4.45309 11.9708 4.45309 15.2304C4.45309 18.489 7.10364 21.1402 10.3632 21.1402C13.6227 21.1402 16.2741 18.489 16.2741 15.2304C16.2741 14.2684 16.0383 13.3624 15.6282 12.5587L14.3623 13.8246C14.5188 14.2668 14.6207 14.7355 14.6207 15.2303C14.6207 17.5772 12.7102 19.4867 10.3632 19.4867C8.01621 19.4867 6.10663 17.5771 6.10663 15.2303C6.10663 12.8829 8.01621 10.9729 10.3632 10.9729C10.8583 10.9729 11.3266 11.0742 11.7681 11.2301L13.0333 9.96414Z" fill="#00AEEF"/>
<path d="M10.8838 12.8267C10.8845 12.7889 10.8934 12.7525 10.8966 12.715C10.7237 12.6786 10.5461 12.6581 10.3629 12.6581C8.94276 12.6581 7.79126 13.8103 7.79126 15.2304C7.79126 16.6503 8.94271 17.8016 10.3629 17.8016C11.783 17.8016 12.9345 16.6503 12.9345 15.2304C12.9345 15.0467 12.9136 14.868 12.8779 14.6952C12.8401 14.6983 12.8037 14.7073 12.7666 14.7082L11.4375 16.0375C11.1857 16.2877 10.8523 16.4255 10.4978 16.4255C10.1441 16.4255 9.80986 16.2877 9.55627 16.0355C9.03785 15.5171 9.03785 14.6729 9.55627 14.1534L10.8838 12.8267Z" fill="#00AEEF"/>
<path d="M24.8261 4.34985C24.789 4.23612 24.6906 4.15402 24.5725 4.13627L21.8662 3.75772L21.4568 1.02061C21.4382 0.902225 21.3566 0.804093 21.2429 0.766184C21.2105 0.755296 21.1767 0.75 21.1444 0.75C21.0612 0.75 20.9796 0.783201 20.9198 0.843277L18.0035 3.75875C17.9325 3.82942 17.9001 3.92995 17.9147 4.02843L18.1988 5.96822L11.9925 12.1748C11.7317 12.4355 11.6598 12.8011 11.7455 13.1349L10.141 14.7378C9.94402 14.9355 9.94402 15.2538 10.141 15.4509C10.2403 15.5494 10.3696 15.5987 10.4979 15.5987C10.627 15.5987 10.7563 15.5494 10.8547 15.4509L12.4583 13.8469C12.5471 13.8701 12.6374 13.8818 12.7278 13.8818C12.9782 13.8818 13.2269 13.7921 13.4175 13.6003L19.6239 7.3943L21.564 7.67889C21.5787 7.6808 21.5949 7.68202 21.6095 7.68202C21.6933 7.68202 21.774 7.64897 21.8338 7.58914L24.7485 4.67244C24.8342 4.58799 24.8648 4.46367 24.8261 4.34985Z" fill="#00AEEF"/>
</svg>
