<svg width="24" height="20" viewBox="0 0 24 20" fill="none" xmlns="http://www.w3.org/2000/svg">
<path d="M20.7942 19.268H19.3028V18.2556C19.3028 18.198 19.2557 18.1509 19.1981 18.1509C19.1403 18.1509 19.0934 18.198 19.0934 18.2556V19.268H17.2084V18.2556C17.2084 18.198 17.1613 18.1509 17.1037 18.1509C17.0459 18.1509 16.999 18.198 16.999 18.2556V19.268H15.1141V18.2556C15.1141 18.198 15.067 18.1509 15.0094 18.1509C14.9516 18.1509 14.9047 18.198 14.9047 18.2556V19.268H13.0197V18.2556C13.0197 18.198 12.9726 18.1509 12.915 18.1509C12.8572 18.1509 12.8103 18.198 12.8103 18.2556V19.268H10.9254V18.2556C10.9254 18.198 10.8785 18.1509 10.8207 18.1509C10.7629 18.1509 10.716 18.198 10.716 18.2556V19.268H8.83104V18.2556C8.83104 18.198 8.78413 18.1509 8.72632 18.1509C8.66852 18.1509 8.6216 18.198 8.6216 18.2556V19.268H6.73669V18.2556C6.73669 18.198 6.68977 18.1509 6.63197 18.1509C6.57417 18.1509 6.52725 18.198 6.52725 18.2556V19.268H4.64234V18.2556C4.64234 18.198 4.59542 18.1509 4.53762 18.1509C4.47982 18.1509 4.4329 18.198 4.4329 18.2556V19.268H0.628305V16.8945H1.4694C1.5272 16.8945 1.57411 16.8476 1.57411 16.7898C1.57411 16.732 1.5272 16.6851 1.4694 16.6851H0.628305V14.8001H1.4694C1.5272 14.8001 1.57411 14.7532 1.57411 14.6954C1.57411 14.6376 1.5272 14.5907 1.4694 14.5907H0.628305V12.7058H1.4694C1.5272 12.7058 1.57411 12.6589 1.57411 12.6011C1.57411 12.5433 1.5272 12.4964 1.4694 12.4964H0.628305V10.6114H1.4694C1.5272 10.6114 1.57411 10.5645 1.57411 10.5067C1.57411 10.4489 1.5272 10.402 1.4694 10.402H0.628305V8.51709H1.4694C1.5272 8.51709 1.57411 8.47018 1.57411 8.41238C1.57411 8.35457 1.5272 8.30766 1.4694 8.30766H0.628305V6.42274H1.4694C1.5272 6.42274 1.57411 6.37583 1.57411 6.31803C1.57411 6.26022 1.5272 6.21331 1.4694 6.21331H0.628305V4.32839H1.4694C1.5272 4.32839 1.57411 4.28148 1.57411 4.22368C1.57411 4.16587 1.5272 4.11896 1.4694 4.11896H0.628305V2.23404H1.4694C1.5272 2.23404 1.57411 2.18713 1.57411 2.12933C1.57411 2.07152 1.5272 2.02461 1.4694 2.02461H0.628305V0.314153C0.628305 0.14074 0.487565 0 0.314153 0C0.14074 0 0 0.14074 0 0.314153V19.5822C0 19.7556 0.14074 19.8963 0.314153 19.8963H20.7942C20.9676 19.8963 21.1083 19.7556 21.1083 19.5822C21.1083 19.4088 20.9676 19.268 20.7942 19.268Z" fill="#00AEEF"/>
<path d="M5.42357 2.84888H3.27686V17.0475H5.42357V2.84888Z" fill="#00AEEF"/>
<path d="M9.97874 9.5311C9.69768 9.16375 9.46981 8.76854 9.29556 8.35596H7.83203V17.0475H9.97874V9.5311Z" fill="#00AEEF"/>
<path d="M14.4817 11.6459C14.4121 11.6488 14.3426 11.6532 14.2731 11.6532C13.5991 11.6532 12.9453 11.5297 12.335 11.2961V17.0474H14.4817V11.6459Z" fill="#00AEEF"/>
<path d="M19.1941 12.9376L17.1284 10.8416C17.1018 10.8579 17.074 10.8721 17.0474 10.8878V17.0473H19.1941V12.9376Z" fill="#00AEEF"/>
<path d="M23.8236 15.11L18.027 9.22843C19.4805 7.35357 19.3511 4.63908 17.6302 2.91837C15.7649 1.05293 12.7294 1.05293 10.8635 2.91837C8.99829 4.78401 8.99829 7.81915 10.8635 9.685C12.5844 11.4059 15.2985 11.5352 17.1738 10.0819L22.9703 15.963C23.2059 16.1986 23.5875 16.1986 23.8232 15.9632C24.0592 15.7276 24.0592 15.3456 23.8236 15.11ZM16.7778 8.83197C15.3825 10.2272 13.1122 10.2274 11.717 8.83197C10.3217 7.43693 10.3219 5.16665 11.717 3.7716C13.1122 2.37656 15.3823 2.37614 16.7778 3.7716C18.173 5.16665 18.173 7.43693 16.7778 8.83197Z" fill="#00AEEF"/>
<path d="M14.4216 5.79002C13.8743 5.56362 13.716 5.42665 13.716 5.17867C13.716 4.98055 13.8611 4.74891 14.2699 4.74891C14.6547 4.74891 14.8968 4.88735 15.0002 4.94641C15.0266 4.9617 15.0585 4.96421 15.0876 4.95416C15.1165 4.94369 15.1391 4.92149 15.1502 4.8928L15.3056 4.4823C15.3238 4.43455 15.3048 4.38073 15.2606 4.35497C15.0379 4.22533 14.7898 4.15098 14.5049 4.12941V3.62571C14.5049 3.56791 14.458 3.521 14.4002 3.521H14.0153C13.9575 3.521 13.9106 3.56791 13.9106 3.62571V4.16668C13.3377 4.29318 12.9727 4.71184 12.9727 5.25323C12.9727 5.90646 13.4971 6.2026 14.0624 6.42502C14.5146 6.60786 14.6989 6.79405 14.6989 7.06673C14.6989 7.36811 14.4438 7.57063 14.0649 7.57063C13.7717 7.57063 13.4668 7.47974 13.2284 7.32141C13.2018 7.3034 13.1683 7.29921 13.1375 7.30905C13.1067 7.31889 13.0824 7.34277 13.072 7.37314L12.9229 7.78887C12.9071 7.83306 12.9224 7.88227 12.9608 7.9095C13.1786 8.0649 13.5254 8.17423 13.867 8.19789V8.72483C13.867 8.78264 13.9141 8.82955 13.9717 8.82955H14.3629C14.4207 8.82955 14.4676 8.78264 14.4676 8.72483V8.16543C15.058 8.03328 15.4491 7.58362 15.4491 7.02317C15.4489 6.45204 15.1414 6.08323 14.4216 5.79002Z" fill="#00AEEF"/>
</svg>
