<svg width="68" height="118" viewBox="0 0 68 118" fill="none" xmlns="http://www.w3.org/2000/svg">
<g clip-path="url(#clip0)">
<path d="M39.2475 5.04323C38.6133 5.04323 38.0944 4.52744 38.0944 3.89704V1.14619C38.0944 0.515784 38.6133 0 39.2475 0C39.8818 0 40.4007 0.515784 40.4007 1.14619V3.89704C40.4007 4.52744 39.9395 5.04323 39.2475 5.04323Z" fill="#00AEEF"/>
<path d="M42.1877 6.304C41.8994 6.304 41.6111 6.18939 41.3805 5.96015C40.9192 5.50167 40.9192 4.81396 41.3805 4.35549L43.3409 2.40697C43.8022 1.94849 44.4941 1.94849 44.9554 2.40697C45.4167 2.86544 45.4167 3.55315 44.9554 4.01163L42.995 5.96015C42.822 6.18939 42.5337 6.304 42.1877 6.304Z" fill="#00AEEF"/>
<path d="M46.2244 9.22682H43.4568C42.8225 9.22682 42.3036 8.71104 42.3036 8.08064C42.3036 7.45023 42.8225 6.93445 43.4568 6.93445H46.2244C46.8587 6.93445 47.3776 7.45023 47.3776 8.08064C47.3776 8.71104 46.8587 9.22682 46.2244 9.22682Z" fill="#00AEEF"/>
<path d="M44.206 14.0981C43.9177 14.0981 43.6294 13.9835 43.3988 13.7542L41.4384 11.8057C40.9771 11.3472 40.9771 10.6595 41.4384 10.201C41.8996 9.74256 42.5915 9.74256 43.0528 10.201L45.0132 12.1496C45.4745 12.608 45.4745 13.2957 45.0132 13.7542C44.7826 13.9835 44.4943 14.0981 44.206 14.0981Z" fill="#00AEEF"/>
<path d="M39.2475 16.104C38.6133 16.104 38.0944 15.5882 38.0944 14.9578V12.2069C38.0944 11.5765 38.6133 11.0607 39.2475 11.0607C39.8818 11.0607 40.4007 11.5765 40.4007 12.2069V14.9578C40.4007 15.5882 39.9395 16.104 39.2475 16.104Z" fill="#00AEEF"/>
<path d="M34.3468 14.0981C34.0585 14.0981 33.7702 13.9835 33.5396 13.7542C33.0783 13.2957 33.0783 12.608 33.5396 12.1496L35.5 10.201C35.9612 9.74256 36.6532 9.74256 37.1144 10.201C37.5757 10.6595 37.5757 11.3472 37.1144 11.8057L35.154 13.7542C34.9234 13.9835 34.6351 14.0981 34.3468 14.0981Z" fill="#00AEEF"/>
<path d="M35.0961 9.22682H32.3285C31.6942 9.22682 31.1753 8.71104 31.1753 8.08064C31.1753 7.45023 31.6942 6.93445 32.3285 6.93445H35.0961C35.7304 6.93445 36.2493 7.45023 36.2493 8.08064C36.2493 8.71104 35.7304 9.22682 35.0961 9.22682Z" fill="#00AEEF"/>
<path d="M36.3072 6.30406C36.0189 6.30406 35.7306 6.18944 35.5 5.96021L33.5396 3.95438C33.0783 3.4959 33.0783 2.80819 33.5396 2.34972C34.0008 1.89124 34.6927 1.89124 35.154 2.34972L37.1144 4.29823C37.5757 4.75671 37.5757 5.44442 37.1144 5.9029C36.9415 6.18944 36.6532 6.30406 36.3072 6.30406Z" fill="#00AEEF"/>
<path d="M28.1769 11.6338C29.2724 11.7484 30.0796 12.1496 30.8869 12.9519L29.7337 14.4419C29.1571 13.8115 28.5805 13.4677 27.8309 13.4677C27.0237 13.4677 26.3318 13.9835 26.3318 14.6712C26.3318 15.0723 26.5624 15.4162 27.0237 15.7027C27.1967 15.8174 27.5426 15.9893 28.2922 16.2758C29.3301 16.677 29.9643 17.0209 30.4256 17.4793C31.0022 17.9951 31.3481 18.7974 31.3481 19.6571C31.3481 21.491 30.1949 22.8091 28.2345 23.2676V25.0442H27.139V23.3249C25.5245 23.2676 24.256 22.5226 23.3335 21.2044L24.6597 19.8863C25.4669 20.9752 26.2741 21.4337 27.312 21.4337C28.2922 21.4337 29.0418 20.746 29.0418 19.8863C29.0418 19.1413 28.6958 18.7974 27.4273 18.2817C26.2741 17.8232 25.5822 17.4793 25.2362 17.1355C24.602 16.6197 24.1984 15.8174 24.1984 14.9004C24.1984 13.8115 24.775 12.7227 25.6399 12.1496C26.1011 11.863 26.4471 11.7484 27.139 11.6338V9.9718H28.2345V11.6338H28.1769Z" fill="#00AEEF"/>
<path d="M15.5502 38.1107C15.8962 38.3973 16.2998 38.6838 16.7034 38.9704C16.5304 39.6581 16.4151 40.3458 16.4151 41.0908H18.1449C18.2025 40.5177 18.2602 39.9446 18.4332 39.3715C18.6061 38.7411 18.3755 38.0534 17.8566 37.6523C17.5106 37.3657 17.107 37.0792 16.761 36.7926L17.8566 34.9587C18.2602 35.1306 18.7215 35.3026 19.1251 35.4745C19.7593 35.7037 20.4512 35.5891 20.9125 35.1306C21.4314 34.6149 22.0657 34.1564 22.6999 33.7552C23.2765 33.4114 23.5648 32.781 23.5072 32.1506C23.4495 31.6921 23.3919 31.2336 23.3342 30.7751L25.4099 30.202C25.5829 30.6032 25.7559 31.0617 25.9289 31.4628C26.1595 32.0932 26.7361 32.4371 27.428 32.4944C28.1776 32.4944 28.9271 32.609 29.6767 32.781C30.311 32.9529 31.0029 32.7237 31.4065 32.2079C31.6948 31.864 31.9831 31.4628 32.2714 31.119L34.1165 32.2079C33.9435 32.609 33.7705 33.0675 33.5975 33.4687C33.3669 34.0991 33.4822 34.7868 33.9435 35.2453C34.4624 35.761 34.9237 36.3914 35.3273 37.0219C35.6733 37.5949 36.3075 37.8815 36.9418 37.8242C37.403 37.7669 37.8643 37.7096 38.3256 37.6523L38.9022 39.7154C38.4986 39.8873 38.0373 40.0592 37.6337 40.2312C37.2301 40.4031 36.9418 40.6897 36.7688 41.0335H39.9977C40.5166 40.6323 40.8049 39.9446 40.632 39.3142L40.0554 37.0792C39.8247 36.3341 39.0752 35.8184 38.3256 35.8757C37.8643 35.933 37.3454 35.9903 36.8841 36.0476C36.4805 35.3026 35.9616 34.6722 35.3273 34.0418C35.5003 33.5833 35.6733 33.1248 35.8462 32.7236C36.1345 31.9786 35.8462 31.119 35.1543 30.7178L33.1363 29.5716C32.4443 29.1705 31.5218 29.3424 31.0605 29.9728C30.7722 30.3167 30.4839 30.7178 30.1956 31.119C29.3884 30.8898 28.5235 30.7751 27.7163 30.7751C27.5433 30.3167 27.3703 29.8582 27.1397 29.457C26.8514 28.712 25.9865 28.3108 25.2369 28.5401L22.9882 29.1132C22.2387 29.3424 21.7197 30.0874 21.7774 30.8324C21.8351 31.2909 21.8927 31.8067 21.9504 32.2652C21.2008 32.6663 20.5665 33.1821 19.9323 33.8125C19.471 33.6406 19.0098 33.4687 18.6061 33.2967C17.8566 33.0102 16.9917 33.2967 16.5881 33.9845L15.4349 35.9903C14.8006 36.7353 14.9159 37.5949 15.5502 38.1107Z" fill="#00AEEF"/>
<path d="M39.8825 41.3774H36.077L36.2499 40.9762C36.4806 40.5177 36.8265 40.1739 37.2878 40.002C37.6338 39.83 37.9797 39.7154 38.3257 39.5435L37.9221 37.9388C37.5761 37.9961 37.1725 38.0534 36.7689 38.0534C36.0193 38.1681 35.2697 37.7669 34.8661 37.1365C34.5202 36.5061 34.0589 35.933 33.54 35.4172C33.021 34.8441 32.848 34.0418 33.1363 33.3541C33.3093 33.0102 33.4246 32.6664 33.54 32.3225L32.0985 31.5202C31.8678 31.8067 31.6372 32.0933 31.4066 32.3798C30.9453 33.0102 30.1381 33.2395 29.3885 33.0675C28.6966 32.8956 27.947 32.781 27.2551 32.781C26.5055 32.781 25.8136 32.3225 25.5253 31.5775C25.41 31.2336 25.237 30.8898 25.064 30.5459L23.4496 30.9471C23.5073 31.2909 23.5649 31.6921 23.5649 32.036C23.6802 32.781 23.2766 33.526 22.6424 33.9272C22.0081 34.271 21.4315 34.7295 20.9126 35.2453C20.336 35.7611 19.5288 35.933 18.8369 35.6464C18.4909 35.4745 18.1449 35.3599 17.799 35.2453L16.9918 36.678C17.2801 36.9073 17.5684 37.1365 17.8566 37.3657C18.4909 37.8242 18.7215 38.6265 18.5486 39.3716C18.4332 39.8873 18.3179 40.4604 18.2603 41.0335V41.3201H15.9539V41.0335C16.0116 40.3458 16.0692 39.7154 16.2422 39.085C15.8962 38.8558 15.5503 38.5692 15.262 38.2827C14.5124 37.7096 14.3394 36.678 14.8007 35.8184L15.9539 33.8125C16.4152 33.0102 17.453 32.6664 18.3179 33.0102C18.7215 33.1821 19.1252 33.2968 19.4711 33.4687C19.99 32.9529 20.6243 32.4944 21.2009 32.1506C21.1432 31.7494 21.0856 31.2909 21.0279 30.8898C20.9126 29.9728 21.5468 29.0559 22.4117 28.8266L24.6604 28.2535C25.583 28.0243 26.5632 28.4828 26.9091 29.3424C27.0821 29.7436 27.2551 30.0874 27.4281 30.4886C28.1776 30.4886 28.9272 30.6032 29.6191 30.7751C29.8498 30.4313 30.1381 30.0874 30.4264 29.8009C31.0029 29.0559 32.0408 28.8839 32.9057 29.3424L34.9238 30.4886C35.731 30.9471 36.077 31.9786 35.731 32.8383C35.558 33.2395 35.4427 33.5833 35.2697 33.9845C35.7887 34.5003 36.2499 35.1307 36.5959 35.7611C36.9995 35.7038 37.4608 35.6464 37.8644 35.5891C38.7869 35.4745 39.7095 36.1049 39.9401 36.9646L40.5167 39.1996C40.6897 39.9446 40.4014 40.747 39.8248 41.2055L39.8825 41.3774ZM37.1148 40.8043H39.7095C40.1131 40.4604 40.2861 39.9446 40.1131 39.4289L39.5365 37.1938C39.3635 36.5634 38.7293 36.1622 38.095 36.2195C37.6338 36.2768 37.1725 36.3342 36.6536 36.3915H36.4806L36.3653 36.2195C35.9616 35.5318 35.4427 34.8441 34.8661 34.271L34.7508 34.1564L34.8085 33.9845C34.9814 33.526 35.1544 33.0675 35.3274 32.6664C35.558 32.036 35.3274 31.3482 34.7508 31.0044L32.7327 29.8582C32.1561 29.5143 31.4066 29.6863 31.0029 30.2021C30.7147 30.5459 30.4264 30.9471 30.1381 31.3482L30.0804 31.4629L29.9074 31.4056C29.1002 31.1763 28.293 31.119 27.4857 31.0617H27.3128L27.1974 30.9471C27.0245 30.4886 26.8515 30.0874 26.6208 29.629C26.3326 29.0559 25.6983 28.712 25.064 28.8839L22.8153 29.457C22.1811 29.629 21.7775 30.2594 21.8351 30.8898C21.8928 31.3482 21.9505 31.8067 22.0081 32.3225V32.4944L21.8351 32.609C21.1432 33.0102 20.4513 33.526 19.8747 34.0991L19.7594 34.2137L19.5864 34.1564C19.1252 33.9845 18.6639 33.8125 18.2603 33.6406C17.626 33.4114 16.9341 33.6406 16.5881 34.2137L15.435 36.2195C15.089 36.7926 15.262 37.5377 15.7809 37.9388C16.1269 38.2254 16.5305 38.5119 16.9341 38.7985L17.1071 38.9131L17.0494 39.085C16.8764 39.6581 16.8188 40.2312 16.7611 40.8043H17.9143C17.972 40.2885 18.0296 39.7727 18.2026 39.2569C18.3179 38.7412 18.1449 38.1681 17.7413 37.8815C17.3954 37.595 16.9918 37.3084 16.6458 37.0219L16.4728 36.8499L17.799 34.5576L18.0296 34.6722C18.4332 34.8441 18.8945 35.016 19.2981 35.188C19.8171 35.4172 20.3937 35.3026 20.7396 34.9014C21.3162 34.3856 21.8928 33.8699 22.5847 33.526C23.046 33.2395 23.2766 32.7237 23.219 32.2079C23.1613 31.7494 23.1036 31.2909 23.046 30.8325V30.6032L25.583 29.9155L25.6983 30.1447C25.8713 30.5459 26.0443 31.0044 26.2172 31.4056C26.4479 31.9213 26.9091 32.2079 27.4281 32.2079C28.1776 32.2079 28.9849 32.3225 29.7344 32.4944C30.2534 32.609 30.83 32.4371 31.1183 32.036C31.4066 31.6921 31.6949 31.2909 31.9832 30.9471L32.1561 30.7751L34.4625 32.0933L34.3472 32.3225C34.1742 32.7237 34.0012 33.1821 33.8282 33.5833C33.5976 34.0991 33.7129 34.6722 34.1165 35.016C34.6355 35.5891 35.1544 36.1622 35.5004 36.8499C35.7887 37.3084 36.3076 37.5377 36.8265 37.4803C37.2878 37.423 37.7491 37.3657 38.2103 37.3084H38.441L39.1329 39.83L38.9023 39.9446C38.4986 40.1166 38.0374 40.2885 37.6338 40.4604C37.4031 40.575 37.2301 40.6897 37.1148 40.8043Z" fill="#00AEEF"/>
<path d="M43.6295 35.933L44.8403 36.1049C44.898 35.8184 45.0133 35.5891 45.071 35.3026C45.2439 34.7868 45.6476 34.3856 46.2241 34.3283C46.7431 34.271 47.262 34.0991 47.7809 33.9272C48.2999 33.6979 48.8765 33.8699 49.2801 34.2137C49.4531 34.3856 49.6837 34.6149 49.8567 34.7868L50.8369 34.0418C50.7216 33.8126 50.5486 33.5833 50.4333 33.2968C50.145 32.8383 50.2026 32.2079 50.5486 31.8067C50.8945 31.4056 51.1252 30.9471 51.3558 30.4313C51.5865 29.9155 52.0477 29.5717 52.6243 29.629C52.9126 29.629 53.2009 29.629 53.4892 29.629L53.6622 28.4255C53.3739 28.3682 53.1432 28.2535 52.855 28.1962C52.336 28.0243 51.9324 27.6231 51.8747 27.05C51.8171 26.5343 51.6441 26.0185 51.4711 25.5027C51.2405 24.9869 51.3558 24.4138 51.7594 24.0127C51.9324 23.8407 52.163 23.6115 52.336 23.4396L51.5865 22.4653C51.3558 22.5799 51.1252 22.7518 50.8369 22.8665C50.3756 23.153 49.7414 23.0957 49.3377 22.7518C48.9341 22.408 48.4729 22.1788 47.9539 21.9495C47.435 21.7203 47.089 21.2618 47.1467 20.6887C47.1467 20.4022 47.1467 20.1156 47.1467 19.8291L45.9358 19.6571C45.8782 19.9437 45.7629 20.1729 45.7052 20.4595C45.5322 20.9753 45.1286 21.3764 44.552 21.4337C44.0331 21.491 43.5142 21.663 42.9952 21.8349C42.4763 22.0641 41.8997 21.8922 41.4961 21.5483C41.3231 21.3764 41.0925 21.1472 40.9195 20.9753L39.8816 21.7776C39.997 22.0068 40.1699 22.2361 40.2852 22.5226C40.5735 22.9811 40.5159 23.6115 40.1699 24.0127C39.824 24.4138 39.5933 24.8723 39.3627 25.3881C39.1321 25.9039 38.6708 26.2477 38.0942 26.1904C37.8059 26.1904 37.5176 26.1904 37.287 26.1904L37.114 27.3939C37.4023 27.4512 37.6329 27.5658 37.9212 27.6231C38.4402 27.7951 38.8438 28.1962 38.9014 28.7693C38.9591 29.2851 39.1321 29.8009 39.305 30.3167C39.5357 30.8325 39.4204 31.4056 39.0167 31.8067C38.8438 31.9787 38.6131 32.2079 38.4402 32.3798L39.1897 33.3541C39.4204 33.2395 39.651 33.0675 39.9393 32.9529C40.4006 32.6664 41.0348 32.7237 41.4384 33.0675C41.842 33.4114 42.3033 33.6406 42.8223 33.8699C43.3412 34.0991 43.6871 34.5576 43.6871 35.1307C43.6295 35.3599 43.6295 35.6465 43.6295 35.933ZM44.898 37.7669L43.2259 37.5377C42.534 37.423 42.015 36.8499 42.015 36.2195C42.015 35.933 42.015 35.5891 42.015 35.3026C41.4961 35.0734 41.0348 34.7868 40.6312 34.5003C40.3429 34.6722 40.1123 34.7868 39.824 34.9587C39.2474 35.3026 38.4978 35.1307 38.0942 34.6149L36.9987 33.1822C36.5951 32.6664 36.6527 31.864 37.114 31.4056C37.3446 31.1763 37.5176 30.9471 37.7482 30.7752C37.5753 30.2594 37.4023 29.7436 37.3446 29.2278C37.0563 29.1705 36.768 29.0559 36.4797 28.9986C35.8455 28.8266 35.3842 28.1962 35.4995 27.5085L35.7302 25.8465C35.8455 25.1588 36.4221 24.6431 37.0563 24.6431C37.3446 24.6431 37.6906 24.6431 37.9789 24.6431C38.2095 24.1273 38.4978 23.6688 38.7861 23.2676C38.6131 22.9811 38.4978 22.7518 38.3248 22.4653C37.9789 21.8922 38.1519 21.1472 38.6708 20.746L39.997 19.7144C40.5159 19.3133 41.3231 19.3706 41.7844 19.8291C42.015 20.0583 42.2457 20.2302 42.4186 20.4595C42.9376 20.2875 43.4565 20.1156 43.9754 20.0583C44.0331 19.7718 44.1484 19.4852 44.2061 19.1987C44.3791 18.5683 45.0133 18.1098 45.7052 18.2244L47.3773 18.4536C48.0692 18.5683 48.5882 19.1414 48.5882 19.7718C48.5882 20.0583 48.5882 20.4022 48.5882 20.6887C49.1071 20.9179 49.5684 21.2045 49.972 21.491C50.2603 21.3191 50.4909 21.2045 50.7792 21.0326C51.3558 20.6887 52.1054 20.8606 52.509 21.3764L53.5469 22.6945C53.9505 23.2103 53.8928 24.0127 53.4315 24.4711C53.2009 24.7004 53.0279 24.9296 52.7973 25.1015C52.9703 25.6173 53.1432 26.1331 53.2009 26.6489C53.4892 26.7062 53.7775 26.8208 54.0658 26.8781C54.7 27.05 55.1613 27.6805 55.046 28.3682L54.8154 30.0301C54.7 30.7178 54.1235 31.2336 53.4892 31.2336C53.2009 31.2336 52.855 31.2336 52.5667 31.2336C52.336 31.7494 52.0477 32.2079 51.7594 32.6091C51.9324 32.8956 52.0477 33.1248 52.2207 33.4114C52.5667 33.9845 52.3937 34.7295 51.8747 35.1307L50.5486 36.1622C50.0297 36.5634 49.2224 36.5061 48.7612 36.0476C48.5305 35.8184 48.2999 35.6465 48.1269 35.4172C47.608 35.5891 47.089 35.7611 46.5701 35.8184C46.5124 36.1049 46.3971 36.3915 46.3395 36.678C46.2241 37.423 45.5322 37.8242 44.898 37.7669Z" fill="#00AEEF"/>
<path d="M45.0712 37.9961C45.0135 37.9961 44.9559 37.9961 44.8406 37.9961L43.1684 37.7669C42.4189 37.6523 41.7846 37.0219 41.7846 36.2196C41.7846 35.933 41.7846 35.7038 41.7846 35.4172C41.381 35.2453 40.9774 34.9587 40.5738 34.7295C40.3431 34.8441 40.1125 35.0161 39.8819 35.1307C39.19 35.4745 38.3251 35.3026 37.8638 34.7295L36.8259 33.4114C36.3647 32.781 36.4223 31.9214 36.9412 31.3483C37.1142 31.1763 37.2872 30.9471 37.5178 30.7752C37.3449 30.3167 37.2295 29.9155 37.1719 29.457C36.9412 29.3997 36.6529 29.3424 36.4223 29.2278C35.6727 28.9986 35.2115 28.2536 35.2691 27.5085L35.4998 25.8466C35.6151 25.1015 36.2493 24.4711 37.0566 24.4711C37.2872 24.4711 37.5755 24.4711 37.8638 24.4711C38.0368 24.07 38.3251 23.6688 38.5557 23.2676C38.4404 23.0384 38.2674 22.8092 38.1521 22.5799C37.7485 21.8922 37.9791 21.0326 38.5557 20.5741L39.8819 19.5425C40.5161 19.084 41.381 19.1414 41.9576 19.6571C42.1306 19.8291 42.3612 20.001 42.5342 20.2302C42.9955 20.0583 43.3991 19.9437 43.8603 19.8864C43.918 19.6571 43.9757 19.3706 44.091 19.1414C44.3216 18.3963 45.0712 17.9379 45.8208 17.9952L47.4929 18.2244C48.2424 18.339 48.8767 18.9694 48.8767 19.7718C48.8767 20.0583 48.8767 20.2875 48.8767 20.5741C49.2803 20.746 49.6839 21.0326 50.0875 21.2618C50.3182 21.1472 50.5488 20.9753 50.7795 20.8606C51.4714 20.4595 52.3363 20.6887 52.7975 21.2618L53.8354 22.5799C54.2967 23.2103 54.239 24.07 53.7201 24.6431C53.5471 24.815 53.3741 25.0442 53.1435 25.2162C53.3165 25.6746 53.4318 26.0758 53.4894 26.5343C53.7201 26.5916 54.0084 26.6489 54.239 26.7635C54.9886 26.9927 55.4498 27.7378 55.3922 28.4828L55.1616 30.1448C55.0462 30.8898 54.412 31.5202 53.6048 31.5202C53.3165 31.5202 53.0858 31.5202 52.7975 31.5202C52.6245 31.9214 52.3362 32.3225 52.1056 32.7237C52.2209 32.9529 52.3939 33.1822 52.5092 33.4114C52.9128 34.0991 52.6822 34.9587 52.1056 35.4172L50.7795 36.4488C50.1452 36.9073 49.2803 36.85 48.7037 36.3342C48.5307 36.1622 48.3001 35.9903 48.1271 35.7611C47.6659 35.933 47.2622 36.0476 46.801 36.1049C46.7433 36.3342 46.6856 36.6207 46.5703 36.85C46.3974 37.4804 45.7631 37.9961 45.0712 37.9961ZM44.8982 37.5377C45.4748 37.595 45.9937 37.2511 46.1667 36.7353C46.2244 36.4488 46.3397 36.1622 46.3974 35.8757L46.455 35.7611H46.5703C47.0893 35.7038 47.6082 35.5318 48.1271 35.3599L48.2424 35.3026L48.3578 35.4172C48.5884 35.6465 48.819 35.8757 48.992 36.0476C49.3956 36.4488 50.0299 36.5061 50.4912 36.1622L51.8173 35.1307C52.2786 34.7868 52.3939 34.1564 52.1056 33.6406C51.9326 33.3541 51.8173 33.1248 51.6443 32.8383L51.5867 32.7237L51.6443 32.6091C51.9326 32.2079 52.2209 31.7494 52.4516 31.2336L52.5092 31.119H52.6245C52.9128 31.119 53.2588 31.119 53.5471 31.119C54.1237 31.119 54.585 30.6605 54.7003 30.1448L54.9309 28.4828C54.9886 27.9097 54.6426 27.3939 54.1237 27.222C53.8354 27.1647 53.5471 27.0501 53.2588 26.9927L53.1435 26.8208V26.7062C53.0858 26.1904 52.9128 25.6746 52.7399 25.1588L52.6822 25.0442L52.7975 24.9296C53.0282 24.7004 53.2588 24.4711 53.4318 24.2992C53.8354 23.898 53.8354 23.2676 53.4894 22.8092L52.4516 21.491C52.1056 21.0326 51.4714 20.918 50.9524 21.2045C50.6641 21.3764 50.4335 21.491 50.1452 21.663L50.0299 21.7203L49.9146 21.663C49.511 21.3764 49.0497 21.0899 48.5307 20.8606L48.4154 20.8033V20.6887C48.4154 20.4022 48.4154 20.0583 48.4154 19.7718C48.4154 19.1987 47.9542 18.7402 47.4352 18.6256L45.7631 18.3963C45.1865 18.339 44.6676 18.6829 44.4946 19.1987C44.4369 19.4852 44.3216 19.7718 44.264 20.0583L44.2063 20.1729H44.091C43.5721 20.2302 43.0531 20.4022 42.5342 20.5741L42.4189 20.6314L42.3035 20.5168C42.0729 20.2875 41.8423 20.0583 41.6693 19.8864C41.2657 19.4852 40.6314 19.4279 40.1702 19.7718L38.844 20.8033C38.3827 21.1472 38.2674 21.7776 38.5557 22.2934C38.7287 22.5799 38.844 22.8092 39.017 23.0957L39.0746 23.2103L39.017 23.3249C38.7287 23.7261 38.4404 24.1846 38.2097 24.7004L38.1521 24.815H38.0368C37.7485 24.815 37.4025 24.815 37.1142 24.815C36.5376 24.815 36.0764 25.2735 35.961 25.7892L35.6727 27.5085C35.6151 28.0816 35.961 28.5974 36.48 28.7693C36.7683 28.8266 37.0566 28.9413 37.3449 28.9986L37.4602 29.0559V29.1705C37.5178 29.6863 37.6908 30.2021 37.8638 30.7179L37.9214 30.8325L37.8061 30.9471C37.5755 31.1763 37.3449 31.4056 37.1719 31.5775C36.7683 31.9787 36.7106 32.6091 37.0566 33.0675L38.0944 34.3857C38.4404 34.8441 39.0746 34.9587 39.5936 34.6722C39.8819 34.5003 40.1125 34.3857 40.4008 34.2137L40.5161 34.1564L40.6314 34.2137C41.035 34.5003 41.4963 34.7868 42.0153 35.0161L42.1306 35.0734V35.188C42.1306 35.4745 42.1306 35.8184 42.1306 36.1049C42.1306 36.678 42.5918 37.1365 43.1108 37.2511L44.8982 37.5377ZM45.0135 36.3342L43.4567 36.1049V35.933C43.4567 35.6465 43.4567 35.3599 43.4567 35.0734C43.4567 34.6149 43.1684 34.2137 42.7648 33.9845C42.2459 33.7553 41.7846 33.4687 41.3233 33.1822C40.9774 32.8956 40.4585 32.8956 40.0548 33.1248C39.8242 33.2395 39.5936 33.4114 39.3053 33.526L39.1323 33.6406L38.1521 32.3798L38.2674 32.2652C38.4404 32.0933 38.671 31.864 38.844 31.6921C39.19 31.3483 39.3053 30.8898 39.1323 30.4313C38.9017 29.9155 38.7863 29.3997 38.7287 28.884C38.671 28.4255 38.3251 28.0243 37.8638 27.9097C37.5755 27.8524 37.3449 27.7378 37.0566 27.6805L36.8836 27.6231L37.1142 26.0758H37.2872C37.5755 26.0758 37.8638 26.0758 38.1521 26.0758C38.6134 26.0758 39.017 25.7892 39.2476 25.3881C39.4782 24.8723 39.7089 24.4138 40.0548 23.9553C40.3431 23.6115 40.3431 23.0957 40.1125 22.6945C39.9972 22.4653 39.8242 22.2361 39.7089 21.9495L39.5936 21.7776L40.8621 20.8033L41.035 20.9753C41.208 21.1472 41.381 21.3191 41.554 21.491C41.8999 21.8349 42.3612 21.9495 42.8225 21.7203C43.3414 21.491 43.8603 21.3764 44.3793 21.3191C44.8406 21.2618 45.2442 20.918 45.3595 20.4595C45.4171 20.1729 45.5325 19.9437 45.5901 19.6571L45.6478 19.4852L47.2046 19.7145V19.8864C47.2046 20.1729 47.2046 20.4595 47.2046 20.746C47.2046 21.2045 47.4929 21.6057 47.8965 21.8349C48.4154 22.0641 48.8767 22.3507 49.338 22.6372C49.6839 22.9238 50.2029 22.9238 50.6065 22.6945C50.8371 22.5799 51.0677 22.408 51.356 22.2934L51.529 22.1788L52.5092 23.4396L52.3939 23.5542C52.2209 23.7261 51.9903 23.9553 51.8173 24.1273C51.4714 24.4711 51.356 24.9296 51.5867 25.3881C51.8173 25.9039 51.9326 26.4197 51.9903 26.9354C52.048 27.3939 52.3939 27.7951 52.8552 27.9097C53.1435 27.967 53.3741 28.0816 53.6624 28.1389L53.8354 28.1962L53.6048 29.8009H53.4318C53.1435 29.8009 52.8552 29.8009 52.5669 29.8009C52.1056 29.8009 51.702 30.0875 51.4714 30.4886C51.2407 31.0044 50.9524 31.4629 50.6641 31.9214C50.3758 32.2652 50.3758 32.781 50.6065 33.1822L50.6641 33.2968C50.7794 33.526 50.8948 33.6979 51.0101 33.9272L51.1254 34.0991L49.8569 35.0734L49.6839 34.9014C49.5109 34.7295 49.2803 34.5003 49.1073 34.3283C48.7614 33.9845 48.3001 33.8699 47.8388 34.0991C47.3199 34.3283 46.801 34.443 46.282 34.5003C45.8208 34.5576 45.4171 34.9014 45.3018 35.3599C45.2442 35.6465 45.1289 35.8757 45.0712 36.1622L45.0135 36.3342ZM43.8603 35.7611L44.7252 35.8757C44.7829 35.6465 44.8406 35.4745 44.8982 35.2453C45.0712 34.6149 45.5901 34.1564 46.2244 34.0991C46.7433 34.0418 47.2046 33.8699 47.7235 33.6979C48.3001 33.4687 48.992 33.5833 49.4533 34.0418C49.6263 34.2137 49.7416 34.3283 49.9146 34.5003L50.6065 33.9845C50.5488 33.8126 50.4335 33.6979 50.3758 33.526L50.3182 33.4114C49.9722 32.8383 50.0299 32.1506 50.4335 31.6921C50.7218 31.2909 51.0101 30.8325 51.1831 30.374C51.4137 29.8009 51.9903 29.3997 52.6245 29.3997C52.6822 29.3997 52.7399 29.3997 52.7975 29.3997C52.9705 29.3997 53.0858 29.3997 53.2588 29.3997L53.3741 28.5401C53.1435 28.4828 52.9705 28.4255 52.7399 28.3682C52.1056 28.1962 51.6443 27.6805 51.5867 27.0501C51.529 26.5343 51.356 26.0758 51.1831 25.56C50.9524 24.9869 51.0677 24.2992 51.529 23.8407C51.702 23.6688 51.8173 23.5542 51.9903 23.3823L51.4137 22.7519C51.2407 22.8665 51.0101 22.9811 50.8371 23.0957C50.2605 23.4396 49.5686 23.3823 49.1073 22.9811C48.7037 22.6945 48.2424 22.408 47.7812 22.2361C47.2046 22.0068 46.801 21.4337 46.801 20.746C46.801 20.5168 46.801 20.3449 46.801 20.1156L45.9361 20.001C45.8784 20.2302 45.8208 20.4022 45.7631 20.6314C45.6478 21.2045 45.1289 21.663 44.4946 21.7776C43.9757 21.8349 43.5144 22.0068 42.9955 22.1788C42.4189 22.408 41.727 22.2934 41.2657 21.8349C41.0927 21.663 40.9774 21.5484 40.8044 21.3764L40.1125 21.8922C40.2278 22.0641 40.3431 22.2361 40.4585 22.4653C40.8044 23.0384 40.7468 23.7261 40.3431 24.1846C40.0548 24.5858 39.7665 25.0442 39.5936 25.5027C39.3629 26.0758 38.7863 26.477 38.1521 26.477C38.0944 26.477 38.0944 26.477 38.0368 26.477C37.8638 26.477 37.6908 26.477 37.5178 26.477L37.4025 27.3366C37.6332 27.3939 37.8061 27.4512 38.0368 27.5085C38.671 27.6805 39.1323 28.1962 39.19 28.8266C39.2476 29.3424 39.3629 29.8009 39.5936 30.3167C39.8242 30.8898 39.7089 31.5775 39.2476 32.036C39.0746 32.2079 38.9593 32.3225 38.7863 32.4944L39.3053 33.1822C39.4782 33.0675 39.6512 32.9529 39.8819 32.8383C40.4585 32.4944 41.1504 32.5518 41.6693 32.9529C42.0729 33.2395 42.5342 33.526 42.9955 33.6979C43.5721 33.9272 43.9757 34.5003 43.9757 35.188C43.8603 35.3026 43.8603 35.5318 43.8603 35.7611Z" fill="#00AEEF"/>
<path d="M22.0082 41.8931C21.8929 41.8931 21.7776 41.8931 21.6622 41.8358C20.9127 41.6639 20.3937 40.9189 20.5667 40.1165C21.3163 36.7353 24.6605 34.4429 28.1201 34.9014C28.9273 35.016 29.4462 35.7037 29.3309 36.5061C29.2156 37.3084 28.5237 37.8242 27.7165 37.7095C25.7561 37.423 23.7956 38.7984 23.392 40.6896C23.2767 41.4347 22.6425 41.8931 22.0082 41.8931Z" fill="#00AEEF"/>
<path d="M44.8988 32.3225C44.8411 32.3225 44.7835 32.3225 44.7258 32.3225C43.5726 32.1506 42.5348 31.5775 41.7852 30.6032C41.0933 29.6863 40.7473 28.4828 40.9203 27.3366C41.0933 26.1904 41.6699 25.1589 42.6501 24.4138C43.5726 23.7261 44.7835 23.3823 45.9366 23.5542C47.0898 23.7261 48.1277 24.2992 48.8773 25.2735C49.5692 26.1904 49.9151 27.3939 49.7422 28.5401C49.6268 29.4571 49.2232 30.2594 48.589 30.9471C48.1277 31.4056 47.4358 31.4629 46.9745 31.0044C46.5132 30.5459 46.4556 29.8582 46.9169 29.3997C47.2051 29.0559 47.4358 28.6547 47.4934 28.2536C47.5511 27.6805 47.4358 27.1647 47.0898 26.7062C46.7439 26.2477 46.2249 25.9612 45.706 25.9039C45.1294 25.8466 44.6105 25.9612 44.1492 26.305C43.6879 26.6489 43.3996 27.1647 43.342 27.6805C43.2843 28.1962 43.3996 28.7693 43.7456 29.2278C44.0916 29.6863 44.6105 29.9728 45.1294 30.0301C45.7637 30.0875 46.2249 30.7179 46.1096 31.291C45.9943 31.864 45.4754 32.3225 44.8988 32.3225Z" fill="#00AEEF"/>
<path d="M34.6347 84.3594C22.5839 84.3594 12.7819 70.0321 12.7819 52.3808C12.7819 48.4264 13.2431 44.5867 14.2233 40.9189C14.3963 40.2885 14.9729 39.83 15.6072 39.83H53.6622C54.2965 39.83 54.8731 40.2885 55.0461 40.9189C56.0263 44.5867 56.4875 48.4264 56.4875 52.3808C56.5452 69.9747 46.7431 84.3594 34.6347 84.3594ZM16.7603 42.6955C16.0108 45.7902 15.6648 49.0568 15.6648 52.3808C15.6648 68.4274 24.1984 81.4939 34.6347 81.4939C45.1287 81.4939 53.6046 68.4274 53.6046 52.3808C53.6046 49.0568 53.2586 45.7902 52.5091 42.6955H16.7603Z" fill="#00AEEF"/>
<path d="M29.2148 77.3103C28.8689 77.3103 28.5806 77.1957 28.2923 76.9665C22.3534 72.2098 18.8362 64.4157 18.3172 55.017C18.2596 54.2146 18.8938 53.5269 19.7011 53.5269C20.5083 53.4696 21.2002 54.1 21.2002 54.9024C21.6615 63.4988 24.8327 70.5478 30.1374 74.7887C30.7716 75.3045 30.8293 76.1641 30.368 76.7945C30.0797 77.1384 29.6761 77.3103 29.2148 77.3103Z" fill="#00AEEF"/>
<path d="M19.7016 52.4954C18.8367 52.4954 18.2601 51.8077 18.2601 51.0054C18.3178 48.9995 18.4908 47.051 18.7791 45.1025C18.8944 44.3002 19.644 43.7844 20.4512 43.899C21.2584 44.0136 21.7773 44.7587 21.662 45.561C21.3737 47.3949 21.2008 49.2288 21.1431 51.12C21.1431 51.9223 20.5088 52.4954 19.7016 52.4954Z" fill="#00AEEF"/>
<path d="M45.4743 103.501H23.7945C23.3332 103.501 22.9296 103.271 22.6413 102.928C22.353 102.584 22.2953 102.125 22.353 101.724C23.6215 96.6236 26.2161 92.44 29.4451 90.3196C29.6757 90.1476 29.964 90.0903 30.2523 90.0903H38.9588C39.2471 90.0903 39.5354 90.1476 39.7661 90.3196C43.0526 92.44 45.6473 96.5663 46.8581 101.724C46.9735 102.125 46.8581 102.584 46.5698 102.928C46.3392 103.271 45.9356 103.501 45.4743 103.501ZM25.6972 100.635H43.5716C42.476 97.1967 40.6886 94.5032 38.5552 92.9558H30.7712C28.5802 94.5032 26.7927 97.1967 25.6972 100.635Z" fill="#00AEEF"/>
<path d="M39.2483 92.9558H30.3111C29.5039 92.9558 28.8696 92.3254 28.8696 91.5231V82.6401C28.8696 81.8378 29.5039 81.2074 30.3111 81.2074H39.3059C40.1132 81.2074 40.7474 81.8378 40.7474 82.6401V91.5231C40.6898 92.3254 40.0555 92.9558 39.2483 92.9558ZM31.7526 90.0904H37.8645V84.0729H31.7526V90.0904Z" fill="#00AEEF"/>
<path d="M50.722 118H19.0671C18.2599 118 17.6256 117.37 17.6256 116.567V102.068C17.6256 101.266 18.2599 100.635 19.0671 100.635H50.722C51.5292 100.635 52.1635 101.266 52.1635 102.068V116.567C52.1635 117.37 51.5292 118 50.722 118ZM20.5086 115.135H49.2805V103.501H20.5086V115.135Z" fill="#00AEEF"/>
<path d="M38.671 113.014H27.3121C26.5049 113.014 25.8706 112.384 25.8706 111.581V106.997C25.8706 106.194 26.5049 105.564 27.3121 105.564H42.4765C43.2837 105.564 43.9179 106.194 43.9179 106.997V109.289C43.9179 110.091 43.2837 110.722 42.4765 110.722C41.6692 110.722 41.035 110.091 41.035 109.289V108.429H28.7536V110.149H38.671C39.4782 110.149 40.1124 110.779 40.1124 111.581C40.1124 112.384 39.4205 113.014 38.671 113.014Z" fill="#00AEEF"/>
<path d="M53.7208 65.5046C52.9136 65.5046 52.2793 64.8742 52.2793 64.0719C52.2793 63.2696 52.9136 62.6392 53.7208 62.6392C62.4274 62.5818 64.5607 52.2089 64.7337 42.9247H53.6632C52.8559 42.9247 52.2217 42.2943 52.2217 41.492C52.2217 40.6897 52.8559 40.0593 53.6632 40.0593H66.2329C67.0401 40.0593 67.6743 40.6897 67.6743 41.492C67.6743 61.2637 60.121 65.5046 53.7208 65.5046C53.7785 65.5046 53.7785 65.5046 53.7208 65.5046Z" fill="#00AEEF"/>
<path d="M14.6274 65.5046C14.6274 65.5046 14.5697 65.5046 14.6274 65.5046C8.22718 65.5046 0.673828 61.2637 0.673828 41.492C0.673828 40.6897 1.30808 40.0593 2.11531 40.0593H14.685C15.4922 40.0593 16.1265 40.6897 16.1265 41.492C16.1265 42.2943 15.4922 42.9247 14.685 42.9247H3.55679C3.72977 52.2089 5.92082 62.5818 14.5697 62.6392C15.3769 62.6392 16.0112 63.2696 16.0112 64.0719C16.0688 64.8742 15.3769 65.5046 14.6274 65.5046Z" fill="#00AEEF"/>
</g>
<defs>
<clipPath id="clip0">
<rect width="67" height="118" fill="white" transform="translate(0.673828)"/>
</clipPath>
</defs>
</svg>
