<svg width="79" height="110" viewBox="0 0 79 110" fill="none" xmlns="http://www.w3.org/2000/svg">
<path d="M28.1008 50.3643C29.3676 50.4788 30.2889 50.9366 31.2102 51.8523L29.8858 53.5693C29.1949 52.8253 28.5039 52.4819 27.6978 52.4819C26.7765 52.4819 25.9704 53.1114 25.9704 53.8555C25.9704 54.3133 26.2583 54.6567 26.7189 55.0001C26.9492 55.1146 27.2947 55.2863 28.1584 55.6297C29.3676 56.0875 30.0586 56.5454 30.5768 57.0032C31.2677 57.6328 31.6132 58.4913 31.6132 59.5214C31.6132 61.639 30.2889 63.1843 28.0432 63.6994V65.7597H26.7765V63.8138C24.9339 63.7566 23.4368 62.8981 22.4004 61.3529L23.8975 59.8076C24.8188 61.0667 25.74 61.5818 26.9492 61.5818C28.1008 61.5818 28.9645 60.8378 28.9645 59.8076C28.9645 58.9491 28.5615 58.5485 27.0644 57.9189C25.74 57.3466 24.9915 56.946 24.5309 56.6026C23.7823 56.0303 23.3793 55.1146 23.3793 54.0272C23.3793 52.7681 24.0126 51.5662 25.0491 50.8794C25.5673 50.536 25.9704 50.4215 26.7765 50.2498V48.304H28.0432V50.3643H28.1008Z" fill="#00AEEF"/>
<path d="M28.6759 66.3892H26.2576V64.386C24.4726 64.1571 23.0331 63.2414 21.9966 61.6961L21.7087 61.2955L24.0119 58.949L24.415 59.4641C25.2211 60.5515 25.9697 61.0094 27.0061 61.0094C27.8122 61.0094 28.4456 60.4943 28.4456 59.8075C28.4456 59.3496 28.388 59.0635 26.891 58.4339C25.509 57.8616 24.7029 57.461 24.2423 57.0603C23.3786 56.3736 22.8603 55.2862 22.8603 54.0843C22.8603 52.6535 23.6089 51.2227 24.8181 50.4787C25.2787 50.1925 25.6818 50.0208 26.2576 49.8491V47.7888H28.6759V49.7919C29.8275 50.0208 30.7488 50.4787 31.6701 51.3944L32.0156 51.7378L29.9427 54.4849L29.4821 53.9698C28.9063 53.3403 28.388 53.0541 27.6971 53.0541C27.0637 53.0541 26.5455 53.4547 26.5455 53.8554C26.5455 53.9126 26.5455 54.1987 27.0637 54.5421C27.2364 54.6566 27.6971 54.8855 28.388 55.1145C29.6548 55.6295 30.4033 56.0302 30.9791 56.6025C31.7853 57.2893 32.1883 58.3767 32.1883 59.5786C32.1883 61.8106 30.864 63.4703 28.6184 64.1571V66.3892H28.6759ZM27.4092 65.2445H27.5243V63.2986L27.985 63.1842C30.0003 62.7263 31.0943 61.41 31.0943 59.5786C31.0943 58.7201 30.8064 57.9761 30.2306 57.461C29.77 57.0031 29.079 56.6597 27.985 56.2019C27.0637 55.8585 26.6606 55.6868 26.4303 55.5151C25.7394 55.0572 25.3939 54.4849 25.3939 53.8554C25.3939 52.7679 26.4303 51.9095 27.6971 51.9095C28.5032 51.9095 29.1942 52.1956 29.8275 52.7107L30.4609 51.9095C29.77 51.2799 29.0214 50.9938 28.0426 50.8793L27.5243 50.8221V48.9334H27.4092V50.7648L26.9485 50.9365C26.2576 51.051 25.9121 51.1654 25.4515 51.4516C24.5877 52.0239 24.0119 53.0541 24.0119 54.1415C24.0119 55 24.3574 55.744 24.9908 56.2591C25.3939 56.5453 26.1424 56.9459 27.4092 57.461C28.8487 58.0905 29.6548 58.6056 29.6548 59.8647C29.6548 61.181 28.5032 62.2112 27.0637 62.2112C25.8545 62.2112 24.8756 61.7534 23.9544 60.7232L23.2634 61.4672C24.1847 62.6119 25.3939 63.2414 26.891 63.2986H27.4668V65.2445H27.4092Z" fill="#00AEEF"/>
<path d="M27.5231 73.0281H13.4735C9.21261 73.0281 5.35474 67.1904 5.35474 60.8377C5.35474 58.0905 7.37004 53.9126 11.5158 48.0177C11.5158 47.9605 11.631 47.846 16.3526 41.3215L16.5253 41.0926C16.9859 40.4631 17.9072 40.2914 18.5406 40.7492C19.174 41.2071 19.3467 42.1228 18.8861 42.7523L18.7133 42.9813C14.6251 48.5328 13.9342 49.5057 13.8766 49.6202C8.98229 56.5453 8.23375 59.5786 8.23375 60.7804C8.23375 66.2175 11.4007 70.1093 13.4735 70.1093H27.5231C28.3292 70.1093 28.9626 70.7388 28.9626 71.5401C28.9626 72.3413 28.3292 73.0281 27.5231 73.0281Z" fill="#00AEEF"/>
<path d="M46.237 56.2591C45.7188 56.2591 45.143 55.973 44.9126 55.4007C43.4155 52.1384 41.2275 49.3913 38.8667 46.4725C37.8878 45.2706 36.909 44.0115 35.9877 42.7524C35.5271 42.1228 35.6422 41.2071 36.2756 40.7493C36.909 40.2914 37.8303 40.4059 38.2909 41.0354C39.2122 42.2373 40.1335 43.4964 41.1123 44.641C43.4731 47.5599 45.8915 50.5932 47.5037 54.1416C47.8492 54.8856 47.5037 55.6868 46.8128 56.0302C46.64 56.2019 46.4097 56.2591 46.237 56.2591Z" fill="#00AEEF"/>
<path d="M36.9663 38.0593H17.1011C16.5253 38.0593 16.0071 37.7159 15.7768 37.2008C15.3737 36.2279 13.9342 32.9084 13.9342 31.4204C13.9342 28.0437 16.9284 26.4984 19.7498 26.4984H34.4327C37.1966 26.4984 40.2483 28.0437 40.2483 31.4204C40.2483 32.9656 38.7513 36.2279 38.2906 37.2008C38.0603 37.7159 37.5421 38.0593 36.9663 38.0593ZM18.0224 35.1977H36.045C36.7359 33.6524 37.3118 31.9355 37.3118 31.4204C37.3118 29.4745 34.8934 29.36 34.3752 29.36H19.7498C19.2892 29.36 16.8132 29.4745 16.8132 31.4204C16.8132 31.9355 17.389 33.5952 18.0224 35.1977Z" fill="#00AEEF"/>
<path d="M34.4337 44.1831H19.6932C17.2172 44.1831 15.2019 42.1799 15.2019 39.719C15.2019 37.258 17.2172 35.2549 19.6932 35.2549H34.4337C36.9096 35.2549 38.9249 37.258 38.9249 39.719C38.9825 42.1799 36.9672 44.1831 34.4337 44.1831ZM19.6932 38.0592C18.7719 38.0592 18.0809 38.8032 18.0809 39.6617C18.0809 40.5774 18.8295 41.2642 19.6932 41.2642H34.4337C35.355 41.2642 36.0459 40.5202 36.0459 39.6617C36.0459 38.746 35.2974 38.0592 34.4337 38.0592H19.6932Z" fill="#00AEEF"/>
<path d="M49.0584 10.3018C50.2676 10.4163 51.0738 10.8169 51.995 11.7326L50.7283 13.3351C50.0949 12.6483 49.4615 12.3049 48.6554 12.3049C47.7917 12.3049 47.0431 12.8773 47.0431 13.6213C47.0431 14.0219 47.2735 14.3653 47.7341 14.7087C47.9068 14.8231 48.2523 14.9948 49.0584 15.3382C50.1525 15.7961 50.8434 16.1395 51.3041 16.5973C51.9375 17.1697 52.2829 18.0281 52.2829 18.9438C52.2829 20.8897 51.0738 22.3205 48.9433 22.8356V24.7243H47.7917V22.8929C46.0643 22.8356 44.6824 22.0344 43.7035 20.6036L45.0854 19.1728C45.9491 20.3174 46.8128 20.8325 47.9068 20.8325C48.9433 20.8325 49.807 20.0885 49.807 19.1728C49.807 18.3715 49.4039 17.9709 48.022 17.3986C46.8128 16.8835 46.0643 16.5401 45.6612 16.1967C44.9703 15.6244 44.5672 14.7659 44.5672 13.8502C44.5672 12.7056 45.143 11.5609 46.1219 10.9314C46.5825 10.588 46.9856 10.4735 47.7341 10.359V8.52762H48.8857V10.3018H49.0584Z" fill="#00AEEF"/>
<path d="M49.346 24.9532H47.6186V23.1218C45.9487 22.9501 44.5668 22.1488 43.5879 20.718L43.4728 20.5463L45.2578 18.7149L45.4305 19.0011C46.2366 20.0885 46.9852 20.5463 48.0216 20.5463C48.9429 20.5463 49.6339 19.974 49.6339 19.1728C49.6339 18.6005 49.4035 18.2571 48.0792 17.6847C46.8124 17.1697 46.0639 16.769 45.6608 16.4256C44.9123 15.8533 44.4516 14.8804 44.4516 13.8502C44.4516 12.5911 45.1426 11.332 46.179 10.6452C46.6397 10.359 46.9852 10.1873 47.6186 10.0729V8.24146H49.346V10.0729C50.4976 10.2446 51.3613 10.7024 52.1674 11.5609L52.3401 11.7326L50.7279 13.7357L50.4976 13.5068C49.9218 12.8773 49.346 12.5911 48.655 12.5911C47.964 12.5911 47.3307 13.0489 47.3307 13.6213C47.3307 13.9074 47.5034 14.1936 47.9065 14.4797C48.0792 14.5942 48.4247 14.7659 49.1732 15.0521C50.3248 15.5099 51.0158 15.9105 51.534 16.3684C52.225 16.998 52.5705 17.9137 52.5705 18.9438C52.5705 20.947 51.3037 22.4922 49.2308 23.0646V24.9532H49.346ZM48.1944 24.3809H48.7702V22.5495L49.0005 22.4922C50.9582 22.0344 52.1098 20.718 52.1098 18.8866C52.1098 18.0281 51.8219 17.2269 51.2461 16.769C50.7855 16.3112 50.1521 15.9678 49.0581 15.5672C48.1944 15.2238 47.8489 15.1093 47.6761 14.9376C47.1003 14.537 46.8124 14.1364 46.8124 13.6213C46.8124 12.7628 47.6761 12.0188 48.7126 12.0188C49.4611 12.0188 50.1521 12.3049 50.7279 12.8773L51.5916 11.7326C50.843 11.0458 50.0945 10.7024 49.0581 10.588H48.8277V8.81378H48.2519V10.588L48.0216 10.6452C47.3307 10.7597 46.9852 10.8741 46.5245 11.1603C45.6608 11.7326 45.085 12.7628 45.085 13.8502C45.085 14.7087 45.4305 15.5099 46.0639 15.9678C46.4669 16.2539 47.1579 16.6546 48.3671 17.1124C49.6339 17.6275 50.3248 18.0854 50.3248 19.1155C50.3248 20.203 49.346 21.0614 48.1368 21.0614C47.0428 21.0614 46.1215 20.6036 45.2578 19.5734L44.1637 20.6036C45.085 21.8627 46.3518 22.4922 47.8489 22.6067H48.1368V24.3809H48.1944Z" fill="#00AEEF"/>
<path d="M6.39127 2.51816C7.65803 2.63262 8.57932 3.09048 9.5006 4.00619L8.17626 5.72315C7.48529 4.97913 6.79433 4.63574 5.98821 4.63574C5.06693 4.63574 4.2608 5.26529 4.2608 6.00931C4.2608 6.46717 4.5487 6.81056 5.00935 7.15395C5.23967 7.26842 5.58515 7.44011 6.44885 7.78351C7.65803 8.24136 8.349 8.69922 8.86722 9.15707C9.55818 9.78663 9.90366 10.6451 9.90366 11.6753C9.90366 13.7929 8.57932 15.3381 6.33369 15.8532V17.9136H5.12451V16.0249C3.28194 15.9677 1.78486 15.1092 0.748413 13.5639L2.2455 12.0187C3.16678 13.2778 4.08806 13.7929 5.29725 13.7929C6.44885 13.7929 7.31255 13.0489 7.31255 12.0187C7.31255 11.1602 6.90949 10.7596 5.41241 10.13C4.08806 9.5577 3.33952 9.15707 2.87888 8.81368C2.13034 8.24136 1.72728 7.32565 1.72728 6.23824C1.72728 4.97913 2.36066 3.77726 3.3971 3.09048C3.91532 2.74708 4.31838 2.63262 5.12451 2.46092V0.572266H6.39127V2.51816V2.51816Z" fill="#00AEEF"/>
<path d="M6.9672 18.5432H4.54883V16.5401C2.76385 16.3111 1.32434 15.3954 0.287901 13.8502L0 13.4495L2.30321 11.103L2.70627 11.6181C3.51239 12.7055 4.26093 13.1634 5.29738 13.1634C6.1035 13.1634 6.73688 12.6483 6.73688 11.9615C6.73688 11.5036 6.6793 11.2175 5.18222 10.5879C3.80029 10.0156 2.99417 9.61498 2.53353 9.21436C1.66983 8.58481 1.1516 7.4974 1.1516 6.29553C1.1516 4.86472 1.90015 3.43392 3.10933 2.68991C3.56997 2.28928 4.03061 2.17482 4.54883 2.06035V0H6.9672V2.00312C8.1188 2.23205 9.04009 2.68991 9.96137 3.60562L10.2493 4.00624L8.17638 6.63892L7.71574 6.12383C7.13994 5.49428 6.62172 5.20812 5.93076 5.20812C5.29738 5.20812 4.77915 5.60874 4.77915 6.00936C4.77915 6.0666 4.77915 6.35276 5.29738 6.69615C5.47012 6.81061 5.93076 7.03954 6.62172 7.26847C7.88848 7.78356 8.63703 8.18418 9.21283 8.7565C10.019 9.44329 10.422 10.5307 10.422 11.6753C10.422 13.9074 9.09767 15.5671 6.85204 16.2539V18.5432H6.9672ZM5.70044 17.3985H5.8156V15.4527L6.27624 15.3382C8.29154 14.8803 9.38557 13.564 9.38557 11.7326C9.38557 10.8741 9.09767 10.1301 8.52187 9.61498C8.06122 9.15713 7.37026 8.81374 6.27624 8.35588C5.29738 7.95525 4.95189 7.84079 4.72157 7.66909C4.03061 7.21124 3.68513 6.63892 3.68513 6.00936C3.68513 4.92196 4.72157 4.06348 5.98834 4.06348C6.79446 4.06348 7.48542 4.34964 8.1188 4.86472L8.75219 4.06348C8.06122 3.43392 7.31268 3.14776 6.33382 3.0333L5.8156 2.97607V1.14464H5.70044V2.97607L5.18222 3.09053C4.49125 3.20499 4.14577 3.31946 3.74271 3.60562C2.87901 4.17794 2.30321 5.20812 2.30321 6.29553C2.30321 7.15401 2.64869 7.89802 3.28207 8.41311C3.68513 8.69927 4.43367 9.09989 5.70044 9.61498C7.13994 10.2445 7.94606 10.7596 7.94606 12.0187C7.94606 13.3351 6.79446 14.3652 5.35496 14.3652C4.14577 14.3652 3.16691 13.9074 2.24563 12.8772L1.55466 13.6212C2.47595 14.7659 3.68513 15.3954 5.18222 15.4527H5.75802V17.3985H5.70044Z" fill="#00AEEF"/>
<path d="M56.4295 110C55.681 110 54.99 109.714 54.4142 109.256L54.3566 109.199L38.1766 92.4297C37.2553 91.5713 36.8522 90.3122 37.0826 89.0531C37.3705 87.794 38.2342 86.7638 39.4434 86.3631C42.3799 85.333 44.0498 86.9927 45.5469 88.4235C45.8923 88.7669 46.2954 89.1103 46.6985 89.5109L40.4222 71.1394C39.6161 68.7357 40.8829 66.1602 43.3012 65.359C44.4528 64.9584 45.7196 65.0728 46.8136 65.5879C47.9076 66.103 48.7138 67.0759 49.1168 68.2206L51.8231 76.0614C52.2837 75.718 52.7444 75.3746 53.3202 75.2029C55.3931 74.5161 57.5811 75.3174 58.6751 77.0916C59.1358 76.6909 59.654 76.3475 60.2874 76.1186C62.3603 75.4318 64.5483 76.2331 65.6423 78.0073C66.103 77.6066 66.6212 77.2633 67.2546 77.0343C69.673 76.2331 72.2641 77.4922 73.0702 79.8959L78.6555 96.2071C79.1737 97.7523 79.0585 99.4121 78.3676 100.9C77.619 102.388 76.4098 103.476 74.8552 103.991L57.466 109.886C57.0629 109.943 56.775 110 56.4295 110ZM56.3719 107.138C56.4295 107.138 56.4295 107.138 56.4871 107.138L73.8763 101.243C74.6824 100.957 75.3734 100.385 75.7765 99.5838C76.1795 98.7825 76.2371 97.924 75.9492 97.0655L70.3639 80.7544C70.076 79.8959 69.0972 79.3808 68.1759 79.667C67.3697 79.9532 66.9091 80.8689 67.1394 81.7274C67.2546 82.128 67.197 82.5286 66.9667 82.872C66.7364 83.2154 66.3909 83.4443 65.9302 83.5015C65.8727 83.5015 65.8151 83.5015 65.7575 83.5015C65.1241 83.5015 64.5483 83.1581 64.318 82.5286L63.3967 79.7815C63.1088 78.923 62.1299 78.4079 61.2087 78.7513C60.8056 78.923 60.4601 79.2091 60.2298 79.6098C59.9995 80.0104 59.9995 80.4682 60.1146 80.9261C60.345 81.6701 59.9995 82.4714 59.1934 82.7575C58.4448 82.9865 57.6387 82.6431 57.3508 81.8418L56.3144 78.8657C56.0264 78.0073 55.0476 77.4922 54.1263 77.7783C53.2626 78.0645 52.7444 79.0374 53.0323 79.9532C53.2626 80.6972 52.8595 81.4984 52.111 81.7846C51.3625 82.0135 50.5563 81.6129 50.2684 80.8689L46.1802 69.0218C46.0075 68.6212 45.7196 68.2206 45.3165 68.0489C44.9135 67.82 44.4528 67.82 43.9922 67.9344C43.1285 68.2206 42.6103 69.1935 42.8982 70.1092L49.7502 90.026C50.0957 90.9417 49.6926 92.0291 48.8289 92.6587C48.0228 93.231 46.8712 93.231 46.0651 92.6587C44.9135 91.9147 44.1074 91.0562 43.3588 90.3694C41.9193 88.9386 41.4587 88.538 40.1919 88.9958C39.9616 89.0531 39.7313 89.282 39.6737 89.5681C39.6161 89.7971 39.7313 90.0832 39.904 90.2549L39.9616 90.3122L56.3719 107.138Z" fill="#00AEEF"/>
<path d="M25.7957 25.2966C24.9896 25.2966 24.3562 24.6671 24.3562 23.8658C24.3562 19.3445 20.6711 15.6816 16.1222 15.6816C15.3161 15.6816 14.6827 15.0521 14.6827 14.2508C14.6827 13.4496 15.3161 12.82 16.1222 12.82C22.2833 12.82 27.2352 17.7992 27.2352 23.8658C27.2352 24.6671 26.6018 25.2966 25.7957 25.2966Z" fill="#00AEEF"/>
<path d="M33.8 22.1488C33.6849 22.1488 33.5697 22.1488 33.4546 22.0916C32.706 21.9199 32.1878 21.1186 32.4181 20.3746C32.8212 18.8294 33.8 17.513 35.182 16.6545C36.5639 15.7961 38.1761 15.5671 39.7884 15.9678C40.5369 16.1395 41.0551 16.9407 40.8248 17.6847C40.5945 18.4287 39.846 18.9438 39.0974 18.7149C38.2913 18.5432 37.4276 18.6577 36.6791 19.0583C35.9305 19.5161 35.4699 20.2029 35.2396 21.0042C35.0092 21.691 34.4334 22.1488 33.8 22.1488Z" fill="#00AEEF"/>
<path d="M41.9171 63.413C41.3413 63.413 40.7655 63.0124 40.5352 62.4401L38.7502 57.232C38.5199 56.488 38.9229 55.6867 39.6715 55.4005C40.42 55.1716 41.2262 55.5722 41.5141 56.3163L43.299 61.5244C43.5294 62.2684 43.1263 63.0696 42.3778 63.3558C42.205 63.413 42.0899 63.413 41.9171 63.413Z" fill="#00AEEF"/>
<path d="M48.1944 63.8137C47.9641 63.8137 47.7338 63.7564 47.561 63.642C46.8701 63.2986 46.5822 62.4401 46.9276 61.7533L49.346 56.8314C49.6915 56.1446 50.5552 55.8584 51.2462 56.2018C51.9371 56.5452 52.225 57.4037 51.8795 58.0905L49.4612 63.0124C49.2308 63.5275 48.7126 63.8137 48.1944 63.8137Z" fill="#00AEEF"/>
<path d="M52.3373 68.5639C51.7615 68.5639 51.1857 68.1633 50.9554 67.591C50.7251 66.847 51.1281 66.0457 51.8767 65.7595L57.1165 63.9854C57.865 63.7564 58.6711 64.157 58.959 64.9011C59.1894 65.6451 58.7863 66.4463 58.0378 66.7325L52.798 68.5067C52.6252 68.5067 52.5101 68.5639 52.3373 68.5639Z" fill="#00AEEF"/>
<path d="M31.5525 75.5463C30.9767 75.5463 30.4009 75.1457 30.1706 74.5734C29.9403 73.8293 30.3434 73.0281 31.0919 72.7419L36.3317 70.9677C37.0802 70.7388 37.8864 71.1394 38.1743 71.8835C38.4046 72.6275 38.0015 73.4287 37.253 73.7149L32.0132 75.4891C31.8404 75.4891 31.7253 75.5463 31.5525 75.5463Z" fill="#00AEEF"/>
<path d="M37.196 67.5338C36.9657 67.5338 36.7353 67.4766 36.5626 67.3621L31.6107 64.9584C30.9197 64.615 30.6318 63.7565 30.9773 63.0697C31.3228 62.383 32.1865 62.0968 32.8775 62.4402L37.8294 64.8439C38.5203 65.1873 38.8082 66.0458 38.4627 66.7326C38.2324 67.2477 37.7142 67.5338 37.196 67.5338Z" fill="#00AEEF"/>
</svg>
