<svg width="56" height="102" viewBox="0 0 56 102" fill="none" xmlns="http://www.w3.org/2000/svg">
<g clip-path="url(#clip0)">
<path d="M36.0217 102C35.3064 102 34.5911 101.698 34.0801 101.145L34.029 101.095L21.7151 85.6539C20.9998 84.8491 20.7443 83.7426 21.0509 82.6864C21.4086 81.6302 22.2772 80.8255 23.3502 80.574C25.956 79.9704 27.2845 81.4793 28.4086 82.8373C28.664 83.1391 28.8684 83.3906 29.1239 83.6923L25.3429 67.8994C24.8319 65.787 26.1604 63.6746 28.3064 63.2219C29.3283 62.9704 30.4013 63.1716 31.321 63.7249C32.2407 64.2781 32.8538 65.1332 33.1093 66.1391L34.7443 72.8787C35.1531 72.6272 35.5619 72.4261 36.0728 72.3255C37.0947 72.074 38.1677 72.2752 39.0874 72.8284C39.7005 73.2308 40.2115 73.7338 40.5181 74.3373C40.9268 74.0355 41.3867 73.8343 41.9487 73.6835C43.737 73.2811 45.5765 74.1361 46.394 75.6953C46.8027 75.3935 47.2626 75.1923 47.8246 75.0414C49.9706 74.5385 52.0655 75.8462 52.5765 77.9586L55.9487 92.142C56.613 94.9586 54.8246 97.7752 52.0144 98.429L36.737 101.95C36.3794 102 36.175 102 36.0217 102ZM35.9706 99.4852H36.0217L51.2991 95.9645C52.7808 95.6125 53.7005 94.1539 53.3429 92.6953L49.9706 78.5119C49.8173 77.7574 49.0509 77.3048 48.2845 77.4556C47.5692 77.6065 47.1093 78.3107 47.2626 79.0148C47.3137 79.3669 47.2115 79.719 47.0071 80.0207C46.8027 80.3225 46.4451 80.4734 46.0363 80.4734C45.9852 80.4734 45.883 80.4734 45.8319 80.4734C45.2699 80.4231 44.81 80.0207 44.7078 79.5178L44.1458 77.1036C43.9925 76.3491 43.2261 75.8965 42.4597 76.0474C41.6932 76.1982 41.2334 76.9527 41.3867 77.7071C41.54 78.361 41.1312 79.0651 40.4159 79.216C39.7516 79.3669 39.0363 78.9645 38.883 78.2604L38.2699 75.6953C38.1677 75.3432 37.9633 75.0414 37.6567 74.8403C37.3502 74.6391 36.9414 74.5888 36.5838 74.6894C35.8173 74.8403 35.3575 75.645 35.5108 76.3491C35.664 77.003 35.2553 77.7071 34.54 77.858C33.8757 78.0089 33.1604 77.6065 33.0071 76.9024L30.5546 66.5917C30.4524 66.2397 30.248 65.9379 29.9414 65.7367C29.6348 65.5355 29.2261 65.4852 28.8684 65.5858C28.102 65.7367 27.6422 66.5414 27.7954 67.2456L31.9341 84.5474C32.1385 85.4024 31.7297 86.3077 30.9122 86.7604C30.1458 87.213 29.175 87.1125 28.5108 86.5089C27.5911 85.7545 26.9779 85 26.3648 84.3462C25.2407 83.0385 24.883 82.6864 23.8611 82.9379C23.6567 82.9882 23.5035 83.1391 23.4524 83.3403C23.4013 83.5414 23.4524 83.7426 23.6057 83.8935L23.6567 83.9438L35.9706 99.4852Z" fill="#00AEEF"/>
<path d="M27.4889 61.6124C26.9269 61.6124 26.3648 61.21 26.2626 60.6568L25.1896 56.1301C25.0363 55.4763 25.4451 54.7721 26.1604 54.6213C26.8247 54.4704 27.54 54.8727 27.6933 55.5769L28.7663 60.1035C28.9196 60.7573 28.5108 61.4615 27.7955 61.6124C27.6422 61.6124 27.5911 61.6124 27.4889 61.6124Z" fill="#00AEEF"/>
<path d="M32.7525 62.4674C32.497 62.4674 32.2927 62.4171 32.0883 62.2662C31.4751 61.9142 31.3219 61.1094 31.6795 60.5562L34.1832 56.6331C34.5408 56.0296 35.3584 55.8787 35.9204 56.2308C36.5335 56.5828 36.6868 57.3876 36.3292 57.9408L33.8255 61.8639C33.6211 62.2662 33.2124 62.4674 32.7525 62.4674Z" fill="#00AEEF"/>
<path d="M35.8687 66.7928C35.3066 66.7928 34.7446 66.3905 34.6424 65.8372C34.4891 65.1834 34.8979 64.4792 35.6132 64.3283L40.2117 63.2721C40.9271 63.1212 41.5913 63.5236 41.7446 64.2278C41.8979 64.8816 41.4891 65.5857 40.7738 65.7366L36.1752 66.7928C36.073 66.7928 35.9708 66.7928 35.8687 66.7928Z" fill="#00AEEF"/>
<path d="M17.6278 70.9674C17.0658 70.9674 16.5037 70.565 16.4015 70.0118C16.2483 69.3579 16.657 68.6538 17.3723 68.5029L21.9709 67.4467C22.6351 67.2958 23.3504 67.6982 23.5037 68.4023C23.657 69.0562 23.2483 69.7603 22.5329 69.9112L17.9344 70.9674C17.8322 70.9171 17.73 70.9674 17.6278 70.9674Z" fill="#00AEEF"/>
<path d="M23.0953 64.6804C22.8399 64.6804 22.6355 64.6301 22.4311 64.4792L18.4457 62.0147C17.8326 61.6626 17.6793 60.8579 18.0369 60.3046C18.3946 59.7011 19.2121 59.5502 19.7742 59.9023L23.7596 62.3668C24.3727 62.7188 24.526 63.5236 24.1683 64.0768C23.964 64.4792 23.5041 64.6804 23.0953 64.6804Z" fill="#00AEEF"/>
<path d="M45.0142 10.21C45.985 10.3106 46.6493 10.6124 47.3646 11.3166L46.3427 12.574C45.8318 12.0207 45.3208 11.7692 44.7077 11.7692C43.9923 11.7692 43.4303 12.2219 43.4303 12.7751C43.4303 13.1272 43.6347 13.3787 43.9923 13.6302C44.1456 13.7308 44.4011 13.8313 45.0653 14.1331C45.985 14.4852 46.496 14.787 46.9048 15.139C47.4157 15.5917 47.6712 16.2455 47.6712 17C47.6712 18.5592 46.7004 19.6657 45.0142 20.068V21.5769H44.0945V20.1183C42.715 20.068 41.642 19.4645 40.8245 18.3077L41.9485 17.1509C42.6128 18.0562 43.3281 18.4586 44.2478 18.4586C45.1164 18.4586 45.7296 17.9053 45.7296 17.1509C45.7296 16.5473 45.423 16.1953 44.2989 15.7426C43.3281 15.3402 42.715 15.0384 42.4084 14.787C41.8464 14.3343 41.5398 13.6805 41.5398 12.926C41.5398 12.0207 41.9996 11.0651 42.8172 10.6124C43.1748 10.3609 43.5325 10.2603 44.0945 10.1597V8.75146H45.0142V10.21V10.21Z" fill="#00AEEF"/>
<path d="M45.2699 21.8284H43.8392V20.3698C42.5108 20.2692 41.3867 19.6154 40.6203 18.4586L40.5181 18.3077L41.9998 16.7988L42.1531 17.0503C42.7662 17.9053 43.4305 18.2574 44.248 18.2574C44.9633 18.2574 45.4743 17.8047 45.4743 17.2012C45.4743 16.7485 45.3721 16.497 44.1969 16.0444C43.175 15.642 42.613 15.3402 42.2553 15.0385C41.6422 14.5858 41.2845 13.7811 41.2845 12.9763C41.2845 11.9704 41.8465 10.9645 42.664 10.4112C43.0217 10.1598 43.3283 10.0592 43.8392 9.95858V8.5H45.2699V9.95858C46.1896 10.1095 46.8538 10.4615 47.5181 11.1154L47.6713 11.2663L46.3429 12.926L46.1385 12.7249C45.6786 12.2219 45.2188 12.0207 44.7078 12.0207C44.1458 12.0207 43.6859 12.3728 43.6859 12.7751C43.6859 13.0266 43.8392 13.2278 44.1458 13.429C44.2991 13.5296 44.5546 13.6302 45.1677 13.8817C46.0874 14.2337 46.6494 14.5355 47.0582 14.9379C47.6203 15.4408 47.9268 16.145 47.9268 17C47.9268 18.6095 46.956 19.8166 45.2699 20.2692V21.8284V21.8284ZM44.3502 21.3254H44.7589V19.8669L44.9633 19.8166C46.5473 19.4645 47.4159 18.4083 47.4159 17C47.4159 16.2959 47.1604 15.6923 46.7005 15.3402C46.3429 14.9882 45.8319 14.7367 44.9633 14.3846C44.248 14.1331 43.9925 13.9822 43.8392 13.8817C43.3794 13.5799 43.175 13.2278 43.175 12.8254C43.175 12.1213 43.8392 11.568 44.7078 11.568C45.321 11.568 45.8319 11.7692 46.3429 12.2219L47.0071 11.3669C46.394 10.8136 45.8319 10.5621 44.9633 10.4615H44.7589V9.05325H44.3502V10.4615L44.1458 10.5118C43.5838 10.6124 43.3283 10.713 42.9706 10.9142C42.2553 11.3669 41.8465 12.1716 41.8465 13.0266C41.8465 13.7308 42.1531 14.3343 42.613 14.6864C42.9195 14.9379 43.4816 15.2396 44.4524 15.5917C45.4743 16.0444 46.0363 16.3965 46.0363 17.2012C46.0363 18.0562 45.2699 18.7604 44.2991 18.7604C43.3794 18.7604 42.664 18.4083 41.9998 17.5533L41.2334 18.3077C41.9487 19.2633 42.9706 19.8166 44.1969 19.8669H44.4524V21.3254H44.3502Z" fill="#00AEEF"/>
<path d="M5.16085 2.0621C6.18275 2.16269 6.89807 2.51476 7.6645 3.2692L6.59151 4.62719C6.08056 4.02364 5.51851 3.72186 4.85428 3.72186C4.08786 3.72186 3.47472 4.22482 3.47472 4.82837C3.47472 5.18044 3.6791 5.48222 4.08786 5.78399C4.24114 5.88459 4.54771 6.03547 5.26304 6.28695C6.23384 6.68932 6.79589 6.99109 7.20464 7.39346C7.76669 7.89642 8.02216 8.60056 8.02216 9.4053C8.02216 11.0651 6.94917 12.2722 5.16085 12.7248V14.3343H4.13895V12.7751C2.6572 12.7248 1.48202 12.071 0.613403 10.8136L1.83968 9.55618C2.55501 10.5118 3.32143 10.9645 4.29224 10.9645C5.21194 10.9645 5.92727 10.3609 5.92727 9.55618C5.92727 8.90234 5.56961 8.55027 4.39443 8.04731C3.37253 7.59465 2.70829 7.29287 2.35063 7.04139C1.73749 6.58873 1.43092 5.83429 1.43092 5.02956C1.43092 4.02364 1.94187 3.06802 2.75939 2.51476C3.16815 2.26328 3.52581 2.1124 4.13895 2.01181V0.50293H5.16085V2.0621V2.0621Z" fill="#00AEEF"/>
<path d="M5.67153 14.787H3.62774V13.1775C2.19708 12.9763 1.0219 12.2722 0.20438 11.0651L0 10.713L1.94161 8.75148L2.29927 9.20414C2.91241 10.0592 3.52555 10.4112 4.34307 10.4112C4.9562 10.4112 5.46715 10.0089 5.46715 9.50592C5.46715 9.20414 5.46715 8.95266 4.24088 8.5C3.06569 8.09763 2.45255 7.74556 2.0438 7.44379C1.32847 6.89053 0.919708 5.98521 0.919708 5.02959C0.919708 3.87278 1.53285 2.71598 2.50365 2.11243C2.86131 1.86095 3.16788 1.76035 3.62774 1.65976V0H5.67153V1.60947C6.59124 1.81065 7.30657 2.16272 8.0219 2.91716L8.32847 3.21893L6.64234 5.38166L6.23358 4.92899C5.77372 4.42604 5.36496 4.22485 4.85401 4.22485C4.39416 4.22485 3.9854 4.52663 3.9854 4.8284C3.9854 4.8787 3.9854 5.07988 4.39416 5.33136C4.54745 5.43195 4.90511 5.58284 5.46715 5.78402C6.48905 6.18639 7.10219 6.53846 7.56204 6.99112C8.22628 7.54438 8.53285 8.39941 8.53285 9.35503C8.53285 11.1154 7.45985 12.4734 5.67153 13.0266V14.787ZM1.32847 10.8136C2.0438 11.7189 3.0146 12.1716 4.18978 12.2219L4.70073 12.2722L5.05839 12.1716C6.64234 11.8195 7.51095 10.7633 7.51095 9.35503C7.51095 8.70118 7.25547 8.09763 6.84672 7.74556C6.48905 7.39349 5.92701 7.09172 5.05839 6.73964C4.29197 6.43787 3.9854 6.28698 3.78102 6.18639C3.21898 5.83432 2.9635 5.38166 2.9635 4.8284C2.9635 3.92308 3.83212 3.21893 4.85401 3.21893C5.46715 3.21893 6.0292 3.42012 6.54015 3.82248L7 3.26923C6.43796 2.81657 5.87591 2.61538 5.10949 2.51479L4.64964 2.4645L4.24088 2.56509C3.67883 2.61538 3.42336 2.71598 3.06569 2.91716C2.40146 3.36982 1.94161 4.17456 1.94161 5.02959C1.94161 5.68343 2.19708 6.28698 2.70803 6.63905C3.0146 6.89053 3.62774 7.19231 4.59854 7.59467C5.77372 8.09763 6.43796 8.5503 6.43796 9.55621C6.43796 10.6124 5.51825 11.4675 4.29197 11.4675C3.32117 11.4675 2.55474 11.1154 1.78832 10.3106L1.32847 10.8136Z" fill="#00AEEF"/>
<path d="M20.2334 19.7662C19.518 19.7662 18.956 19.213 18.956 18.5088C18.956 14.9881 16.0436 12.1212 12.4669 12.1212C11.7516 12.1212 11.1896 11.568 11.1896 10.8638C11.1896 10.1597 11.7516 9.60645 12.4669 9.60645C17.4742 9.60645 21.5107 13.5798 21.5107 18.5088C21.5107 19.1627 20.9487 19.7662 20.2334 19.7662Z" fill="#00AEEF"/>
<path d="M33.3138 20.3195C32.6495 20.3195 32.0875 19.8165 32.0364 19.1627C31.9342 17.855 32.3941 16.5976 33.2627 15.5917C34.1313 14.5857 35.3576 14.0325 36.686 13.9319C37.4014 13.8816 38.0145 14.4349 38.0656 15.0887C38.1167 15.7928 37.5546 16.3964 36.8904 16.4467C36.2262 16.497 35.6641 16.7485 35.2043 17.2514C34.7955 17.7544 34.54 18.3579 34.5911 18.9615C34.6422 19.6656 34.0802 20.2692 33.416 20.3195C33.3649 20.3195 33.3138 20.3195 33.3138 20.3195Z" fill="#00AEEF"/>
<path d="M32.6502 34.8047H9.04431V36.8165H32.6502V34.8047Z" fill="#00AEEF"/>
<path d="M32.6502 40.3373H9.04431V42.3491H32.6502V40.3373Z" fill="#00AEEF"/>
<path d="M32.6502 45.8699H9.04431V47.8817H32.6502V45.8699Z" fill="#00AEEF"/>
<path d="M32.6502 51.4023H9.04431V53.4142H32.6502V51.4023Z" fill="#00AEEF"/>
<path d="M15.2259 69.8609H9.65656C5.56897 69.8609 2.2478 66.9438 2.2478 63.3225V28.4674C2.2478 24.8461 5.56897 21.929 9.65656 21.929H38.1675C38.8828 21.929 39.4449 22.4822 39.4449 23.1864V61.21C39.4449 61.9142 38.8828 62.4674 38.1675 62.4674C37.4522 62.4674 36.8901 61.9142 36.8901 61.21V24.4437H9.65656C6.99963 24.4437 4.80255 26.2544 4.80255 28.4674V63.3225C4.80255 65.5355 6.99963 67.3461 9.65656 67.3461H15.2259C15.9412 67.3461 16.5033 67.8994 16.5033 68.6035C16.5033 69.3077 15.9412 69.8609 15.2259 69.8609Z" fill="#00AEEF"/>
</g>
<defs>
<clipPath id="clip0">
<rect width="56" height="102" fill="white"/>
</clipPath>
</defs>
</svg>
