<svg width="71" height="85" viewBox="0 0 71 85" fill="none" xmlns="http://www.w3.org/2000/svg">
<g clip-path="url(#clip0)">
<path d="M37.8248 9.08651C38.1638 9.08651 38.4544 9.37497 38.4544 9.71151C38.4544 10.1442 38.8419 10.5288 39.2777 10.5288C39.7136 10.5288 40.1011 10.1442 40.1011 9.71151C40.1011 8.74997 39.5199 7.98074 38.6481 7.6442V7.30766C38.6481 6.87497 38.2607 6.49036 37.8248 6.49036C37.3889 6.49036 37.0015 6.87497 37.0015 7.30766V7.6442C36.1782 7.98074 35.5486 8.79805 35.5486 9.71151C35.5486 11.298 36.8078 11.875 37.4374 12.1634C38.2123 12.5 38.406 12.7404 38.406 13.125C38.406 13.4615 38.1154 13.75 37.7764 13.75C37.4374 13.75 37.1468 13.4615 37.1468 13.125C37.1468 12.6923 36.7593 12.3077 36.3235 12.3077C35.8876 12.3077 35.5001 12.6923 35.5001 13.125C35.5001 14.0865 36.0813 14.8557 36.9531 15.1923V15.5288C36.9531 15.9615 37.3405 16.3461 37.7764 16.3461C38.2123 16.3461 38.5997 15.9615 38.5997 15.5288V15.1923C39.423 14.8557 40.0526 14.0384 40.0526 13.125C40.0526 11.5384 38.7934 10.9615 38.1638 10.673C37.3889 10.3365 37.1952 10.0961 37.1952 9.71151C37.1952 9.37497 37.4858 9.08651 37.8248 9.08651Z" fill="#00AEEF"/>
<path d="M37.8248 22.8365C44.1693 22.8365 49.3514 17.6923 49.3514 11.3942C49.3514 5.09615 44.1693 0 37.8248 0C31.4803 0 26.2982 5.14423 26.2982 11.4423C26.2982 17.7404 31.4803 22.8365 37.8248 22.8365ZM37.8248 2.40385C42.8617 2.40385 46.9299 6.44231 46.9299 11.4423C46.9299 16.4423 42.8617 20.4808 37.8248 20.4808C32.788 20.4808 28.7198 16.4423 28.7198 11.4423C28.7198 6.44231 32.788 2.40385 37.8248 2.40385Z" fill="#00AEEF"/>
<path d="M33.3207 18.4135C34.6767 19.2789 36.2265 19.7116 37.7763 19.7116C38.3575 19.7116 38.9871 19.6635 39.6167 19.5193C42.7647 18.8462 45.2831 16.3462 45.9612 13.2212C46.1065 12.5962 45.719 11.9231 45.041 11.7789C44.4114 11.6346 43.7333 12.0193 43.588 12.6923C43.1037 14.9039 41.3118 16.6827 39.0839 17.1635C35.8875 17.8846 32.7395 15.8654 32.013 12.6923C31.674 11.1539 31.9646 9.56733 32.7879 8.26925C33.6112 6.97118 34.9673 6.00964 36.5171 5.6731C39.7136 4.95194 42.91 6.97118 43.588 10.1443C43.7333 10.7693 44.3629 11.2019 45.041 11.0577C45.6706 10.9135 46.1065 10.2885 45.9612 9.61541C44.9925 5.19233 40.4885 2.35579 36.0328 3.31733C31.5287 4.32694 28.6713 8.75002 29.6399 13.2212C30.1242 15.3846 31.4318 17.2116 33.3207 18.4135Z" fill="#00AEEF"/>
<path d="M38.7449 72.5C33.6112 72.3077 27.6542 71.6347 22.8595 68.077C22.3268 67.6923 21.5519 67.7885 21.1644 68.3173C20.777 68.8462 20.8739 69.6154 21.4066 70C26.734 73.9904 33.1269 74.7116 38.6481 74.9039H38.6965C39.3261 74.9039 39.8588 74.375 39.9073 73.75C39.9557 73.077 39.423 72.5481 38.7449 72.5Z" fill="#00AEEF"/>
<path d="M17.1932 57.3076C17.2417 56.6345 16.7573 56.0576 16.0793 56.0095C15.4013 55.9615 14.8201 56.4422 14.7717 57.1153C14.5779 59.4711 15.1107 61.8749 16.4183 64.1345C16.6605 64.5191 17.0479 64.7595 17.4838 64.7595C17.6775 64.7595 17.8713 64.7115 18.065 64.6153C18.6462 64.2788 18.8399 63.5576 18.5009 62.9807C17.4838 61.1057 17.0479 59.1345 17.1932 57.3076Z" fill="#00AEEF"/>
<path d="M55.0663 53.4135C53.8555 53.4135 52.8869 54.375 52.8869 55.5769C52.8869 56.7788 53.8555 57.7404 55.0663 57.7404C56.2771 57.7404 57.2457 56.7788 57.2457 55.5769C57.2457 54.375 56.2771 53.4135 55.0663 53.4135Z" fill="#00AEEF"/>
<path d="M66.3507 51.8269H65.0915C63.8807 48.7019 61.7497 45.8173 58.8439 43.4134L60.878 39.2307C61.0233 38.9423 61.0233 38.6057 60.9264 38.3173C60.8295 38.0288 60.5874 37.7884 60.2968 37.6442C56.6645 35.9134 52.6931 35.8653 49.8841 37.4519C48.9155 32.1153 44.2177 28.0288 38.5512 28.0288C32.5942 28.0288 27.7027 32.548 27.0731 38.2692C17.1931 41.5865 10.7033 48.9903 10.3159 57.3077C10.1706 57.0673 9.97688 56.7788 9.78316 56.5865C9.00826 55.7692 7.94278 55.3365 6.82886 55.3365C5.66651 55.3365 4.64946 55.7211 3.82613 56.5384C3.1481 57.2115 2.71222 58.0288 2.47006 58.8942C2.2279 58.0769 2.42163 57.1634 3.05123 56.4904C3.48711 56.0096 3.48711 55.2404 3.0028 54.8077C2.51849 54.375 1.74359 54.375 1.30771 54.8557C-0.581099 56.875 -0.435806 60 1.54987 61.8269C2.03418 62.3077 2.61535 62.6442 3.24496 62.9327C3.39025 63.173 3.58398 63.3653 3.7777 63.5577C4.94005 64.7596 6.48984 65.3365 8.03964 65.3365C9.25041 65.3365 10.5096 64.9519 11.5267 64.2307C12.689 67.3557 14.7716 70.2404 17.6774 72.6923V80.4807C17.6774 83.0769 20.438 85.0961 23.9735 85.0961C27.5089 85.0961 30.2695 83.0769 30.2695 80.4807V78.8461C32.8848 79.4711 35.5969 79.7596 38.3575 79.7596C40.5853 79.7596 42.7647 79.5673 44.8957 79.1827V80.4807C44.8957 83.0769 47.6563 85.0961 51.1918 85.0961C54.7272 85.0961 57.4878 83.0769 57.4878 80.4807V73.8942C60.3937 71.7788 62.6699 69.2307 64.1713 66.3942H66.3507C68.966 66.3942 71.0001 63.2211 71.0001 59.1346C71.0001 55 68.966 51.8269 66.3507 51.8269ZM38.5997 30.4327C43.6365 30.4327 47.7047 34.4711 47.7047 39.4711C47.7047 40.2884 47.6079 41.1057 47.3657 41.875H40.7306C40.7791 41.6827 40.8275 41.4423 40.8275 41.2019C40.8275 39.6153 39.5683 39.0384 38.9387 38.75C38.1638 38.4134 37.9701 38.173 37.9701 37.7884C37.9701 37.4519 38.2606 37.1634 38.5997 37.1634C38.9387 37.1634 39.2293 37.4519 39.2293 37.7884C39.2293 38.2211 39.6167 38.6057 40.0526 38.6057C40.4885 38.6057 40.8759 38.2211 40.8759 37.7884C40.8759 36.8269 40.2948 36.0577 39.423 35.7211V35.3846C39.423 34.9519 39.0355 34.5673 38.5997 34.5673C38.1638 34.5673 37.7763 34.9519 37.7763 35.3846V35.7211C36.953 36.0577 36.3234 36.875 36.3234 37.7884C36.3234 39.375 37.5826 39.9519 38.2122 40.2403C38.9871 40.5769 39.1808 40.8173 39.1808 41.2019C39.1808 41.5384 38.8903 41.8269 38.5512 41.8269C38.2122 41.8269 37.9216 41.5384 37.9216 41.2019C37.9216 40.7692 37.5342 40.3846 37.0983 40.3846C36.6624 40.3846 36.275 40.7692 36.275 41.2019C36.275 41.4423 36.3234 41.6827 36.3718 41.875H33.0785C32.9332 41.4903 32.7879 41.1538 32.6911 40.7692C31.9646 37.5961 33.9987 34.4711 37.1952 33.75C40.3916 33.0288 43.5881 35.048 44.2661 38.2211C44.4114 38.8461 45.041 39.2788 45.719 39.1346C46.3486 38.9903 46.7845 38.3653 46.6392 37.6923C45.7675 33.2211 41.2634 30.3846 36.8077 31.3461C32.3036 32.3557 29.4462 36.7788 30.4632 41.25C30.5117 41.4423 30.5601 41.6346 30.6085 41.875H29.8336C29.6399 41.1057 29.4946 40.2884 29.4946 39.4711C29.4946 34.4711 33.5628 30.4327 38.5997 30.4327ZM5.56965 58.2211C5.90867 57.8846 6.34455 57.6923 6.82886 57.6923C6.82886 57.6923 6.82886 57.6923 6.87729 57.6923C7.3616 57.6923 7.79748 57.8846 8.1365 58.2211C8.62081 58.7019 8.57238 59.423 8.1365 59.9038C7.50689 60.5288 6.68357 60.8653 5.81181 60.9134C5.52122 60.9134 5.27906 60.9134 4.98848 60.8654C4.60103 60 4.84318 58.9423 5.56965 58.2211ZM10.4612 61.923C9.78316 62.5961 8.86297 62.9327 7.99121 62.8846C8.62081 62.5961 9.25041 62.2115 9.73473 61.6827C9.73473 61.6827 9.73473 61.6827 9.78316 61.6827L9.83159 61.6346C9.88002 61.5865 9.92845 61.5384 9.97688 61.4904L10.0253 61.4423C10.2675 61.1538 10.4612 60.8654 10.5581 60.5769C10.6065 60.9615 10.7033 61.3461 10.7518 61.7307C10.6549 61.7307 10.5581 61.8269 10.4612 61.923ZM66.3507 63.9423H63.3964C62.9121 63.9423 62.5246 64.2307 62.2825 64.6153C60.878 67.5 58.5533 70.1442 55.5021 72.2115C55.1631 72.4519 54.9694 72.7884 54.9694 73.2211V80.4327C54.9694 81.4904 53.3712 82.6442 51.0949 82.6442C48.8186 82.6442 47.2204 81.4904 47.2204 80.4327V77.6442C47.2204 77.2596 47.0751 76.923 46.7845 76.6827C46.4939 76.4423 46.1065 76.3942 45.7675 76.4423C43.3459 77.0192 40.8275 77.3077 38.3091 77.3077C35.2095 77.3077 32.2068 76.875 29.3493 76.1057C28.9619 76.0096 28.5744 76.0577 28.2838 76.298C27.9933 76.5384 27.7995 76.875 27.7995 77.2596V80.4327C27.7995 81.4904 26.2013 82.6442 23.925 82.6442C21.6488 82.6442 20.0506 81.4904 20.0506 80.4327V72.0673C20.0506 71.6827 19.9053 71.3461 19.6147 71.1538C15.2074 67.5961 12.7859 62.9807 12.7859 58.125C12.7859 50.7211 18.4039 44.0865 27.1699 40.8653C27.2184 41.25 27.2668 41.6346 27.3636 42.0192H27.1699C26.4919 42.0192 25.9591 42.548 25.9591 43.2211C25.9591 43.8942 26.4919 44.423 27.1699 44.423H49.9325C50.6106 44.423 51.1433 43.8942 51.1433 43.2211C51.1433 42.548 50.6106 42.0192 49.9325 42.0192H49.8357C49.9325 41.4904 50.0294 40.9615 50.0778 40.3846C50.0778 40.3846 50.1263 40.3846 50.1263 40.3365C51.8214 38.6057 55.0662 38.2692 58.1658 39.375L56.277 43.2692C56.0349 43.798 56.1802 44.375 56.616 44.7596C59.7641 47.2115 61.9919 50.1923 63.1058 53.4615C63.2511 53.9423 63.7354 54.2788 64.2681 54.2788H66.3991C67.3193 54.2788 68.6269 56.1538 68.6269 59.1346C68.5785 62.0192 67.2709 63.9423 66.3507 63.9423Z" fill="#00AEEF"/>
</g>
<defs>
<clipPath id="clip0">
<rect width="71" height="85" fill="white"/>
</clipPath>
</defs>
</svg>
