<svg width="80" height="75" viewBox="0 0 80 75" fill="none" xmlns="http://www.w3.org/2000/svg">
<g clip-path="url(#clip0)">
<path d="M52.5467 53.3644L50.9091 42.4018L58.6635 34.4816C59.5786 33.564 59.9157 32.2118 59.4823 30.9562C59.097 29.7005 58.0374 28.783 56.7369 28.5898L45.8519 26.7546L40.7466 16.9027C40.1686 15.7437 38.9645 15.0193 37.6641 15.0193C36.3637 15.0193 35.1596 15.7437 34.5816 16.9027L29.4281 26.7546L18.5431 28.5898C17.2427 28.783 16.1831 29.7005 15.7977 30.9562C15.4124 32.2118 15.7014 33.564 16.6165 34.4816L24.3709 42.4018L22.7333 53.3644C22.5407 54.6684 23.0705 55.924 24.1301 56.6967C25.1897 57.4694 26.5864 57.566 27.7424 56.9864L37.6159 52.0605L47.5377 56.9864C48.0193 57.2279 48.5491 57.3728 49.0789 57.3728C49.8014 57.3728 50.5238 57.1313 51.1499 56.6967C52.2095 55.924 52.7393 54.6201 52.5467 53.3644ZM49.705 54.7166C49.3679 54.9581 48.9344 54.9581 48.5973 54.8132L38.1457 49.5975C37.9531 49.5009 37.8086 49.4526 37.6159 49.4526C37.4233 49.4526 37.2306 49.5009 37.0861 49.5975L26.6346 54.8132C26.2974 55.0064 25.8158 54.9581 25.5268 54.7166C25.1897 54.4752 25.0452 54.0888 25.0933 53.7025L26.8272 42.1603C26.8754 41.774 26.7791 41.3876 26.4901 41.1461L18.3023 32.7913C18.0133 32.5016 17.9169 32.0669 18.0614 31.6806C18.2059 31.2942 18.4949 31.0045 18.9284 30.9562L30.4395 29.0244C30.8248 28.9761 31.1138 28.7347 31.3065 28.3966L36.7008 18.0135C36.8935 17.6754 37.2306 17.434 37.6641 17.434C38.0494 17.434 38.4347 17.6754 38.6274 18.0135L44.0217 28.3966C44.2144 28.7347 44.5033 28.9761 44.8886 29.0244L56.3998 30.9562C56.7851 31.0045 57.1222 31.2942 57.2667 31.6806C57.4112 32.0669 57.3149 32.5016 57.0259 32.7913L48.8381 41.1461C48.5973 41.4359 48.4528 41.774 48.5009 42.1603L50.2348 53.7025C50.2348 54.0888 50.0422 54.5235 49.705 54.7166Z" fill="#00AEEF"/>
<path d="M30.006 39.9872L24.2264 34.047C24.0819 33.9505 24.0337 33.8056 24.0819 33.6607C24.13 33.5158 24.2745 33.4192 24.419 33.3709L32.5587 32.0187C32.944 31.9704 33.233 31.729 33.4256 31.3909L37.2306 24.0503C37.3751 23.7605 37.8085 23.7605 37.953 24.0503L41.8061 31.3909C41.9988 31.729 42.2878 31.9704 42.6731 32.0187L50.8127 33.3709C51.487 33.4675 52.1132 33.0329 52.2095 32.3568C52.3058 31.6807 51.8723 31.0528 51.1981 30.9563L43.6363 29.7006L40.0722 22.8912C39.5906 21.9736 38.6273 21.3458 37.5677 21.3458C36.5081 21.3458 35.5448 21.9253 35.0632 22.8912L31.4991 29.7006L23.9374 30.9563C22.8778 31.1494 22.059 31.8738 21.7218 32.888C21.3847 33.9022 21.6737 34.9646 22.3961 35.7373L27.7905 41.2428L26.6827 48.8249C26.5864 49.501 27.0198 50.0805 27.6941 50.1771C27.7423 50.1771 27.7905 50.1771 27.8868 50.1771C28.4648 50.1771 28.9946 49.7425 29.0909 49.163L30.295 40.953C30.3913 40.6633 30.2468 40.2769 30.006 39.9872Z" fill="#00AEEF"/>
<path d="M47.4412 41.2428L51.9205 36.6549C52.4021 36.172 52.4021 35.3993 51.9205 34.9646C51.4388 34.4817 50.6682 34.4817 50.2347 34.9646L45.2739 39.9872C45.0331 40.2769 44.8886 40.615 44.9367 41.0013L46.1408 49.2112C46.1408 49.3561 46.0927 49.501 45.9963 49.5976C45.9 49.6942 45.7074 49.6942 45.5629 49.6459L38.1456 45.9273C37.8085 45.7824 37.4232 45.7824 37.086 45.9273L30.7284 49.1147C30.1505 49.4044 29.9096 50.1288 30.1986 50.7566C30.4876 51.3362 31.2101 51.5776 31.8362 51.2879L37.664 48.3902L44.5514 51.8191C44.9367 52.0123 45.3702 52.1089 45.8037 52.1089C46.3816 52.1089 47.0078 51.9157 47.4412 51.5776C48.3082 50.9498 48.7417 49.9356 48.5972 48.8732L47.4412 41.2428Z" fill="#00AEEF"/>
<path d="M37.3751 10.5763C38.0494 10.5763 38.5792 10.0451 38.5792 9.36896V1.20734C38.5792 0.53123 38.0494 0 37.3751 0C36.7008 0 36.171 0.53123 36.171 1.20734V9.36896C36.171 9.99678 36.749 10.5763 37.3751 10.5763Z" fill="#00AEEF"/>
<path d="M22.2998 13.7153C22.5406 14.1017 22.9259 14.3431 23.3594 14.3431C23.552 14.3431 23.7929 14.2948 23.9374 14.1983C24.5153 13.8602 24.708 13.1358 24.3708 12.5563L20.3251 5.50541C19.9879 4.92588 19.2655 4.73271 18.6875 5.07076C18.1095 5.40882 17.9169 6.13322 18.254 6.71275L22.2998 13.7153Z" fill="#00AEEF"/>
<path d="M13.6785 22.36L6.64661 18.3033C6.06864 17.9653 5.34618 18.1584 5.00904 18.7379C4.67189 19.3175 4.86455 20.0419 5.44251 20.3799L12.4744 24.4366C12.6671 24.5332 12.8597 24.5815 13.0524 24.5815C13.4859 24.5815 13.8712 24.3883 14.112 23.9537C14.4491 23.4707 14.2565 22.698 13.6785 22.36Z" fill="#00AEEF"/>
<path d="M10.5479 37.4759C10.5479 36.7998 10.0181 36.2686 9.34377 36.2686H1.20409C0.529801 36.2686 0 36.7998 0 37.4759C0 38.152 0.529801 38.6832 1.20409 38.6832H9.34377C9.9699 38.6832 10.5479 38.152 10.5479 37.4759Z" fill="#00AEEF"/>
<path d="M12.4744 50.5152L5.44251 54.5719C4.86455 54.9099 4.67189 55.6343 5.00904 56.2138C5.24986 56.6002 5.63517 56.8417 6.06864 56.8417C6.2613 56.8417 6.50211 56.7934 6.64661 56.6968L13.6785 52.6401C14.2565 52.3021 14.4491 51.5776 14.112 50.9981C13.7748 50.3703 13.0524 50.1771 12.4744 50.5152Z" fill="#00AEEF"/>
<path d="M23.9855 60.8499C23.4075 60.5119 22.685 60.7051 22.3479 61.2846L18.3021 68.3354C17.965 68.915 18.1576 69.6394 18.7356 69.9774C18.9283 70.074 19.1209 70.1223 19.3136 70.1223C19.747 70.1223 20.1324 69.9291 20.3732 69.4945L24.4189 62.4436C24.7561 61.9124 24.5634 61.1397 23.9855 60.8499Z" fill="#00AEEF"/>
<path d="M37.3751 64.4237C36.7008 64.4237 36.171 64.9549 36.171 65.631V73.7927C36.171 74.4688 36.7008 75 37.3751 75C38.0494 75 38.5792 74.4688 38.5792 73.7927V65.631C38.5792 64.9549 38.0494 64.4237 37.3751 64.4237Z" fill="#00AEEF"/>
<path d="M52.4504 61.2846C52.1133 60.7051 51.3908 60.5119 50.8129 60.8499C50.2349 61.188 50.0423 61.9124 50.3794 62.4919L54.4252 69.5428C54.666 69.9291 55.0513 70.1706 55.4848 70.1706C55.6774 70.1706 55.9182 70.1223 56.0627 70.0257C56.6407 69.6877 56.8333 68.9633 56.4962 68.3838L52.4504 61.2846Z" fill="#00AEEF"/>
<path d="M64.2505 37.4759C64.2505 38.152 64.7803 38.6832 65.4546 38.6832H73.5943C74.2686 38.6832 74.7984 38.152 74.7984 37.4759C74.7984 36.7998 74.2686 36.2686 73.5943 36.2686H65.4546C64.7803 36.2686 64.2505 36.8481 64.2505 37.4759Z" fill="#00AEEF"/>
<path d="M61.6978 24.6297C61.8904 24.6297 62.1313 24.5814 62.2758 24.4848L69.3077 20.4282C69.8856 20.0901 70.0783 19.3657 69.7411 18.7862C69.404 18.2066 68.6815 18.0135 68.1036 18.3515L61.0717 22.4082C60.4937 22.7462 60.301 23.4707 60.6382 24.0502C60.879 24.4365 61.3125 24.6297 61.6978 24.6297Z" fill="#00AEEF"/>
<path d="M50.8129 14.15C51.0055 14.2466 51.1982 14.2949 51.3908 14.2949C51.8243 14.2949 52.2096 14.1017 52.4504 13.6671L56.4962 6.61619C56.8333 6.03667 56.6407 5.31226 56.0627 4.97421C55.4848 4.63615 54.7623 4.82932 54.4252 5.40885L50.3794 12.4597C50.0423 13.0875 50.2349 13.8602 50.8129 14.15Z" fill="#00AEEF"/>
<path d="M80 60.0289C79.9518 59.6909 79.8073 59.4011 79.5665 59.2079L72.1975 53.1712L77.7845 47.8589C78.1216 47.5209 78.2661 47.0862 78.1216 46.6033C77.9771 46.1204 77.5918 45.8306 77.1583 45.7823L53.0765 42.0154C52.643 41.9671 52.2095 42.112 51.9687 42.45C51.6797 42.7881 51.6316 43.2227 51.776 43.6574L60.5418 66.452C60.6863 66.8866 61.1198 67.1764 61.5533 67.2247C61.6014 67.2247 61.6014 67.2247 61.6496 67.2247C62.0831 67.2247 62.4684 66.9832 62.6611 66.6452L66.6105 60.0289L73.9795 66.0173C74.5093 66.452 75.2318 66.3554 75.6653 65.8242L79.711 60.8016C79.9518 60.705 80.0482 60.367 80 60.0289ZM74.6057 63.4578L67.0921 57.3245C66.8995 57.1313 66.6105 57.0347 66.3215 57.0347C66.2733 57.0347 66.177 57.0347 66.1288 57.0347C65.7917 57.083 65.5027 57.3245 65.3101 57.6142L61.8904 63.3129L54.7622 44.7681L74.3648 47.8589L69.5485 52.3985C69.3076 52.64 69.1632 52.9781 69.1632 53.3161C69.1632 53.6542 69.3558 53.9922 69.5966 54.1854L77.1102 60.3187L74.6057 63.4578Z" fill="#00AEEF"/>
</g>
<defs>
<clipPath id="clip0">
<rect width="80" height="75" fill="white"/>
</clipPath>
</defs>
</svg>
