<svg width="63" height="59" viewBox="0 0 63 59" fill="none" xmlns="http://www.w3.org/2000/svg">
<g clip-path="url(#clip0)">
<path d="M60.1764 0H2.80356C1.25159 0 0 1.25159 0 2.80356V46.3589C0 47.9109 1.25159 49.1624 2.80356 49.1624H23.9805V55.871H15.1192C14.3182 55.871 13.6674 56.5218 13.6674 57.3228C13.6674 58.1238 14.3182 58.7747 15.1192 58.7747H47.9109C48.7119 58.7747 49.3627 58.1238 49.3627 57.3228C49.3627 56.5218 48.7119 55.871 47.9109 55.871H38.9995V49.1624H60.1764C61.7284 49.1624 62.98 47.9109 62.98 46.3589V2.80356C62.98 1.25159 61.7284 0 60.1764 0ZM62.0789 46.3589C62.0789 47.4102 61.2278 48.2613 60.1764 48.2613H38.0984V56.7721H37.8481C38.1485 56.7721 38.3988 57.0224 38.3988 57.3228C38.3988 57.6232 38.1485 57.8735 37.8481 57.8735H24.9817C24.6814 57.8735 24.431 57.6232 24.431 57.3228C24.431 57.0224 24.6814 56.7721 24.9817 56.7721H24.8816V48.2613H2.80356C1.75223 48.2613 0.901145 47.4102 0.901145 46.3589V2.80356C0.901145 1.75223 1.75223 0.901145 2.80356 0.901145H60.1764C61.2278 0.901145 62.0789 1.75223 62.0789 2.80356V46.3589V46.3589Z" fill="#00AEEF"/>
<path d="M24.4312 58.1738H38.5491V48.3113H24.4312V58.1738ZM26.8843 49.1624H36.096V55.8709H26.8843V49.1624Z" fill="#00AEEF"/>
<path d="M55.17 23.8802C52.7669 19.8251 49.3626 16.4207 45.3575 14.0678C41.2022 11.6146 36.3961 10.313 31.5399 10.313C26.6838 10.313 21.8276 11.6146 17.6723 14.0177C13.6172 16.3707 10.2128 19.775 7.85986 23.8302C7.60954 24.2307 7.60954 24.7814 7.85986 25.1819C10.2629 29.237 13.6172 32.6414 17.6723 34.9943C21.8276 37.4475 26.6337 38.7491 31.4899 38.7491C36.346 38.7491 41.1521 37.4475 45.3074 34.9943C49.3626 32.6414 52.7669 29.237 55.1199 25.1819C55.4203 24.8314 55.4203 24.2807 55.17 23.8802ZM20.3758 33.4924C16.3707 31.4899 12.9163 28.3359 10.5633 24.5811C12.9663 20.7763 16.3707 17.6723 20.3758 15.6698C18.3732 18.173 17.2217 21.327 17.2217 24.5811C17.2718 27.7852 18.3732 30.9392 20.3758 33.4924ZM19.9252 24.5811C19.9252 18.3732 24.9315 13.2167 31.1394 13.0164H31.2896C31.3397 13.0164 31.4398 13.0164 31.4899 13.0164C31.5399 13.0164 31.6401 13.0164 31.6901 13.0164H31.7903C37.9981 13.1666 43.0546 18.3732 43.0546 24.5811C43.0546 30.789 38.0482 35.9455 31.8403 36.1458H31.6901C31.5399 36.1458 31.3897 36.1458 31.2396 36.1458H31.0894C24.9816 35.9455 19.9252 30.7389 19.9252 24.5811ZM45.7079 24.5811C45.7079 21.327 44.6065 18.173 42.5539 15.6698C46.559 17.6723 50.0134 20.8263 52.3664 24.5811C49.9633 28.3859 46.559 31.4899 42.5539 33.4924C44.6065 30.9392 45.7079 27.7852 45.7079 24.5811Z" fill="#00AEEF"/>
<path d="M38.0481 24.5811C38.0481 23.6299 37.8478 22.7287 37.4473 21.8776C37.247 21.377 36.7464 21.0766 36.2458 21.0766C36.0455 21.0766 35.8453 21.1267 35.6951 21.1767C35.0442 21.4771 34.7439 22.2781 35.0442 22.979C35.2946 23.4797 35.3947 24.0304 35.3947 24.5811C35.3947 26.7338 33.6425 28.486 31.4897 28.486C29.337 28.486 27.5848 26.7338 27.5848 24.5811C27.5848 22.4283 29.337 20.6761 31.4897 20.6761C32.0404 20.6761 32.5911 20.7762 33.0918 21.0266C33.292 21.1267 33.4422 21.1267 33.6425 21.1267C34.1932 21.1267 34.6437 20.8263 34.844 20.3257C35.1444 19.6248 34.844 18.8738 34.1932 18.5234C33.3421 18.1229 32.4409 17.9226 31.4897 17.9226C27.8851 17.9226 24.9314 20.8764 24.9314 24.531C24.9314 28.1856 27.8851 31.1394 31.4897 31.1394C35.0943 31.1394 38.0481 28.1856 38.0481 24.5811Z" fill="#00AEEF"/>
<path d="M61.4281 0.60083H1.50196C1.05139 0.60083 0.650879 1.00134 0.650879 1.50197V47.7607C0.650879 48.2614 1.05139 48.6118 1.50196 48.6118H61.4281C61.8786 48.6118 62.2792 48.2113 62.2792 47.7607V1.50197C62.3292 1.00134 61.9287 0.60083 61.4281 0.60083ZM60.0764 46.3089H2.85368V2.90376H60.0764V46.3089Z" fill="#00AEEF"/>
</g>
<defs>
<clipPath id="clip0">
<rect width="62.98" height="58.7747" fill="white"/>
</clipPath>
</defs>
</svg>
