<svg width="26" height="27" viewBox="0 0 26 27" fill="none" xmlns="http://www.w3.org/2000/svg">
<path d="M25.3389 0.672506C25.3389 0.157524 25.1813 0 24.678 0C19.9182 0 15.1645 0 10.4048 0C9.85299 0 9.67715 0.169641 9.67715 0.720974C9.67715 6.02226 9.67715 11.3175 9.67715 16.6188C9.67715 17.1277 9.84693 17.2913 10.3502 17.2913C15.116 17.2913 19.8879 17.2913 24.6537 17.2913C25.2237 17.2913 25.345 17.1701 25.345 16.6006C25.345 13.959 25.345 11.3114 25.345 8.66987C25.3389 6.00408 25.345 3.33829 25.3389 0.672506ZM15.0433 1.16325C15.3828 1.16325 15.6617 1.42983 15.6617 1.76911C15.6617 2.09628 15.3767 2.39315 15.0493 2.39315C14.734 2.39921 14.4248 2.09022 14.4248 1.78123C14.4248 1.44195 14.7037 1.16325 15.0433 1.16325ZM13.1757 1.15719C13.5153 1.14508 13.7942 1.41771 13.7942 1.757C13.8003 2.09022 13.5153 2.38103 13.1879 2.38709C12.8786 2.39315 12.5876 2.1084 12.5755 1.78729C12.5694 1.45407 12.8301 1.16931 13.1757 1.15719ZM11.3325 1.16325C11.6659 1.16325 11.957 1.44801 11.9509 1.77517C11.9449 2.09628 11.6417 2.39921 11.3264 2.39315C10.999 2.39315 10.714 2.10234 10.714 1.76911C10.7201 1.42983 10.9868 1.15719 11.3325 1.16325ZM24.3384 15.9038C24.3384 16.025 24.3384 16.1401 24.3384 16.2977C24.1929 16.2977 24.0838 16.2977 23.9746 16.2977C19.6878 16.2977 15.4071 16.2977 11.1202 16.2977C10.7079 16.2977 10.7079 16.2977 10.7079 15.8917C10.7079 11.9052 10.7079 7.91254 10.7079 3.92598C10.7079 3.52611 10.7079 3.52611 11.1021 3.52611C15.3889 3.52611 19.6696 3.53217 23.9565 3.52005C24.2657 3.52005 24.3445 3.60487 24.3445 3.9078C24.3324 7.90648 24.3384 11.9052 24.3384 15.9038Z" fill="#00AEEF"/>
<path d="M21.8646 18.4727C21.8646 19.1331 21.8646 19.7753 21.8646 20.4357C14.916 20.4357 8.00975 20.4357 1.07928 20.4357C1.07928 16.2371 1.07928 12.0566 1.07928 7.83984C3.5774 7.83984 6.04521 7.83984 8.51907 7.83984C8.51907 7.48238 8.51907 7.16734 8.51907 6.79776C8.35536 6.79776 8.22197 6.79776 8.09464 6.79776C5.65715 6.79776 3.22573 6.80382 0.788242 6.80382C0.127331 6.80382 0 6.93105 0 7.60356C0.0060634 11.9779 0.0121268 16.3522 0.0121268 20.7204C0.0121268 21.3627 0.151585 21.502 0.794305 21.502C7.88848 21.502 14.9827 21.5081 22.0768 21.5081C22.2163 21.5081 22.3618 21.5081 22.5013 21.4838C22.7377 21.4414 22.9075 21.29 22.9075 21.0597C22.9257 20.2055 22.9136 19.3512 22.9136 18.4788C22.5558 18.4727 22.2284 18.4727 21.8646 18.4727Z" fill="#00AEEF"/>
<path d="M2.74065 8.7971C2.17675 8.7971 2.0191 8.95462 2.0191 9.51807C2.0191 11.9233 2.0191 14.3225 2.0191 16.7278C2.0191 17.4427 2.0191 18.1637 2.0191 18.8786C2.0191 19.327 2.19494 19.4966 2.64363 19.5087C2.72246 19.5087 2.80735 19.5087 2.88617 19.5087C8.49481 19.5087 14.1035 19.5087 19.706 19.5087C19.8758 19.5087 20.0516 19.5148 20.2214 19.5027C20.5246 19.4784 20.6944 19.3027 20.7186 18.9937C20.7307 18.8241 20.7186 18.6545 20.7186 18.4485C14.825 18.4485 8.96169 18.4485 3.09839 18.4485C3.09839 15.9463 3.09839 13.4925 3.09839 11.0024C4.91741 11.0024 6.70611 11.0024 8.51907 11.0024C8.51907 10.2693 8.51907 9.56654 8.51907 8.80316C8.37961 8.80316 8.27047 8.80316 8.16133 8.80316C6.3605 8.7971 4.5536 8.7971 2.74065 8.7971ZM3.5107 10.3178C3.28635 10.3239 3.08626 10.13 3.08626 9.89976C3.08626 9.68165 3.27423 9.49384 3.49251 9.49384C3.70473 9.49384 3.89269 9.68165 3.89876 9.8937C3.90482 10.1179 3.72292 10.3117 3.5107 10.3178ZM4.77189 10.3239C4.54754 10.3299 4.34745 10.136 4.35351 9.89976C4.35958 9.68165 4.54148 9.4999 4.75976 9.4999C4.97198 9.4999 5.15994 9.68771 5.16601 9.90582C5.16601 10.1179 4.98411 10.3117 4.77189 10.3239ZM6.03307 10.3239C5.80873 10.3299 5.6147 10.13 5.62076 9.89976C5.62683 9.68165 5.81479 9.4999 6.03307 9.4999C6.24529 9.50595 6.43326 9.69983 6.43326 9.91188C6.43326 10.1239 6.24529 10.3117 6.03307 10.3239Z" fill="#00AEEF"/>
<path d="M15.5041 25.0645C12.7998 25.0645 10.0955 25.0645 7.38519 25.0645C7.30637 25.0645 7.19723 25.0402 7.14872 25.0826C7.0032 25.2038 6.79704 25.3311 6.76066 25.4886C6.73034 25.6461 6.83342 25.8763 6.95469 26.0096C7.03958 26.1066 7.2518 26.1247 7.40338 26.1247C8.75552 26.1308 10.1077 26.1308 11.4598 26.1308C11.6538 26.1308 11.8418 26.1308 12.0358 26.1308C13.2182 26.1308 14.4005 26.1308 15.5768 26.1308C16.0013 26.1308 16.2499 25.8582 16.1771 25.4886C16.1286 25.2038 15.9103 25.0645 15.5041 25.0645Z" fill="#00AEEF"/>
<path d="M9.75598 22.7561C9.74992 22.5017 9.61046 22.3502 9.36793 22.3442C9.11326 22.3381 8.98593 22.5077 8.98593 22.7561C8.97987 23.1075 8.97987 23.465 8.98593 23.8164C8.98593 24.0709 9.13145 24.2163 9.38005 24.2163C10.7746 24.2223 12.1692 24.2163 13.5638 24.2102C13.8185 24.2102 13.9519 24.0648 13.9579 23.8103C13.964 23.465 13.964 23.1257 13.9579 22.7804C13.9519 22.5017 13.8003 22.332 13.5699 22.3381C13.3455 22.3381 13.1939 22.5138 13.1818 22.7925C13.1757 22.9985 13.1818 23.2045 13.1818 23.4226C12.0176 23.4226 10.9141 23.4226 9.75598 23.4226C9.75598 23.1802 9.75598 22.9682 9.75598 22.7561Z" fill="#00AEEF"/>
<path d="M4.6627 14.1711C5.21447 14.1771 5.76624 14.1711 6.31194 14.1711C6.31194 13.4077 6.31194 12.6867 6.31194 11.9657C5.57221 11.9657 4.86279 11.9657 4.10487 11.9657C4.10487 12.5353 4.0988 13.0745 4.10487 13.6076C4.11093 14.268 4.03211 14.165 4.6627 14.1711Z" fill="#00AEEF"/>
<path d="M4.10491 17.467C4.87496 17.467 5.58438 17.467 6.31199 17.467C6.31199 16.7399 6.31199 16.0311 6.31199 15.2798C5.62076 15.2798 4.96591 15.2798 4.305 15.2798C4.14129 15.2798 4.09885 15.3586 4.09885 15.504C4.10491 15.9281 4.09885 16.3522 4.09885 16.7763C4.10491 17.0005 4.10491 17.2246 4.10491 17.467Z" fill="#00AEEF"/>
<path d="M8.34931 16.4976C8.54941 16.5036 8.5676 16.4067 8.5009 16.2189C8.23411 16.2189 7.97945 16.2068 7.73085 16.225C7.65202 16.231 7.57926 16.3158 7.5065 16.3643C7.58532 16.4067 7.65809 16.4855 7.74297 16.4915C7.94307 16.5097 8.14922 16.4915 8.34931 16.4976Z" fill="#00AEEF"/>
<path d="M7.68839 15.2738C7.62776 15.2798 7.57319 15.3586 7.51862 15.401C7.57319 15.4495 7.62169 15.5282 7.67626 15.5343C7.95518 15.5464 8.2341 15.5403 8.51301 15.5403C8.5312 15.504 8.54939 15.4676 8.56758 15.4373C8.49482 15.3828 8.42206 15.2798 8.34324 15.2738C8.13102 15.2495 7.90667 15.2556 7.68839 15.2738Z" fill="#00AEEF"/>
<path d="M7.69441 12.9533C7.63378 12.9594 7.57315 13.0442 7.51251 13.0926C7.57315 13.1351 7.62772 13.2078 7.68835 13.2138C7.91876 13.2259 8.15523 13.232 8.38564 13.2078C8.45234 13.2017 8.50691 13.0866 8.56754 13.0199C8.54935 12.9957 8.5251 12.9715 8.50691 12.9472C8.24012 12.9472 7.96727 12.9412 7.69441 12.9533Z" fill="#00AEEF"/>
<path d="M7.70048 11.99C7.63378 11.9961 7.57921 12.0809 7.51251 12.1293C7.57315 12.1718 7.62772 12.2445 7.69441 12.2445C7.9127 12.2566 8.13704 12.2445 8.36139 12.2505C8.56754 12.2566 8.56754 12.1536 8.50691 11.9779C8.24012 11.9839 7.96727 11.9718 7.70048 11.99Z" fill="#00AEEF"/>
<path d="M7.63383 17.4306C7.96732 17.4367 8.30687 17.4367 8.73737 17.4367C8.6161 17.3095 8.56153 17.2004 8.49483 17.1943C8.21592 17.1762 7.93094 17.1822 7.65202 17.1943C7.60351 17.1943 7.54894 17.2731 7.52469 17.3276C7.51256 17.3397 7.59139 17.4306 7.63383 17.4306Z" fill="#00AEEF"/>
<path d="M7.67622 14.159C7.79143 14.1771 7.91876 14.165 8.03396 14.165V14.159C8.16736 14.159 8.29469 14.1711 8.42202 14.1529C8.46446 14.1468 8.51297 14.0681 8.5251 14.0136C8.53116 13.9893 8.4584 13.9166 8.41596 13.9166C8.16736 13.9045 7.9127 13.9045 7.6641 13.9166C7.61559 13.9166 7.56708 13.9893 7.51251 14.0257C7.57315 14.0741 7.62165 14.1468 7.67622 14.159Z" fill="#00AEEF"/>
<path d="M22.3375 12.5837C19.0754 12.5837 15.8133 12.5898 12.5573 12.5777C12.3026 12.5777 12.2541 12.6807 12.2602 12.8988C12.2723 13.4744 12.2783 14.0499 12.2541 14.6255C12.242 14.9102 12.345 14.9769 12.6179 14.9769C15.8376 14.9708 19.0572 14.9708 22.2769 14.9708C22.3739 14.9708 22.477 14.9708 22.6104 14.9708C22.6104 14.2074 22.6043 13.5046 22.6104 12.8019C22.6164 12.5837 22.4952 12.5837 22.3375 12.5837Z" fill="#00AEEF"/>
<path d="M12.624 8.6941C13.6305 8.68199 14.6431 8.68804 15.6496 8.68804C15.7588 8.68804 15.8619 8.67593 15.9771 8.66987C15.9771 7.42785 15.9771 6.21007 15.9771 4.94988C14.7826 4.94988 13.6245 4.94988 12.4603 4.94988C12.242 4.94988 12.2602 5.08923 12.2602 5.23464C12.2602 6.27066 12.2723 7.31274 12.2541 8.34876C12.2481 8.63958 12.3572 8.6941 12.624 8.6941Z" fill="#00AEEF"/>
<path d="M21.616 7.02798C21.5857 7.02798 21.5554 7.02798 21.5251 7.02798C20.1608 7.02798 18.7965 7.02798 17.4383 7.02798C17.3656 7.02798 17.2807 7.0098 17.2322 7.04009C17.1412 7.10068 17.026 7.19762 17.02 7.28244C17.02 7.3612 17.1412 7.45814 17.2322 7.51266C17.2928 7.54902 17.3898 7.52478 17.4686 7.52478C18.1538 7.52478 18.839 7.52478 19.5302 7.52478C20.2275 7.52478 20.9248 7.52478 21.6221 7.52478C21.7919 7.52478 21.998 7.5369 22.0041 7.29455C22.0101 7.02798 21.7919 7.04615 21.616 7.02798Z" fill="#00AEEF"/>
<path d="M17.1776 5.77991C17.2564 5.82838 17.3716 5.82232 17.4687 5.82232C18.1417 5.82232 18.8208 5.82232 19.4938 5.82232C20.179 5.82232 20.8642 5.82232 21.5493 5.82232C21.6585 5.82232 21.7797 5.81626 21.8707 5.77385C21.9313 5.74356 21.998 5.6345 21.9919 5.56786C21.9919 5.49515 21.9192 5.40427 21.8525 5.37398C21.7797 5.33763 21.6766 5.34369 21.5857 5.34369C20.1972 5.34369 18.8026 5.34369 17.4141 5.34369C17.3413 5.34369 17.2625 5.32551 17.2079 5.3558C17.1291 5.39821 17.02 5.48304 17.02 5.54968C17.0139 5.61632 17.0988 5.73144 17.1776 5.77991Z" fill="#00AEEF"/>
<path d="M17.3534 9.22121C18.0689 9.22121 18.7844 9.22121 19.5059 9.22121C20.2214 9.22121 20.9369 9.22121 21.6584 9.22121C21.8221 9.22121 22.004 9.23332 22.004 8.99704C22.0101 8.75469 21.8221 8.76681 21.6584 8.76681C20.2275 8.76681 18.7904 8.76681 17.3595 8.76681C17.1897 8.76681 17.0078 8.76681 17.0078 8.99704C17.0017 9.22726 17.1836 9.22121 17.3534 9.22121Z" fill="#00AEEF"/>
<path d="M17.3474 10.9297C18.0568 10.9297 18.7601 10.9297 19.4696 10.9297C19.6211 10.9297 19.7727 10.9297 19.9243 10.9297C20.5307 10.9297 21.137 10.9358 21.7433 10.9176C21.8343 10.9176 21.9192 10.7843 22.0101 10.7116C21.9252 10.6329 21.8464 10.548 21.7555 10.4753C21.7312 10.4572 21.6766 10.4693 21.6342 10.4693C20.2093 10.4693 18.7905 10.4693 17.3656 10.4693C17.1958 10.4693 17.0199 10.4814 17.0078 10.6995C16.9957 10.9418 17.1837 10.9297 17.3474 10.9297Z" fill="#00AEEF"/>
</svg>
