<svg width="27" height="34" viewBox="0 0 27 34" fill="none" xmlns="http://www.w3.org/2000/svg">
<path d="M27 22.0011V18.5831H20.9085V19.8603H16.2256L13.939 18.745V11.6751H13.061V18.745L9.91463 20.2921L13.061 21.8392V23.2963H3.47561V22.0191H6.09146V18.6011H0V22.0191H2.61585V23.2963V23.728V25.437H0V28.855H6.09146V25.437H3.47561V24.1598H13.061V25.437H10.4451V28.855H13.061V30.564H12.1829C11.2134 30.564 10.4451 31.3376 10.4451 32.273C10.4451 33.2265 11.2317 33.982 12.1829 33.982H14.8171C15.7866 33.982 16.5549 33.2085 16.5549 32.273C16.5549 31.3196 15.7683 30.564 14.8171 30.564H13.939V28.855H16.5549V25.437H13.939V24.1598V23.2963V21.8392L16.2256 20.7238H20.9085V22.0011H23.5244V25.491C22.7744 25.6889 22.2256 26.3545 22.2256 27.146C22.2256 28.0995 23.0122 28.855 23.9634 28.855C24.9329 28.855 25.7012 28.0815 25.7012 27.146C25.7012 26.3545 25.1524 25.6889 24.4024 25.491V22.0011H27ZM5.23171 26.2825V27.9915H0.878049V26.2825H5.23171ZM0.878049 21.1556V19.4466H5.23171V21.1556H0.878049ZM14.8171 31.4275C15.2927 31.4275 15.6951 31.8053 15.6951 32.291C15.6951 32.7587 15.311 33.1545 14.8171 33.1545H12.2012C11.7256 33.1545 11.3232 32.7767 11.3232 32.291C11.3232 31.8233 11.7073 31.4275 12.2012 31.4275H14.8171ZM15.6768 26.2825V27.9915H11.3232V26.2825H15.6768ZM13.5 21.1016L11.8537 20.2921L13.5 19.4825L15.1463 20.2921L13.5 21.1016ZM24.8232 27.146C24.8232 27.6138 24.439 28.0095 23.9451 28.0095C23.4695 28.0095 23.0671 27.6318 23.0671 27.146C23.0671 26.6783 23.4512 26.2825 23.9451 26.2825C24.439 26.2825 24.8232 26.6783 24.8232 27.146ZM21.7683 21.1556V19.4466H26.122V21.1556H21.7683Z" fill="#00AEEF"/>
<path fill-rule="evenodd" clip-rule="evenodd" d="M18.0176 6.2963C17.853 6.27831 17.7067 6.38625 17.6884 6.54815C17.414 8.59895 15.6213 10.146 13.4993 10.146C11.1762 10.146 9.27374 8.27514 9.27374 5.99048C9.27374 3.70582 11.1762 1.83492 13.4993 1.83492C15.603 1.83492 17.414 3.38201 17.6884 5.43281C17.7067 5.59471 17.853 5.70265 18.0176 5.68466C18.1823 5.66667 18.292 5.52275 18.2737 5.36085C17.9628 3.04022 15.914 1.25926 13.4993 1.25926C10.8469 1.25926 8.68837 3.38201 8.68837 6.00847C8.68837 8.61694 10.8469 10.7397 13.4993 10.7397C15.914 10.7397 17.9628 8.97672 18.2737 6.62011C18.292 6.4582 18.1823 6.31429 18.0176 6.2963ZM14.9262 6.31429C14.853 6.38625 14.8347 6.47619 14.8347 6.56614L15.0725 8.13122L13.6274 7.42963C13.5908 7.41164 13.5359 7.39365 13.4993 7.39365C13.4628 7.39365 13.4079 7.41164 13.3713 7.42963L11.9262 8.13122L12.164 6.56614C12.1823 6.47619 12.1457 6.38625 12.0725 6.31429L10.9384 5.18096L12.5298 4.91111C12.6213 4.89313 12.6945 4.83916 12.7493 4.74921L13.4993 3.34604L14.2493 4.74921C14.2859 4.83916 14.3774 4.89313 14.4689 4.91111L16.0603 5.18096L14.9262 6.31429ZM16.9567 4.89313C16.9201 4.78519 16.8286 4.71323 16.7189 4.69524L14.7067 4.37143L13.7737 2.59048C13.7189 2.50053 13.6274 2.42857 13.5176 2.42857C13.4079 2.42857 13.2981 2.48254 13.2615 2.59048L12.3286 4.37143L10.3164 4.69524C10.2067 4.71323 10.1152 4.78519 10.0786 4.89313C10.042 5.00106 10.0786 5.109 10.1518 5.18096L11.5786 6.60212L11.2859 8.58096C11.2676 8.68889 11.3225 8.79683 11.414 8.86879C11.5054 8.94074 11.6152 8.94075 11.725 8.88678L13.5542 7.98731L15.3835 8.88678C15.4201 8.90477 15.475 8.92276 15.5115 8.92276C15.5664 8.92276 15.6396 8.90477 15.6945 8.86879C15.7859 8.79683 15.8225 8.68889 15.8225 8.58096L15.5298 6.60212L16.9567 5.18096C16.9567 5.12699 16.975 5.00106 16.9567 4.89313ZM8.08471 6.00847C8.08471 3.0582 10.5176 0.683601 13.4993 0.683601C16.4811 0.683601 18.914 3.07619 18.914 6.00847C18.914 8.94074 16.4811 11.3333 13.4993 11.3333C10.5176 11.3333 8.08471 8.94074 8.08471 6.00847ZM21.2371 16.4603L19.042 11.2434L18.7676 10.5778C18.7128 10.4339 18.5298 10.3619 18.3835 10.4159C18.2372 10.4698 18.164 10.6497 18.2189 10.7937L20.4506 16.1005L18.4018 15.5249C18.2737 15.4889 18.1274 15.5429 18.0542 15.6688L17.0298 17.5037L14.6335 11.8011C17.414 11.2794 19.4993 8.86879 19.4993 5.99048C19.4993 2.73439 16.8103 0.0719604 13.4811 0.0719604C10.1701 0.0719604 7.46276 2.7164 7.46276 5.99048C7.46276 7.30371 7.90179 8.52699 8.65179 9.51641L5.72496 16.4423C5.68837 16.5503 5.70667 16.6582 5.77984 16.7482C5.85301 16.8381 5.98106 16.8741 6.09081 16.8381L8.50545 16.1545L9.71276 18.3132C9.76764 18.4032 9.8591 18.4571 9.96886 18.4571H9.98715C10.0969 18.4571 10.2067 18.3852 10.2432 18.2773L12.5481 12.7905C12.603 12.6466 12.5481 12.4667 12.3835 12.4127C12.2372 12.3587 12.0542 12.4127 11.9993 12.5746L9.95057 17.5037L8.92618 15.6688C8.85301 15.5429 8.70666 15.4889 8.57862 15.5249L6.52984 16.1005L9.09081 10.0201C10.1884 11.1714 11.7432 11.891 13.4811 11.891C13.664 11.891 13.8286 11.891 14.0115 11.873L16.7006 18.2773C16.7372 18.3852 16.8469 18.4571 16.9567 18.4571H16.975C17.0847 18.4571 17.1762 18.4032 17.2311 18.3132L18.4384 16.1545L20.853 16.8381C20.9628 16.8741 21.0908 16.8381 21.164 16.7482C21.2737 16.6762 21.292 16.5683 21.2371 16.4603Z" fill="#00AEEF"/>
<path d="M17.0118 18.5651H16.9935C16.8472 18.5651 16.7191 18.4571 16.6642 18.3312L13.9752 11.981C13.8106 11.9989 13.6642 11.9989 13.4996 11.9989C11.8716 11.9989 10.2801 11.3333 9.14594 10.2L6.71302 15.9746L8.57887 15.4529C8.7435 15.3989 8.94472 15.4889 9.03619 15.6328L9.96911 17.3058L11.963 12.5566C12.0362 12.3587 12.274 12.2688 12.4752 12.3407C12.5667 12.3767 12.6398 12.4487 12.6947 12.5566C12.7313 12.6466 12.7313 12.7545 12.6947 12.8444L10.3898 18.3312C10.335 18.4751 10.2069 18.5651 10.0423 18.5651H10.024C9.87765 18.5651 9.7496 18.4931 9.67643 18.3672L8.5057 16.2624L6.16424 16.928C6.01789 16.964 5.87155 16.928 5.7618 16.8201C5.67033 16.7122 5.63375 16.5503 5.68863 16.4243L8.57887 9.53439C7.81058 8.509 7.40814 7.28571 7.40814 5.99048C7.38985 2.69841 10.1337 0 13.4996 0C16.8655 0 19.6094 2.69841 19.6094 6.00847C19.6094 8.85079 17.5789 11.2974 14.7801 11.873L17.0667 17.3058L17.9996 15.6328C18.0911 15.4709 18.274 15.3989 18.4569 15.4529L20.3228 15.9746L18.1276 10.8476C18.0545 10.6497 18.1459 10.4339 18.3472 10.3439C18.5484 10.272 18.7679 10.3619 18.8594 10.5598L21.3289 16.4423C21.3837 16.5862 21.3655 16.7302 21.2557 16.8381C21.1825 16.928 21.0728 16.964 20.963 16.964C20.9264 16.964 20.8898 16.964 20.8533 16.946L18.5118 16.2804L17.3411 18.3852C17.2862 18.4931 17.1398 18.5651 17.0118 18.5651ZM14.085 11.8011L16.8106 18.2593C16.8472 18.3312 16.9203 18.3852 16.9935 18.3852L17.0118 18.4751V18.3852C17.085 18.3852 17.1581 18.3492 17.1947 18.2772L18.4386 16.0466L20.9081 16.7481C20.9264 16.7481 20.9447 16.7481 20.963 16.7481C21.0179 16.7481 21.0728 16.7302 21.1094 16.6762C21.1642 16.6222 21.1825 16.5323 21.1459 16.4603L18.6764 10.6138C18.6398 10.5058 18.5118 10.4698 18.402 10.5058C18.2923 10.5418 18.2374 10.6677 18.2923 10.7757L20.5972 16.2624L18.3655 15.6328C18.274 15.6148 18.1642 15.6508 18.1276 15.7228L17.0118 17.7196L14.5057 11.7471L14.6155 11.7291C17.3959 11.2074 19.4081 8.79683 19.4081 6.00847C19.4264 2.78836 16.774 0.179894 13.4996 0.179894C10.2435 0.179894 7.57277 2.78836 7.57277 6.00847C7.57277 7.26772 7.97521 8.47302 8.7435 9.48042L8.78009 9.5164L8.7618 9.57037L5.83497 16.4963C5.79838 16.5683 5.81667 16.6582 5.87155 16.7122C5.92643 16.7661 5.9996 16.8021 6.09106 16.7661L8.56058 16.0646L9.80448 18.2952C9.84106 18.3672 9.91424 18.4032 9.98741 18.4032C10.0789 18.4032 10.152 18.3492 10.1703 18.2772L12.4935 12.7725C12.5118 12.7185 12.5118 12.6645 12.4935 12.6106C12.4752 12.5566 12.4386 12.5206 12.3837 12.5026C12.274 12.4667 12.1642 12.5206 12.1094 12.6106L9.96911 17.7196L8.85326 15.7228C8.79838 15.6328 8.70692 15.5968 8.61545 15.6328L6.38375 16.2624L9.07277 9.87619L9.16424 9.98413C10.2801 11.1534 11.8533 11.837 13.4813 11.837C13.6459 11.837 13.8289 11.837 14.0118 11.819L14.085 11.8011ZM13.4996 11.4233C10.463 11.4233 7.9935 8.99471 7.9935 6.00847C7.9935 3.02222 10.463 0.593651 13.4996 0.593651C16.5362 0.593651 19.0057 3.02222 19.0057 6.00847C19.0057 8.99471 16.5362 11.4233 13.4996 11.4233ZM13.4996 0.773545C10.5728 0.773545 8.17643 3.13016 8.17643 6.00847C8.17643 8.88677 10.5728 11.2434 13.4996 11.2434C16.4264 11.2434 18.8228 8.88677 18.8228 6.00847C18.8228 3.11217 16.4447 0.773545 13.4996 0.773545ZM13.4996 10.8296C10.7923 10.8296 8.59716 8.6709 8.59716 6.00847C8.59716 3.34603 10.7923 1.16931 13.4996 1.16931C15.9508 1.16931 18.0362 2.96825 18.3655 5.36085C18.402 5.57672 18.2374 5.75661 18.0362 5.79259C17.8167 5.82857 17.6337 5.66667 17.5972 5.46878C17.3228 3.45397 15.5667 1.94286 13.4996 1.94286C11.213 1.94286 9.36546 3.75979 9.36546 6.00847C9.36546 8.25714 11.213 10.0741 13.4996 10.0741C15.5667 10.0741 17.3228 8.56296 17.5972 6.54815C17.6337 6.33228 17.8167 6.18836 18.0362 6.22434C18.1459 6.24233 18.2374 6.2963 18.2923 6.36825C18.3472 6.4582 18.3837 6.54815 18.3655 6.65608C18.0545 9.03069 15.9508 10.8296 13.4996 10.8296ZM13.4996 1.34921C10.902 1.34921 8.78009 3.43598 8.78009 6.00847C8.78009 8.58095 10.902 10.6497 13.4996 10.6497C15.8594 10.6497 17.8716 8.92275 18.1825 6.62011C18.1825 6.56614 18.1825 6.51217 18.1459 6.47619C18.1094 6.44021 18.0545 6.40423 17.9996 6.40423C17.8898 6.38624 17.7801 6.47619 17.7618 6.58413C17.4874 8.68889 15.6398 10.272 13.4813 10.272C11.1033 10.272 9.16424 8.36508 9.16424 6.02645C9.16424 3.68783 11.1033 1.78095 13.4813 1.78095C15.6398 1.78095 17.4691 3.36402 17.7618 5.46878C17.7801 5.57672 17.8716 5.66667 17.9996 5.64868C18.1094 5.63069 18.2008 5.52275 18.1825 5.41481C17.8716 3.09418 15.8594 1.34921 13.4996 1.34921ZM15.4569 9.03069C15.402 9.03069 15.3289 9.0127 15.2923 8.99471L13.5179 8.11323L11.7252 8.99471C11.5972 9.04868 11.4325 9.04868 11.3228 8.95873C11.213 8.86878 11.1398 8.72487 11.1581 8.59894L11.4508 6.65608L10.0606 5.25291C9.95082 5.14497 9.91424 5.00106 9.96911 4.85714C10.0057 4.71323 10.1337 4.62328 10.2801 4.60529L12.2374 4.28148L13.152 2.5545C13.2252 2.42857 13.3533 2.35661 13.4996 2.35661C13.6459 2.35661 13.774 2.42857 13.8472 2.5545L14.7618 4.28148L16.7191 4.60529C16.8655 4.62328 16.9752 4.73122 17.0301 4.85714C17.0667 5.00106 17.0484 5.14497 16.9386 5.25291L15.5484 6.65608L15.8411 8.59894C15.8594 8.74286 15.8045 8.88677 15.6764 8.95873C15.6216 9.0127 15.5301 9.03069 15.4569 9.03069ZM13.4996 7.91534L15.3655 8.8328C15.4386 8.86878 15.5118 8.85079 15.585 8.81481C15.6398 8.76085 15.6764 8.68889 15.6764 8.61693L15.3655 6.58413L16.8289 5.12698C16.8837 5.07302 16.902 5.00106 16.8837 4.9291C16.8655 4.85714 16.7923 4.80317 16.7191 4.78519L14.6703 4.44339L13.7008 2.62646C13.6277 2.48254 13.4081 2.48254 13.335 2.62646L12.3655 4.44339L10.3167 4.78519C10.2435 4.80317 10.1703 4.85714 10.152 4.9291C10.1337 5.00106 10.152 5.07302 10.2069 5.12698L11.6703 6.58413L11.3411 8.61693C11.3228 8.68889 11.3594 8.76085 11.4325 8.81481C11.4874 8.85079 11.5789 8.86878 11.652 8.8328L13.4996 7.91534ZM15.2008 8.29312L13.6094 7.50159C13.5545 7.46561 13.4813 7.46561 13.4264 7.50159L11.835 8.29312L12.0911 6.54815C12.1094 6.49418 12.0728 6.42222 12.0362 6.36825L10.7923 5.10899L12.5484 4.82116C12.6033 4.80317 12.6764 4.7672 12.6947 4.71323L13.5179 3.14815L14.3411 4.71323C14.3777 4.7672 14.4325 4.80317 14.4874 4.82116L16.2435 5.10899L14.9996 6.36825C14.963 6.42222 14.9264 6.47619 14.9447 6.54815L15.2008 8.29312ZM11.1398 5.25291L12.1459 6.26032C12.2374 6.35026 12.274 6.4582 12.2557 6.58413L12.0362 7.9873L13.3167 7.35767C13.4264 7.3037 13.5545 7.3037 13.6642 7.35767L14.9447 7.9873L14.7252 6.58413C14.7069 6.4582 14.7435 6.35026 14.835 6.26032L15.8411 5.25291L14.4508 5.01905C14.3228 5.00106 14.2313 4.9291 14.1764 4.82116L13.5179 3.5619L12.8594 4.82116C12.8045 4.9291 12.6947 5.00106 12.585 5.01905L11.1398 5.25291Z" fill="#00AEEF"/>
<path fill-rule="evenodd" clip-rule="evenodd" d="M18.2927 9.37248L19.1159 11.4053C19.1159 11.4053 18.5854 11.6931 18.5671 11.6392C18.5488 11.5852 17.8354 9.89418 17.8354 9.89418" fill="#00AEEF"/>
<path d="M18.5671 11.7291C18.5488 11.7291 18.5488 11.7291 18.5305 11.7291L18.4939 11.7111L18.4756 11.6751C18.4573 11.6212 17.7439 9.93015 17.7439 9.93015L17.9085 9.85819C17.9085 9.85819 18.4939 11.2254 18.6219 11.5312C18.6951 11.4952 18.8598 11.4233 19.0061 11.3513L18.2195 9.39047L18.3841 9.31851L19.2256 11.4233L19.1524 11.4593C18.7683 11.6931 18.6402 11.7291 18.5671 11.7291Z" fill="#00AEEF"/>
<path fill-rule="evenodd" clip-rule="evenodd" d="M12.3289 13.4021L13.0241 11.7831L12.457 11.5492L11.7253 13.3302L12.3289 13.4021Z" fill="#00AEEF"/>
<path d="M12.384 13.5101L11.5791 13.4021L12.4023 11.4413L13.134 11.7471L12.384 13.5101ZM11.8535 13.2582L12.2742 13.3122L12.8962 11.837L12.4937 11.6751L11.8535 13.2582Z" fill="#00AEEF"/>
</svg>
