<svg width="25" height="44" viewBox="0 0 25 44" fill="none" xmlns="http://www.w3.org/2000/svg">
<g clip-path="url(#clip0)">
<path d="M14.3932 1.88052C14.1565 1.88052 13.9629 1.6882 13.9629 1.45313V0.427392C13.9629 0.192326 14.1565 0 14.3932 0C14.6298 0 14.8235 0.192326 14.8235 0.427392V1.45313C14.8235 1.6882 14.6514 1.88052 14.3932 1.88052Z" fill="#00AEEF"/>
<path d="M15.4903 2.35065C15.3827 2.35065 15.2751 2.30791 15.1891 2.22244C15.017 2.05148 15.017 1.79504 15.1891 1.62409L15.9206 0.89752C16.0927 0.726563 16.3509 0.726563 16.523 0.89752C16.6951 1.06848 16.6951 1.32491 16.523 1.49587L15.7915 2.22244C15.727 2.30791 15.6194 2.35065 15.4903 2.35065Z" fill="#00AEEF"/>
<path d="M16.9965 3.44051H15.9638C15.7271 3.44051 15.5335 3.24818 15.5335 3.01312C15.5335 2.77805 15.7271 2.58572 15.9638 2.58572H16.9965C17.2332 2.58572 17.4268 2.77805 17.4268 3.01312C17.4268 3.24818 17.2332 3.44051 16.9965 3.44051Z" fill="#00AEEF"/>
<path d="M16.2433 5.25692C16.1358 5.25692 16.0282 5.21418 15.9421 5.1287L15.2106 4.40213C15.0385 4.23118 15.0385 3.97474 15.2106 3.80379C15.3827 3.63283 15.6409 3.63283 15.813 3.80379L16.5445 4.53035C16.7167 4.70131 16.7167 4.95774 16.5445 5.1287C16.4585 5.21418 16.3509 5.25692 16.2433 5.25692Z" fill="#00AEEF"/>
<path d="M14.3932 6.00485C14.1565 6.00485 13.9629 5.81253 13.9629 5.57746V4.55172C13.9629 4.31665 14.1565 4.12433 14.3932 4.12433C14.6298 4.12433 14.8235 4.31665 14.8235 4.55172V5.57746C14.8235 5.81253 14.6514 6.00485 14.3932 6.00485Z" fill="#00AEEF"/>
<path d="M12.5646 5.25692C12.457 5.25692 12.3494 5.21418 12.2634 5.1287C12.0912 4.95774 12.0912 4.70131 12.2634 4.53035L12.9949 3.80379C13.167 3.63283 13.4252 3.63283 13.5973 3.80379C13.7694 3.97474 13.7694 4.23118 13.5973 4.40213L12.8658 5.1287C12.7797 5.21418 12.6721 5.25692 12.5646 5.25692Z" fill="#00AEEF"/>
<path d="M12.8442 3.44051H11.8115C11.5748 3.44051 11.3812 3.24818 11.3812 3.01312C11.3812 2.77805 11.5748 2.58572 11.8115 2.58572H12.8442C13.0808 2.58572 13.2745 2.77805 13.2745 3.01312C13.2745 3.24818 13.0808 3.44051 12.8442 3.44051Z" fill="#00AEEF"/>
<path d="M13.2961 2.35066C13.1885 2.35066 13.0809 2.30792 12.9949 2.22244L12.2634 1.47451C12.0912 1.30355 12.0912 1.04711 12.2634 0.876158C12.4355 0.705201 12.6937 0.705201 12.8658 0.876158L13.5973 1.60272C13.7694 1.77368 13.7694 2.03012 13.5973 2.20107C13.5327 2.30792 13.4252 2.35066 13.2961 2.35066Z" fill="#00AEEF"/>
<path d="M10.2623 4.33803C10.6711 4.38076 10.9723 4.53035 11.2735 4.82953L10.8432 5.38514C10.6281 5.15007 10.4129 5.02185 10.1332 5.02185C9.83201 5.02185 9.57384 5.21418 9.57384 5.47061C9.57384 5.6202 9.6599 5.74842 9.83201 5.85527C9.89656 5.89801 10.0256 5.96211 10.3053 6.06896C10.6926 6.21855 10.9293 6.34677 11.1014 6.51772C11.3165 6.71005 11.4456 7.00922 11.4456 7.32977C11.4456 8.0136 11.0153 8.5051 10.2838 8.67605V9.33851H9.87504V8.69742C9.27263 8.67605 8.79931 8.39825 8.45508 7.90675L8.94991 7.41525C9.25112 7.82127 9.55232 7.99223 9.93959 7.99223C10.3053 7.99223 10.585 7.73579 10.585 7.41525C10.585 7.13744 10.4559 7.00922 9.98262 6.8169C9.55232 6.64594 9.29415 6.51772 9.16506 6.38951C8.9284 6.19718 8.7778 5.89801 8.7778 5.55609C8.7778 5.15007 8.99294 4.74405 9.31566 4.53035C9.48778 4.4235 9.61687 4.38076 9.87504 4.33803V3.71831H10.2838V4.33803H10.2623Z" fill="#00AEEF"/>
<path d="M5.55087 14.2108C5.67996 14.3176 5.83056 14.4245 5.98116 14.5313C5.91662 14.7877 5.87359 15.0442 5.87359 15.322H6.51903C6.54055 15.1083 6.56206 14.8946 6.6266 14.6809C6.69115 14.4458 6.60509 14.1894 6.41146 14.0398C6.28237 13.933 6.13177 13.8261 6.00268 13.7193L6.41146 13.0354C6.56206 13.0995 6.73418 13.1637 6.88478 13.2278C7.12144 13.3132 7.37962 13.2705 7.55173 13.0995C7.74536 12.9072 7.98203 12.7363 8.21869 12.5867C8.43383 12.4585 8.54141 12.2234 8.51989 11.9883C8.49838 11.8174 8.47686 11.6464 8.45535 11.4755L9.22987 11.2618C9.29442 11.4113 9.35896 11.5823 9.42351 11.7319C9.50956 11.967 9.72471 12.0952 9.98289 12.1165C10.2626 12.1165 10.5423 12.1593 10.822 12.2234C11.0586 12.2875 11.3168 12.202 11.4674 12.0097C11.575 11.8815 11.6825 11.7319 11.7901 11.6037L12.4786 12.0097C12.414 12.1593 12.3495 12.3302 12.285 12.4798C12.1989 12.7149 12.2419 12.9713 12.414 13.1423C12.6077 13.3346 12.7798 13.5697 12.9304 13.8047C13.0595 14.0184 13.2961 14.1253 13.5328 14.1039C13.7049 14.0825 13.877 14.0612 14.0492 14.0398L14.2643 14.8091C14.1137 14.8732 13.9416 14.9373 13.791 15.0014C13.6404 15.0655 13.5328 15.1724 13.4683 15.3006H14.6731C14.8667 15.151 14.9743 14.8946 14.9097 14.6595L14.6946 13.8261C14.6085 13.5483 14.3288 13.356 14.0492 13.3773C13.877 13.3987 13.6834 13.4201 13.5113 13.4415C13.3607 13.1637 13.1671 12.9286 12.9304 12.6935C12.9949 12.5226 13.0595 12.3516 13.124 12.202C13.2316 11.9242 13.124 11.6037 12.8658 11.4541L12.1128 11.0267C11.8547 10.8771 11.5104 10.9412 11.3383 11.1763C11.2307 11.3045 11.1232 11.4541 11.0156 11.6037C10.7144 11.5182 10.3917 11.4755 10.0905 11.4755C10.0259 11.3045 9.96137 11.1335 9.87531 10.984C9.76774 10.7061 9.44502 10.5566 9.16533 10.642L8.32626 10.8557C8.04657 10.9412 7.85294 11.219 7.87445 11.4968C7.89597 11.6678 7.91748 11.8601 7.939 12.0311C7.65931 12.1807 7.42265 12.373 7.18598 12.608C7.01387 12.5439 6.84175 12.4798 6.69115 12.4157C6.41146 12.3089 6.08874 12.4157 5.93814 12.6722L5.50784 13.4201C5.27118 13.6979 5.31421 14.0184 5.55087 14.2108Z" fill="#00AEEF"/>
<path d="M14.6301 15.4289H13.2101L13.2747 15.2793C13.3607 15.1083 13.4898 14.9801 13.6619 14.916C13.791 14.8519 13.9201 14.8091 14.0492 14.745L13.8986 14.1467C13.7695 14.168 13.6189 14.1894 13.4683 14.1894C13.1886 14.2322 12.9089 14.0826 12.7583 13.8475C12.6292 13.6124 12.4571 13.3987 12.2635 13.2064C12.0698 12.9927 12.0053 12.6935 12.1129 12.4371C12.1774 12.3089 12.2204 12.1807 12.2635 12.0525L11.7256 11.7533C11.6395 11.8601 11.5535 11.967 11.4674 12.0738C11.2953 12.3089 10.9941 12.3944 10.7144 12.3303C10.4562 12.2662 10.1765 12.2234 9.91837 12.2234C9.63868 12.2234 9.38051 12.0525 9.27293 11.7746C9.2299 11.6464 9.16536 11.5182 9.10082 11.39L8.49841 11.5396C8.51992 11.6678 8.54144 11.8174 8.54144 11.9456C8.58447 12.2234 8.43386 12.5012 8.1972 12.6508C7.96054 12.779 7.74539 12.95 7.55176 13.1423C7.33662 13.3346 7.03541 13.3987 6.77724 13.2919C6.64815 13.2278 6.51906 13.185 6.38997 13.1423L6.08877 13.6765C6.19634 13.762 6.30391 13.8475 6.41149 13.933C6.64815 14.1039 6.73421 14.4031 6.66966 14.6809C6.62663 14.8732 6.58361 15.0869 6.56209 15.3006V15.4075H5.70151V15.3006C5.72302 15.0442 5.74453 14.8091 5.80908 14.5741C5.67999 14.4886 5.5509 14.3817 5.44333 14.2749C5.16364 14.0612 5.0991 13.6765 5.27121 13.356L5.70151 12.6081C5.87362 12.3089 6.26089 12.1807 6.58361 12.3089C6.73421 12.373 6.88481 12.4157 7.0139 12.4798C7.20753 12.2875 7.44419 12.1166 7.65934 11.9883C7.63782 11.8388 7.61631 11.6678 7.59479 11.5182C7.55176 11.1763 7.78842 10.8344 8.11114 10.7489L8.95021 10.5352C9.29445 10.4497 9.6602 10.6207 9.78929 10.9412C9.85383 11.0908 9.91837 11.219 9.98292 11.3686C10.2626 11.3686 10.5423 11.4114 10.8005 11.4755C10.8865 11.3473 10.9941 11.219 11.1017 11.1122C11.3168 10.8344 11.7041 10.7703 12.0268 10.9412L12.7798 11.3686C13.081 11.5396 13.2101 11.9242 13.081 12.2448C13.0165 12.3944 12.9735 12.5226 12.9089 12.6722C13.1025 12.8645 13.2747 13.0996 13.4037 13.3346C13.5543 13.3133 13.7265 13.2919 13.8771 13.2705C14.2213 13.2278 14.5655 13.4628 14.6516 13.7834L14.8667 14.6168C14.9313 14.8946 14.8237 15.1938 14.6086 15.3647L14.6301 15.4289ZM13.5974 15.2152H14.5655C14.7161 15.0869 14.7807 14.8946 14.7161 14.7023L14.501 13.8689C14.4364 13.6338 14.1998 13.4842 13.9631 13.5056C13.791 13.527 13.6189 13.5483 13.4253 13.5697H13.3607L13.3177 13.5056C13.1671 13.2492 12.9735 12.9927 12.7583 12.779L12.7153 12.7363L12.7368 12.6722C12.8013 12.5012 12.8659 12.3303 12.9304 12.1807C13.0165 11.9456 12.9304 11.6892 12.7153 11.561L11.9623 11.1336C11.7471 11.0053 11.4674 11.0695 11.3168 11.2618C11.2093 11.39 11.1017 11.5396 10.9941 11.6892L10.9726 11.7319L10.908 11.7105C10.6068 11.6251 10.3056 11.6037 10.0044 11.5823H9.93989L9.89686 11.5396C9.83231 11.3686 9.76777 11.219 9.68171 11.0481C9.57414 10.8344 9.33748 10.7062 9.10082 10.7703L8.26175 10.984C8.02509 11.0481 7.87448 11.2831 7.896 11.5182C7.91751 11.6892 7.93903 11.8601 7.96054 12.0525V12.1166L7.896 12.1593C7.63782 12.3089 7.37965 12.5012 7.1645 12.7149L7.12147 12.7577L7.05693 12.7363C6.88481 12.6722 6.71269 12.6081 6.56209 12.544C6.32543 12.4585 6.06725 12.544 5.93817 12.7577L5.50787 13.5056C5.37879 13.7193 5.44333 13.9971 5.63696 14.1467C5.76605 14.2535 5.91665 14.3604 6.06725 14.4672L6.1318 14.51L6.11028 14.5741C6.04574 14.7878 6.02422 15.0015 6.00271 15.2152H6.433C6.45452 15.0228 6.47603 14.8305 6.54058 14.6382C6.58361 14.4459 6.51906 14.2322 6.36846 14.1253C6.23937 14.0185 6.08877 13.9116 5.95968 13.8048L5.89514 13.7407L6.38997 12.8859L6.47603 12.9286C6.62663 12.9927 6.79875 13.0568 6.94935 13.1209C7.14299 13.2064 7.35813 13.1637 7.48722 13.0141C7.70237 12.8218 7.91751 12.6294 8.17569 12.5012C8.3478 12.3944 8.43386 12.202 8.41235 12.0097C8.39083 11.8388 8.36932 11.6678 8.3478 11.4968V11.4114L9.29445 11.1549L9.33748 11.2404C9.40202 11.39 9.46657 11.561 9.53111 11.7105C9.61717 11.9029 9.78929 12.0097 9.98292 12.0097C10.2626 12.0097 10.5638 12.0525 10.8435 12.1166C11.0371 12.1593 11.2523 12.0952 11.3599 11.9456C11.4674 11.8174 11.575 11.6678 11.6826 11.5396L11.7471 11.4755L12.6077 11.967L12.5647 12.0525C12.5001 12.202 12.4356 12.373 12.371 12.5226C12.285 12.7149 12.328 12.9286 12.4786 13.0568C12.6722 13.2705 12.8659 13.4842 12.995 13.7407C13.1025 13.9116 13.2962 13.9971 13.4898 13.9757C13.6619 13.9543 13.834 13.933 14.0062 13.9116H14.0922L14.3504 14.8519L14.2643 14.8946C14.1137 14.9587 13.9416 15.0228 13.791 15.0869C13.7049 15.1297 13.6404 15.1724 13.5974 15.2152Z" fill="#00AEEF"/>
<path d="M16.0282 13.3987L16.48 13.4628C16.5015 13.356 16.5446 13.2705 16.5661 13.1637C16.6306 12.9713 16.7812 12.8217 16.9964 12.8004C17.19 12.779 17.3836 12.7149 17.5773 12.6508C17.7709 12.5653 17.986 12.6294 18.1366 12.7576C18.2012 12.8217 18.2872 12.9072 18.3518 12.9713L18.7175 12.6935C18.6745 12.608 18.61 12.5226 18.5669 12.4157C18.4594 12.2448 18.4809 12.0097 18.61 11.8601C18.7391 11.7105 18.8251 11.5396 18.9112 11.3472C18.9972 11.1549 19.1693 11.0267 19.3845 11.0481C19.4921 11.0481 19.5996 11.0481 19.7072 11.0481L19.7718 10.5993C19.6642 10.5779 19.5781 10.5352 19.4706 10.5138C19.2769 10.4497 19.1263 10.3001 19.1048 10.0864C19.0833 9.8941 19.0187 9.70178 18.9542 9.50945C18.8681 9.31712 18.9112 9.10343 19.0618 8.95384C19.1263 8.88973 19.2124 8.80425 19.2769 8.74014L18.9972 8.37686C18.9112 8.4196 18.8251 8.48371 18.7175 8.52645C18.5454 8.6333 18.3088 8.61193 18.1582 8.48371C18.0076 8.35549 17.8354 8.27001 17.6418 8.18453C17.4482 8.09906 17.3191 7.9281 17.3406 7.7144C17.3406 7.60755 17.3406 7.50071 17.3406 7.39386L16.8888 7.32975C16.8673 7.4366 16.8243 7.52208 16.8027 7.62892C16.7382 7.82125 16.5876 7.97084 16.3724 7.99221C16.1788 8.01358 15.9852 8.07769 15.7916 8.14179C15.5979 8.22727 15.3828 8.16316 15.2322 8.03495C15.1676 7.97084 15.0816 7.88536 15.017 7.82125L14.6298 8.12042C14.6728 8.2059 14.7373 8.29138 14.7804 8.39823C14.8879 8.56919 14.8664 8.80425 14.7373 8.95384C14.6082 9.10343 14.5222 9.27438 14.4361 9.46671C14.3501 9.65904 14.178 9.78725 13.9628 9.76588C13.8552 9.76588 13.7477 9.76588 13.6616 9.76588L13.5971 10.2146C13.7046 10.236 13.7907 10.2788 13.8983 10.3001C14.0919 10.3642 14.2425 10.5138 14.264 10.7275C14.2855 10.9198 14.3501 11.1122 14.4146 11.3045C14.5007 11.4968 14.4576 11.7105 14.307 11.8601C14.2425 11.9242 14.1564 12.0097 14.0919 12.0738L14.3716 12.4371C14.4576 12.3943 14.5437 12.3302 14.6513 12.2875C14.8234 12.1806 15.0601 12.202 15.2107 12.3302C15.3613 12.4585 15.5334 12.5439 15.727 12.6294C15.9206 12.7149 16.0497 12.8858 16.0497 13.0995C16.0282 13.185 16.0282 13.2919 16.0282 13.3987ZM16.5015 14.0825L15.8776 13.9971C15.6194 13.9543 15.4258 13.7406 15.4258 13.5056C15.4258 13.3987 15.4258 13.2705 15.4258 13.1637C15.2322 13.0782 15.0601 12.9713 14.9095 12.8645C14.8019 12.9286 14.7158 12.9713 14.6082 13.0354C14.3931 13.1637 14.1134 13.0995 13.9628 12.9072L13.554 12.373C13.4034 12.1806 13.4249 11.8815 13.5971 11.7105C13.6831 11.625 13.7477 11.5396 13.8337 11.4755C13.7692 11.2831 13.7046 11.0908 13.6831 10.8985C13.5755 10.8771 13.468 10.8344 13.3604 10.813C13.1237 10.7489 12.9516 10.5138 12.9947 10.2574L13.0807 9.63767C13.1237 9.38123 13.3389 9.18891 13.5755 9.18891C13.6831 9.18891 13.8122 9.18891 13.9198 9.18891C14.0058 8.99658 14.1134 8.82562 14.221 8.67603C14.1564 8.56919 14.1134 8.48371 14.0489 8.37686C13.9198 8.16316 13.9843 7.88536 14.178 7.73577L14.6728 7.35112C14.8664 7.20153 15.1676 7.2229 15.3397 7.39386C15.4258 7.47934 15.5119 7.54345 15.5764 7.62892C15.77 7.56482 15.9637 7.50071 16.1573 7.47934C16.1788 7.37249 16.2218 7.26564 16.2434 7.15879C16.3079 6.92373 16.5446 6.75277 16.8027 6.79551L17.4267 6.88099C17.6848 6.92373 17.8785 7.13742 17.8785 7.37249C17.8785 7.47934 17.8785 7.60755 17.8785 7.7144C18.0721 7.79988 18.2442 7.90673 18.3948 8.01358C18.5024 7.94947 18.5885 7.90673 18.696 7.84262C18.9112 7.7144 19.1909 7.77851 19.3415 7.97084L19.7287 8.46234C19.8793 8.65466 19.8578 8.95384 19.6857 9.1248C19.5996 9.21027 19.5351 9.29575 19.449 9.35986C19.5136 9.55219 19.5781 9.74451 19.5996 9.93684C19.7072 9.95821 19.8148 10.001 19.9224 10.0223C20.159 10.0864 20.3311 10.3215 20.2881 10.5779L20.2021 11.1976C20.159 11.4541 19.9439 11.6464 19.7072 11.6464C19.5996 11.6464 19.4706 11.6464 19.363 11.6464C19.2769 11.8387 19.1693 12.0097 19.0618 12.1593C19.1263 12.2661 19.1693 12.3516 19.2339 12.4585C19.363 12.6721 19.2984 12.95 19.1048 13.0995L18.61 13.4842C18.4163 13.6338 18.1151 13.6124 17.943 13.4415C17.857 13.356 17.7709 13.2919 17.7064 13.2064C17.5127 13.2705 17.3191 13.3346 17.1255 13.356C17.1039 13.4628 17.0609 13.5697 17.0394 13.6765C16.9964 13.9543 16.7382 14.1039 16.5015 14.0825Z" fill="#00AEEF"/>
<path d="M16.5662 14.168C16.5446 14.168 16.5231 14.168 16.4801 14.168L15.8562 14.0826C15.5765 14.0398 15.3398 13.8048 15.3398 13.5056C15.3398 13.3987 15.3398 13.3133 15.3398 13.2064C15.1892 13.1423 15.0386 13.0354 14.888 12.95C14.802 12.9927 14.7159 13.0568 14.6298 13.0996C14.3717 13.2278 14.0489 13.1637 13.8768 12.95L13.4896 12.4585C13.3174 12.2234 13.339 11.9029 13.5326 11.6892C13.5971 11.6251 13.6617 11.5396 13.7477 11.4755C13.6832 11.3045 13.6402 11.1549 13.6187 10.984C13.5326 10.9626 13.425 10.9412 13.339 10.8985C13.0593 10.813 12.8872 10.5352 12.9087 10.2574L12.9947 9.63768C13.0378 9.35988 13.2744 9.12481 13.5756 9.12481C13.6617 9.12481 13.7693 9.12481 13.8768 9.12481C13.9414 8.97522 14.0489 8.82564 14.135 8.67605C14.092 8.59057 14.0274 8.50509 13.9844 8.41962C13.8338 8.16318 13.9199 7.84264 14.135 7.67168L14.6298 7.28703C14.8665 7.11607 15.1892 7.13744 15.4044 7.32977C15.4689 7.39387 15.555 7.45798 15.6195 7.54346C15.7916 7.47935 15.9422 7.43661 16.1143 7.41524C16.1359 7.32977 16.1574 7.22292 16.2004 7.13744C16.2865 6.85964 16.5662 6.68868 16.8458 6.71005L17.4698 6.79553C17.7495 6.83827 17.9861 7.07333 17.9861 7.37251C17.9861 7.47935 17.9861 7.56483 17.9861 7.67168C18.1367 7.73579 18.2873 7.84264 18.4379 7.92811C18.524 7.88538 18.61 7.82127 18.6961 7.77853C18.9543 7.62894 19.277 7.71442 19.4491 7.92811L19.8364 8.41962C20.0085 8.65468 19.987 8.97522 19.7933 9.18892C19.7288 9.25303 19.6643 9.33851 19.5782 9.40262C19.6427 9.57357 19.6858 9.72316 19.7073 9.89412C19.7933 9.91549 19.9009 9.93686 19.987 9.9796C20.2667 10.0651 20.4388 10.3429 20.4173 10.6207L20.3312 11.2404C20.2882 11.5182 20.0515 11.7533 19.7503 11.7533C19.6427 11.7533 19.5567 11.7533 19.4491 11.7533C19.3846 11.9029 19.277 12.0524 19.1909 12.202C19.234 12.2875 19.2985 12.373 19.3415 12.4585C19.4921 12.7149 19.4061 13.0354 19.1909 13.2064L18.6961 13.5911C18.4594 13.762 18.1367 13.7406 17.9216 13.5483C17.857 13.4842 17.771 13.4201 17.7064 13.3346C17.5343 13.3987 17.3837 13.4415 17.2116 13.4628C17.1901 13.5483 17.1686 13.6552 17.1255 13.7406C17.061 13.9757 16.8243 14.168 16.5662 14.168ZM16.5016 13.9971C16.7168 14.0184 16.9104 13.8902 16.9749 13.6979C16.9964 13.5911 17.0395 13.4842 17.061 13.3774L17.0825 13.3346H17.1255C17.3192 13.3133 17.5128 13.2491 17.7064 13.185L17.7495 13.1637L17.7925 13.2064C17.8785 13.2919 17.9646 13.3774 18.0291 13.4415C18.1798 13.5911 18.4164 13.6124 18.5885 13.4842L19.0834 13.0996C19.2555 12.9713 19.2985 12.7363 19.1909 12.5439C19.1264 12.4371 19.0834 12.3516 19.0188 12.2448L18.9973 12.202L19.0188 12.1593C19.1264 12.0097 19.234 11.8387 19.32 11.6464L19.3415 11.6037H19.3846C19.4921 11.6037 19.6212 11.6037 19.7288 11.6037C19.9439 11.6037 20.1161 11.4327 20.1591 11.2404L20.2452 10.6207C20.2667 10.407 20.1376 10.2147 19.9439 10.1506C19.8364 10.1292 19.7288 10.0864 19.6212 10.0651L19.5782 10.001V9.95823C19.5567 9.7659 19.4921 9.57357 19.4276 9.38125L19.4061 9.33851L19.4491 9.29577C19.5352 9.21029 19.6212 9.12481 19.6858 9.0607C19.8364 8.91112 19.8364 8.67605 19.7073 8.50509L19.32 8.01359C19.1909 7.84264 18.9543 7.7999 18.7606 7.90674C18.6531 7.97085 18.567 8.01359 18.4594 8.0777L18.4164 8.09907L18.3734 8.0777C18.2228 7.97085 18.0507 7.86401 17.857 7.77853L17.814 7.75716V7.71442C17.814 7.60757 17.814 7.47935 17.814 7.37251C17.814 7.15881 17.6419 6.98785 17.4483 6.94511L16.8243 6.85963C16.6092 6.83826 16.4156 6.96648 16.351 7.15881C16.3295 7.26566 16.2865 7.37251 16.2649 7.47935L16.2434 7.52209H16.2004C16.0068 7.54346 15.8131 7.60757 15.6195 7.67168L15.5765 7.69305L15.5335 7.65031C15.4474 7.56483 15.3613 7.47935 15.2968 7.41524C15.1462 7.26566 14.9095 7.24429 14.7374 7.37251L14.2426 7.75716C14.0705 7.88538 14.0274 8.12044 14.135 8.31277C14.1995 8.41962 14.2426 8.50509 14.3071 8.61194L14.3286 8.65468L14.3071 8.69742C14.1995 8.84701 14.092 9.01796 14.0059 9.21029L13.9844 9.25303H13.9414C13.8338 9.25303 13.7047 9.25303 13.5971 9.25303C13.382 9.25303 13.2099 9.42399 13.1668 9.61631L13.0593 10.2574C13.0378 10.4711 13.1668 10.6634 13.3605 10.7275C13.468 10.7489 13.5756 10.7916 13.6832 10.813L13.7262 10.8344V10.8771C13.7477 11.0694 13.8123 11.2618 13.8768 11.4541L13.8983 11.4968L13.8553 11.5396C13.7693 11.6251 13.6832 11.7105 13.6187 11.7746C13.468 11.9242 13.4465 12.1593 13.5756 12.3303L13.9629 12.8218C14.092 12.9927 14.3286 13.0354 14.5223 12.9286C14.6298 12.8645 14.7159 12.8218 14.8235 12.7576L14.8665 12.7363L14.9095 12.7576C15.0601 12.8645 15.2322 12.9713 15.4259 13.0568L15.4689 13.0782V13.1209C15.4689 13.2278 15.4689 13.356 15.4689 13.4628C15.4689 13.6765 15.641 13.8475 15.8347 13.8902L16.5016 13.9971ZM16.5446 13.5483L15.9637 13.4628V13.3987C15.9637 13.2919 15.9637 13.185 15.9637 13.0782C15.9637 12.9072 15.8562 12.7576 15.7056 12.6722C15.5119 12.5867 15.3398 12.4798 15.1677 12.373C15.0386 12.2661 14.845 12.2661 14.6944 12.3516C14.6083 12.3944 14.5223 12.4585 14.4147 12.5012L14.3501 12.5439L13.9844 12.0738L14.0274 12.0311C14.092 11.967 14.178 11.8815 14.2426 11.8174C14.3717 11.6892 14.4147 11.5182 14.3501 11.3472C14.2641 11.1549 14.2211 10.9626 14.1995 10.7703C14.178 10.5993 14.0489 10.4497 13.8768 10.407C13.7693 10.3856 13.6832 10.3429 13.5756 10.3215L13.5111 10.3001L13.5971 9.72316H13.6617C13.7693 9.72316 13.8768 9.72316 13.9844 9.72316C14.1565 9.72316 14.3071 9.61631 14.3932 9.46672C14.4792 9.2744 14.5653 9.10344 14.6944 8.93249C14.802 8.80427 14.802 8.61194 14.7159 8.46235C14.6729 8.37688 14.6083 8.2914 14.5653 8.18455L14.5223 8.12044L14.9956 7.75716L15.0601 7.82127C15.1247 7.88538 15.1892 7.94948 15.2538 8.01359C15.3829 8.14181 15.555 8.18455 15.7271 8.09907C15.9207 8.01359 16.1143 7.97085 16.308 7.94948C16.4801 7.92811 16.6307 7.7999 16.6737 7.62894C16.6952 7.52209 16.7383 7.43661 16.7598 7.32977L16.7813 7.26566L17.3622 7.35114V7.41524C17.3622 7.52209 17.3622 7.62894 17.3622 7.73579C17.3622 7.90675 17.4698 8.05633 17.6204 8.14181C17.814 8.22729 17.9861 8.33414 18.1582 8.44098C18.2873 8.54783 18.481 8.54783 18.6316 8.46235C18.7176 8.41961 18.8037 8.35551 18.9112 8.31277L18.9758 8.27003L19.3415 8.74016L19.2985 8.7829C19.234 8.84701 19.1479 8.93248 19.0834 8.99659C18.9543 9.12481 18.9112 9.29577 18.9973 9.46672C19.0834 9.65905 19.1264 9.85138 19.1479 10.0437C19.1694 10.2147 19.2985 10.3642 19.4706 10.407C19.5782 10.4284 19.6643 10.4711 19.7718 10.4925L19.8364 10.5138L19.7503 11.1122H19.6858C19.5782 11.1122 19.4706 11.1122 19.3631 11.1122C19.1909 11.1122 19.0403 11.219 18.9543 11.3686C18.8682 11.5609 18.7606 11.7319 18.6531 11.9029C18.5455 12.0311 18.5455 12.2234 18.6316 12.373L18.6531 12.4157C18.6961 12.5012 18.7391 12.5653 18.7822 12.6508L18.8252 12.7149L18.3519 13.0782L18.2873 13.0141C18.2228 12.95 18.1367 12.8645 18.0722 12.8004C17.9431 12.6722 17.771 12.6294 17.5989 12.7149C17.4052 12.8004 17.2116 12.8431 17.018 12.8645C16.8458 12.8859 16.6952 13.0141 16.6522 13.185C16.6307 13.2919 16.5877 13.3774 16.5662 13.4842L16.5446 13.5483ZM16.1143 13.3346L16.4371 13.3774C16.4586 13.2919 16.4801 13.2278 16.5016 13.1423C16.5662 12.9072 16.7598 12.7363 16.9964 12.7149C17.1901 12.6935 17.3622 12.6294 17.5558 12.5653C17.771 12.4798 18.0291 12.5226 18.2013 12.6935C18.2658 12.7576 18.3088 12.8004 18.3734 12.8645L18.6316 12.6722C18.61 12.6081 18.567 12.5653 18.5455 12.5012L18.524 12.4585C18.3949 12.2448 18.4164 11.9883 18.567 11.8174C18.6746 11.6678 18.7822 11.4968 18.8467 11.3259C18.9328 11.1122 19.1479 10.9626 19.3846 10.9626C19.4061 10.9626 19.4276 10.9626 19.4491 10.9626C19.5137 10.9626 19.5567 10.9626 19.6212 10.9626L19.6643 10.6421C19.5782 10.6207 19.5137 10.5993 19.4276 10.5779C19.1909 10.5138 19.0188 10.3215 18.9973 10.0864C18.9758 9.89412 18.9112 9.72316 18.8467 9.53083C18.7606 9.31714 18.8037 9.0607 18.9758 8.88975C19.0403 8.82564 19.0834 8.7829 19.1479 8.71879L18.9328 8.48372C18.8682 8.52646 18.7822 8.5692 18.7176 8.61194C18.5025 8.74016 18.2443 8.71879 18.0722 8.5692C17.9216 8.46235 17.7495 8.35551 17.5773 8.2914C17.3622 8.20592 17.2116 7.99222 17.2116 7.73579C17.2116 7.65031 17.2116 7.5862 17.2116 7.50072L16.8889 7.45798C16.8674 7.54346 16.8458 7.60757 16.8243 7.69305C16.7813 7.90674 16.5877 8.0777 16.351 8.12044C16.1574 8.14181 15.9853 8.20592 15.7916 8.27003C15.5765 8.35551 15.3183 8.31277 15.1462 8.14181C15.0816 8.0777 15.0386 8.03496 14.9741 7.97085L14.7159 8.16318C14.7589 8.22729 14.802 8.2914 14.845 8.37688C14.9741 8.59057 14.9526 8.84701 14.802 9.01796C14.6944 9.16755 14.5868 9.33851 14.5223 9.50946C14.4362 9.72316 14.2211 9.87275 13.9844 9.87275C13.9629 9.87275 13.9629 9.87275 13.9414 9.87275C13.8768 9.87275 13.8123 9.87275 13.7477 9.87275L13.7047 10.1933C13.7908 10.2147 13.8553 10.236 13.9414 10.2574C14.178 10.3215 14.3501 10.5138 14.3717 10.7489C14.3932 10.9412 14.4362 11.1122 14.5223 11.3045C14.6083 11.5182 14.5653 11.7746 14.3932 11.9456C14.3286 12.0097 14.2856 12.0524 14.2211 12.1166L14.4147 12.373C14.4792 12.3303 14.5438 12.2875 14.6298 12.2448C14.845 12.1166 15.1032 12.1379 15.2968 12.2875C15.4474 12.3944 15.6195 12.5012 15.7916 12.5653C16.0068 12.6508 16.1574 12.8645 16.1574 13.1209C16.1143 13.1637 16.1143 13.2491 16.1143 13.3346Z" fill="#00AEEF"/>
<path d="M7.96054 15.6212C7.91751 15.6212 7.87449 15.6212 7.83146 15.5998C7.55177 15.5357 7.35813 15.2579 7.42268 14.9587C7.70237 13.6979 8.95022 12.8431 10.2411 13.0141C10.5423 13.0568 10.7359 13.3132 10.6929 13.6124C10.6499 13.9116 10.3917 14.1039 10.0905 14.0612C9.359 13.9543 8.6275 14.4672 8.4769 15.1724C8.43387 15.4502 8.19721 15.6212 7.96054 15.6212Z" fill="#00AEEF"/>
<path d="M16.5019 12.0525C16.4804 12.0525 16.4588 12.0525 16.4373 12.0525C16.007 11.9883 15.6198 11.7746 15.3401 11.4114C15.0819 11.0695 14.9528 10.6207 15.0174 10.1933C15.0819 9.76591 15.2971 9.38126 15.6628 9.10345C16.007 8.84702 16.4588 8.7188 16.8891 8.78291C17.3194 8.84702 17.7067 9.06071 17.9864 9.424C18.2446 9.76591 18.3736 10.2147 18.3091 10.6421C18.2661 10.984 18.1155 11.2831 17.8788 11.5396C17.7067 11.7105 17.4485 11.7319 17.2764 11.561C17.1043 11.39 17.0828 11.1336 17.2549 10.9626C17.3625 10.8344 17.4485 10.6848 17.47 10.5352C17.4915 10.3215 17.4485 10.1292 17.3194 9.95823C17.1903 9.78728 16.9967 9.68043 16.8031 9.65906C16.5879 9.63769 16.3943 9.68043 16.2222 9.80865C16.0501 9.93687 15.9425 10.1292 15.921 10.3215C15.8995 10.5138 15.9425 10.7275 16.0716 10.8985C16.2007 11.0695 16.3943 11.1763 16.5879 11.1977C16.8246 11.219 16.9967 11.4541 16.9537 11.6678C16.9107 11.8815 16.717 12.0525 16.5019 12.0525Z" fill="#00AEEF"/>
<path d="M12.672 31.4561C8.17543 31.4561 4.51794 26.1137 4.51794 19.5318C4.51794 18.0573 4.69006 16.6256 5.05581 15.2579C5.12035 15.0228 5.3355 14.8519 5.57216 14.8519H19.7718C20.0085 14.8519 20.2236 15.0228 20.2882 15.2579C20.6539 16.6256 20.826 18.0573 20.826 19.5318C20.8475 26.0923 17.1901 31.4561 12.672 31.4561ZM6.00245 15.9204C5.72276 17.0743 5.59368 18.2924 5.59368 19.5318C5.59368 25.5153 8.77784 30.3876 12.672 30.3876C16.5877 30.3876 19.7503 25.5153 19.7503 19.5318C19.7503 18.2924 19.6212 17.0743 19.3415 15.9204H6.00245Z" fill="#00AEEF"/>
<path d="M10.6497 28.8276C10.5206 28.8276 10.413 28.7849 10.3054 28.6994C8.08941 26.9257 6.77702 24.0194 6.58339 20.5148C6.56188 20.2156 6.79854 19.9592 7.09974 19.9592C7.40095 19.9378 7.65912 20.1729 7.65912 20.4721C7.83124 23.6775 9.01454 26.306 10.9939 27.8873C11.2305 28.0797 11.2521 28.4002 11.0799 28.6353C10.9724 28.7635 10.8218 28.8276 10.6497 28.8276Z" fill="#00AEEF"/>
<path d="M7.09994 19.5746C6.77722 19.5746 6.56207 19.3181 6.56207 19.0189C6.58359 18.271 6.64813 17.5444 6.7557 16.8179C6.79873 16.5187 7.07842 16.3264 7.37963 16.3691C7.68083 16.4119 7.87447 16.6897 7.83144 16.9888C7.72386 17.6727 7.65932 18.3565 7.6378 19.0617C7.6378 19.3609 7.40114 19.5746 7.09994 19.5746Z" fill="#00AEEF"/>
<path d="M16.7166 38.5935H8.62709C8.45497 38.5935 8.30437 38.508 8.1968 38.3798C8.08922 38.2516 8.06771 38.0806 8.08922 37.931C8.56255 36.0292 9.5307 34.4692 10.7355 33.6785C10.8216 33.6144 10.9292 33.593 11.0367 33.593H14.2854C14.393 33.593 14.5006 33.6144 14.5866 33.6785C15.813 34.4692 16.7811 36.0078 17.2329 37.931C17.276 38.0806 17.2329 38.2516 17.1254 38.3798C17.0393 38.508 16.8887 38.5935 16.7166 38.5935ZM9.33707 37.525H16.0066C15.5978 36.2429 14.9309 35.2385 14.1348 34.6615H11.2304C10.4128 35.2385 9.74585 36.2429 9.33707 37.525Z" fill="#00AEEF"/>
<path d="M14.3934 34.6615H11.0587C10.7575 34.6615 10.5208 34.4264 10.5208 34.1272V30.815C10.5208 30.5158 10.7575 30.2807 11.0587 30.2807H14.415C14.7162 30.2807 14.9528 30.5158 14.9528 30.815V34.1272C14.9313 34.4264 14.6947 34.6615 14.3934 34.6615ZM11.5965 33.593H13.8771V31.3492H11.5965V33.593Z" fill="#00AEEF"/>
<path d="M18.6747 44H6.86318C6.56198 44 6.32532 43.7649 6.32532 43.4658V38.0593C6.32532 37.7601 6.56198 37.525 6.86318 37.525H18.6747C18.9759 37.525 19.2126 37.7601 19.2126 38.0593V43.4658C19.2126 43.7649 18.9759 44 18.6747 44ZM7.40105 42.9315H18.1369V38.5935H7.40105V42.9315Z" fill="#00AEEF"/>
<path d="M14.178 42.1408H9.93966C9.63846 42.1408 9.40179 41.9058 9.40179 41.6066V39.897C9.40179 39.5979 9.63846 39.3628 9.93966 39.3628H15.598C15.8992 39.3628 16.1359 39.5979 16.1359 39.897V40.7518C16.1359 41.051 15.8992 41.2861 15.598 41.2861C15.2968 41.2861 15.0601 41.051 15.0601 40.7518V40.4313H10.4775V41.0724H14.178C14.4792 41.0724 14.7159 41.3074 14.7159 41.6066C14.7159 41.9058 14.4577 42.1408 14.178 42.1408Z" fill="#00AEEF"/>
<path d="M19.7937 24.4255C19.4925 24.4255 19.2558 24.1904 19.2558 23.8912C19.2558 23.592 19.4925 23.357 19.7937 23.357C23.0424 23.3356 23.8384 19.4677 23.903 16.0058H19.7722C19.471 16.0058 19.2343 15.7708 19.2343 15.4716C19.2343 15.1724 19.471 14.9373 19.7722 14.9373H24.4624C24.7636 14.9373 25.0002 15.1724 25.0002 15.4716C25.0002 22.8441 22.1818 24.4255 19.7937 24.4255C19.8152 24.4255 19.8152 24.4255 19.7937 24.4255Z" fill="#00AEEF"/>
<path d="M5.20654 24.4255C5.20654 24.4255 5.18503 24.4255 5.20654 24.4255C2.81842 24.4255 0 22.8441 0 15.4716C0 15.1724 0.236661 14.9373 0.537866 14.9373H5.22806C5.52926 14.9373 5.76592 15.1724 5.76592 15.4716C5.76592 15.7708 5.52926 16.0058 5.22806 16.0058H1.07573C1.14028 19.4677 1.95783 23.3356 5.18503 23.357C5.48623 23.357 5.72289 23.592 5.72289 23.8912C5.74441 24.1904 5.48623 24.4255 5.20654 24.4255Z" fill="#00AEEF"/>
</g>
<defs>
<clipPath id="clip0">
<rect width="25" height="44" fill="white"/>
</clipPath>
</defs>
</svg>
