<svg width="39" height="23" viewBox="0 0 39 23" fill="none" xmlns="http://www.w3.org/2000/svg">
<path d="M37.9986 10.8539C36.0762 7.60974 33.3527 4.88625 30.1486 3.00384C26.8243 1.04133 22.9794 0 19.0944 0C15.2095 0 11.3245 1.04133 8.00024 2.96379C4.75609 4.8462 2.0326 7.56969 0.150192 10.8138C-0.0500641 11.1342 -0.0500641 11.5748 0.150192 11.8952C2.07265 15.1394 4.75609 17.8629 8.00024 19.7453C11.3245 21.7078 15.1694 22.7491 19.0544 22.7491C22.9394 22.7491 26.7843 21.7078 30.1085 19.7453C33.3527 17.8629 36.0762 15.1394 37.9586 11.8952C38.1989 11.6149 38.1989 11.1743 37.9986 10.8539ZM10.163 18.5437C6.9589 16.9417 4.19537 14.4185 2.31296 11.4146C4.23542 8.37071 6.9589 5.88753 10.163 4.28548C8.56096 6.28805 7.63978 8.81128 7.63978 11.4146C7.67983 13.9779 8.56096 16.5011 10.163 18.5437ZM9.80254 11.4146C9.80254 6.44825 13.8077 2.32297 18.774 2.16277H18.8942C18.9342 2.16277 19.0143 2.16277 19.0544 2.16277C19.0944 2.16277 19.1745 2.16277 19.2146 2.16277H19.2947C24.261 2.28292 28.3062 6.44825 28.3062 11.4146C28.3062 16.381 24.3011 20.5062 19.3347 20.6664H19.2146C19.0944 20.6664 18.9743 20.6664 18.8541 20.6664H18.734C13.8477 20.5062 9.80254 16.3409 9.80254 11.4146ZM30.4289 11.4146C30.4289 8.81128 29.5478 6.28805 27.9057 4.28548C31.1098 5.88753 33.8733 8.41076 35.7558 11.4146C33.8333 14.4585 31.1098 16.9417 27.9057 18.5437C29.5478 16.5011 30.4289 13.9779 30.4289 11.4146Z" fill="#00AEEF"/>
<path d="M24.3011 11.4146C24.3011 10.6536 24.1409 9.93273 23.8205 9.25186C23.6603 8.85134 23.2598 8.61103 22.8593 8.61103C22.6991 8.61103 22.5388 8.65109 22.4187 8.69114C21.898 8.93145 21.6577 9.57227 21.898 10.133C22.0983 10.5335 22.1784 10.9741 22.1784 11.4146C22.1784 13.1368 20.7766 14.5386 19.0544 14.5386C17.3322 14.5386 15.9304 13.1368 15.9304 11.4146C15.9304 9.69242 17.3322 8.29063 19.0544 8.29063C19.495 8.29063 19.9355 8.37073 20.336 8.57098C20.4962 8.65109 20.6164 8.65109 20.7766 8.65109C21.2172 8.65109 21.5776 8.41078 21.7378 8.01027C21.9781 7.44955 21.7378 6.84878 21.2172 6.56842C20.5363 6.24801 19.8154 6.08781 19.0544 6.08781C16.1707 6.08781 13.8077 8.45083 13.8077 11.3746C13.8077 14.2983 16.1707 16.6613 19.0544 16.6613C21.9381 16.6613 24.3011 14.2983 24.3011 11.4146Z" fill="#00AEEF"/>
</svg>
