<svg width="35" height="17" viewBox="0 0 35 17" fill="none" xmlns="http://www.w3.org/2000/svg">
<g clip-path="url(#clip0)">
<path d="M26.1547 7.04701C25.9466 6.85561 25.6691 6.69901 25.2355 6.525C24.9233 6.4032 24.8019 6.351 24.7672 6.3162C24.6978 6.264 24.6458 6.2118 24.6111 6.1596C24.5764 6.1074 24.5764 6.0726 24.5764 6.0378C24.5764 5.9682 24.6111 5.8812 24.6978 5.829C24.7672 5.75939 24.8886 5.72459 25.01 5.72459C25.1314 5.72459 25.2355 5.74199 25.3395 5.79419C25.4436 5.8464 25.5476 5.9334 25.6517 6.0552L25.7905 6.2118L26.4842 5.32439L26.3802 5.21999C26.2067 5.04599 26.0159 4.90678 25.8251 4.80238C25.6691 4.73278 25.4956 4.68058 25.3222 4.64578V3.93237H24.5244V4.66318C24.4376 4.68058 24.3683 4.69798 24.2989 4.71538C24.1948 4.75018 24.0908 4.80238 23.9867 4.87198C23.5704 5.15039 23.3103 5.63759 23.3103 6.1422C23.3103 6.5598 23.4837 6.94261 23.7959 7.18621C23.9694 7.32541 24.2642 7.48201 24.7325 7.67342C24.9926 7.77782 25.1314 7.86482 25.2008 7.93442C25.2355 7.96922 25.2528 8.00402 25.2701 8.03882C25.2875 8.07362 25.2875 8.12582 25.2875 8.17802C25.2875 8.29982 25.2355 8.42163 25.1487 8.50863C25.062 8.59563 24.9233 8.64783 24.7498 8.64783C24.559 8.64783 24.4029 8.61303 24.2642 8.52603C24.1081 8.43903 23.9694 8.29982 23.8133 8.09102L23.6919 7.93442L22.9114 8.73483L22.9981 8.85663C23.2062 9.15243 23.449 9.37864 23.7265 9.55264C23.9694 9.69184 24.2295 9.76144 24.507 9.79624V10.5097H25.3048V9.74404C25.6691 9.63964 25.9812 9.44824 26.1894 9.18723C26.4322 8.90883 26.5709 8.52603 26.5709 8.12582C26.5883 7.67342 26.4322 7.30801 26.1547 7.04701Z" fill="#00AEEF"/>
<path d="M16.2688 10.9274C16.0607 10.8056 15.8005 10.8752 15.6791 11.084C15.5577 11.2928 15.6271 11.5538 15.8352 11.6756L17.9685 12.911C18.1766 13.0328 18.4368 12.9632 18.5582 12.7544C18.6796 12.5456 18.6102 12.2846 18.4021 12.1628L16.2688 10.9274Z" fill="#00AEEF"/>
<path d="M31.9648 13.4851C32.0862 13.6939 32.3463 13.7635 32.5545 13.6417L34.6878 12.4063C34.8959 12.2845 34.9653 12.0235 34.8439 11.8147C34.7224 11.6059 34.4623 11.5363 34.2542 11.6581L32.1209 12.8935C31.9127 13.0153 31.8434 13.2763 31.9648 13.4851Z" fill="#00AEEF"/>
<path d="M30.1785 11.4318C30.3693 11.5884 30.6468 11.5536 30.7855 11.3622L32.3118 9.43078C32.4679 9.23937 32.4332 8.96097 32.2424 8.82177C32.0516 8.66517 31.7741 8.69997 31.6354 8.89137L30.1091 10.8228C29.9703 10.9968 29.9877 11.2752 30.1785 11.4318Z" fill="#00AEEF"/>
<path d="M15.1933 8.5087C15.28 8.4217 15.3147 8.3173 15.3147 8.1955V8.1085H20.5005V10.6315C20.5005 10.8055 20.5525 10.9795 20.6392 11.1187C20.7953 11.3623 21.0208 11.5363 21.281 11.6929C21.6799 11.9191 22.1829 12.0757 22.7725 12.1975C23.3622 12.3193 24.0387 12.3715 24.7671 12.3715C25.8598 12.3715 26.8657 12.2149 27.6115 11.9713C27.9931 11.8495 28.3053 11.6929 28.5654 11.4841C28.6868 11.3797 28.8082 11.2579 28.8949 11.1187C28.9817 10.9969 29.0163 10.8403 29.0337 10.6663C29.0337 10.6489 29.0337 10.6489 29.0337 10.6315V10.6141C29.0337 10.5967 29.0337 10.5793 29.0337 10.5619L28.3226 6.36847L28.999 2.00102C29.0164 1.91402 29.0337 1.82702 29.0337 1.74002V1.72262C29.0337 1.68782 29.0337 1.67042 29.0337 1.63562C29.0163 1.49642 28.9643 1.35722 28.8949 1.25281C28.7388 1.00921 28.5134 0.83521 28.2532 0.678608C27.8543 0.452405 27.3513 0.295803 26.7616 0.174002C26.172 0.0522006 25.4955 0 24.7671 0C23.6744 0 22.6685 0.156602 21.9227 0.400205C21.5411 0.522006 21.2289 0.678608 20.9688 0.88741C20.8474 0.991812 20.726 1.11361 20.6392 1.25281C20.5699 1.35722 20.5178 1.49642 20.5005 1.63562C20.5005 1.65302 20.5005 1.68782 20.5005 1.72262V1.74002V4.62845H15.3147V4.52405C15.3147 4.40225 15.2626 4.29785 15.1933 4.21085C15.1239 4.12385 15.0025 4.08905 14.8811 4.08905H1.99455C1.95986 4.08905 1.92517 4.08905 1.90783 4.10645C1.37017 4.15865 0.901883 4.41965 0.572349 4.81986C0.208127 5.22006 0 5.77687 0 6.36847C0 6.96008 0.208127 7.51689 0.555005 7.91709C0.884539 8.3173 1.35282 8.5783 1.89049 8.6305C1.92517 8.6305 1.94252 8.6479 1.97721 8.6479H14.8811C15.0025 8.6305 15.1065 8.5957 15.1933 8.5087ZM28.1665 10.6663C28.1318 10.7185 28.0278 10.8229 27.8543 10.9273C27.5768 11.0839 27.1432 11.2231 26.6055 11.3275C26.0679 11.4319 25.4435 11.4841 24.7844 11.4841C23.7611 11.4841 22.8419 11.3449 22.2175 11.1187C21.9054 11.0143 21.6625 10.8925 21.5238 10.7707C21.4544 10.7185 21.4197 10.6663 21.4024 10.6489C21.385 10.6141 21.385 10.6141 21.385 10.6141V2.83623C21.7666 3.02764 22.2522 3.18424 22.7899 3.28864C23.3796 3.41044 24.056 3.46264 24.7844 3.46264C24.8018 3.46264 24.8191 3.46264 24.8365 3.46264C24.8712 3.46264 24.8885 3.46264 24.9232 3.46264C25.0099 3.46264 25.0966 3.46264 25.1833 3.46264H25.2007C25.5649 3.44524 25.9291 3.42784 26.276 3.37564C26.3454 3.35824 26.4148 3.35824 26.4841 3.34084C26.5362 3.34084 26.5882 3.32344 26.6402 3.32344C27.0045 3.25384 27.334 3.18424 27.6462 3.07984C27.7676 3.04504 27.889 2.99284 28.0104 2.94063L27.4901 6.31627C27.4901 6.36847 27.4901 6.40328 27.4901 6.45548L28.2012 10.6663C28.1838 10.6489 28.1838 10.6489 28.1665 10.6663ZM27.3513 1.23541C27.6635 1.33982 27.9063 1.46162 28.0451 1.58342C28.1145 1.63562 28.1492 1.68782 28.1665 1.70522C28.1838 1.74002 28.1838 1.74002 28.1838 1.74002C28.1838 1.74002 28.1838 1.74002 28.1665 1.77482C28.1492 1.79222 28.1145 1.82702 28.0798 1.87922C27.9757 1.94882 27.837 2.03582 27.6982 2.08802C27.386 2.24463 26.9698 2.36643 26.5188 2.45343C26.0159 2.54043 25.4435 2.59263 24.8191 2.61003C24.2988 2.61003 23.7958 2.55783 23.2929 2.47083C22.7552 2.36643 22.3389 2.20983 22.0961 2.03582C21.9747 1.94882 21.888 1.87922 21.8533 1.80962C21.8186 1.74002 21.8013 1.72262 21.8013 1.68782C21.8013 1.67042 21.8013 1.65302 21.8186 1.60082C21.836 1.56602 21.8707 1.51382 21.9574 1.44422C22.0268 1.39202 22.1308 1.32242 22.2696 1.25281C22.4604 1.16581 22.7379 1.07881 23.0327 1.02661C23.3276 0.974411 23.6571 0.939611 23.9866 0.939611C24.3162 0.939611 24.663 0.974411 24.9752 1.02661C25.3048 1.09621 25.5476 1.18321 25.6863 1.28762C25.7384 1.32242 25.773 1.35722 25.7904 1.37462C25.7904 1.39202 25.773 1.39202 25.7557 1.40942C25.721 1.42682 25.669 1.47902 25.5996 1.51382C25.4955 1.56602 25.3221 1.61822 25.1487 1.65302C24.9752 1.68782 24.7671 1.70522 24.559 1.70522C24.3508 1.70522 24.1427 1.68782 23.9519 1.65302C23.7091 1.60082 23.4836 1.75742 23.449 2.00102C23.3969 2.24463 23.553 2.47083 23.7958 2.50563C24.056 2.55783 24.3162 2.57523 24.5763 2.57523C24.9232 2.57523 25.2527 2.54043 25.5476 2.45343C25.7037 2.41863 25.8424 2.36643 25.9638 2.29683C26.1026 2.22723 26.224 2.15763 26.328 2.07062C26.4321 1.98362 26.5015 1.87922 26.5709 1.77482C26.6402 1.65302 26.6749 1.53122 26.6749 1.39202C26.6749 1.27022 26.6402 1.14841 26.5882 1.04401C26.8831 1.09621 27.1432 1.14841 27.3513 1.23541ZM15.3147 5.48106H20.4658V7.23848H15.3147V5.48106ZM14.4475 5.04606V7.67349V7.76049H2.01189C2.01189 7.76049 2.01189 7.76049 1.99455 7.76049C1.68236 7.74309 1.40486 7.60389 1.19673 7.34289C0.988603 7.09928 0.849851 6.75128 0.849851 6.35107C0.849851 5.96827 0.988603 5.62027 1.19673 5.35926C1.40486 5.11566 1.68236 4.95906 1.99455 4.94166C1.99455 4.94166 1.99455 4.94166 2.01189 4.94166H14.4475V5.04606Z" fill="#00AEEF"/>
<path d="M34.3758 15.0163C34.0116 14.6335 33.5086 14.3899 32.9536 14.3377C32.9189 14.3377 32.8842 14.3203 32.8669 14.3203H31.7395H17.8644H16.7371C16.7024 14.3203 16.6677 14.3203 16.6503 14.3377C16.0953 14.3899 15.5924 14.6335 15.2281 15.0163C14.8466 15.4165 14.6038 15.9559 14.6038 16.5649C14.6038 16.6867 14.6558 16.7911 14.7252 16.8781C14.7945 16.9651 14.916 16.9999 15.0374 16.9999H34.6013C34.7227 16.9999 34.8268 16.9477 34.9135 16.8781C35.0002 16.7911 35.0349 16.6867 35.0349 16.5649C35.0002 15.9733 34.7574 15.4165 34.3758 15.0163ZM15.5056 16.1299C15.575 15.9385 15.6791 15.7645 15.8178 15.6253C16.0606 15.3817 16.3728 15.2251 16.7371 15.2077H16.7544H17.8471H31.7222H32.8149H32.8322C33.1964 15.2251 33.5086 15.3817 33.7514 15.6253C33.8902 15.7645 33.9942 15.9385 34.0636 16.1299H15.5056Z" fill="#00AEEF"/>
</g>
<defs>
<clipPath id="clip0">
<rect width="35" height="17" fill="white"/>
</clipPath>
</defs>
</svg>
