<svg width="63" height="56" viewBox="0 0 63 56" fill="none" xmlns="http://www.w3.org/2000/svg">
<path fill-rule="evenodd" clip-rule="evenodd" d="M60.7521 36.4018C59.3513 41.1925 55.0014 44.8581 48.5502 46.709C46.449 47.326 44.2372 47.7252 41.8779 47.9067C45.2694 43.987 47.9973 38.9423 49.6561 33.3169C50.3566 33.3532 51.057 33.208 51.6836 32.8451C53.6006 31.8289 54.301 29.4336 53.2319 27.5826C52.7527 26.7479 52.0154 26.1309 51.1307 25.8406C51.4993 22.6468 51.4625 19.5619 51.057 16.7673C52.937 18.1465 54.5959 19.6708 56.0336 21.304C60.5309 26.2398 62.1529 31.6111 60.7521 36.4018ZM51.7574 28.4174C52.3472 29.4699 51.9417 30.7764 50.8726 31.3571C49.8036 31.9378 48.4765 31.5386 47.8867 30.4861C47.2969 29.4336 47.7024 28.127 48.7714 27.5463C49.8405 26.9657 51.1675 27.3649 51.7574 28.4174ZM26.1003 46.1646C21.6029 44.8581 17.4373 43.0071 13.8615 40.6844C13.6035 39.3778 13.456 37.9987 13.3454 36.5833C13.7509 36.5107 14.1196 36.4018 14.4882 36.1841C16.4051 35.1679 17.1055 32.7725 16.0365 30.9216C15.5204 29.978 14.6357 29.3247 13.6404 29.0706C13.9353 27.1471 14.3408 25.2236 14.8937 23.3001C16.8106 17.0577 19.9072 11.7952 23.5567 7.98445C27.8329 7.91186 32.3671 8.52884 36.9013 9.83539C41.3987 11.1419 45.5643 13.0292 49.1401 15.3519C49.7299 18.4368 49.8773 21.9209 49.4718 25.5865C48.9557 25.6228 48.4396 25.768 47.9235 26.0583C46.0066 27.0745 45.3062 29.4699 46.3753 31.3208C46.7439 32.0104 47.3337 32.5548 47.9973 32.8814C46.1541 39.0149 43.0944 44.2411 39.4818 48.0155C35.1687 48.0518 30.6345 47.4349 26.1003 46.1646ZM23.8516 53.8224C19.4648 52.5522 16.1471 48.6325 14.4882 43.0434C17.8428 45.0032 21.6029 46.6364 25.621 47.7978C29.6392 48.9592 33.731 49.5761 37.6386 49.685C33.2887 53.4595 28.3489 55.129 23.8516 53.8224ZM14.5619 31.72C15.1518 32.7725 14.7463 34.0791 13.6772 34.6598C12.6082 35.2404 11.2811 34.8412 10.6913 33.7887C10.1014 32.7362 10.5069 31.4297 11.576 30.849C12.645 30.3046 13.9721 30.6675 14.5619 31.72ZM6.8943 34.7323C2.47067 29.7602 0.848665 24.3889 2.24948 19.5982C3.28167 16.1504 5.82526 13.2832 9.58535 11.2508C11.023 10.4524 12.645 9.79909 14.4514 9.29099C16.5526 8.67401 18.7644 8.27479 21.1237 8.09333C17.6954 12.0493 14.9674 17.1303 13.3086 22.7557C12.7188 24.7881 12.2395 26.8568 11.9815 28.9255C11.576 28.9981 11.1336 29.1069 10.765 29.3247C8.84808 30.3409 8.14767 32.7362 9.21671 34.5872C9.76967 35.5671 10.6544 36.1841 11.6497 36.4744C11.6866 37.418 11.7972 38.3253 11.9078 39.2327C10.0277 37.8898 8.33199 36.3655 6.8943 34.7323ZM39.15 2.17758C43.6105 3.44783 46.8914 7.44005 48.5134 12.9566C45.1588 10.9605 41.3987 9.36358 37.3437 8.20221C33.3255 7.04083 29.2337 6.42385 25.3261 6.31497C29.7129 2.54051 34.6526 0.871033 39.15 2.17758ZM57.4344 20.1063C55.5543 17.965 53.2688 16.0052 50.6883 14.2994C49.1032 7.29488 45.1956 2.10499 39.6661 0.508104C34.7264 -0.907321 29.2337 0.653275 24.2571 4.97213C23.7779 5.40765 23.2986 5.84316 22.8194 6.27868C19.7229 6.38756 16.7369 6.82307 13.9721 7.62152C6.93117 9.65392 2.17576 13.755 0.590619 19.0901C-0.994518 24.4614 0.774937 30.4135 5.60408 35.8574C7.48412 37.9987 9.76967 39.9585 12.3501 41.6643C13.9353 48.7777 17.9165 53.8587 23.3724 55.4556C26.9481 56.4718 30.8557 55.9274 34.6158 53.895C36.0166 53.1329 37.4174 52.1529 38.7814 50.9916C39.2606 50.5561 39.7398 50.1205 40.219 49.685C43.3156 49.5761 46.3016 49.1406 49.0663 48.3422C50.9832 47.7978 52.7158 47.0719 54.301 46.2372C58.4666 43.987 61.3051 40.757 62.4478 36.8736C64.033 31.5386 62.2267 25.5502 57.4344 20.1063Z" fill="#00AEEF"/>
<path d="M32.33 22.538C32.1088 22.7558 31.8139 22.901 31.519 22.901C31.2241 22.901 30.9292 22.7558 30.708 22.538C30.3762 22.1751 29.7496 22.1388 29.3809 22.4292C28.9754 22.7558 28.9386 23.3365 29.2703 23.7357C29.8233 24.389 30.6343 24.7519 31.4822 24.7519C32.33 24.7519 33.141 24.389 33.694 23.7357C33.8414 23.5542 33.952 23.3002 33.9152 23.0824C33.9152 22.8284 33.7677 22.6106 33.5834 22.4655C33.2516 22.1388 32.6249 22.1751 32.33 22.538Z" fill="#00AEEF"/>
<path d="M31.5185 15.9326C28.2008 15.9326 25.5098 18.582 25.5098 21.8484C25.5098 25.1147 28.2008 27.7641 31.5185 27.7641C34.8363 27.7641 37.5273 25.1147 37.5273 21.8484C37.5273 18.582 34.7994 15.9326 31.5185 15.9326ZM35.6104 21.8484C35.6104 24.0985 33.7672 25.9132 31.4817 25.9132C29.1961 25.9132 27.3529 24.0985 27.3529 21.8484C27.3529 19.5982 29.1961 17.7836 31.4817 17.7836C33.7672 17.7836 35.6104 19.5982 35.6104 21.8484Z" fill="#00AEEF"/>
<path d="M31.5191 28.127C25.9527 28.127 21.4185 32.591 21.4185 38.0712C21.4185 38.5793 21.824 38.9785 22.34 38.9785H23.8883H24.6256H26.9111H30.7818H40.6613C41.1774 38.9785 41.5829 38.5793 41.5829 38.0712C41.5829 32.591 37.0855 28.127 31.5191 28.127ZM24.6256 37.1639H23.8883H23.3354C23.8146 33.0991 27.3166 29.9779 31.5191 29.9779C35.7216 29.9779 39.2236 33.0991 39.7028 37.1639H30.7818H26.9111H24.6256Z" fill="#00AEEF"/>
<path d="M39.9627 45.1848C37.9721 45.1848 36.3501 46.7817 36.3501 48.7415C36.3501 50.7013 37.9721 52.2982 39.9627 52.2982C41.9534 52.2982 43.5754 50.7013 43.5754 48.7415C43.5754 46.7817 41.9534 45.1848 39.9627 45.1848ZM42.0271 48.7052C42.0271 49.8303 41.1055 50.7376 39.9627 50.7376C38.82 50.7376 37.8984 49.8303 37.8984 48.7052C37.8984 47.5801 38.82 46.6728 39.9627 46.6728C41.1055 46.7091 42.0271 47.6164 42.0271 48.7052Z" fill="#00AEEF"/>
<path d="M22.8934 3.52051C20.9028 3.52051 19.2808 5.1174 19.2808 7.07722C19.2808 9.03703 20.9028 10.6339 22.8934 10.6339C24.884 10.6339 26.506 9.03703 26.506 7.07722C26.506 5.1174 24.884 3.52051 22.8934 3.52051ZM24.9578 7.07722C24.9578 8.2023 24.0362 9.10962 22.8934 9.10962C21.7506 9.10962 20.829 8.2023 20.829 7.07722C20.829 5.95213 21.7506 5.04481 22.8934 5.04481C24.0362 5.04481 24.9578 5.95213 24.9578 7.07722Z" fill="#00AEEF"/>
<path d="M24.9566 7.07708C24.9566 8.20216 24.035 9.10949 22.8922 9.10949C21.7495 9.10949 20.8279 8.20216 20.8279 7.07708C20.8279 5.952 21.7495 5.04468 22.8922 5.04468C24.035 5.04468 24.9566 5.952 24.9566 7.07708Z" fill="#00AEEF"/>
</svg>
