<svg width="25" height="24" viewBox="0 0 25 24" fill="none" xmlns="http://www.w3.org/2000/svg">
<path d="M17.0611 10.3761C17.7967 11.5729 18.2294 12.9756 18.2294 14.4804C18.2294 18.8179 14.701 22.3466 10.3629 22.3466C6.02465 22.3466 2.49626 18.8179 2.49626 14.4804C2.49626 10.1427 6.02465 6.61359 10.3629 6.61359C11.8671 6.61359 13.2703 7.0459 14.4668 7.78147L15.6684 6.57961C14.1505 5.55739 12.3257 4.95996 10.3629 4.95996C5.11395 4.95996 0.842773 9.23084 0.842773 14.4804C0.842773 19.7298 5.11395 24.0001 10.3629 24.0001C15.6117 24.0001 19.8829 19.7298 19.8829 14.4804C19.8829 12.5174 19.2854 10.6916 18.2634 9.17464L17.0611 10.3761Z" fill="#00AEEF"/>
<path d="M13.0333 9.21404C12.2307 8.80513 11.3249 8.56934 10.3632 8.56934C7.10367 8.56934 4.45312 11.2207 4.45312 14.4803C4.45312 17.7389 7.10367 20.3901 10.3632 20.3901C13.6228 20.3901 16.2741 17.7389 16.2741 14.4803C16.2741 13.5183 16.0383 12.6123 15.6283 11.8086L14.3624 13.0745C14.5188 13.5167 14.6207 13.9854 14.6207 14.4802C14.6207 16.8271 12.7102 18.7366 10.3633 18.7366C8.01624 18.7366 6.10666 16.827 6.10666 14.4802C6.10666 12.1327 8.01624 10.2228 10.3633 10.2228C10.8583 10.2228 11.3266 10.3241 11.7681 10.4799L13.0333 9.21404Z" fill="#00AEEF"/>
<path d="M10.8838 12.0768C10.8845 12.039 10.8934 12.0026 10.8966 11.9651C10.7237 11.9287 10.5461 11.9082 10.3629 11.9082C8.94276 11.9082 7.79126 13.0603 7.79126 14.4805C7.79126 15.9004 8.94271 17.0517 10.3629 17.0517C11.783 17.0517 12.9345 15.9004 12.9345 14.4805C12.9345 14.2968 12.9136 14.1181 12.8779 13.9452C12.8401 13.9483 12.8037 13.9574 12.7666 13.9583L11.4375 15.2876C11.1857 15.5378 10.8523 15.6756 10.4978 15.6756C10.1441 15.6756 9.80986 15.5378 9.55627 15.2855C9.03785 14.7671 9.03785 13.923 9.55627 13.4034L10.8838 12.0768Z" fill="#00AEEF"/>
<path d="M24.826 3.59985C24.789 3.48612 24.6905 3.40402 24.5724 3.38627L21.8661 3.00772L21.4567 0.270611C21.4381 0.152225 21.3565 0.0540928 21.2428 0.0161837C21.2104 0.00529649 21.1766 0 21.1443 0C21.0611 0 20.9795 0.0332012 20.9197 0.0932771L18.0034 3.00875C17.9324 3.07942 17.9 3.17995 17.9146 3.27843L18.1987 5.21822L11.9924 11.4248C11.7316 11.6855 11.6597 12.0511 11.7454 12.3849L10.1409 13.9878C9.94393 14.1855 9.94393 14.5038 10.1409 14.7009C10.2402 14.7994 10.3695 14.8487 10.4979 14.8487C10.6269 14.8487 10.7562 14.7994 10.8546 14.7009L12.4582 13.0969C12.547 13.1201 12.6373 13.1318 12.7277 13.1318C12.9781 13.1318 13.2268 13.0421 13.4174 12.8503L19.6238 6.6443L21.5639 6.92889C21.5786 6.9308 21.5948 6.93202 21.6094 6.93202C21.6933 6.93202 21.7739 6.89897 21.8337 6.83914L24.7484 3.92244C24.8341 3.83799 24.8647 3.71367 24.826 3.59985Z" fill="#00AEEF"/>
</svg>
