<svg width="24" height="20" viewBox="0 0 24 20" fill="none" xmlns="http://www.w3.org/2000/svg">
<path d="M20.7942 19.2768H19.3028V18.2644C19.3028 18.2068 19.2557 18.1597 19.1981 18.1597C19.1403 18.1597 19.0934 18.2068 19.0934 18.2644V19.2768H17.2084V18.2644C17.2084 18.2068 17.1613 18.1597 17.1037 18.1597C17.0459 18.1597 16.999 18.2068 16.999 18.2644V19.2768H15.1141V18.2644C15.1141 18.2068 15.067 18.1597 15.0094 18.1597C14.9516 18.1597 14.9047 18.2068 14.9047 18.2644V19.2768H13.0197V18.2644C13.0197 18.2068 12.9726 18.1597 12.915 18.1597C12.8572 18.1597 12.8103 18.2068 12.8103 18.2644V19.2768H10.9254V18.2644C10.9254 18.2068 10.8785 18.1597 10.8207 18.1597C10.7629 18.1597 10.716 18.2068 10.716 18.2644V19.2768H8.83104V18.2644C8.83104 18.2068 8.78413 18.1597 8.72632 18.1597C8.66852 18.1597 8.6216 18.2068 8.6216 18.2644V19.2768H6.73669V18.2644C6.73669 18.2068 6.68977 18.1597 6.63197 18.1597C6.57417 18.1597 6.52725 18.2068 6.52725 18.2644V19.2768H4.64234V18.2644C4.64234 18.2068 4.59542 18.1597 4.53762 18.1597C4.47982 18.1597 4.4329 18.2068 4.4329 18.2644V19.2768H0.628305V16.9033H1.4694C1.5272 16.9033 1.57411 16.8564 1.57411 16.7986C1.57411 16.7408 1.5272 16.6938 1.4694 16.6938H0.628305V14.8089H1.4694C1.5272 14.8089 1.57411 14.762 1.57411 14.7042C1.57411 14.6464 1.5272 14.5995 1.4694 14.5995H0.628305V12.7146H1.4694C1.5272 12.7146 1.57411 12.6677 1.57411 12.6099C1.57411 12.5521 1.5272 12.5051 1.4694 12.5051H0.628305V10.6202H1.4694C1.5272 10.6202 1.57411 10.5733 1.57411 10.5155C1.57411 10.4577 1.5272 10.4108 1.4694 10.4108H0.628305V8.52588H1.4694C1.5272 8.52588 1.57411 8.47897 1.57411 8.42117C1.57411 8.36336 1.5272 8.31645 1.4694 8.31645H0.628305V6.43153H1.4694C1.5272 6.43153 1.57411 6.38462 1.57411 6.32682C1.57411 6.26901 1.5272 6.2221 1.4694 6.2221H0.628305V4.33718H1.4694C1.5272 4.33718 1.57411 4.29027 1.57411 4.23247C1.57411 4.17466 1.5272 4.12775 1.4694 4.12775H0.628305V2.24283H1.4694C1.5272 2.24283 1.57411 2.19592 1.57411 2.13812C1.57411 2.08031 1.5272 2.0334 1.4694 2.0334H0.628305V0.322942C0.628305 0.149529 0.487565 0.00878906 0.314153 0.00878906C0.14074 0.00878906 0 0.149529 0 0.322942V19.591C0 19.7644 0.14074 19.9051 0.314153 19.9051H20.7942C20.9676 19.9051 21.1083 19.7644 21.1083 19.591C21.1083 19.4176 20.9676 19.2768 20.7942 19.2768Z" fill="#00AEEF"/>
<path d="M5.42357 2.85791H3.27686V17.0566H5.42357V2.85791Z" fill="#00AEEF"/>
<path d="M9.97874 9.53989C9.69768 9.17254 9.46981 8.77733 9.29556 8.36475H7.83203V17.0563H9.97874V9.53989Z" fill="#00AEEF"/>
<path d="M14.4817 11.6544C14.4121 11.6574 14.3426 11.6618 14.2731 11.6618C13.5991 11.6618 12.9453 11.5382 12.335 11.3047V17.056H14.4817V11.6544Z" fill="#00AEEF"/>
<path d="M19.1941 12.9466L17.1284 10.8506C17.1018 10.8669 17.074 10.8812 17.0474 10.8969V17.0564H19.1941V12.9466Z" fill="#00AEEF"/>
<path d="M23.8236 15.119L18.027 9.23747C19.4805 7.3626 19.3511 4.64812 17.6302 2.9274C15.7649 1.06196 12.7294 1.06196 10.8635 2.9274C8.99829 4.79305 8.99829 7.82818 10.8635 9.69404C12.5844 11.415 15.2985 11.5442 17.1738 10.0909L22.9703 15.9721C23.2059 16.2077 23.5875 16.2077 23.8232 15.9723C24.0592 15.7367 24.0592 15.3546 23.8236 15.119ZM16.7778 8.84101C15.3825 10.2363 13.1122 10.2365 11.717 8.84101C10.3217 7.44596 10.3219 5.17568 11.717 3.78064C13.1122 2.38559 15.3823 2.38517 16.7778 3.78064C18.173 5.17568 18.173 7.44596 16.7778 8.84101Z" fill="#00AEEF"/>
<path d="M14.4216 5.79881C13.8743 5.57241 13.716 5.43544 13.716 5.18746C13.716 4.98934 13.8611 4.7577 14.2699 4.7577C14.6547 4.7577 14.8968 4.89614 15.0002 4.9552C15.0266 4.97049 15.0585 4.973 15.0876 4.96295C15.1165 4.95248 15.1391 4.93028 15.1502 4.90159L15.3056 4.49109C15.3238 4.44334 15.3048 4.38952 15.2606 4.36376C15.0379 4.23412 14.7898 4.15977 14.5049 4.13819V3.6345C14.5049 3.5767 14.458 3.52979 14.4002 3.52979H14.0153C13.9575 3.52979 13.9106 3.5767 13.9106 3.6345V4.17547C13.3377 4.30197 12.9727 4.72063 12.9727 5.26202C12.9727 5.91525 13.4971 6.21139 14.0624 6.43381C14.5146 6.61665 14.6989 6.80284 14.6989 7.07552C14.6989 7.3769 14.4438 7.57942 14.0649 7.57942C13.7717 7.57942 13.4668 7.48853 13.2284 7.3302C13.2018 7.31218 13.1683 7.308 13.1375 7.31784C13.1067 7.32768 13.0824 7.35156 13.072 7.38193L12.9229 7.79765C12.9071 7.84185 12.9224 7.89106 12.9608 7.91829C13.1786 8.07369 13.5254 8.18301 13.867 8.20668V8.73362C13.867 8.79142 13.9141 8.83834 13.9717 8.83834H14.3629C14.4207 8.83834 14.4676 8.79142 14.4676 8.73362V8.17422C15.058 8.04207 15.4491 7.59241 15.4491 7.03196C15.4489 6.46083 15.1414 6.09202 14.4216 5.79881Z" fill="#00AEEF"/>
</svg>
