<svg width="22" height="25" viewBox="0 0 22 25" fill="none" xmlns="http://www.w3.org/2000/svg">
<mask id="path-1-inside-1" fill="white">
<path fill-rule="evenodd" clip-rule="evenodd" d="M3.80736 3.32893H2.98925V2.50462H2.17114V3.32893H1.32156V4.15324H2.13968V4.97754H2.95779V4.15324H3.7759V3.32893H3.80736ZM1.65196 8.40159H0.818111V9.22589H0V10.0502H0.818111V10.8745H1.63622V10.0502H2.45433V9.22589H1.63622V8.40159H1.65196ZM18.0771 2.48877H18.8952V1.66447H19.7133V0.824307H18.8952V0H18.0771V0.824307H17.259V1.64861H18.0771V2.48877ZM20.4685 6.73712V5.91281H19.6504V6.73712H18.8323V7.56143H19.6504V8.40159H20.4685V7.57728H21.2866V6.75297H20.4685V6.73712ZM12.7751 2.20343L13.4831 2.61559L13.074 3.32893L12.3661 2.91678L12.7751 2.20343ZM14.726 3.88375L15.1351 4.59709L14.4271 5.00925L14.018 4.29591L14.726 3.88375ZM14.7732 6.32497H15.5913V7.14927H14.7732V6.32497ZM14.726 9.59049L14.018 9.17834L14.4271 8.465L15.1351 8.87715L14.726 9.59049ZM6.56062 9.59049L6.15157 8.87715L6.85955 8.465L7.2686 9.17834L6.56062 9.59049ZM5.69531 6.32497H6.51342V7.14927H5.69531V6.32497ZM6.56062 3.88375L7.2686 4.29591L6.85955 5.00925L6.15157 4.59709L6.56062 3.88375ZM8.52724 2.20343L8.93629 2.91678L8.22831 3.32893L7.81926 2.61559L8.52724 2.20343ZM10.2421 1.74373H11.0602V2.56803H10.2421V1.74373ZM12.0986 9.2576L11.8941 9.38441V10.4941H11.076V7.91017C11.548 7.7358 11.8941 7.27609 11.8941 6.73712C11.8941 6.05548 11.3434 5.48481 10.6512 5.48481C9.97466 5.48481 9.40828 6.03963 9.40828 6.73712C9.40828 7.27609 9.7544 7.7358 10.2264 7.91017V10.4782H9.40828V9.36856L9.20375 9.24174C8.30698 8.71863 7.75632 7.75165 7.75632 6.72127C7.75632 5.12021 9.04642 3.80449 10.6512 3.80449C12.2402 3.80449 13.546 5.10436 13.546 6.72127C13.546 7.76751 12.9796 8.73448 12.0986 9.2576ZM10.2421 6.73712C10.2421 6.51519 10.4309 6.32497 10.6512 6.32497C10.8714 6.32497 11.0602 6.51519 11.0602 6.73712C11.0602 6.95905 10.8714 7.14927 10.6512 7.14927C10.4152 7.14927 10.2421 6.9749 10.2421 6.73712ZM12.5077 11.7305H12.0986H9.20375H8.7947C8.68457 11.7305 8.59017 11.6354 8.59017 11.5244C8.59017 11.4135 8.68457 11.3184 8.7947 11.3184H12.5077C12.6178 11.3184 12.7122 11.4135 12.7122 11.5244C12.7122 11.6354 12.6178 11.7305 12.5077 11.7305ZM12.0986 12.9828H9.20375C9.09362 12.9828 8.99922 12.8877 8.99922 12.7768C8.99922 12.6658 9.09362 12.5707 9.20375 12.5707H12.0986C12.2087 12.5707 12.3031 12.6658 12.3031 12.7768C12.3031 12.8877 12.2087 12.9828 12.0986 12.9828ZM14.3641 6.73712C14.3641 4.67635 12.6965 2.99604 10.6512 2.99604C8.6059 2.99604 6.93821 4.67635 6.93821 6.73712C6.93821 7.98943 7.56753 9.14663 8.59017 9.84412V10.4941C8.11818 10.5892 7.77206 11.0172 7.77206 11.5086C7.77206 11.8732 7.96085 12.2061 8.25978 12.3805C8.21258 12.4914 8.19685 12.6182 8.19685 12.745C8.19685 13.3157 8.6531 13.7913 9.23522 13.7913H12.1301C12.6965 13.7913 13.1684 13.3316 13.1684 12.745C13.1684 12.6182 13.137 12.4914 13.1055 12.3805C13.3887 12.1902 13.5932 11.8732 13.5932 11.5086C13.5932 11.0013 13.2314 10.5892 12.7751 10.4941V9.84412C13.7348 9.16249 14.3641 7.98943 14.3641 6.73712Z"/>
</mask>
<path fill-rule="evenodd" clip-rule="evenodd" d="M3.80736 3.32893H2.98925V2.50462H2.17114V3.32893H1.32156V4.15324H2.13968V4.97754H2.95779V4.15324H3.7759V3.32893H3.80736ZM1.65196 8.40159H0.818111V9.22589H0V10.0502H0.818111V10.8745H1.63622V10.0502H2.45433V9.22589H1.63622V8.40159H1.65196ZM18.0771 2.48877H18.8952V1.66447H19.7133V0.824307H18.8952V0H18.0771V0.824307H17.259V1.64861H18.0771V2.48877ZM20.4685 6.73712V5.91281H19.6504V6.73712H18.8323V7.56143H19.6504V8.40159H20.4685V7.57728H21.2866V6.75297H20.4685V6.73712ZM12.7751 2.20343L13.4831 2.61559L13.074 3.32893L12.3661 2.91678L12.7751 2.20343ZM14.726 3.88375L15.1351 4.59709L14.4271 5.00925L14.018 4.29591L14.726 3.88375ZM14.7732 6.32497H15.5913V7.14927H14.7732V6.32497ZM14.726 9.59049L14.018 9.17834L14.4271 8.465L15.1351 8.87715L14.726 9.59049ZM6.56062 9.59049L6.15157 8.87715L6.85955 8.465L7.2686 9.17834L6.56062 9.59049ZM5.69531 6.32497H6.51342V7.14927H5.69531V6.32497ZM6.56062 3.88375L7.2686 4.29591L6.85955 5.00925L6.15157 4.59709L6.56062 3.88375ZM8.52724 2.20343L8.93629 2.91678L8.22831 3.32893L7.81926 2.61559L8.52724 2.20343ZM10.2421 1.74373H11.0602V2.56803H10.2421V1.74373ZM12.0986 9.2576L11.8941 9.38441V10.4941H11.076V7.91017C11.548 7.7358 11.8941 7.27609 11.8941 6.73712C11.8941 6.05548 11.3434 5.48481 10.6512 5.48481C9.97466 5.48481 9.40828 6.03963 9.40828 6.73712C9.40828 7.27609 9.7544 7.7358 10.2264 7.91017V10.4782H9.40828V9.36856L9.20375 9.24174C8.30698 8.71863 7.75632 7.75165 7.75632 6.72127C7.75632 5.12021 9.04642 3.80449 10.6512 3.80449C12.2402 3.80449 13.546 5.10436 13.546 6.72127C13.546 7.76751 12.9796 8.73448 12.0986 9.2576ZM10.2421 6.73712C10.2421 6.51519 10.4309 6.32497 10.6512 6.32497C10.8714 6.32497 11.0602 6.51519 11.0602 6.73712C11.0602 6.95905 10.8714 7.14927 10.6512 7.14927C10.4152 7.14927 10.2421 6.9749 10.2421 6.73712ZM12.5077 11.7305H12.0986H9.20375H8.7947C8.68457 11.7305 8.59017 11.6354 8.59017 11.5244C8.59017 11.4135 8.68457 11.3184 8.7947 11.3184H12.5077C12.6178 11.3184 12.7122 11.4135 12.7122 11.5244C12.7122 11.6354 12.6178 11.7305 12.5077 11.7305ZM12.0986 12.9828H9.20375C9.09362 12.9828 8.99922 12.8877 8.99922 12.7768C8.99922 12.6658 9.09362 12.5707 9.20375 12.5707H12.0986C12.2087 12.5707 12.3031 12.6658 12.3031 12.7768C12.3031 12.8877 12.2087 12.9828 12.0986 12.9828ZM14.3641 6.73712C14.3641 4.67635 12.6965 2.99604 10.6512 2.99604C8.6059 2.99604 6.93821 4.67635 6.93821 6.73712C6.93821 7.98943 7.56753 9.14663 8.59017 9.84412V10.4941C8.11818 10.5892 7.77206 11.0172 7.77206 11.5086C7.77206 11.8732 7.96085 12.2061 8.25978 12.3805C8.21258 12.4914 8.19685 12.6182 8.19685 12.745C8.19685 13.3157 8.6531 13.7913 9.23522 13.7913H12.1301C12.6965 13.7913 13.1684 13.3316 13.1684 12.745C13.1684 12.6182 13.137 12.4914 13.1055 12.3805C13.3887 12.1902 13.5932 11.8732 13.5932 11.5086C13.5932 11.0013 13.2314 10.5892 12.7751 10.4941V9.84412C13.7348 9.16249 14.3641 7.98943 14.3641 6.73712Z" fill="#00AEEF" stroke="#00AEEF" mask="url(#path-1-inside-1)"/>
<path fill-rule="evenodd" clip-rule="evenodd" d="M16.7396 10.3833H17.4476L11.6264 16.2327L9.83286 14.4255C9.73846 14.3304 9.58113 14.3304 9.48673 14.4255L5.42764 18.4995C5.33325 18.5946 5.33325 18.7532 5.42764 18.8483C5.47484 18.8958 5.53777 18.9275 5.6007 18.9275C5.66364 18.9275 5.72657 18.8958 5.77377 18.8483L9.6598 14.9487L11.4691 16.7558C11.5635 16.8509 11.7208 16.8509 11.8152 16.7558L17.8094 10.732V11.4454C17.8094 11.588 17.9196 11.6831 18.0454 11.6831C18.187 11.6831 18.2814 11.5722 18.2814 11.4454V10.1455C18.2814 10.0028 18.1713 9.90771 18.0454 9.90771H16.7396C16.598 9.90771 16.5036 10.0187 16.5036 10.1455C16.5036 10.2882 16.6137 10.3833 16.7396 10.3833ZM17.07 23.5088H4.23194C3.82289 23.5088 3.50823 23.1759 3.50823 22.7796V22.5418H17.8094V22.7796C17.8094 23.1759 17.4791 23.5088 17.07 23.5088ZM4.78259 19.9104H16.5193L17.6364 22.0345H3.66556L4.78259 19.9104ZM11.3904 21.0517H9.92725C9.78566 21.0517 9.69126 21.1627 9.69126 21.2895C9.69126 21.4322 9.80139 21.5273 9.92725 21.5273H11.3904C11.532 21.5273 11.6264 21.4163 11.6264 21.2895C11.6264 21.1627 11.5163 21.0517 11.3904 21.0517ZM18.2814 22.2565C18.2814 22.2406 18.2814 22.2406 18.2814 22.2248V22.2089C18.2814 22.1931 18.2814 22.1931 18.2657 22.1772L16.9127 19.6092V13.7122C16.9127 13.5695 16.8025 13.4744 16.6767 13.4744C16.5351 13.4744 16.4407 13.5854 16.4407 13.7122V19.4189H4.87699V12.5233C4.87699 12.1111 5.20738 11.7941 5.6007 11.7941H6.63908C6.78067 11.7941 6.87507 11.6831 6.87507 11.5563C6.87507 11.4137 6.76494 11.3185 6.63908 11.3185H5.6007C4.92419 11.3185 4.38927 11.8734 4.38927 12.5392V19.625L3.03624 22.1772C3.03624 22.1772 3.03624 22.1931 3.02051 22.2089V22.2248C3.02051 22.2406 3.02051 22.2406 3.02051 22.2565C3.02051 22.2723 3.02051 22.2723 3.02051 22.2882V22.7796C3.02051 23.4612 3.57116 24.0002 4.23194 24.0002H17.07C17.7465 24.0002 18.2814 23.4454 18.2814 22.7796V22.2882C18.2972 22.2723 18.2814 22.2565 18.2814 22.2565Z" fill="#00AEEF" stroke="#00AEEF" stroke-width="0.5" stroke-miterlimit="10"/>
</svg>
