<svg width="19" height="25" viewBox="0 0 19 25" fill="none" xmlns="http://www.w3.org/2000/svg">
<path d="M13.7364 17.9622C13.7211 17.9622 13.7058 17.9622 13.6905 17.9622L12.6794 17.9239L11.9288 18.6031C11.6939 18.815 11.3901 18.9324 11.0735 18.9324C10.9075 18.9324 10.7441 18.9018 10.591 18.838L9.65395 18.455L8.71697 18.838C8.56378 18.9018 8.40038 18.9324 8.23443 18.9324C7.91784 18.9324 7.61401 18.815 7.37912 18.6031L6.6285 17.9239L5.61745 17.9622C5.60213 17.9622 5.58681 17.9622 5.57149 17.9622C5.09658 17.9622 4.66513 17.7018 4.443 17.2806L3.97067 16.3843L3.93237 16.3716V24.2787C3.93237 24.7536 4.43282 25.0625 4.85661 24.848L9.37058 22.5809C9.55185 22.4915 9.76376 22.4915 9.94504 22.5809L14.4513 24.8506C14.8752 25.065 15.3756 24.7561 15.3756 24.2812V16.3742L15.3373 16.387L14.865 17.2831C14.6453 17.7018 14.2113 17.9622 13.7364 17.9622Z" fill="#00AEEF"/>
<path d="M18.3631 9.94784C18.4933 9.74104 18.4933 9.47806 18.3631 9.26871L17.8244 8.41085C17.735 8.27043 17.7069 8.09937 17.7401 7.93852L17.9546 6.9479C18.0056 6.7079 17.9163 6.46025 17.7222 6.30961L16.9231 5.6892C16.7929 5.58707 16.7061 5.43899 16.6831 5.27303L16.5427 4.26965C16.5095 4.0271 16.3384 3.8254 16.1061 3.74881L15.1435 3.43732C14.9853 3.38626 14.8525 3.27392 14.7759 3.12839L14.3036 2.23224C14.1938 2.02288 13.9742 1.89267 13.7393 1.89267C13.7316 1.89267 13.724 1.89267 13.7163 1.89267L12.7053 1.93097C12.6976 1.93097 12.69 1.93097 12.6823 1.93097C12.524 1.93097 12.3708 1.87225 12.2534 1.76501L11.5028 1.08588C11.3828 0.978644 11.2296 0.919922 11.0738 0.919922C10.9921 0.919922 10.9104 0.935241 10.8338 0.968432L9.89684 1.3514C9.82024 1.38204 9.73857 1.39991 9.65687 1.39991C9.57517 1.39991 9.49347 1.38459 9.41687 1.3514L8.47987 0.968432C8.40072 0.937794 8.31902 0.919922 8.2399 0.919922C8.08413 0.919922 7.93094 0.976091 7.81097 1.08588L7.06035 1.76501C6.9429 1.87225 6.78971 1.93097 6.63142 1.93097C6.62376 1.93097 6.61607 1.93097 6.60844 1.93097L5.59739 1.89267C5.58973 1.89267 5.58205 1.89267 5.57442 1.89267C5.33953 1.89267 5.11996 2.02288 5.01017 2.23224L4.53784 3.12839C4.46124 3.27647 4.32848 3.38626 4.17021 3.43732L3.20767 3.74881C2.97531 3.82285 2.80428 4.0271 2.77106 4.26965L2.63064 5.27303C2.60769 5.43899 2.52085 5.58707 2.39067 5.6892L1.58132 6.30961C1.38726 6.46025 1.2979 6.7079 1.34896 6.9479L1.56342 7.93852C1.59917 8.10192 1.56853 8.27043 1.47917 8.41085L0.940431 9.26871C0.810221 9.47551 0.810221 9.73849 0.940431 9.94784L1.47917 10.8057C1.56853 10.9461 1.59662 11.1172 1.56342 11.278L1.34896 12.2687C1.2979 12.5086 1.38726 12.7563 1.58132 12.907L2.38046 13.5274C2.51067 13.6295 2.59747 13.7776 2.62045 13.9435L2.76087 14.9469C2.79407 15.1895 2.96513 15.3912 3.19746 15.4678L3.92766 15.7026L4.16255 15.7792C4.32085 15.8303 4.45361 15.9426 4.5302 16.0882L5.00254 16.9843C5.11232 17.1937 5.33187 17.3239 5.56678 17.3239C5.57444 17.3239 5.5821 17.3239 5.58976 17.3239L6.60081 17.2856C6.60846 17.2856 6.61612 17.2856 6.62378 17.2856C6.78205 17.2856 6.93524 17.3444 7.05271 17.4516L7.80331 18.1307C7.92331 18.238 8.0765 18.2967 8.23227 18.2967C8.31394 18.2967 8.39564 18.2813 8.47224 18.2481L9.40924 17.8652C9.48583 17.8346 9.56754 17.8167 9.64924 17.8167C9.73091 17.8167 9.81261 17.832 9.8892 17.8652L10.8262 18.2481C10.9054 18.2788 10.9871 18.2967 11.0662 18.2967C11.2219 18.2967 11.3751 18.2405 11.4951 18.1307L12.2457 17.4516C12.3632 17.3444 12.5164 17.2856 12.6747 17.2856C12.6823 17.2856 12.69 17.2856 12.6976 17.2856L13.7087 17.3239C13.7164 17.3239 13.724 17.3239 13.7317 17.3239C13.9666 17.3239 14.1861 17.1937 14.2959 16.9843L14.7683 16.0882C14.8449 15.9401 14.9776 15.8303 15.1359 15.7792L15.3708 15.7026L16.101 15.4678C16.3333 15.3937 16.5044 15.1895 16.5376 14.9469L16.678 13.9435C16.701 13.7776 16.7878 13.6295 16.918 13.5274L17.7171 12.907C17.9112 12.7563 18.0005 12.5086 17.9495 12.2687L17.735 11.278C17.6993 11.1147 17.7299 10.9461 17.8193 10.8057L18.3631 9.94784ZM15.8278 12.2176C15.6976 12.5214 15.5495 12.815 15.3784 13.0959C15.1027 13.5478 14.7733 13.969 14.3929 14.3469C13.7776 14.9622 13.0602 15.4448 12.2636 15.7818C11.4364 16.1316 10.5581 16.3077 9.65429 16.3077C8.7505 16.3077 7.8722 16.1316 7.045 15.7818C6.24584 15.4448 5.53096 14.9622 4.91568 14.3469C4.53529 13.9665 4.2059 13.5478 3.93016 13.0959C3.7591 12.815 3.60844 12.524 3.48079 12.2176C3.13103 11.3904 2.95484 10.5121 2.95484 9.60827C2.95484 8.70446 3.131 7.82618 3.48079 6.99896C3.8178 6.19983 4.30037 5.48495 4.91565 4.86964C5.53094 4.25433 6.24839 3.77179 7.04498 3.43477C7.87217 3.08499 8.75048 2.90882 9.65427 2.90882C10.5581 2.90882 11.4364 3.08499 12.2636 3.43477C13.0627 3.77179 13.7776 4.25433 14.3929 4.86964C15.0082 5.48495 15.4908 6.20238 15.8278 6.99896C16.1775 7.82618 16.3537 8.70446 16.3537 9.60827C16.3538 10.5121 16.1776 11.3904 15.8278 12.2176Z" fill="#00AEEF"/>
<path d="M9.65142 3.67236C6.37317 3.67236 3.71533 6.33019 3.71533 9.60843C3.71533 10.1522 3.78937 10.6807 3.92724 11.1812C4.6166 13.696 6.91954 15.5445 9.65142 15.5445C12.3833 15.5445 14.6862 13.696 15.3756 11.1812C15.5134 10.6807 15.5875 10.1522 15.5875 9.60843C15.5875 6.33019 12.9297 3.67236 9.65142 3.67236ZM12.2939 12.3582C12.4088 12.8969 11.8344 13.3181 11.3544 13.045L9.65142 12.0799L7.94591 13.045C7.46847 13.3156 6.89146 12.8943 7.00635 12.3582L7.41485 10.4331L6.08211 9.23056L5.93402 9.09524C5.52807 8.72759 5.74254 8.05356 6.28378 7.98718L8.22418 7.74974L9.0693 5.93956C9.29908 5.44935 9.99609 5.44935 10.2259 5.93956L11.071 7.74974L13.0114 7.98718C13.5552 8.05356 13.7671 8.72759 13.3612 9.09524L13.2131 9.23056L11.8803 10.4331L12.2939 12.3582Z" fill="#00AEEF"/>
</svg>
