<svg width="27" height="25" viewBox="0 0 27 25" fill="none" xmlns="http://www.w3.org/2000/svg">
<path d="M25.7981 0H1.20191C0.536566 0 0 0.532368 0 1.1925V19.7189C0 20.379 0.536566 20.9114 1.20191 20.9114H10.2806V23.7649H6.48172C6.13831 23.7649 5.8593 24.0417 5.8593 24.3825C5.8593 24.7232 6.13831 25 6.48172 25H20.5397C20.8831 25 21.1622 24.7232 21.1622 24.3825C21.1622 24.0417 20.8831 23.7649 20.5397 23.7649H16.7194V20.9114H25.7981C26.4634 20.9114 27 20.379 27 19.7189V1.1925C27 0.532368 26.4634 0 25.7981 0ZM26.6137 19.7189C26.6137 20.1661 26.2488 20.5281 25.7981 20.5281H16.3331V24.1482H16.2258C16.3545 24.1482 16.4618 24.2547 16.4618 24.3825C16.4618 24.5102 16.3545 24.6167 16.2258 24.6167H10.7099C10.5811 24.6167 10.4738 24.5102 10.4738 24.3825C10.4738 24.2547 10.5811 24.1482 10.7099 24.1482H10.6669V20.5281H1.20191C0.751192 20.5281 0.386327 20.1661 0.386327 19.7189V1.1925C0.386327 0.745315 0.751192 0.383305 1.20191 0.383305H25.7981C26.2488 0.383305 26.6137 0.745315 26.6137 1.1925V19.7189Z" fill="#00AEEF"/>
<path d="M10.4739 24.7444H16.5263V20.5493H10.4739V24.7444ZM11.5255 20.9113H15.4747V23.7648H11.5255V20.9113Z" fill="#00AEEF"/>
<path d="M23.6517 10.1576C22.6215 8.43272 21.1621 6.98467 19.4451 5.98382C17.6637 4.94038 15.6033 4.38672 13.5214 4.38672C11.4395 4.38672 9.35762 4.94038 7.57622 5.96253C5.83775 6.96338 4.37829 8.41142 3.36955 10.1363C3.26223 10.3067 3.26223 10.5409 3.36955 10.7112C4.39975 12.4361 5.83775 13.8842 7.57622 14.885C9.35762 15.9285 11.418 16.4821 13.4999 16.4821C15.5818 16.4821 17.6422 15.9285 19.4236 14.885C21.1621 13.8842 22.6215 12.4361 23.6303 10.7112C23.7591 10.5622 23.7591 10.3279 23.6517 10.1576ZM8.73521 14.2462C7.0182 13.3944 5.53727 12.0528 4.52853 10.4557C5.55874 8.83731 7.0182 7.51704 8.73521 6.66525C7.8767 7.72999 7.38306 9.07156 7.38306 10.4557C7.40452 11.8186 7.8767 13.1601 8.73521 14.2462ZM8.54204 10.4557C8.54204 7.81517 10.6883 5.62181 13.3497 5.53663H13.4141C13.4355 5.53663 13.4785 5.53663 13.4999 5.53663C13.5214 5.53663 13.5643 5.53663 13.5858 5.53663H13.6287C16.2901 5.60052 18.4578 7.81517 18.4578 10.4557C18.4578 13.0963 16.3115 15.2896 13.6502 15.3748H13.5858C13.5214 15.3748 13.457 15.3748 13.3926 15.3748H13.3282C10.7098 15.2896 8.54204 13.075 8.54204 10.4557ZM19.5953 10.4557C19.5953 9.07156 19.1231 7.72999 18.2432 6.66525C19.9602 7.51704 21.4411 8.85861 22.4498 10.4557C21.4196 12.0741 19.9602 13.3944 18.2432 14.2462C19.1231 13.1601 19.5953 11.8186 19.5953 10.4557Z" fill="#00AEEF"/>
<path d="M16.3114 10.4557C16.3114 10.0511 16.2256 9.66783 16.0539 9.30582C15.968 9.09287 15.7534 8.9651 15.5388 8.9651C15.4529 8.9651 15.3671 8.9864 15.3027 9.00769C15.0237 9.13546 14.8949 9.47618 15.0237 9.7743C15.131 9.98725 15.1739 10.2215 15.1739 10.4557C15.1739 11.3714 14.4227 12.1167 13.4998 12.1167C12.5769 12.1167 11.8258 11.3714 11.8258 10.4557C11.8258 9.54006 12.5769 8.79474 13.4998 8.79474C13.7359 8.79474 13.972 8.83733 14.1866 8.94381C14.2725 8.9864 14.3369 8.9864 14.4227 8.9864C14.6588 8.9864 14.852 8.85863 14.9378 8.64568C15.0666 8.34756 14.9378 8.02813 14.6588 7.87907C14.294 7.70871 13.9076 7.62354 13.4998 7.62354C11.9545 7.62354 10.6882 8.87992 10.6882 10.4344C10.6882 11.989 11.9545 13.2453 13.4998 13.2453C15.0451 13.2453 16.3114 11.989 16.3114 10.4557Z" fill="#00AEEF"/>
<path d="M26.3347 0.255859H0.643918C0.450754 0.255859 0.279053 0.426217 0.279053 0.639164V20.3155C0.279053 20.5284 0.450754 20.6775 0.643918 20.6775H26.3347C26.5279 20.6775 26.6996 20.5071 26.6996 20.3155V0.639164C26.721 0.426217 26.5493 0.255859 26.3347 0.255859ZM25.7552 19.6979H1.22341V1.23542H25.7552V19.6979Z" fill="#00AEEF"/>
</svg>
