<svg width="25" height="32" viewBox="0 0 25 32" fill="none" xmlns="http://www.w3.org/2000/svg">
<path d="M25 20.7068V17.4899H19.3598V18.692H15.0237L12.9065 17.6422V10.9883H12.0935V17.6422L9.18022 19.0983L12.0935 20.5544V21.9258H3.21816V20.7237H5.64024V17.5068H0V20.7237H2.42209V21.9258V22.3322V23.9407H0V27.1576H5.64024V23.9407H3.21816V22.7385H12.0935V23.9407H9.67141V27.1576H12.0935V28.7661H11.2805C10.3828 28.7661 9.67141 29.4941 9.67141 30.3745C9.67141 31.2719 10.3997 31.983 11.2805 31.983H13.7195C14.6172 31.983 15.3286 31.2549 15.3286 30.3745C15.3286 29.4772 14.6003 28.7661 13.7195 28.7661H12.9065V27.1576H15.3286V23.9407H12.9065V22.7385V21.9258V20.5544L15.0237 19.5047H19.3598V20.7068H21.7818V23.9915C21.0874 24.1777 20.5793 24.8042 20.5793 25.5491C20.5793 26.4465 21.3076 27.1576 22.1883 27.1576C23.086 27.1576 23.7974 26.4295 23.7974 25.5491C23.7974 24.8042 23.2893 24.1777 22.5948 23.9915V20.7068H25ZM4.84417 24.7364V26.3449H0.813008V24.7364H4.84417ZM0.813008 19.911V18.3026H4.84417V19.911H0.813008ZM13.7195 29.5788C14.1599 29.5788 14.5325 29.9343 14.5325 30.3915C14.5325 30.8317 14.1768 31.2042 13.7195 31.2042H11.2974C10.857 31.2042 10.4844 30.8486 10.4844 30.3915C10.4844 29.9512 10.8401 29.5788 11.2974 29.5788H13.7195ZM14.5156 24.7364V26.3449H10.4844V24.7364H14.5156ZM12.5 19.8602L10.9756 19.0983L12.5 18.3364L14.0244 19.0983L12.5 19.8602ZM22.9844 25.5491C22.9844 25.9893 22.6287 26.3618 22.1714 26.3618C21.731 26.3618 21.3584 26.0063 21.3584 25.5491C21.3584 25.1089 21.7141 24.7364 22.1714 24.7364C22.6287 24.7364 22.9844 25.1089 22.9844 25.5491ZM20.1558 19.911V18.3026H24.187V19.911H20.1558Z" fill="#00AEEF"/>
<path fill-rule="evenodd" clip-rule="evenodd" d="M16.7074 5.92607C16.555 5.90914 16.4195 6.01073 16.4025 6.16311C16.1485 8.09327 14.4886 9.54935 12.5238 9.54935C10.3727 9.54935 8.61119 7.78851 8.61119 5.63824C8.61119 3.48798 10.3727 1.72713 12.5238 1.72713C14.4716 1.72713 16.1485 3.18322 16.4025 5.11338C16.4195 5.26576 16.555 5.36734 16.7074 5.35041C16.8598 5.33348 16.9615 5.19803 16.9445 5.04565C16.6566 2.86152 14.7596 1.18533 12.5238 1.18533C10.0678 1.18533 8.06919 3.18322 8.06919 5.65517C8.06919 8.1102 10.0678 10.1081 12.5238 10.1081C14.7596 10.1081 16.6566 8.44882 16.9445 6.23083C16.9615 6.07845 16.8598 5.943 16.7074 5.92607ZM13.8449 5.943C13.7772 6.01073 13.7602 6.09539 13.7602 6.18004L13.9804 7.65306L12.6424 6.99274C12.6085 6.97581 12.5577 6.95888 12.5238 6.95888C12.4899 6.95888 12.4391 6.97581 12.4052 6.99274L11.0672 7.65306L11.2873 6.18004C11.3043 6.09539 11.2704 6.01073 11.2027 5.943L10.1525 4.87634L11.6261 4.62237C11.7108 4.60544 11.7785 4.55464 11.8293 4.46999L12.5238 3.14935L13.2182 4.46999C13.2521 4.55464 13.3368 4.60544 13.4215 4.62237L14.8951 4.87634L13.8449 5.943ZM15.725 4.60544C15.6911 4.50385 15.6064 4.43613 15.5048 4.4192L13.6417 4.11443L12.7779 2.43824C12.727 2.35359 12.6424 2.28586 12.5407 2.28586C12.4391 2.28586 12.3375 2.33665 12.3036 2.43824L11.4398 4.11443L9.57664 4.4192C9.47502 4.43613 9.39033 4.50385 9.35645 4.60544C9.32258 4.70703 9.35645 4.80861 9.4242 4.87634L10.7453 6.2139L10.4743 8.07634C10.4574 8.17793 10.5082 8.27951 10.5929 8.34724C10.6776 8.41496 10.7792 8.41496 10.8808 8.36417L12.5746 7.51761L14.2684 8.36417C14.3022 8.3811 14.3531 8.39803 14.3869 8.39803C14.4377 8.39803 14.5055 8.3811 14.5563 8.34724C14.641 8.27951 14.6749 8.17793 14.6749 8.07634L14.4039 6.2139L15.725 4.87634C15.725 4.82554 15.7419 4.70703 15.725 4.60544ZM7.51025 5.65517C7.51025 2.87845 9.76296 0.643533 12.5238 0.643533C15.2846 0.643533 17.5373 2.89539 17.5373 5.65517C17.5373 8.41496 15.2846 10.6668 12.5238 10.6668C9.76296 10.6668 7.51025 8.41496 7.51025 5.65517ZM19.6884 15.4922L17.6559 10.5822L17.4018 9.9557C17.351 9.82025 17.1817 9.75253 17.0462 9.80332C16.9106 9.85412 16.8429 10.0234 16.8937 10.1589L18.9601 15.1536L17.0631 14.6118C16.9445 14.5779 16.809 14.6287 16.7413 14.7472L15.7928 16.4742L13.5739 11.107C16.1485 10.616 18.0793 8.34724 18.0793 5.63824C18.0793 2.57369 15.5895 0.0678711 12.5069 0.0678711C9.44114 0.0678711 6.93437 2.55676 6.93437 5.63824C6.93437 6.87422 7.34087 8.02555 8.03531 8.95676L5.32529 15.4753C5.29141 15.5769 5.30835 15.6785 5.3761 15.7631C5.44385 15.8478 5.56241 15.8816 5.66404 15.8478L7.89981 15.2044L9.0177 17.2361C9.06851 17.3208 9.1532 17.3716 9.25483 17.3716H9.27176C9.37339 17.3716 9.47501 17.3039 9.50889 17.2023L11.643 12.0382C11.6938 11.9028 11.643 11.7335 11.4906 11.6827C11.3551 11.6319 11.1857 11.6827 11.1349 11.8351L9.23789 16.4742L8.28938 14.7472C8.22163 14.6287 8.08613 14.5779 7.96756 14.6118L6.07054 15.1536L8.44182 9.43084C9.45808 10.5144 10.8978 11.1917 12.5069 11.1917C12.6762 11.1917 12.8287 11.1917 12.998 11.1748L15.4879 17.2023C15.5218 17.3039 15.6234 17.3716 15.725 17.3716H15.742C15.8436 17.3716 15.9283 17.3208 15.9791 17.2361L17.097 15.2044L19.3327 15.8478C19.4344 15.8816 19.5529 15.8478 19.6207 15.7631C19.7223 15.6954 19.7392 15.5938 19.6884 15.4922Z" fill="#00AEEF"/>
<path d="M15.7317 17.473H15.7147C15.5792 17.473 15.4607 17.3714 15.4099 17.2529L12.92 11.2762C12.7676 11.2931 12.6321 11.2931 12.4796 11.2931C10.9722 11.2931 9.49862 10.6667 8.44848 9.6L6.19577 15.0349L7.92342 14.5439C8.07585 14.4931 8.26217 14.5778 8.34686 14.7132L9.21068 16.2878L11.0569 11.818C11.1246 11.6317 11.3448 11.5471 11.5311 11.6148C11.6158 11.6487 11.6836 11.7164 11.7344 11.818C11.7683 11.9026 11.7683 12.0042 11.7344 12.0889L9.60024 17.2529C9.54943 17.3884 9.43087 17.473 9.27843 17.473H9.26149C9.12599 17.473 9.00743 17.4053 8.93968 17.2868L7.85566 15.3058L5.68764 15.9323C5.55214 15.9661 5.41664 15.9323 5.31501 15.8307C5.23033 15.7291 5.19645 15.5767 5.24726 15.4582L7.92342 8.97355C7.21203 8.00847 6.8394 6.85714 6.8394 5.63809C6.82247 2.53968 9.36312 0 12.4796 0C15.5962 0 18.1368 2.53968 18.1368 5.65503C18.1368 8.33016 16.2567 10.6328 13.6653 11.1746L15.7825 16.2878L16.6463 14.7132C16.731 14.5608 16.9004 14.4931 17.0698 14.5439L18.7974 15.0349L16.7649 10.2095C16.6971 10.0233 16.7818 9.82011 16.9681 9.73545C17.1544 9.66772 17.3577 9.75238 17.4424 9.93862L19.729 15.4751C19.7798 15.6106 19.7628 15.746 19.6612 15.8476C19.5935 15.9323 19.4918 15.9661 19.3902 15.9661C19.3563 15.9661 19.3225 15.9661 19.2886 15.9492L17.1206 15.3228L16.0366 17.3037C15.9857 17.4053 15.8502 17.473 15.7317 17.473ZM13.0217 11.1069L15.5454 17.1852C15.5792 17.2529 15.647 17.3037 15.7147 17.3037L15.7317 17.3884V17.3037C15.7994 17.3037 15.8672 17.2698 15.9011 17.2021L17.0528 15.1026L19.3394 15.763C19.3563 15.763 19.3733 15.763 19.3902 15.763C19.441 15.763 19.4918 15.746 19.5257 15.6952C19.5765 15.6444 19.5935 15.5598 19.5596 15.4921L17.273 9.98942C17.2391 9.88783 17.1206 9.85397 17.0189 9.88783C16.9173 9.92169 16.8665 10.0402 16.9173 10.1418L19.0515 15.3058L16.9851 14.7132C16.9004 14.6963 16.7988 14.7302 16.7649 14.7979L15.7317 16.6772L13.4112 11.0561L13.5128 11.0392C16.0874 10.5481 17.9505 8.27937 17.9505 5.65503C17.9675 2.62434 15.5115 0.169312 12.4796 0.169312C9.46474 0.169312 6.99184 2.62434 6.99184 5.65503C6.99184 6.84021 7.36447 7.9746 8.07585 8.92275L8.10973 8.95661L8.09279 9.00741L5.38276 15.5259C5.34889 15.5936 5.36583 15.6783 5.41664 15.7291C5.46745 15.7799 5.5352 15.8138 5.61989 15.7799L7.90648 15.1196L9.05824 17.219C9.09211 17.2868 9.15986 17.3206 9.22762 17.3206C9.3123 17.3206 9.38005 17.2698 9.39699 17.2021L11.5481 12.0212C11.565 11.9704 11.565 11.9196 11.5481 11.8688C11.5311 11.818 11.4973 11.7841 11.4464 11.7672C11.3448 11.7333 11.2432 11.7841 11.1924 11.8688L9.21068 16.6772L8.17748 14.7979C8.12667 14.7132 8.04198 14.6794 7.95729 14.7132L5.89089 15.3058L8.38073 9.29524L8.46542 9.39682C9.49862 10.4974 10.9553 11.1407 12.4627 11.1407C12.6151 11.1407 12.7845 11.1407 12.9539 11.1238L13.0217 11.1069ZM12.4796 10.7513C9.668 10.7513 7.38141 8.46561 7.38141 5.65503C7.38141 2.84444 9.668 0.55873 12.4796 0.55873C15.2913 0.55873 17.5779 2.84444 17.5779 5.65503C17.5779 8.46561 15.2913 10.7513 12.4796 10.7513ZM12.4796 0.728042C9.76962 0.728042 7.55079 2.94603 7.55079 5.65503C7.55079 8.36402 9.76962 10.582 12.4796 10.582C15.1897 10.582 17.4085 8.36402 17.4085 5.65503C17.4085 2.9291 15.2066 0.728042 12.4796 0.728042ZM12.4796 10.1926C9.97287 10.1926 7.94035 8.16085 7.94035 5.65503C7.94035 3.14921 9.97287 1.10053 12.4796 1.10053C14.7493 1.10053 16.6802 2.79365 16.9851 5.0455C17.0189 5.24868 16.8665 5.41799 16.6802 5.45185C16.4769 5.48571 16.3076 5.33333 16.2737 5.14709C16.0196 3.25079 14.3936 1.82857 12.4796 1.82857C10.3624 1.82857 8.65173 3.53862 8.65173 5.65503C8.65173 7.77143 10.3624 9.48148 12.4796 9.48148C14.3936 9.48148 16.0196 8.05926 16.2737 6.16296C16.3076 5.95979 16.4769 5.82434 16.6802 5.8582C16.7818 5.87513 16.8665 5.92593 16.9173 5.99365C16.9681 6.07831 17.002 6.16296 16.9851 6.26455C16.6971 8.49947 14.7493 10.1926 12.4796 10.1926ZM12.4796 1.26984C10.0745 1.26984 8.10973 3.23386 8.10973 5.65503C8.10973 8.07619 10.0745 10.0233 12.4796 10.0233C14.6646 10.0233 16.5278 8.39788 16.8157 6.23069C16.8157 6.17989 16.8157 6.1291 16.7818 6.09524C16.7479 6.06138 16.6971 6.02751 16.6463 6.02751C16.5447 6.01058 16.4431 6.09524 16.4261 6.19683C16.1721 8.17778 14.4614 9.66772 12.4627 9.66772C10.2608 9.66772 8.46542 7.87302 8.46542 5.67196C8.46542 3.4709 10.2608 1.67619 12.4627 1.67619C14.4614 1.67619 16.1551 3.16614 16.4261 5.14709C16.4431 5.24868 16.5278 5.33333 16.6463 5.3164C16.7479 5.29947 16.8326 5.19788 16.8157 5.0963C16.5278 2.91217 14.6646 1.26984 12.4796 1.26984ZM14.292 8.49947C14.2412 8.49947 14.1734 8.48254 14.1395 8.46561L12.4966 7.63598L10.8367 8.46561C10.7181 8.5164 10.5657 8.5164 10.4641 8.43175C10.3624 8.34709 10.2947 8.21164 10.3116 8.09312L10.5826 6.26455L9.29537 4.94392C9.19374 4.84233 9.15986 4.70688 9.21068 4.57143C9.24455 4.43598 9.36312 4.35132 9.49862 4.33439L11.3109 4.02963L12.1578 2.40423C12.2256 2.28571 12.3441 2.21799 12.4796 2.21799C12.6151 2.21799 12.7337 2.28571 12.8015 2.40423L13.6483 4.02963L15.4607 4.33439C15.5962 4.35132 15.6978 4.45291 15.7486 4.57143C15.7825 4.70688 15.7656 4.84233 15.6639 4.94392L14.3767 6.26455L14.6477 8.09312C14.6646 8.22857 14.6138 8.36402 14.4952 8.43175C14.4444 8.48254 14.3597 8.49947 14.292 8.49947ZM12.4796 7.44974L14.2073 8.31323C14.275 8.34709 14.3428 8.33016 14.4105 8.2963C14.4614 8.2455 14.4952 8.17778 14.4952 8.11005L14.2073 6.19683L15.5623 4.8254C15.6131 4.7746 15.6301 4.70688 15.6131 4.63915C15.5962 4.57143 15.5284 4.52063 15.4607 4.5037L13.5637 4.18201L12.666 2.47196C12.5982 2.33651 12.395 2.33651 12.3272 2.47196L11.4295 4.18201L9.53249 4.5037C9.46474 4.52063 9.39699 4.57143 9.38005 4.63915C9.36312 4.70688 9.38005 4.7746 9.43087 4.8254L10.7859 6.19683L10.481 8.11005C10.4641 8.17778 10.4979 8.2455 10.5657 8.2963C10.6165 8.33016 10.7012 8.34709 10.7689 8.31323L12.4796 7.44974ZM14.0549 7.80529L12.5813 7.06032C12.5305 7.02645 12.4627 7.02645 12.4119 7.06032L10.9383 7.80529L11.1754 6.16296C11.1924 6.11217 11.1585 6.04444 11.1246 5.99365L9.97287 4.80847L11.5989 4.53757C11.6497 4.52063 11.7175 4.48677 11.7344 4.43598L12.4966 2.96296L13.2588 4.43598C13.2927 4.48677 13.3435 4.52063 13.3943 4.53757L15.0203 4.80847L13.8685 5.99365C13.8347 6.04444 13.8008 6.09524 13.8177 6.16296L14.0549 7.80529ZM10.2947 4.94392L11.2263 5.89206C11.3109 5.97672 11.3448 6.07831 11.3279 6.19683L11.1246 7.51746L12.3103 6.92487C12.4119 6.87407 12.5305 6.87407 12.6321 6.92487L13.8177 7.51746L13.6145 6.19683C13.5975 6.07831 13.6314 5.97672 13.7161 5.89206L14.6477 4.94392L13.3604 4.72381C13.2418 4.70688 13.1572 4.63915 13.1063 4.53757L12.4966 3.35238L11.8868 4.53757C11.836 4.63915 11.7344 4.70688 11.6328 4.72381L10.2947 4.94392Z" fill="#00AEEF"/>
<path fill-rule="evenodd" clip-rule="evenodd" d="M7.72349 8.82129L8.48568 10.7345C8.48568 10.7345 7.99449 11.0054 7.97755 10.9546C7.96062 10.9038 7.30005 9.3123 7.30005 9.3123" fill="#00AEEF"/>
<path d="M7.96068 11.0393C7.94374 11.0393 7.94374 11.0393 7.92681 11.0393L7.89293 11.0224L7.87599 10.9885C7.85906 10.9377 7.19849 9.34617 7.19849 9.34617L7.35093 9.27844C7.35093 9.27844 7.89293 10.5652 8.01149 10.853C8.07925 10.8192 8.23168 10.7515 8.36719 10.6837L7.63887 8.83823L7.7913 8.77051L8.57044 10.7515L8.50269 10.7853C8.14699 11.0054 8.02843 11.0393 7.96068 11.0393Z" fill="#00AEEF"/>
<path fill-rule="evenodd" clip-rule="evenodd" d="M13.4996 12.614L14.1432 11.0902L13.6182 10.8701L12.9407 12.5463L13.4996 12.614Z" fill="#00AEEF"/>
<path d="M13.5841 12.7156L12.8389 12.6141L13.6011 10.7686L14.2786 11.0564L13.5841 12.7156ZM13.0929 12.4786L13.4825 12.5294L14.0584 11.141L13.6857 10.9887L13.0929 12.4786Z" fill="#00AEEF"/>
</svg>
