<svg width="40" height="36" viewBox="0 0 40 36" fill="none" xmlns="http://www.w3.org/2000/svg">
<g clip-path="url(#clip0)">
<path d="M10.4396 10.4587H7.06044C9.03846 5.31193 14.011 1.65138 19.8352 1.65138C27.3901 1.65138 33.5165 7.81651 33.5165 15.3578H35.1648C35.1923 6.88073 28.2967 0 19.8352 0C13.1044 0 7.36264 4.37615 5.32967 10.4587H0L5.21978 19.5138L10.4396 10.4587ZM7.58242 12.1101L5.21978 16.211L2.85714 12.1101H7.58242Z" fill="#00AEEF"/>
<path d="M34.7801 16.1011L29.5603 25.1561H32.7471C30.879 30.4956 25.7966 34.3488 19.835 34.3488C12.2801 34.3488 6.15372 28.1836 6.15372 20.6424H4.50537C4.50537 29.1194 11.3735 36.0002 19.835 36.0002C26.7306 36.0002 32.5548 31.4313 34.4779 25.1561H39.9999L34.7801 16.1011ZM32.4175 23.5323L34.7801 19.4313L37.1427 23.5323H32.4175Z" fill="#00AEEF"/>
<path d="M19.6978 22.8991C19.5055 22.8991 19.3681 22.8716 19.2307 22.789C19.0934 22.7065 18.9285 22.5689 18.7912 22.3487L18.5989 22.101L17.6648 23.0643L17.8022 23.2569C18.0219 23.5872 18.2967 23.8349 18.5989 24.0276C18.8461 24.1652 19.0934 24.2478 19.3956 24.3028V25.0459H20.4121V24.1927C20.7967 24.0826 21.0989 23.8624 21.3461 23.6147C21.6208 23.2845 21.7582 22.8716 21.7582 22.4312C21.7582 21.9909 21.5934 21.5505 21.2912 21.2753C21.0439 21.0551 20.7692 20.89 20.3022 20.6973C19.9725 20.5597 19.8351 20.5046 19.8077 20.4771C19.7252 20.4221 19.6978 20.367 19.6703 20.3395C19.6428 20.312 19.6428 20.2845 19.6428 20.2569C19.6428 20.2019 19.6703 20.1468 19.7252 20.0918C19.7802 20.0367 19.8901 20.0092 20 20.0092C20.1099 20.0092 20.2197 20.0367 20.3022 20.0918C20.4121 20.1468 20.4945 20.2294 20.6044 20.3395L20.8241 20.5872L21.6758 19.4863L21.511 19.3211C21.3186 19.1285 21.1263 18.9634 20.9066 18.8533C20.7692 18.7707 20.6044 18.7432 20.4395 18.6881V17.9175H19.423V18.7156C19.3681 18.7432 19.3131 18.7432 19.2582 18.7707C19.1483 18.8257 19.0384 18.8808 18.9285 18.9358C18.4615 19.2386 18.1868 19.789 18.1868 20.367C18.1868 20.8349 18.3791 21.2753 18.7362 21.5505C18.956 21.7156 19.2582 21.8533 19.7527 22.0734C20.0274 22.1835 20.1648 22.2661 20.2197 22.3212C20.2472 22.3487 20.2747 22.3762 20.2747 22.4037C20.2747 22.4312 20.3022 22.4588 20.3022 22.5138C20.3022 22.6239 20.2472 22.7065 20.1648 22.789C19.9725 22.8441 19.8626 22.8991 19.6978 22.8991Z" fill="#00AEEF"/>
<path d="M11.6482 21.7156C11.5109 22.101 11.4285 22.4863 11.4285 22.8716C11.4285 24.1377 11.8131 25.2936 12.3625 26.1468C12.6373 26.5597 12.9669 26.9175 13.3515 27.1927C13.7362 27.4679 14.1482 27.6331 14.6428 27.6331H15.357C15.5768 27.6331 15.8515 27.6331 16.1537 27.6331H18.1318H18.4065H21.3461H21.6208C21.6208 27.6331 22.0878 27.6331 22.6922 27.6331C23.2691 27.6331 23.9559 27.6331 24.3955 27.6331H25.1098C25.5768 27.6331 26.0164 27.4679 26.401 27.1927C26.9779 26.8074 27.4175 26.2019 27.7746 25.4588C28.1043 24.7156 28.3241 23.8349 28.3241 22.8716C28.3241 22.4863 28.2417 22.101 28.1043 21.7156C27.912 21.1377 27.5823 20.5046 27.2252 19.8716C26.868 19.2386 26.4285 18.578 26.0164 17.9725L25.9889 17.9175C25.7966 17.6698 24.6977 16.1285 24.2856 15.5505C24.368 15.3578 24.3955 15.1377 24.3955 14.89C24.3955 14.5597 24.3131 14.2569 24.1482 13.9817C24.2032 13.8716 24.3406 13.5689 24.4779 13.2111C24.5603 12.9909 24.6428 12.7432 24.7252 12.4955C24.7526 12.3854 24.7801 12.2478 24.8076 12.1377C24.8351 12.0276 24.8625 11.9175 24.8625 11.7523C24.8625 11.367 24.7526 11.0092 24.5878 10.734C24.4504 10.5138 24.2856 10.3487 24.0933 10.2111C23.8186 10.0184 23.5439 9.9083 23.2691 9.82573C22.9944 9.77069 22.7471 9.74316 22.5548 9.74316H20.4669H19.1208H17.0329C16.8406 9.74316 16.6208 9.77069 16.401 9.82573C16.0439 9.9083 15.6592 10.0459 15.3021 10.3762C15.1373 10.5413 14.9724 10.734 14.8625 10.9817C14.7526 11.2294 14.6977 11.5046 14.6977 11.7799C14.6977 11.9175 14.7252 12.0276 14.7252 12.1377C14.7526 12.3303 14.8351 12.5505 14.89 12.7432C15.0823 13.3487 15.3845 14.0092 15.3845 14.0092C15.2471 14.2844 15.1647 14.5872 15.1647 14.89C15.1647 15.1927 15.2471 15.4955 15.3845 15.7432C15.1922 16.0184 14.945 16.3487 14.6977 16.7065C14.4779 17.0092 14.2581 17.312 14.0933 17.5322C14.0109 17.6422 13.9285 17.7523 13.901 17.8074C13.8735 17.8349 13.8461 17.8624 13.8461 17.89L13.8186 17.9175V17.945C13.2417 18.7707 12.6922 19.6514 12.2526 20.4771C11.9779 20.9175 11.7856 21.3303 11.6482 21.7156ZM16.6482 14.5597C16.7307 14.4771 16.8406 14.4221 16.9779 14.4221H22.4999C22.6373 14.4221 22.7471 14.4771 22.8296 14.5597C22.912 14.6422 22.9669 14.7523 22.9669 14.89C22.9669 15.0276 22.912 15.1377 22.8296 15.2202C22.7471 15.3028 22.6373 15.3578 22.4999 15.3578H16.9504C16.8131 15.3578 16.7032 15.3028 16.6208 15.2202C16.5384 15.1377 16.4834 15.0276 16.4834 14.89C16.5109 14.7799 16.5658 14.6698 16.6482 14.5597ZM16.0164 11.7799C16.0164 11.6147 16.0439 11.5597 16.0988 11.4771C16.1263 11.4221 16.1812 11.3945 16.2362 11.3395C16.3186 11.2844 16.4559 11.2294 16.5933 11.1744C16.7307 11.1468 16.868 11.1193 16.9779 11.1193H19.0658H20.412H22.4999C22.5823 11.1193 22.7197 11.1193 22.8296 11.1468C23.0219 11.1744 23.1867 11.2569 23.2966 11.367C23.3515 11.4221 23.379 11.4496 23.4065 11.5046C23.434 11.5597 23.4614 11.6422 23.4614 11.7523C23.4614 11.7523 23.4614 11.8074 23.434 11.8624C23.4065 11.9725 23.3515 12.1377 23.2966 12.3028C23.2142 12.5505 23.1043 12.7982 23.0219 13.0184H16.4559C16.401 12.8808 16.3461 12.7432 16.2911 12.578C16.2087 12.3854 16.1537 12.1927 16.0988 12.0276C16.0713 11.945 16.0713 11.8624 16.0439 11.8074C16.0439 11.8349 16.0439 11.8074 16.0164 11.7799ZM12.9395 22.156C13.1043 21.6881 13.379 21.1377 13.7087 20.5322C14.0384 19.9542 14.4504 19.3211 14.8625 18.7156C14.8625 18.7156 14.89 18.6606 14.945 18.6055C15.1922 18.2477 15.934 17.2569 16.3735 16.6239C16.5658 16.6789 16.7581 16.7065 16.9504 16.7065H22.4724C22.7472 16.7065 22.9944 16.6514 23.2417 16.5413C23.434 16.789 23.6812 17.1468 23.9285 17.4771C24.1482 17.7799 24.368 18.0826 24.5329 18.3028C24.6153 18.4129 24.6977 18.523 24.7252 18.578C24.7526 18.6055 24.7801 18.6331 24.7801 18.6606L24.8076 18.6881C25.357 19.4863 25.9065 20.312 26.2911 21.0826C26.4834 21.4679 26.6483 21.7982 26.7307 22.1285C26.8406 22.4312 26.868 22.6789 26.868 22.8441C26.868 23.8349 26.5658 24.7432 26.1537 25.3487C25.9614 25.6514 25.7142 25.8991 25.5219 26.0367C25.3296 26.1744 25.1373 26.2294 25.0274 26.2294H24.1482C24.0384 26.2294 23.901 26.2294 23.7636 26.2294C23.4889 26.2294 23.1592 26.2294 22.857 26.2294C22.7746 26.2294 22.7197 26.2294 22.6373 26.2294C22.5548 26.2294 22.4999 26.2294 22.4175 26.2294H22.2526C21.9504 26.2294 21.7307 26.2294 21.6208 26.2294H21.5658C21.5384 26.2294 21.5384 26.2294 21.5384 26.2294H21.2636H18.379H18.1043H17.912C17.5274 26.2294 16.6208 26.2294 15.9065 26.2294H15.3296H14.6153C14.5054 26.2294 14.3406 26.1744 14.1208 26.0367C13.8186 25.8166 13.4614 25.4037 13.2142 24.8533C12.9669 24.3028 12.8021 23.6147 12.8021 22.8441C12.8021 22.7065 12.857 22.4588 12.9395 22.156Z" fill="#00AEEF"/>
</g>
<defs>
<clipPath id="clip0">
<rect width="40" height="36" fill="white"/>
</clipPath>
</defs>
</svg>
