<svg width="148" height="27" viewBox="0 0 148 27" fill="none" xmlns="http://www.w3.org/2000/svg">
<g clip-path="url(#clip0)">
<path d="M12.0943 26.7457H10.5836H2.20035C0.987542 26.7457 0.00878906 25.7669 0.00878906 24.5541V19.788C0.00878906 18.5752 0.987542 17.5964 2.20035 17.5964H8.45586V10.6601C8.45586 9.44726 9.43461 8.46851 10.6474 8.46851H17.5838V26.7031H12.0943V26.7457Z" fill="#2E2E2E" fill-opacity="0.5"/>
<path d="M24.5414 26.7456H17.605V2.19168C17.605 0.978875 18.5837 0.00012207 19.7965 0.00012207H24.5414C25.7542 0.00012207 26.7329 0.978875 26.7329 2.19168V24.5328C26.6904 25.7669 25.6903 26.7456 24.5414 26.7456Z" fill="#2E2E2E" fill-opacity="0.5"/>
<path d="M26.6905 17.5964V24.5328C26.6905 25.7456 25.7117 26.7243 24.4989 26.7243H17.5413V8.4259L26.6905 17.5964Z" fill="#2E2E2E" fill-opacity="0.5"/>
</g>
<g clip-path="url(#clip1)">
<path d="M97.1989 13.082L98.9615 17.5747H95.5832L97.1989 13.082ZM96.538 11.5844L92.719 21.3544H94.1144L95.0691 18.7158H99.3287L100.283 21.3544H101.679L97.8599 11.5844H96.538Z" fill="#2E2E2E" fill-opacity="0.5"/>
<path d="M117.249 21.4257H118.57V11.5844H117.249V21.4257Z" fill="#2E2E2E" fill-opacity="0.5"/>
<path d="M103.809 15.6492C104.249 15.0074 105.131 14.5082 106.012 14.5082C107.775 14.5082 108.656 15.6492 108.656 17.3607V21.497H107.334V17.5747C107.334 16.2197 106.599 15.6492 105.571 15.6492C104.47 15.6492 103.735 16.7189 103.735 17.646V21.3544H102.34V14.5795H103.662L103.809 15.6492Z" fill="#2E2E2E" fill-opacity="0.5"/>
<path d="M109.684 19.3576C109.684 17.86 111.079 17.0042 112.769 17.0042C113.723 17.0042 114.384 17.2181 114.605 17.4321V17.2181C114.605 16.1484 113.723 15.6492 112.842 15.6492C112.108 15.6492 111.447 15.9345 111.226 16.5763L110.051 16.0771C110.272 15.4353 111.153 14.5082 112.916 14.5082C114.531 14.5082 116 15.4353 116 17.3607V21.4257H114.825V20.4986H114.752C114.458 20.9978 113.65 21.6396 112.475 21.6396C110.933 21.6396 109.684 20.7838 109.684 19.3576ZM114.678 18.5018C114.678 18.5018 114.164 18.0739 113.062 18.0739C111.74 18.0739 111.226 18.787 111.226 19.3576C111.226 20.0707 111.961 20.4273 112.622 20.4273C113.576 20.4273 114.678 19.5715 114.678 18.5018Z" fill="#2E2E2E" fill-opacity="0.5"/>
<path d="M120.48 24.3496L122.022 20.8552L119.231 14.7222H120.553L122.61 19.4289L124.666 14.7222H125.988L121.802 24.3496H120.48Z" fill="#2E2E2E" fill-opacity="0.5"/>
<path d="M139.722 16.9329C139.428 16.0772 138.62 15.578 137.886 15.578C136.784 15.578 135.829 16.5051 135.829 17.9313C135.829 19.2863 136.784 20.2847 137.886 20.2847C138.62 20.2847 139.428 19.7855 139.722 19.0011L140.823 19.6429C140.309 20.7839 139.208 21.5684 137.886 21.5684C136.05 21.5684 134.507 19.9995 134.507 17.9313C134.507 15.7919 136.05 14.2943 137.886 14.2943C139.208 14.2943 140.309 15.0075 140.823 16.2198L139.722 16.9329Z" fill="#2E2E2E" fill-opacity="0.5"/>
<path d="M144.495 21.6397C146.258 21.6397 147.139 20.7126 147.139 19.5002C147.139 16.9329 143.32 17.9313 143.32 16.4337C143.32 15.9345 143.761 15.5779 144.495 15.5779C145.23 15.5779 146.038 15.8632 146.331 16.4337L147.066 15.7206C146.625 15.0787 145.45 14.3656 144.349 14.3656C142.733 14.3656 141.851 15.2927 141.851 16.505C141.851 18.9297 145.817 18.0739 145.817 19.3576C145.817 19.9994 145.377 20.4273 144.495 20.4273C143.614 20.4273 143.173 19.9281 142.733 19.3576L141.778 20.0707C142.366 20.7839 143.394 21.6397 144.495 21.6397Z" fill="#2E2E2E" fill-opacity="0.5"/>
<path d="M131.937 21.4256H133.259V14.5795H131.937V21.4256Z" fill="#2E2E2E" fill-opacity="0.5"/>
<path d="M132.524 11.2991C133.038 11.2991 133.406 11.727 133.406 12.1548C133.406 12.654 132.965 13.0106 132.524 13.0106C132.084 13.0106 131.643 12.5827 131.643 12.1548C131.643 11.727 132.084 11.2991 132.524 11.2991Z" fill="#2E2E2E" fill-opacity="0.5"/>
<path d="M130.688 20.356L130.909 21.2831C130.468 21.2831 130.027 21.2831 129.587 21.2831C128.412 21.2831 127.824 20.4273 127.824 19.1437V15.8632H126.502V14.5796H127.824V12.5828H129.146V14.5796H130.688V15.8632H129.146V19.3576C129.146 20.356 129.881 20.356 130.688 20.356Z" fill="#2E2E2E" fill-opacity="0.5"/>
<path d="M49.6326 15.9325V17.5014H53.4516C53.3781 18.3572 53.0109 18.999 52.5703 19.4269C52.0562 19.9261 51.1749 20.5679 49.6326 20.5679C47.3559 20.5679 45.4464 18.7851 45.4464 16.4317C45.4464 14.221 47.2825 12.2955 49.6326 12.2955C50.9546 12.2955 51.8359 12.7947 52.4968 13.3652L53.5984 12.2955C52.6437 11.4397 51.3952 10.7266 49.6326 10.7266C46.4746 10.7266 43.6838 13.2939 43.6838 16.3604C43.6838 19.4269 46.4012 21.9942 49.6326 21.9942C51.3952 21.9942 52.7172 21.495 53.6719 20.4253C54.7735 19.3556 55.0673 18.0006 55.0673 16.7883C55.0673 16.503 55.0673 16.0751 54.9938 15.8612H49.6326V15.9325Z" fill="#2E2E2E" fill-opacity="0.5"/>
<path d="M59.3268 14.6484C57.2705 14.6484 55.5813 16.146 55.5813 18.2855C55.5813 20.4249 57.197 21.9225 59.3268 21.9225C61.3832 21.9225 63.0723 20.3536 63.0723 18.2855C63.0723 16.146 61.4566 14.6484 59.3268 14.6484ZM59.3268 20.4962C58.2252 20.4962 57.2705 19.5691 57.2705 18.2855C57.2705 17.0018 58.2252 16.0747 59.3268 16.0747C60.4284 16.0747 61.3832 16.9305 61.3832 18.2855C61.3832 19.6404 60.4284 20.4962 59.3268 20.4962Z" fill="#2E2E2E" fill-opacity="0.5"/>
<path d="M77.3201 15.3615C76.8794 14.9336 76.2185 14.5058 75.2637 14.5058C73.4277 14.5058 71.7385 16.0747 71.7385 18.1428C71.7385 20.2109 73.3542 21.7798 75.2637 21.7798C76.145 21.7798 76.8794 21.3519 77.2466 20.924H77.3201V21.4232C77.3201 22.7782 76.5857 23.5627 75.3372 23.5627C74.3824 23.5627 73.7215 22.8495 73.5011 22.279L72.1057 22.7782C72.5464 23.7053 73.648 24.9176 75.4106 24.9176C77.3935 24.9176 79.0092 23.8479 79.0092 21.0667V14.4344H77.467V15.2902H77.3201V15.3615ZM75.484 20.4962C74.3824 20.4962 73.5011 19.5691 73.5011 18.2854C73.5011 17.0018 74.3824 16.0747 75.484 16.0747C76.5857 16.0747 77.467 17.0018 77.467 18.2854C77.467 19.4978 76.5857 20.4962 75.484 20.4962Z" fill="#2E2E2E" fill-opacity="0.5"/>
<path d="M67.4789 14.6484C65.4226 14.6484 63.7334 16.146 63.7334 18.2855C63.7334 20.4249 65.3491 21.9225 67.4789 21.9225C69.6087 21.9225 71.2244 20.3536 71.2244 18.2855C71.2979 16.146 69.5353 14.6484 67.4789 14.6484ZM67.4789 20.4962C66.3773 20.4962 65.4226 19.5691 65.4226 18.2855C65.4226 17.0018 66.3773 16.0747 67.4789 16.0747C68.5805 16.0747 69.5353 16.9305 69.5353 18.2855C69.5353 19.6404 68.5805 20.4962 67.4789 20.4962Z" fill="#2E2E2E" fill-opacity="0.5"/>
<path d="M80.1843 10.7975H81.8V21.8512H80.1843V10.7975Z" fill="#2E2E2E" fill-opacity="0.5"/>
<path d="M86.3532 20.4962C85.4719 20.4962 84.9578 20.0683 84.5172 19.4265L89.5847 17.4297L89.3643 17.0018C89.0706 16.146 88.0424 14.6484 86.2064 14.6484C84.2234 14.6484 82.6812 16.146 82.6812 18.2855C82.6812 20.2823 84.2969 21.9225 86.4267 21.9225C88.1893 21.9225 89.144 20.8528 89.5847 20.3536L88.2627 19.4978C87.7486 20.0683 87.1611 20.4962 86.3532 20.4962ZM86.2064 16.0034C86.8673 16.0034 87.3814 16.2887 87.6017 16.8592L84.2234 18.2142C84.2234 16.6452 85.3251 16.0034 86.2064 16.0034Z" fill="#2E2E2E" fill-opacity="0.5"/>
</g>
<defs>
<clipPath id="clip0">
<rect width="26.7429" height="26.7429" fill="white"/>
</clipPath>
<clipPath id="clip1">
<rect width="103.406" height="14.2629" fill="white" transform="translate(43.6799 10.6971)"/>
</clipPath>
</defs>
</svg>
