<svg width="115" height="28" viewBox="0 0 115 28" fill="none" xmlns="http://www.w3.org/2000/svg">
<g clip-path="url(#clip0)">
<path d="M10.2594 3.48323C10.5508 2.71595 10.9514 2.00956 11.5463 1.43715C13.926 -0.889053 17.8598 -0.304458 19.4745 2.61852C20.6886 4.8351 21.9756 7.00298 23.2261 9.19521C25.3144 12.8367 27.427 16.4783 29.491 20.132C31.2272 23.1889 29.3453 27.0497 25.8972 27.5734C23.7846 27.8901 21.8056 26.9157 20.7129 25.0158C18.8796 21.8127 17.0342 18.6096 15.2008 15.4187C15.1644 15.3456 15.1158 15.2847 15.0673 15.2238C14.873 15.0655 14.788 14.8341 14.6666 14.6271C13.8532 13.1899 13.0154 11.765 12.202 10.34C11.6799 9.41443 11.1335 8.501 10.6115 7.57539C10.138 6.74722 9.91943 5.84597 9.94371 4.896C9.98014 4.40884 10.0408 3.92167 10.2594 3.48323Z" fill="#FFFFFF" fill-opacity="0.5"/>
<path d="M10.2593 3.48315C10.15 3.9216 10.0529 4.36005 10.0286 4.82285C9.99217 5.84589 10.2471 6.79586 10.7571 7.68493C12.0926 9.98677 13.4281 12.3008 14.7515 14.6148C14.8729 14.8219 14.97 15.0289 15.0915 15.2238C14.363 16.4904 13.6345 17.7448 12.8939 19.0115C11.8741 20.7774 10.8542 22.5556 9.8222 24.3215C9.77363 24.3215 9.76149 24.2972 9.74935 24.2606C9.73721 24.1632 9.77363 24.0779 9.79791 23.9805C10.2957 22.1537 9.8829 20.5338 8.63236 19.1454C7.86747 18.3051 6.89617 17.8301 5.77919 17.6718C4.32225 17.4647 3.03529 17.8423 1.88188 18.7557C1.67548 18.914 1.54192 19.1454 1.2991 19.2672C1.25053 19.2672 1.22625 19.2429 1.21411 19.2063C1.79689 18.1955 2.36752 17.1846 2.9503 16.1737C5.35425 11.9841 7.7582 7.79454 10.1743 3.61712C10.1986 3.56841 10.235 3.53187 10.2593 3.48315Z" fill="#FFFFFF" fill-opacity="0.5"/>
<path d="M1.26266 19.2429C1.49334 19.0359 1.71188 18.8166 1.9547 18.6218C4.905 16.2834 9.33653 17.9763 9.98001 21.6787C10.1378 22.5678 10.0529 23.4203 9.78575 24.2729C9.77361 24.3459 9.76147 24.4068 9.73718 24.4799C9.62791 24.6748 9.53078 24.8818 9.40937 25.0767C8.32881 26.867 6.73832 27.7561 4.65004 27.6221C2.25823 27.4516 0.376351 25.6491 0.04854 23.262C-0.109295 22.105 0.121387 21.0211 0.716304 20.0224C0.837715 19.8031 0.983409 19.6083 1.11696 19.3891C1.17767 19.3403 1.15339 19.2429 1.26266 19.2429Z" fill="#FFFFFF" fill-opacity="0.5"/>
<path d="M1.26264 19.2429C1.21407 19.2916 1.21407 19.3769 1.12908 19.3891C1.11694 19.3038 1.16551 19.2551 1.21407 19.1942L1.26264 19.2429Z" fill="#FFFFFF" fill-opacity="0.5"/>
<path d="M9.73716 24.4799C9.68859 24.3946 9.73716 24.3337 9.78572 24.2728C9.79786 24.285 9.82214 24.3094 9.83429 24.3215L9.73716 24.4799Z" fill="#FFFFFF" fill-opacity="0.5"/>
</g>
<g clip-path="url(#clip1)">
<path d="M50.3104 9.80566C47.1776 9.80566 44.5715 12.2826 44.5715 15.3312C44.5715 18.3797 47.1776 20.8294 50.3104 20.8294C52.0015 20.8294 53.2491 20.2851 54.2472 19.2779C55.2729 18.2708 55.5779 16.8827 55.5779 15.7667C55.5779 15.4128 55.5502 15.0862 55.4947 14.814H50.3104V16.3111H53.9976C53.8867 17.1548 53.6095 17.7809 53.1659 18.2164C52.6392 18.7336 51.7797 19.3324 50.3104 19.3324C48.037 19.3324 46.2627 17.5359 46.2627 15.3312C46.2627 13.1264 48.037 11.3299 50.3104 11.3299C51.5302 11.3299 52.4451 11.7927 53.0828 12.4187L54.164 11.3572C53.2491 10.4861 52.0293 9.80566 50.3104 9.80566ZM59.7088 13.7524C57.7404 13.7524 56.1047 15.2495 56.1047 17.3454C56.1047 19.414 57.7126 20.9383 59.7088 20.9383C61.7049 20.9383 63.3129 19.414 63.3129 17.3454C63.3129 15.2767 61.6772 13.7524 59.7088 13.7524ZM59.7088 19.5229C58.6275 19.5229 57.6849 18.6247 57.6849 17.3454C57.6849 16.0661 58.6275 15.1678 59.7088 15.1678C60.79 15.1678 61.7326 16.0389 61.7326 17.3454C61.7326 18.6247 60.79 19.5229 59.7088 19.5229ZM67.5269 13.7524C65.5308 13.7524 63.9228 15.2495 63.9228 17.3454C63.9228 19.414 65.5308 20.9383 67.5269 20.9383C69.4953 20.9383 71.131 19.414 71.131 17.3454C71.131 15.2767 69.523 13.7524 67.5269 13.7524ZM67.5269 19.5229C66.4457 19.5229 65.503 18.6247 65.503 17.3454C65.503 16.0661 66.4457 15.1678 67.5269 15.1678C68.6081 15.1678 69.5507 16.0389 69.5507 17.3454C69.5507 18.6247 68.6358 19.5229 67.5269 19.5229ZM75.3173 13.7524C73.5152 13.7524 71.8795 15.3039 71.8795 17.3182C71.8795 19.3052 73.5152 20.8567 75.3173 20.8567C76.1767 20.8567 76.8421 20.4756 77.2025 20.0401H77.258V20.5572C77.258 21.9182 76.5371 22.6531 75.345 22.6531C74.3747 22.6531 73.7925 21.9726 73.543 21.401L72.1568 21.9726C72.5449 22.9253 73.5984 24.0685 75.345 24.0685C77.2025 24.0685 78.755 22.9798 78.755 20.3667V13.9974H77.258V14.569H77.2025C76.8421 14.1335 76.1767 13.7524 75.3173 13.7524ZM75.4559 19.4685C74.3747 19.4685 73.4598 18.5702 73.4598 17.3182C73.4598 16.0661 74.3747 15.1406 75.4559 15.1406C76.5371 15.1406 77.3689 16.0661 77.3689 17.3182C77.3689 18.5702 76.5371 19.4685 75.4559 19.4685ZM79.9194 10.2412H81.4997V20.7478H79.9194V10.2412ZM85.7415 13.7524C83.8562 13.7524 82.276 15.1951 82.276 17.3454C82.276 19.3596 83.8285 20.9383 85.9078 20.9383C87.599 20.9383 88.5693 19.9312 88.9574 19.3596L87.7099 18.543C87.294 19.1418 86.7118 19.5229 85.9078 19.5229C85.0761 19.5229 84.4939 19.1691 84.1335 18.4341L89.0406 16.4471L88.8743 16.0389C88.5693 15.2495 87.6267 13.7524 85.7415 13.7524ZM83.8562 17.2365C83.8008 15.8483 84.9652 15.1406 85.7692 15.1406C86.4068 15.1406 86.9613 15.44 87.1277 15.9028L83.8562 17.2365Z" fill="#FFFFFF" fill-opacity="0.5"/>
<path d="M91.813 20.5845L95.4725 11.0305H96.8865L100.546 20.5845H99.1598L98.2172 17.9986H94.1418L93.1992 20.5845H91.813ZM94.5577 16.8554H97.8013L96.2211 12.5548H96.1656L94.5577 16.8554Z" fill="#FFFFFF" fill-opacity="0.5"/>
<path d="M101.821 19.7951C101.211 19.1146 100.906 18.298 100.906 17.3182C100.906 16.3655 101.211 15.5489 101.821 14.8412C102.459 14.1607 103.18 13.8341 104.067 13.8341C104.566 13.8341 105.01 13.943 105.398 14.1335C105.814 14.3513 106.119 14.5962 106.34 14.9501H106.396L106.34 14.0518V11.0305H107.588V20.5845H106.396V19.6862H106.34C106.119 20.0129 105.814 20.285 105.398 20.5028C104.982 20.7206 104.538 20.8022 104.067 20.8022C103.18 20.8022 102.431 20.4756 101.821 19.7951ZM105.758 19.033C106.174 18.5975 106.368 18.0259 106.368 17.3182C106.368 16.6377 106.174 16.0661 105.758 15.6306C105.37 15.1951 104.871 14.9773 104.261 14.9773C103.651 14.9773 103.152 15.1951 102.764 15.6306C102.348 16.0661 102.154 16.6377 102.154 17.3182C102.154 17.9986 102.348 18.5702 102.764 19.0057C103.18 19.4412 103.679 19.659 104.261 19.659C104.871 19.6862 105.37 19.4685 105.758 19.033Z" fill="#FFFFFF" fill-opacity="0.5"/>
<path d="M113.354 20.2034C112.855 20.5845 112.218 20.8022 111.441 20.8022C110.776 20.8022 110.194 20.6389 109.667 20.2851C109.168 19.9312 108.808 19.4957 108.586 18.9241L109.695 18.4614C109.861 18.8424 110.083 19.1691 110.416 19.3868C110.721 19.6046 111.081 19.7135 111.441 19.7135C111.83 19.7135 112.162 19.6318 112.44 19.4685C112.717 19.3052 112.828 19.0874 112.828 18.8697C112.828 18.4614 112.495 18.1347 111.857 17.9442L110.721 17.672C109.418 17.3454 108.78 16.7466 108.78 15.8211C108.78 15.2223 109.03 14.7596 109.529 14.3785C110.028 14.0246 110.665 13.8341 111.414 13.8341C111.996 13.8341 112.523 13.9702 113.022 14.2424C113.493 14.5146 113.826 14.8957 114.02 15.3584L112.911 15.8211C112.772 15.5489 112.578 15.3312 112.301 15.1678C112.024 15.0045 111.691 14.9229 111.331 14.9229C110.998 14.9229 110.721 15.0045 110.443 15.1678C110.194 15.3312 110.055 15.5217 110.055 15.7667C110.055 16.1477 110.416 16.4199 111.137 16.556L112.135 16.801C113.465 17.1276 114.103 17.7809 114.103 18.7608C114.131 19.3324 113.853 19.8223 113.354 20.2034Z" fill="#FFFFFF" fill-opacity="0.5"/>
</g>
<defs>
<clipPath id="clip0">
<rect width="30.1465" height="27.6343" fill="white"/>
</clipPath>
<clipPath id="clip1">
<rect width="69.5314" height="14.2629" fill="white" transform="translate(44.5715 9.80566)"/>
</clipPath>
</defs>
</svg>
