<svg width="70" height="73" viewBox="0 0 70 73" fill="none" xmlns="http://www.w3.org/2000/svg">
<path d="M69.945 1.85637C69.945 0.434825 69.5098 0 68.1206 0C54.9819 0 41.8599 0 28.7211 0C27.198 0 26.7126 0.468273 26.7126 1.99016C26.7126 16.6237 26.7126 31.2405 26.7126 45.874C26.7126 47.2788 27.1813 47.7304 28.5705 47.7304C41.726 47.7304 54.8982 47.7304 68.0537 47.7304C69.627 47.7304 69.9617 47.3959 69.9617 45.8239C69.9617 38.5322 69.9617 31.2238 69.9617 23.9321C69.945 16.5735 69.9617 9.21494 69.945 1.85637ZM41.5251 3.21101C42.4624 3.21101 43.2323 3.94687 43.2323 4.88342C43.2323 5.78652 42.4457 6.60599 41.5419 6.60599C40.6715 6.62272 39.8179 5.76979 39.8179 4.91687C39.8179 3.98032 40.5878 3.21101 41.5251 3.21101ZM36.37 3.19429C37.3073 3.16084 38.0772 3.91342 38.0772 4.84997C38.094 5.76979 37.3073 6.57255 36.4035 6.58927C35.5499 6.60599 34.7465 5.81996 34.7131 4.93359C34.6963 4.01377 35.416 3.22774 36.37 3.19429ZM31.2819 3.21101C32.2025 3.21101 33.0059 3.99704 32.9891 4.90014C32.9724 5.78652 32.1355 6.62272 31.2652 6.60599C30.3614 6.60599 29.5747 5.80324 29.5747 4.88342C29.5915 3.94687 30.3279 3.19429 31.2819 3.21101ZM67.1833 43.9006C67.1833 44.2351 67.1833 44.5528 67.1833 44.9877C66.7816 44.9877 66.4804 44.9877 66.1791 44.9877C54.3458 44.9877 42.5294 44.9877 30.6961 44.9877C29.558 44.9877 29.558 44.9877 29.558 43.8671C29.558 32.8627 29.558 21.8416 29.558 10.8372C29.558 9.73339 29.558 9.73339 30.6459 9.73339C42.4791 9.73339 54.2956 9.75011 66.1289 9.71666C66.9825 9.71666 67.2001 9.9508 67.2001 10.787C67.1666 21.8249 67.1833 32.8627 67.1833 43.9006Z" fill="#00AEEF"/>
<path d="M60.3545 50.9916C60.3545 52.8145 60.3545 54.5873 60.3545 56.4102C41.1736 56.4102 22.1099 56.4102 2.97923 56.4102C2.97923 44.8205 2.97923 33.2809 2.97923 21.6409C9.87498 21.6409 16.687 21.6409 23.5158 21.6409C23.5158 20.6542 23.5158 19.7846 23.5158 18.7644C23.0639 18.7644 22.6957 18.7644 22.3442 18.7644C15.6159 18.7644 8.90422 18.7811 2.17584 18.7811C0.351482 18.7811 0 19.1323 0 20.9887C0.0167373 33.0635 0.0334745 45.1382 0.0334745 57.1962C0.0334745 58.969 0.418431 59.3536 2.19258 59.3536C21.7752 59.3536 41.3578 59.3704 60.9403 59.3704C61.3253 59.3704 61.727 59.3704 62.1119 59.3035C62.7647 59.1864 63.2333 58.7683 63.2333 58.1328C63.2836 55.7747 63.2501 53.4166 63.2501 51.0083C62.2626 50.9916 61.3588 50.9916 60.3545 50.9916Z" fill="#00AEEF"/>
<path d="M7.56522 24.2833C6.00865 24.2833 5.57349 24.7182 5.57349 26.2735C5.57349 32.9129 5.57349 39.5356 5.57349 46.1751C5.57349 48.1485 5.57349 50.1387 5.57349 52.1121C5.57349 53.3497 6.05887 53.818 7.29742 53.8514C7.51501 53.8514 7.74933 53.8514 7.96691 53.8514C23.4489 53.8514 38.9308 53.8514 54.3961 53.8514C54.8647 53.8514 55.3501 53.8681 55.8187 53.8347C56.6556 53.7678 57.1242 53.2828 57.1912 52.4299C57.2247 51.9616 57.1912 51.4933 57.1912 50.9247C40.9226 50.9247 24.7376 50.9247 8.55272 50.9247C8.55272 44.0177 8.55272 37.2445 8.55272 30.3709C13.5739 30.3709 18.5114 30.3709 23.5158 30.3709C23.5158 28.3473 23.5158 26.4073 23.5158 24.3001C23.1309 24.3001 22.8296 24.3001 22.5283 24.3001C17.5574 24.2833 12.5697 24.2833 7.56522 24.2833ZM9.69085 28.4811C9.07157 28.4978 8.51924 27.9626 8.51924 27.3271C8.51924 26.725 9.0381 26.2066 9.64064 26.2066C10.2264 26.2066 10.7453 26.725 10.762 27.3104C10.7788 27.9292 10.2767 28.4643 9.69085 28.4811ZM13.1722 28.4978C12.5529 28.5145 12.0006 27.9793 12.0173 27.3271C12.0341 26.725 12.5362 26.2233 13.1387 26.2233C13.7245 26.2233 14.2434 26.7418 14.2601 27.3438C14.2601 27.9292 13.758 28.4643 13.1722 28.4978ZM16.6535 28.4978C16.0343 28.5145 15.4987 27.9626 15.5154 27.3271C15.5322 26.725 16.051 26.2233 16.6535 26.2233C17.2394 26.24 17.7582 26.7752 17.7582 27.3605C17.7582 27.9459 17.2394 28.4643 16.6535 28.4978Z" fill="#00AEEF"/>
<path d="M42.7971 69.1874C35.3323 69.1874 27.8675 69.1874 20.3859 69.1874C20.1683 69.1874 19.8671 69.1205 19.7332 69.2375C19.3315 69.572 18.7624 69.9232 18.662 70.3581C18.5783 70.7929 18.8628 71.4284 19.1976 71.7963C19.4319 72.0639 20.0177 72.1141 20.4361 72.1141C24.1685 72.1308 27.901 72.1308 31.6334 72.1308C32.169 72.1308 32.6878 72.1308 33.2234 72.1308C36.4872 72.1308 39.7509 72.1308 42.998 72.1308C44.1696 72.1308 44.8558 71.3782 44.6549 70.3581C44.5211 69.572 43.9185 69.1874 42.7971 69.1874Z" fill="#00AEEF"/>
<path d="M26.9302 62.8155C26.9134 62.1131 26.5285 61.695 25.859 61.6783C25.156 61.6616 24.8045 62.1298 24.8045 62.8155C24.7878 63.7855 24.7878 64.7722 24.8045 65.7422C24.8045 66.4446 25.2062 66.846 25.8925 66.846C29.742 66.8627 33.5916 66.846 37.4412 66.8293C38.1441 66.8293 38.5124 66.4279 38.5291 65.7255C38.5458 64.7722 38.5458 63.8357 38.5291 62.8824C38.5124 62.1131 38.0939 61.6448 37.4579 61.6616C36.8386 61.6616 36.4202 62.1466 36.3867 62.9159C36.37 63.4845 36.3867 64.0531 36.3867 64.6552C33.1732 64.6552 30.127 64.6552 26.9302 64.6552C26.9302 63.9862 26.9302 63.4009 26.9302 62.8155Z" fill="#00AEEF"/>
<path d="M12.8709 39.1175C14.394 39.1342 15.9171 39.1175 17.4234 39.1175C17.4234 37.0102 17.4234 35.0201 17.4234 33.0299C15.3815 33.0299 13.4232 33.0299 11.331 33.0299C11.331 34.602 11.3143 36.0904 11.331 37.5621C11.3478 39.385 11.1302 39.1007 12.8709 39.1175Z" fill="#00AEEF"/>
<path d="M11.3312 48.2155C13.4568 48.2155 15.4151 48.2155 17.4236 48.2155C17.4236 46.2086 17.4236 44.2519 17.4236 42.1781C15.5155 42.1781 13.7079 42.1781 11.8835 42.1781C11.4316 42.1781 11.3145 42.3955 11.3145 42.7969C11.3312 43.9676 11.3145 45.1383 11.3145 46.3089C11.3312 46.9277 11.3312 47.5465 11.3312 48.2155Z" fill="#00AEEF"/>
<path d="M23.0472 45.5395C23.5995 45.5562 23.6497 45.2886 23.4656 44.7702C22.7292 44.7702 22.0262 44.7367 21.34 44.7869C21.1224 44.8036 20.9216 45.0378 20.7207 45.1716C20.9383 45.2886 21.1391 45.5061 21.3735 45.5228C21.9258 45.573 22.4949 45.5228 23.0472 45.5395Z" fill="#00AEEF"/>
<path d="M21.2229 42.1613C21.0555 42.178 20.9049 42.3954 20.7543 42.5125C20.9049 42.6463 21.0388 42.8637 21.1894 42.8804C21.9594 42.9139 22.7293 42.8972 23.4992 42.8972C23.5494 42.7968 23.5996 42.6965 23.6498 42.6129C23.449 42.4623 23.2481 42.178 23.0305 42.1613C22.4447 42.0944 21.8255 42.1111 21.2229 42.1613Z" fill="#00AEEF"/>
<path d="M21.2395 35.756C21.0722 35.7727 20.9048 36.0069 20.7374 36.1407C20.9048 36.2577 21.0554 36.4584 21.2228 36.4751C21.8588 36.5086 22.5116 36.5253 23.1476 36.4584C23.3317 36.4417 23.4823 36.1239 23.6497 35.94C23.5995 35.8731 23.5325 35.8062 23.4823 35.7393C22.7459 35.7393 21.9927 35.7226 21.2395 35.756Z" fill="#00AEEF"/>
<path d="M21.2563 33.0969C21.0722 33.1136 20.9215 33.3478 20.7374 33.4816C20.9048 33.5986 21.0554 33.7993 21.2395 33.7993C21.8421 33.8328 22.4614 33.7993 23.0806 33.8161C23.6497 33.8328 23.6497 33.5485 23.4823 33.0635C22.7459 33.0802 21.9927 33.0468 21.2563 33.0969Z" fill="#00AEEF"/>
<path d="M21.0722 48.115C21.9927 48.1318 22.93 48.1318 24.1184 48.1318C23.7836 47.7806 23.633 47.4795 23.4489 47.4628C22.679 47.4126 21.8923 47.4294 21.1224 47.4628C20.9885 47.4628 20.8379 47.6802 20.7709 47.8307C20.7374 47.8642 20.955 48.115 21.0722 48.115Z" fill="#00AEEF"/>
<path d="M21.1893 39.0841C21.5073 39.1342 21.8588 39.1008 22.1768 39.1008V39.0841C22.545 39.0841 22.8965 39.1175 23.248 39.0673C23.3652 39.0506 23.4991 38.8332 23.5325 38.6827C23.5493 38.6158 23.3484 38.4151 23.2313 38.4151C22.545 38.3817 21.8421 38.3817 21.1559 38.4151C21.022 38.4151 20.8881 38.6158 20.7374 38.7161C20.9048 38.8499 21.0387 39.0506 21.1893 39.0841Z" fill="#00AEEF"/>
<path d="M61.6599 34.7358C52.6553 34.7358 43.6506 34.7526 34.6627 34.7191C33.9598 34.7191 33.8259 35.0034 33.8426 35.6055C33.8761 37.1943 33.8928 38.7831 33.8259 40.3718C33.7924 41.1579 34.0769 41.3418 34.8301 41.3418C43.7176 41.3251 52.6051 41.3251 61.4925 41.3251C61.7603 41.3251 62.0449 41.3251 62.4131 41.3251C62.4131 39.2179 62.3963 37.2779 62.4131 35.3379C62.4298 34.7358 62.0951 34.7358 61.6599 34.7358Z" fill="#00AEEF"/>
<path d="M34.8471 23.999C37.6255 23.9656 40.4206 23.9823 43.199 23.9823C43.5002 23.9823 43.7848 23.9489 44.1028 23.9321C44.1028 20.5037 44.1028 17.1422 44.1028 13.6636C40.8055 13.6636 37.6087 13.6636 34.3952 13.6636C33.7926 13.6636 33.8428 14.0482 33.8428 14.4496C33.8428 17.3094 33.8763 20.1859 33.8261 23.0458C33.8094 23.8485 34.1106 23.999 34.8471 23.999Z" fill="#00AEEF"/>
<path d="M59.6683 19.3998C59.5846 19.3998 59.5009 19.3998 59.4172 19.3998C55.6513 19.3998 51.8855 19.3998 48.1363 19.3998C47.9355 19.3998 47.7011 19.3496 47.5672 19.4333C47.3162 19.6005 46.9982 19.8681 46.9814 20.1022C46.9814 20.3196 47.3162 20.5872 47.5672 20.7377C47.7346 20.8381 48.0024 20.7712 48.22 20.7712C50.1113 20.7712 52.0026 20.7712 53.9107 20.7712C55.8355 20.7712 57.7602 20.7712 59.685 20.7712C60.1537 20.7712 60.7227 20.8046 60.7395 20.1357C60.7562 19.3998 60.1537 19.45 59.6683 19.3998Z" fill="#00AEEF"/>
<path d="M47.4166 15.9548C47.6342 16.0886 47.9522 16.0718 48.22 16.0718C50.0778 16.0718 51.9524 16.0718 53.8102 16.0718C55.7015 16.0718 57.5928 16.0718 59.4842 16.0718C59.7854 16.0718 60.1202 16.0551 60.3712 15.9381C60.5386 15.8544 60.7227 15.5534 60.706 15.3694C60.706 15.1687 60.5051 14.9179 60.321 14.8343C60.1202 14.7339 59.8356 14.7506 59.5846 14.7506C55.7518 14.7506 51.9022 14.7506 48.0694 14.7506C47.8685 14.7506 47.6509 14.7005 47.5003 14.7841C47.2827 14.9012 46.9814 15.1353 46.9814 15.3193C46.9647 15.5032 47.199 15.821 47.4166 15.9548Z" fill="#00AEEF"/>
<path d="M47.9019 25.454C49.8769 25.454 51.8519 25.454 53.8437 25.454C55.8187 25.454 57.7937 25.454 59.7854 25.454C60.2373 25.454 60.7394 25.4875 60.7394 24.8353C60.7561 24.1663 60.2373 24.1997 59.7854 24.1997C55.8354 24.1997 51.8687 24.1997 47.9187 24.1997C47.45 24.1997 46.9479 24.1997 46.9479 24.8353C46.9312 25.4708 47.4333 25.454 47.9019 25.454Z" fill="#00AEEF"/>
<path d="M47.8852 30.1701C49.8435 30.1701 51.785 30.1701 53.7433 30.1701C54.1617 30.1701 54.5801 30.1701 54.9986 30.1701C56.6723 30.1701 58.346 30.1869 60.0197 30.1367C60.2708 30.1367 60.5051 29.7688 60.7562 29.5681C60.5219 29.3507 60.3043 29.1165 60.0532 28.9158C59.9863 28.8657 59.8356 28.8991 59.7185 28.8991C55.7852 28.8991 51.8687 28.8991 47.9354 28.8991C47.4668 28.8991 46.9814 28.9326 46.948 29.5346C46.9145 30.2036 47.4333 30.1701 47.8852 30.1701Z" fill="#00AEEF"/>
</svg>
