<svg width="72" height="97" viewBox="0 0 72 97" fill="none" xmlns="http://www.w3.org/2000/svg">
<g clip-path="url(#clip0)">
<path d="M54.318 54.1332C54.318 51.6653 53.6277 49.1973 52.1941 46.9977C49.6985 43.1885 45.61 41.0961 41.4154 41.0961C38.9729 41.0961 36.5304 41.7936 34.3534 43.2421C32.7074 44.3152 31.38 45.7637 30.4242 47.3196C30.0525 47.9634 30.2649 48.7681 30.849 49.1437C31.4862 49.5192 32.2826 49.3046 32.6543 48.7145C33.3977 47.4269 34.4596 46.3539 35.787 45.4418C37.5393 44.2615 39.5039 43.725 41.4154 43.725C44.7605 43.725 47.9994 45.3882 50.0171 48.3926C50.6543 49.3583 51.1322 50.4313 51.3977 51.5043H53.5216V57.1376H51.2915C50.6012 59.3373 49.2207 61.376 47.1499 62.7173C45.3977 63.8976 43.4331 64.4341 41.5215 64.4341C38.1764 64.4341 34.9375 62.7709 32.9198 59.7665C32.3888 58.9081 31.964 58.0497 31.6985 57.1376H30.1587V51.8262C30.1056 51.8262 30.1056 51.8262 30.0525 51.8262C29.3092 51.7726 28.672 52.3091 28.6189 53.0602C28.5658 53.4357 28.5658 53.7576 28.5658 54.1332C28.5658 56.6011 29.2561 59.069 30.6897 61.2687C33.1853 65.0779 37.2738 67.1702 41.4685 67.1702C43.9109 67.1702 46.3534 66.4728 48.5304 65.0242C52.3003 62.5563 54.318 58.3716 54.318 54.1332Z" fill="#00AEEF"/>
<path d="M70.8843 85.5725L57.2914 64.6488C56.8135 63.9514 56.2295 63.3612 55.5923 62.8784C56.8666 60.786 57.61 58.479 57.8755 56.0648C57.5569 56.1184 57.2383 56.1184 56.9197 56.1721L56.7073 53.7578C57.1321 53.7041 57.5038 53.6505 57.9286 53.5968C57.8224 50.6461 56.9728 47.6416 55.2206 45.0128C52.0348 40.1306 46.7781 37.5017 41.3622 37.5017C38.2295 37.5017 35.0967 38.4138 32.2826 40.2379C27.7693 43.2423 25.1675 48.0708 24.8489 53.114H24.9551V55.5283V55.5283C25.1675 58.2644 26.0171 60.9469 27.61 63.3612C30.7958 68.2434 36.0525 70.8723 41.4684 70.8723C42.2649 70.8723 43.0613 70.8186 43.8578 70.7113C44.0171 71.4624 44.3357 72.2135 44.8135 72.911L58.4065 93.8347C59.0967 94.854 59.9463 95.6588 60.9551 96.1953C61.964 96.7318 63.079 97 64.2472 97C65.5746 97 66.902 96.6245 68.0702 95.8197L68.8666 95.2832C70.8843 93.942 71.9994 91.6887 71.9994 89.3817C71.9994 88.0941 71.6277 86.7528 70.8843 85.5725ZM41.4153 68.1898C36.902 68.1898 32.4419 65.9901 29.787 61.859C28.2472 59.4984 27.5038 56.8159 27.5038 54.1333C27.5038 49.5731 29.6808 45.0664 33.7693 42.3839C36.1056 40.828 38.7604 40.0769 41.4153 40.0769C45.9286 40.0769 50.3888 42.2766 53.0436 46.4077L54.1587 45.6566L53.0436 46.4077C54.5834 48.7683 55.3268 51.4508 55.3268 54.1333C55.3268 58.6936 53.1498 63.2003 49.0613 65.8828C46.725 67.4387 44.0702 68.1898 41.4153 68.1898ZM68.8666 91.474C68.548 92.1179 68.0702 92.6544 67.433 93.0836L66.6365 93.6201C65.8932 94.1029 65.0967 94.3175 64.2472 94.3175C63.5569 94.3175 62.8666 94.1566 62.2295 93.8347C61.5923 93.5128 61.0613 93.0299 60.6365 92.3861L47.0436 71.4624C46.7781 71.0332 46.5657 70.5504 46.4596 70.1212C47.8932 69.692 49.2737 68.9945 50.548 68.1361C51.1321 67.7606 51.6631 67.3314 52.141 66.9021C51.7693 67.3314 51.7162 67.9752 52.0348 68.458L54.3711 72.0526C54.7958 72.6964 55.5923 72.8573 56.2295 72.4281C56.8666 71.9989 57.0259 71.1942 56.6011 70.5504L54.2649 66.9558C53.8932 66.3656 53.0967 66.151 52.4596 66.5266C52.9905 66.0437 53.5215 65.5072 53.9994 64.9171C54.3711 65.239 54.7427 65.5609 55.0082 66.0437L68.6011 86.9674C69.079 87.7185 69.2914 88.5233 69.2914 89.3817C69.3445 90.1328 69.1852 90.8302 68.8666 91.474Z" fill="#00AEEF"/>
<path d="M66.9021 86.4309L58.3003 73.2328C57.8755 72.589 57.0791 72.4281 56.4419 72.8573C55.8047 73.2865 55.6454 74.0912 56.0702 74.735L64.672 87.9331C64.9906 88.4159 65.2029 88.7915 65.3622 89.1134C65.5215 89.4353 65.5746 89.7035 65.5746 90.0254C65.5746 90.24 65.5215 90.5083 65.3622 90.8838C65.0437 91.5813 65.3622 92.3324 65.9994 92.6543C66.6897 92.9762 67.433 92.6543 67.7516 92.0105C68.0702 91.3667 68.2295 90.6692 68.2295 90.0254C68.2295 89.2743 68.0171 88.5769 67.7516 87.9867C67.5392 87.3966 67.2206 86.9137 66.9021 86.4309Z" fill="#00AEEF"/>
<path d="M65.7874 46.7832L68.1767 46.9441C68.2829 45.6029 68.336 44.2616 68.336 42.9203H65.9466C65.9466 44.208 65.8935 45.4956 65.7874 46.7832Z" fill="#00AEEF"/>
<path d="M64.2485 53.9723C65.5228 53.2212 66.7971 52.0946 67.5405 50.4851L65.3635 49.4657C64.8856 50.4314 64.0361 51.2362 63.0272 51.88L64.2485 53.9723Z" fill="#00AEEF"/>
<path d="M56.92 56.1184C57.2386 56.1184 57.5571 56.0647 57.8757 56.0111C58.9377 55.8501 59.9996 55.6355 61.0616 55.3136L60.3713 53.0067C59.5748 53.2213 58.7784 53.4359 57.9288 53.5432C57.504 53.5968 57.1324 53.6505 56.7076 53.7041L56.92 56.1184Z" fill="#00AEEF"/>
<path d="M63.8756 25.6986C62.6013 25.0011 61.2207 24.5183 59.7871 24.25L58.8845 26.557C60.0526 26.7716 61.2207 27.1472 62.3358 27.6837L63.8756 25.6986Z" fill="#00AEEF"/>
<path d="M65.363 33.0487L67.6462 32.083C67.4338 30.7417 67.1683 29.4541 66.6373 28.2202C66.5842 28.1129 66.5311 28.0056 66.478 27.8983L64.5134 29.5078C64.5665 29.6151 64.6196 29.6687 64.6727 29.776C65.0444 30.849 65.2037 31.9757 65.363 33.0487Z" fill="#00AEEF"/>
<path d="M65.8936 39.7551L68.283 39.6478L68.1768 37.6627L68.1237 36.6433L68.0175 35.5167L65.6281 35.8922C65.7874 37.0725 65.8405 38.4674 65.8936 39.7551Z" fill="#00AEEF"/>
<path d="M40.3013 23.6062C40.7792 24.0891 41.3102 24.5719 41.9473 24.9475L43.2217 22.9088C42.85 22.6405 42.4252 22.3186 41.9473 21.8894L41.2571 21.2456L40.6199 20.6018L38.8146 22.2113C39.3455 22.6942 39.8234 23.1234 40.3013 23.6062Z" fill="#00AEEF"/>
<path d="M49.1148 26.5034L49.1679 24.0891C48.5307 24.0891 47.8936 24.0891 47.3095 24.0355C46.7254 23.9818 46.1945 23.9818 45.6104 23.8209L45.0794 26.1815C45.7697 26.3424 46.4599 26.3961 47.1502 26.3961C47.7874 26.4497 48.4776 26.4497 49.1148 26.5034Z" fill="#00AEEF"/>
<path d="M54.1592 26.4496L55.9645 26.3422L56.2831 23.928L52.1946 24.0353V26.4496H54.1592Z" fill="#00AEEF"/>
<path d="M30.2122 5.41868C30.2122 5.79423 30.0529 6.11614 29.8405 6.38439L29.4157 6.81359C30.1591 6.97454 30.9024 7.2428 31.5927 7.61835L32.6546 5.47233C31.752 4.98948 30.7962 4.66757 29.7874 4.45297L29.8405 4.50662C30.0529 4.72122 30.2122 5.04313 30.2122 5.41868Z" fill="#00AEEF"/>
<path d="M35.0439 12.286L37.4333 12.1787C37.4333 11.3203 37.1678 10.4618 36.8492 9.71074C36.5306 8.95964 36.0528 8.26218 35.5218 7.67203L33.7165 9.28154C34.0882 9.71074 34.4068 10.1936 34.6191 10.6765C34.8846 11.213 35.0439 11.7495 35.0439 12.286Z" fill="#00AEEF"/>
<path d="M36.2126 17.4363C36.425 18.0801 36.6374 18.7776 36.956 19.4214L39.0799 18.3484C38.8675 17.8119 38.6551 17.2754 38.4958 16.7389C38.2834 16.1487 38.1241 15.5586 37.9648 14.9148L35.6285 15.5049C35.8409 16.1487 36.0002 16.7925 36.2126 17.4363Z" fill="#00AEEF"/>
<path d="M10.3541 55.6355L10.0887 53.2213C8.54883 53.4359 7.06211 53.8651 5.62848 54.6162L6.74352 56.7622C7.85857 56.172 9.07981 55.7428 10.3541 55.6355Z" fill="#00AEEF"/>
<path d="M17.6814 53.114H13.5398V55.5282H17.6814V53.114Z" fill="#00AEEF"/>
<path d="M25.0084 53.114H24.9022H20.8668V55.5282H24.9553H25.0084V53.114Z" fill="#00AEEF"/>
<path d="M5.15054 73.5011C4.56647 73.0719 4.03549 72.5354 3.66381 71.838L1.59302 73.0719C2.0178 73.7694 2.54877 74.4668 3.23903 75.057C3.45142 75.2716 3.71691 75.4325 3.9293 75.5935C4.08859 74.896 4.40718 74.2522 4.88505 73.7157C4.99125 73.6621 5.04434 73.5548 5.15054 73.5011Z" fill="#00AEEF"/>
<path d="M2.44275 65.1316L0.0533656 64.9706C-0.052829 66.4729 0.000268316 67.9751 0.318852 69.5309L2.65514 69.0481C2.38965 67.7605 2.33655 66.4192 2.44275 65.1316Z" fill="#00AEEF"/>
<path d="M4.46003 58.64L2.60162 57.1378C1.59277 58.4254 0.902504 59.9276 0.530823 61.4834L2.86711 62.0736C3.18569 60.786 3.66357 59.6057 4.46003 58.64Z" fill="#00AEEF"/>
<path d="M53.4696 51.6118H51.3457H48.3723V57.245H51.2395H53.4696V51.6118Z" fill="#00AEEF"/>
<path d="M44.283 51.6118H39.1857V57.245H44.283V51.6118Z" fill="#00AEEF"/>
<path d="M31.6462 57.245H35.2037V51.6118H30.1064V51.9337V57.245H31.6462Z" fill="#00AEEF"/>
<path d="M7.38119 72.6427C6.53163 72.6427 5.73517 72.9646 5.09801 73.5011C4.99181 73.5548 4.93871 73.6621 4.83252 73.7157C4.35464 74.1986 4.03606 74.8424 3.87677 75.5935C3.82367 75.8081 3.82367 76.0763 3.82367 76.2909C3.82367 77.2566 4.19535 78.1687 4.83252 78.8662C5.46969 79.51 6.37234 79.9392 7.32809 79.9392C8.33694 79.9392 9.1865 79.51 9.82367 78.8662C10.4608 78.2223 10.8325 77.3103 10.8325 76.2909C10.8325 75.3252 10.4608 74.4132 9.82367 73.7157C9.2927 73.0719 8.39004 72.6427 7.38119 72.6427ZM7.96526 76.9884C7.80597 77.1493 7.59358 77.2566 7.38119 77.2566C7.1688 77.2566 6.95641 77.1493 6.79712 76.9884C6.63783 76.8274 6.53163 76.5592 6.53163 76.2909C6.53163 76.0227 6.63783 75.7544 6.79712 75.5935C6.95641 75.4325 7.1688 75.3252 7.38119 75.3252C7.59358 75.3252 7.80597 75.4325 7.96526 75.5935C8.12455 75.7544 8.23075 76.0227 8.23075 76.2909C8.23075 76.5592 8.12455 76.8274 7.96526 76.9884Z" fill="#00AEEF"/>
<path d="M25.7517 10.4618L29.3624 6.81361L29.7871 6.3844C30.0526 6.11615 30.1588 5.79425 30.1588 5.4187C30.1588 5.04314 29.9995 4.72124 29.7871 4.45299L29.734 4.39934L25.7517 0.375553C25.5394 0.160951 25.2208 0 24.8491 0C24.4774 0 24.1588 0.160951 23.8933 0.375553L19.8048 4.50664C19.2739 5.04314 19.2739 5.90155 19.8048 6.3844L23.8402 10.4618C24.3712 10.9983 25.2208 10.9983 25.7517 10.4618ZM24.8491 3.21903L26.973 5.36504L24.796 7.56471L22.6721 5.4187L24.8491 3.21903Z" fill="#00AEEF"/>
</g>
<defs>
<clipPath id="clip0">
<rect width="72" height="97" fill="white"/>
</clipPath>
</defs>
</svg>
