<svg width="19" height="25" viewBox="0 0 19 25" fill="none" xmlns="http://www.w3.org/2000/svg">
<path d="M13.7364 17.9624C13.7211 17.9624 13.7058 17.9624 13.6904 17.9624L12.6794 17.9241L11.9288 18.6033C11.6939 18.8152 11.39 18.9326 11.0735 18.9326C10.9075 18.9326 10.7441 18.902 10.5909 18.8382L9.65392 18.4552L8.71694 18.8382C8.56375 18.902 8.40035 18.9326 8.2344 18.9326C7.91781 18.9326 7.61398 18.8152 7.37909 18.6033L6.62847 17.9241L5.61742 17.9624C5.6021 17.9624 5.58678 17.9624 5.57146 17.9624C5.09655 17.9624 4.6651 17.702 4.44297 17.2808L3.97064 16.3845L3.93234 16.3718V24.2789C3.93234 24.7538 4.43279 25.0627 4.85658 24.8482L9.37055 22.5811C9.55182 22.4917 9.76373 22.4917 9.94501 22.5811L14.4513 24.8508C14.8751 25.0652 15.3756 24.7563 15.3756 24.2814V16.3744L15.3373 16.3872L14.8649 17.2833C14.6453 17.702 14.2113 17.9624 13.7364 17.9624Z" fill="#00AEEF"/>
<path d="M18.3631 9.94809C18.4933 9.74128 18.4933 9.47831 18.3631 9.26895L17.8244 8.41109C17.735 8.27067 17.7069 8.09961 17.7401 7.93876L17.9546 6.94814C18.0056 6.70815 17.9163 6.46049 17.7222 6.30986L16.9231 5.68944C16.7929 5.58732 16.7061 5.43923 16.6831 5.27328L16.5427 4.26989C16.5095 4.02734 16.3384 3.82565 16.1061 3.74905L15.1435 3.43757C14.9853 3.3865 14.8525 3.27417 14.7759 3.12864L14.3036 2.23248C14.1938 2.02312 13.9742 1.89291 13.7393 1.89291C13.7316 1.89291 13.724 1.89291 13.7163 1.89291L12.7053 1.93121C12.6976 1.93121 12.69 1.93121 12.6823 1.93121C12.524 1.93121 12.3708 1.87249 12.2534 1.76526L11.5028 1.08612C11.3828 0.978888 11.2296 0.920166 11.0738 0.920166C10.9921 0.920166 10.9104 0.935485 10.8338 0.968676L9.89684 1.35165C9.82024 1.38229 9.73857 1.40016 9.65687 1.40016C9.57517 1.40016 9.49347 1.38484 9.41687 1.35165L8.47987 0.968676C8.40072 0.938038 8.31902 0.920166 8.2399 0.920166C8.08413 0.920166 7.93094 0.976335 7.81097 1.08612L7.06035 1.76526C6.9429 1.87249 6.78971 1.93121 6.63142 1.93121C6.62376 1.93121 6.61607 1.93121 6.60844 1.93121L5.59739 1.89291C5.58973 1.89291 5.58205 1.89291 5.57442 1.89291C5.33953 1.89291 5.11996 2.02312 5.01017 2.23248L4.53784 3.12864C4.46124 3.27672 4.32848 3.3865 4.17021 3.43757L3.20767 3.74905C2.97531 3.82309 2.80428 4.02734 2.77106 4.26989L2.63064 5.27328C2.60769 5.43923 2.52085 5.58732 2.39067 5.68944L1.58132 6.30986C1.38726 6.46049 1.2979 6.70815 1.34896 6.94814L1.56342 7.93876C1.59917 8.10216 1.56853 8.27067 1.47917 8.41109L0.940431 9.26895C0.810221 9.47576 0.810221 9.73873 0.940431 9.94809L1.47917 10.8059C1.56853 10.9464 1.59662 11.1174 1.56342 11.2783L1.34896 12.2689C1.2979 12.5089 1.38726 12.7566 1.58132 12.9072L2.38046 13.5276C2.51067 13.6297 2.59747 13.7778 2.62045 13.9438L2.76087 14.9472C2.79407 15.1897 2.96513 15.3914 3.19746 15.468L3.92766 15.7029L4.16255 15.7795C4.32085 15.8305 4.45361 15.9429 4.5302 16.0884L5.00254 16.9846C5.11232 17.1939 5.33187 17.3241 5.56678 17.3241C5.57444 17.3241 5.5821 17.3241 5.58976 17.3241L6.60081 17.2859C6.60846 17.2859 6.61612 17.2859 6.62378 17.2859C6.78205 17.2859 6.93524 17.3446 7.05271 17.4518L7.80331 18.1309C7.92331 18.2382 8.0765 18.2969 8.23227 18.2969C8.31394 18.2969 8.39564 18.2816 8.47224 18.2484L9.40924 17.8654C9.48583 17.8348 9.56754 17.817 9.64924 17.817C9.73091 17.817 9.81261 17.8323 9.8892 17.8654L10.8262 18.2484C10.9054 18.2791 10.9871 18.2969 11.0662 18.2969C11.2219 18.2969 11.3751 18.2408 11.4951 18.1309L12.2457 17.4518C12.3632 17.3446 12.5164 17.2859 12.6747 17.2859C12.6823 17.2859 12.69 17.2859 12.6976 17.2859L13.7087 17.3241C13.7164 17.3241 13.724 17.3241 13.7317 17.3241C13.9666 17.3241 14.1861 17.1939 14.2959 16.9846L14.7683 16.0884C14.8449 15.9403 14.9776 15.8305 15.1359 15.7795L15.3708 15.7029L16.101 15.468C16.3333 15.394 16.5044 15.1897 16.5376 14.9472L16.678 13.9438C16.701 13.7778 16.7878 13.6297 16.918 13.5276L17.7171 12.9072C17.9112 12.7566 18.0005 12.5089 17.9495 12.2689L17.735 11.2783C17.6993 11.1149 17.7299 10.9464 17.8193 10.8059L18.3631 9.94809ZM15.8278 12.2178C15.6976 12.5216 15.5495 12.8152 15.3784 13.0961C15.1027 13.548 14.7733 13.9693 14.3929 14.3472C13.7776 14.9625 13.0602 15.445 12.2636 15.782C11.4364 16.1318 10.5581 16.3079 9.65429 16.3079C8.7505 16.3079 7.8722 16.1318 7.045 15.782C6.24584 15.445 5.53096 14.9624 4.91568 14.3472C4.53529 13.9667 4.2059 13.548 3.93016 13.0961C3.7591 12.8153 3.60844 12.5242 3.48079 12.2178C3.13103 11.3906 2.95484 10.5123 2.95484 9.60852C2.95484 8.70471 3.131 7.82642 3.48079 6.99921C3.8178 6.20007 4.30037 5.48519 4.91565 4.86988C5.53094 4.25457 6.24839 3.77203 7.04498 3.43501C7.87217 3.08523 8.75048 2.90907 9.65427 2.90907C10.5581 2.90907 11.4364 3.08523 12.2636 3.43501C13.0627 3.77203 13.7776 4.25457 14.3929 4.86988C15.0082 5.48519 15.4908 6.20262 15.8278 6.99921C16.1775 7.82642 16.3537 8.70471 16.3537 9.60852C16.3538 10.5123 16.1776 11.3906 15.8278 12.2178Z" fill="#00AEEF"/>
<path d="M9.65139 3.67241C6.37314 3.67241 3.7153 6.33023 3.7153 9.60847C3.7153 10.1523 3.78934 10.6808 3.92721 11.1812C4.61657 13.6961 6.91951 15.5446 9.65139 15.5446C12.3833 15.5446 14.6862 13.6961 15.3756 11.1812C15.5134 10.6808 15.5875 10.1523 15.5875 9.60847C15.5875 6.33023 12.9296 3.67241 9.65139 3.67241ZM12.2939 12.3582C12.4088 12.8969 11.8343 13.3182 11.3543 13.045L9.65139 12.0799L7.94588 13.045C7.46844 13.3156 6.89143 12.8944 7.00632 12.3582L7.41482 10.4331L6.08208 9.23061L5.93399 9.09529C5.52804 8.72764 5.74251 8.05361 6.28375 7.98722L8.22415 7.74978L9.06927 5.9396C9.29905 5.4494 9.99606 5.4494 10.2258 5.9396L11.0709 7.74978L13.0113 7.98722C13.5552 8.05361 13.7671 8.72764 13.3611 9.09529L13.213 9.23061L11.8803 10.4331L12.2939 12.3582Z" fill="#00AEEF"/>
</svg>
