<svg width="32" height="30" viewBox="0 0 32 30" fill="none" xmlns="http://www.w3.org/2000/svg">
<g clip-path="url(#clip0)">
<path d="M17.3383 11.0969C17.5401 10.8418 17.5149 10.4847 17.2879 10.2551C17.061 10.051 16.6575 10.0765 16.4558 10.3061C16.3297 10.4592 16.1532 10.5357 15.9514 10.5357C15.7497 10.5357 15.5732 10.4592 15.4471 10.3061C15.2454 10.0765 14.8671 10.051 14.6149 10.2551C14.4889 10.3571 14.4384 10.5102 14.4132 10.6632C14.4132 10.8163 14.4636 10.9694 14.5645 11.0969C14.9175 11.5051 15.4219 11.7347 15.9514 11.7347C16.481 11.7347 16.9853 11.5051 17.3383 11.0969Z" fill="#00AEEF"/>
<path d="M19.6438 9.87232C19.6438 7.80599 17.9795 6.12231 15.9369 6.12231C13.8691 6.12231 12.2048 7.80599 12.2048 9.87232C12.2048 11.9386 13.8691 13.6223 15.9117 13.6223C17.9795 13.6478 19.6438 11.9386 19.6438 9.87232ZM13.3648 9.87232C13.3648 8.44374 14.4996 7.29578 15.9117 7.29578C17.3238 7.29578 18.4586 8.44374 18.4586 9.87232C18.4586 11.3009 17.3238 12.4488 15.9117 12.4488C14.5248 12.4488 13.3648 11.3009 13.3648 9.87232Z" fill="#00AEEF"/>
<path d="M6.99956 8.97964C7.2013 8.75005 7.17608 8.41841 6.94913 8.21433C6.72218 8.03576 6.36915 8.06127 6.19263 8.26535C6.06654 8.3929 5.91524 8.46943 5.73873 8.46943C5.56221 8.46943 5.38569 8.3929 5.28483 8.26535C5.10831 8.03576 4.75528 8.03576 4.52832 8.21433C4.42746 8.31637 4.35181 8.44392 4.35181 8.59699C4.35181 8.75005 4.37702 8.8776 4.47789 8.97964C4.80571 9.36229 5.25961 9.56638 5.73873 9.56638C6.21784 9.56638 6.67175 9.33678 6.99956 8.97964Z" fill="#00AEEF"/>
<path d="M5.77457 11.301C5.87543 11.301 5.9763 11.301 6.07717 11.301C7.81712 11.1479 9.20404 9.66831 9.20404 7.85708C9.20404 5.94382 7.66582 4.3877 5.77457 4.3877C3.88331 4.3877 2.34509 5.94382 2.34509 7.85708C2.34509 9.66831 3.73201 11.1479 5.47197 11.301C5.59805 11.301 5.6737 11.301 5.77457 11.301ZM3.42941 7.85708C3.42941 6.55606 4.48851 5.48463 5.77457 5.48463C7.06062 5.48463 8.11972 6.55606 8.11972 7.85708C8.11972 9.1581 7.06062 10.2295 5.77457 10.2295C4.48851 10.2295 3.42941 9.1581 3.42941 7.85708Z" fill="#00AEEF"/>
<path d="M27.4 8.97964C27.6017 8.75005 27.5765 8.41841 27.3495 8.21433C27.1226 8.03576 26.7695 8.06127 26.593 8.26535C26.4669 8.3929 26.3156 8.46943 26.1391 8.46943C25.9626 8.46943 25.7861 8.3929 25.6852 8.26535C25.5087 8.03576 25.1557 8.03576 24.9287 8.21433C24.8278 8.31637 24.7522 8.44392 24.7522 8.59699C24.7522 8.75005 24.7774 8.8776 24.8783 8.97964C25.2061 9.36229 25.66 9.56638 26.1391 9.56638C26.6182 9.56638 27.0721 9.33678 27.4 8.97964Z" fill="#00AEEF"/>
<path d="M26.175 11.301C26.2758 11.301 26.3767 11.301 26.4776 11.301C28.2175 11.1479 29.6044 9.66831 29.6044 7.85708C29.6044 5.94382 28.0662 4.3877 26.175 4.3877C24.2837 4.3877 22.7455 5.94382 22.7455 7.85708C22.7455 9.66831 24.1324 11.1479 25.8724 11.301C25.9984 11.301 26.0993 11.301 26.175 11.301ZM23.8298 7.85708C23.8298 6.55606 24.8889 5.48463 26.175 5.48463C27.461 5.48463 28.5201 6.55606 28.5201 7.85708C28.5201 9.1581 27.461 10.2295 26.175 10.2295C24.8889 10.2295 23.8298 9.1581 23.8298 7.85708Z" fill="#00AEEF"/>
<path d="M0.655738 14.7958C0.605305 14.8724 0.580088 14.9489 0.529654 15.0509C0.378354 15.3826 0.277487 15.7397 0.201837 16.0968C0.100971 16.505 0.0505371 16.9387 0.0505371 17.3724C0.0505371 17.5254 0.100971 17.6275 0.201837 17.7295C0.277487 17.8315 0.403571 17.8826 0.529654 17.9081C0.554871 17.9081 0.580088 17.9081 0.580088 17.9081H0.630521H1.63919H6.22863H8.4477H9.75897H10.1624H10.2381C9.9607 18.6224 9.8094 19.3877 9.8094 20.204C9.8094 20.5356 10.0616 20.7907 10.3894 20.7907H16.517H18.9126H20.3248H20.7787H21.7369C22.0647 20.7907 22.3169 20.5356 22.3169 20.204C22.3169 19.3877 22.1656 18.6224 21.8882 17.9081H26.6289H28.848H30.1593H30.4871H30.588H31.4706C31.4706 17.9081 31.4706 17.9081 31.4958 17.9081C31.5462 17.9081 31.5714 17.9081 31.6219 17.8826C31.7732 17.857 31.874 17.755 31.9497 17.6275V16.454C31.874 16.0203 31.7732 15.6122 31.6219 15.2295C31.5966 15.1275 31.5462 15.0509 31.4958 14.9489C31.2436 14.3877 30.9158 13.8775 30.4871 13.4183C29.5036 12.3213 28.0915 11.607 26.5281 11.5305C26.4272 11.5305 26.3263 11.556 26.2255 11.556C26.1246 11.556 26.0237 11.556 25.9229 11.5305C23.376 11.6581 21.2578 13.4693 20.6526 15.8928C19.5178 14.6428 17.8787 13.8775 16.0631 13.8775C14.2223 13.8775 12.558 14.6938 11.4233 15.9693C10.8181 13.5203 8.69987 11.6836 6.12776 11.5305C6.0269 11.5305 5.92603 11.556 5.82516 11.556C5.7243 11.556 5.62343 11.556 5.52256 11.5305C4.00956 11.607 2.62264 12.2958 1.63919 13.3417C1.26094 13.8009 0.933122 14.2856 0.655738 14.7958ZM26.2255 12.6275C28.0915 12.6275 29.7054 13.7499 30.4619 15.357C30.6636 15.8162 30.8149 16.3009 30.8906 16.8366H30.5627H30.4619H30.1341H28.8228H26.6037H21.5604C21.8378 14.4642 23.8551 12.6275 26.2255 12.6275ZM16.0884 15.0764C18.6857 15.0764 20.8543 17.0662 21.1569 19.6428H20.8039H20.35H18.9378H16.5423H11.0198C11.2972 17.0407 13.491 15.0764 16.0884 15.0764ZM5.82516 12.6275C8.22075 12.6275 10.2129 14.4642 10.4903 16.8366H10.1624H9.75897H8.4477H6.22863H1.66441H1.18529C1.26094 16.2499 1.41224 15.7142 1.66441 15.204C2.44612 13.6734 4.03478 12.6275 5.82516 12.6275Z" fill="#00AEEF"/>
<path d="M29.8566 0H2.14342C0.958235 0 0 0.969388 0 2.16837V12.602C0 12.9592 0.277384 13.2398 0.630418 13.2398C0.983451 13.2398 1.26084 12.9592 1.26084 12.602V2.16837C1.26084 1.68367 1.6643 1.27551 2.14342 1.27551H29.8566C30.3357 1.27551 30.7392 1.68367 30.7392 2.16837V12.602C30.7392 12.9592 31.0165 13.2398 31.3696 13.2398C31.7226 13.2398 32 12.9592 32 12.602V2.16837C32 0.969388 31.0418 0 29.8566 0Z" fill="#00AEEF"/>
<path d="M31.3696 18.4695C31.0165 18.4695 30.7392 18.7501 30.7392 19.1072V23.0358C30.7392 23.5205 30.3357 23.9287 29.8566 23.9287H2.14342C1.6643 23.9287 1.26084 23.5205 1.26084 23.0358V19.1072C1.26084 18.7501 0.983451 18.4695 0.630418 18.4695C0.277384 18.4695 0 18.7501 0 19.1072V23.0358C0 24.2348 0.958235 25.2042 2.14342 25.2042H12.2301V28.546H7.74153C7.33806 28.546 7.01024 28.8776 7.01024 29.2858C7.01024 29.694 7.33806 30.0256 7.74153 30.0256H24.2585C24.6619 30.0256 24.9898 29.694 24.9898 29.2858C24.9898 28.8776 24.6619 28.546 24.2585 28.546H19.7699V25.2042H29.8566C31.0418 25.2042 32 24.2348 32 23.0358V19.1072C32 18.7501 31.7226 18.4695 31.3696 18.4695ZM18.3325 28.5205H13.6675V25.2042H18.3073V28.5205H18.3325Z" fill="#00AEEF"/>
</g>
<defs>
<clipPath id="clip0">
<rect width="32" height="30" fill="white" transform="matrix(-1 0 0 1 32 0)"/>
</clipPath>
</defs>
</svg>
