<svg width="25" height="33" viewBox="0 0 25 33" fill="none" xmlns="http://www.w3.org/2000/svg">
<path d="M15.9883 1.3403L14.7595 2.56494L15.9656 3.76729L17.1944 2.54264L15.9883 1.3403Z" stroke="#00AEEF" stroke-miterlimit="10" stroke-linecap="round" stroke-linejoin="round"/>
<path d="M2.22882 11.9648L1 13.1895L2.2061 14.3918L3.43491 13.1672L2.22882 11.9648Z" stroke="#00AEEF" stroke-miterlimit="10" stroke-linecap="round" stroke-linejoin="round"/>
<path d="M10.8621 29.2329L9.6333 30.4575L10.8394 31.6599L12.0682 30.4352L10.8621 29.2329Z" stroke="#00AEEF" stroke-miterlimit="10" stroke-linecap="round" stroke-linejoin="round"/>
<path d="M11.9556 16.0404C12.2106 15.6114 12.5613 15.246 13.0077 14.96C14.6177 13.9113 16.7698 14.3562 17.8219 15.9451C18.874 17.5499 18.4277 19.695 16.8336 20.7437C15.2235 21.7923 13.0715 21.3475 12.0193 19.7585C11.573 19.0912 11.3976 18.3126 11.4614 17.5817" stroke="#00AEEF" stroke-miterlimit="10" stroke-linecap="round" stroke-linejoin="round"/>
<path d="M18.7457 15.3414C20.1326 17.4388 19.5428 20.2671 17.4386 21.6494C15.3344 23.0318 12.4968 22.4439 11.11 20.3465C9.7231 18.2492 10.3129 15.4209 12.4171 14.0385C14.5214 12.672 17.3589 13.244 18.7457 15.3414Z" stroke="#00AEEF" stroke-miterlimit="10" stroke-linecap="round" stroke-linejoin="round"/>
<path d="M18.7306 20.6167C18.9697 20.7438 19.177 20.9345 19.3364 21.1728L23.4173 27.3696C23.9274 28.1482 23.7202 29.1969 22.9391 29.7212L22.7 29.8801C21.9188 30.3886 20.8667 30.182 20.3407 29.4034L16.2598 23.2066C16.1004 22.9524 16.0047 22.6823 15.9888 22.3963" stroke="#00AEEF" stroke-miterlimit="10" stroke-linecap="round" stroke-linejoin="round"/>
<path d="M19.6711 23.7148L22.2536 27.6236C22.5087 28.0049 22.7478 28.3545 22.5087 28.8788" stroke="#00AEEF" stroke-miterlimit="10" stroke-linecap="round" stroke-linejoin="round"/>
<path d="M18.4438 21.8721L19.1453 22.9366" stroke="#00AEEF" stroke-miterlimit="10" stroke-linecap="round" stroke-linejoin="round"/>
</svg>
