<svg width="72" height="72" viewBox="0 0 72 72" fill="none" xmlns="http://www.w3.org/2000/svg">
<path fill-rule="evenodd" clip-rule="evenodd" d="M53.8842 36.6367V31.1961C53.8842 30.2122 54.6945 29.4019 55.6785 29.4019C56.6624 29.4019 57.4727 30.2122 57.4727 31.1961V36.6367C57.4727 37.6206 56.6624 38.4309 55.6785 38.4309C54.6945 38.4309 53.8842 37.6206 53.8842 36.6367ZM56.836 44.5659V40.5723C58.5145 40.0514 59.7878 38.4887 59.7878 36.6367V31.1961C59.7878 29.3441 58.5145 27.7235 56.836 27.2605V25.2347C56.836 24.5981 56.3151 24.0772 55.6785 24.0772C55.0418 24.0772 54.5209 24.5981 54.5209 25.2347V27.2605C52.8424 27.7814 51.5691 29.3441 51.5691 31.1961V36.6367C51.5691 38.4887 52.8424 40.1093 54.5209 40.5723V44.5659H45.1447C44.508 44.5659 43.9871 45.0868 43.9871 45.7235C43.9871 46.3601 44.508 46.881 45.1447 46.881H66.2701C66.9068 46.881 67.4277 46.3601 67.4277 45.7235C67.4277 45.0868 66.9068 44.5659 66.2701 44.5659H56.836ZM27.7814 16.2058C27.7814 9.78135 22.5723 4.57235 16.2058 4.57235C13.5434 4.57235 10.9968 5.49839 8.91318 7.17685C6.88746 8.79743 5.44051 11.1125 4.86174 13.6592C4.74598 14.2958 5.09325 14.8746 5.7299 15.0482C6.36656 15.164 6.94534 14.8167 7.11897 14.1801C8.04502 9.95498 11.865 6.88746 16.2058 6.88746C21.3569 6.88746 25.5241 11.0547 25.5241 16.2058C25.5241 21.3569 21.3569 25.5241 16.2058 25.5241C11.9228 25.5241 8.10289 22.4566 7.11897 18.2315C7.00322 17.5949 6.36656 17.2476 5.7299 17.3633C5.09325 17.4791 4.74598 18.1158 4.86174 18.7524C5.44051 21.299 6.88746 23.5563 8.91318 25.2347C10.9968 26.9132 13.5434 27.8392 16.2058 27.8392C22.5723 27.8392 27.7814 22.6302 27.7814 16.2058ZM16.2058 19.5048C15.7428 19.5048 15.3376 19.0997 15.3376 18.6367C15.3376 18 14.8167 17.4791 14.1801 17.4791C13.5434 17.4791 13.0225 18 13.0225 18.6367C13.0225 19.9678 13.8328 21.1254 15.0482 21.5884V22.1093C15.0482 22.746 15.5691 23.2669 16.2058 23.2669C16.8424 23.2669 17.3633 22.746 17.3633 22.1093V21.5884C18.5209 21.1254 19.3891 19.9678 19.3891 18.6367C19.3891 16.4373 17.5949 15.5691 16.7267 15.164C15.6849 14.6431 15.3955 14.3537 15.3955 13.7749C15.3955 13.3119 15.8006 12.9068 16.2637 12.9068C16.7267 12.9068 17.1318 13.3119 17.1318 13.7749C17.1318 14.4116 17.6527 14.9325 18.2894 14.9325C18.926 14.9325 19.4469 14.4116 19.4469 13.7749C19.4469 12.4437 18.6367 11.2862 17.4212 10.8232V10.3023C17.4212 9.6656 16.9003 9.1447 16.2637 9.1447C15.627 9.1447 15.1061 9.6656 15.1061 10.3023V10.8232C13.9486 11.2862 13.0804 12.4437 13.0804 13.7749C13.0804 15.9743 14.8746 16.8424 15.7428 17.2476C16.7846 17.7685 17.074 18.0579 17.074 18.6367C17.074 19.0997 16.6688 19.5048 16.2058 19.5048ZM2.31511 16.2058C2.31511 8.56592 8.50804 2.31511 16.2058 2.31511C23.9035 2.31511 30.0965 8.56592 30.0965 16.2058C30.0965 23.8457 23.8457 30.0965 16.2058 30.0965C8.56592 30.0965 2.31511 23.9035 2.31511 16.2058ZM45.8392 2.31511C50.6431 2.31511 54.5788 6.2508 54.5788 11.0547V16.0322C54.5788 16.6688 55.0997 17.1897 55.7363 17.1897C56.373 17.1897 56.8939 16.6688 56.8939 16.0322V11.0547C56.836 4.97749 51.9164 0 45.8392 0C39.7621 0 34.8424 4.91961 34.8424 10.9968V41.6142C34.8424 46.418 30.9068 50.2958 26.1029 50.2958C21.299 50.2958 17.3633 46.3601 17.3633 41.4984V32.3537C25.7556 31.7749 32.4116 24.7138 32.4116 16.2058C32.4116 7.2926 25.119 0 16.2058 0C7.2926 0 0 7.2926 0 16.2058C0 24.7717 6.65595 31.7749 15.0482 32.3537V41.4984C15.0482 47.5756 19.9678 52.5531 26.045 52.5531C32.1222 52.5531 37.0418 47.6334 37.0418 41.5563V10.9968C37.0997 6.19293 41.0354 2.31511 45.8392 2.31511ZM69.7428 57.4727C69.7428 58.8617 69.4534 62.508 66.9646 65.4019C64.5338 68.2379 60.7717 69.6849 55.7363 69.6849C50.701 69.6849 46.881 68.2958 44.4502 65.4019C41.9614 62.508 41.672 58.8617 41.672 57.4727V33.9743C41.672 32.5852 41.9614 28.9389 44.4502 26.045C46.881 23.209 50.6431 21.7621 55.6785 21.7621C60.7138 21.7621 64.4759 23.209 66.9068 26.045C69.3955 28.9968 69.6849 32.5852 69.6849 33.9743V57.4727H69.7428ZM55.6785 19.4469C43.6399 19.4469 39.3569 27.2605 39.3569 33.9743V57.4727C39.3569 64.1865 43.6399 72 55.6785 72C67.717 72 72 64.1865 72 57.4727V33.9743C72 27.3183 67.717 19.4469 55.6785 19.4469Z" fill="#00AEEF"/>
</svg>
