<svg width="25" height="33" viewBox="0 0 25 33" fill="none" xmlns="http://www.w3.org/2000/svg">
<path d="M15.9423 1.34037L14.7135 2.56502L15.9196 3.76736L17.1484 2.54272L15.9423 1.34037Z" stroke="#00AEEF" stroke-miterlimit="10" stroke-linecap="round" stroke-linejoin="round"/>
<path d="M2.18292 11.9649L0.954102 13.1895L2.1602 14.3919L3.38902 13.1672L2.18292 11.9649Z" stroke="#00AEEF" stroke-miterlimit="10" stroke-linecap="round" stroke-linejoin="round"/>
<path d="M10.8163 29.2327L9.58752 30.4573L10.7936 31.6597L12.0224 30.435L10.8163 29.2327Z" stroke="#00AEEF" stroke-miterlimit="10" stroke-linecap="round" stroke-linejoin="round"/>
<path d="M11.9096 16.0407C12.1646 15.6117 12.5153 15.2462 12.9617 14.9602C14.5717 13.9115 16.7238 14.3564 17.7759 15.9453C18.828 17.5501 18.3816 19.6952 16.7875 20.7439C15.1775 21.7926 13.0254 21.3477 11.9733 19.7587C11.527 19.0914 11.3516 18.3128 11.4154 17.5819" stroke="#00AEEF" stroke-miterlimit="10" stroke-linecap="round" stroke-linejoin="round"/>
<path d="M18.6998 15.3416C20.0867 17.439 19.4968 20.2673 17.3926 21.6497C15.2884 23.032 12.4509 22.4441 11.064 20.3467C9.67714 18.2494 10.267 15.4211 12.3712 14.0387C14.4754 12.6722 17.3129 13.2443 18.6998 15.3416Z" stroke="#00AEEF" stroke-miterlimit="10" stroke-linecap="round" stroke-linejoin="round"/>
<path d="M18.6846 20.6168C18.9237 20.7439 19.1309 20.9346 19.2903 21.1729L23.3712 27.3697C23.8813 28.1483 23.6741 29.197 22.893 29.7213L22.6539 29.8802C21.8728 30.3887 20.8207 30.1821 20.2946 29.4036L16.2137 23.2068C16.0543 22.9525 15.9586 22.6824 15.9427 22.3964" stroke="#00AEEF" stroke-miterlimit="10" stroke-linecap="round" stroke-linejoin="round"/>
<path d="M19.6253 23.7152L22.2078 27.624C22.4628 28.0053 22.7019 28.3549 22.4628 28.8792" stroke="#00AEEF" stroke-miterlimit="10" stroke-linecap="round" stroke-linejoin="round"/>
<path d="M18.3978 21.8721L19.0992 22.9367" stroke="#00AEEF" stroke-miterlimit="10" stroke-linecap="round" stroke-linejoin="round"/>
</svg>
