<svg width="67" height="86" viewBox="0 0 67 86" fill="none" xmlns="http://www.w3.org/2000/svg">
<path d="M67 55.6498V47.0043H51.8841V50.235H40.2635L34.5894 47.4138V29.5312H32.4106V47.4138L24.603 51.327L32.4106 55.2402V58.926H8.62466V55.6953H15.1159V47.0498H0V55.6953H6.49119V58.926V60.018V64.3408H0V72.9863H15.1159V64.3408H8.62466V61.1101H32.4106V64.3408H25.9194V72.9863H32.4106V77.309H30.2317C27.8259 77.309 25.9194 79.2656 25.9194 81.6318C25.9194 84.0434 27.8713 85.9545 30.2317 85.9545H36.7683C39.1741 85.9545 41.0806 83.9979 41.0806 81.6318C41.0806 79.2201 39.1287 77.309 36.7683 77.309H34.5894V72.9863H41.0806V64.3408H34.5894V61.1101V58.926V55.2402L40.2635 52.4191H51.8841V55.6498H58.3753V64.4773C56.5142 64.9778 55.1524 66.6614 55.1524 68.6635C55.1524 71.0752 57.1043 72.9863 59.4648 72.9863C61.8706 72.9863 63.7771 71.0297 63.7771 68.6635C63.7771 66.6614 62.4153 64.9778 60.5542 64.4773V55.6498H67V55.6498ZM12.9824 66.4794V70.8022H2.17886V66.4794H12.9824ZM2.17886 53.5111V49.1884H12.9824V53.5111H2.17886ZM36.7683 79.4932C37.9485 79.4932 38.9472 80.4487 38.9472 81.6773C38.9472 82.8604 37.9939 83.8614 36.7683 83.8614H30.2771C29.0969 83.8614 28.0982 82.9059 28.0982 81.6773C28.0982 80.4942 29.0515 79.4932 30.2771 79.4932H36.7683ZM38.9018 66.4794V70.8022H28.0982V66.4794H38.9018ZM33.5 53.3746L29.4146 51.327L33.5 49.2794L37.5854 51.327L33.5 53.3746ZM61.5982 68.6635C61.5982 69.8466 60.645 70.8477 59.4194 70.8477C58.2392 70.8477 57.2405 69.8921 57.2405 68.6635C57.2405 67.4805 58.1938 66.4794 59.4194 66.4794C60.645 66.4794 61.5982 67.4805 61.5982 68.6635ZM54.0176 53.5111V49.1884H64.8211V53.5111H54.0176Z" fill="#00AEEF"/>
<path fill-rule="evenodd" clip-rule="evenodd" d="M44.7103 15.9259C44.3018 15.8804 43.9387 16.1534 43.8933 16.563C43.2124 21.7503 38.7639 25.6635 33.4983 25.6635C27.7334 25.6635 23.0125 20.9312 23.0125 15.1524C23.0125 9.37354 27.7334 4.64127 33.4983 4.64127C38.7185 4.64127 43.2124 8.5545 43.8933 13.7418C43.9387 14.1513 44.3018 14.4243 44.7103 14.3788C45.1189 14.3333 45.3912 13.9693 45.3458 13.5598C44.5742 7.68994 39.4902 3.18518 33.4983 3.18518C26.9163 3.18518 21.5599 8.55449 21.5599 15.1979C21.5599 21.7958 26.9163 27.1651 33.4983 27.1651C39.4902 27.1651 44.5742 22.7058 45.3458 16.745C45.3912 16.3354 45.1189 15.9714 44.7103 15.9259ZM37.0389 15.9714C36.8574 16.1534 36.812 16.3809 36.812 16.6085L37.4021 20.5672L33.816 18.7926C33.7252 18.7471 33.5891 18.7016 33.4983 18.7016C33.4075 18.7016 33.2713 18.7471 33.1805 18.7926L29.5945 20.5672L30.1846 16.6085C30.23 16.3809 30.1392 16.1534 29.9576 15.9714L27.1433 13.1048L31.0925 12.4222C31.3194 12.3767 31.501 12.2402 31.6372 12.0127L33.4983 8.46349L35.3594 12.0127C35.4502 12.2402 35.6771 12.3767 35.9041 12.4222L39.8533 13.1048L37.0389 15.9714ZM42.0776 12.3767C41.9868 12.1037 41.7598 11.9217 41.4874 11.8762L36.4942 11.0571L34.1792 6.55238C34.043 6.32486 33.816 6.14285 33.5437 6.14285C33.2713 6.14285 32.999 6.27936 32.9082 6.55238L30.5931 11.0571L25.5999 11.8762C25.3276 11.9217 25.1006 12.1037 25.0098 12.3767C24.919 12.6497 25.0098 12.9227 25.1914 13.1048L28.732 16.6995L28.0057 21.7048C27.9603 21.9778 28.0965 22.2508 28.3235 22.4328C28.5505 22.6148 28.8228 22.6148 29.0952 22.4783L33.6345 20.2032L38.1738 22.4783C38.2645 22.5238 38.4007 22.5693 38.4915 22.5693C38.6277 22.5693 38.8093 22.5238 38.9454 22.4328C39.1724 22.2508 39.2632 21.9778 39.2632 21.7048L38.5369 16.6995L42.0776 13.1048C42.0776 12.9683 42.1229 12.6497 42.0776 12.3767ZM20.062 15.1979C20.062 7.73545 26.0992 1.7291 33.4983 1.7291C40.8973 1.7291 46.9346 7.78095 46.9346 15.1979C46.9346 22.6148 40.8973 28.6667 33.4983 28.6667C26.0992 28.6667 20.062 22.6148 20.062 15.1979ZM52.6995 41.6349L47.2523 28.4392L46.5715 26.7556C46.4353 26.3915 45.9813 26.2095 45.6182 26.346C45.2551 26.4825 45.0735 26.9376 45.2097 27.3016L50.7476 40.7249L45.6636 39.2688C45.3458 39.1778 44.9827 39.3143 44.8011 39.6328L42.2591 44.2741L36.3126 29.8497C43.2124 28.5302 48.3872 22.4328 48.3872 15.1524C48.3872 6.9164 41.7144 0.182007 33.4529 0.182007C25.2368 0.182007 18.5186 6.8709 18.5186 15.1524C18.5186 18.4741 19.608 21.5683 21.4692 24.0709L14.2063 41.5894C14.1155 41.8624 14.1609 42.1354 14.3425 42.363C14.524 42.5905 14.8418 42.6815 15.1141 42.5905L21.106 40.8614L24.1019 46.3217C24.2381 46.5492 24.4651 46.6857 24.7374 46.6857H24.7828C25.0552 46.6857 25.3276 46.5037 25.4183 46.2307L31.1379 32.3524C31.274 31.9884 31.1378 31.5333 30.7293 31.3968C30.3662 31.2603 29.9122 31.3968 29.7761 31.8063L24.6921 44.2741L22.15 39.6328C21.9685 39.3143 21.6053 39.1778 21.2876 39.2688L16.2036 40.7249L22.5586 25.345C25.2822 28.2571 29.1406 30.0772 33.4529 30.0772C33.9068 30.0772 34.3154 30.0772 34.7693 30.0317L41.4421 46.2307C41.5328 46.5037 41.8052 46.6857 42.0776 46.6857H42.1229C42.3953 46.6857 42.6223 46.5492 42.7584 46.3217L45.7544 40.8614L51.7463 42.5905C52.0186 42.6815 52.3364 42.5905 52.5179 42.363C52.7903 42.181 52.8357 41.9079 52.6995 41.6349Z" fill="#00AEEF"/>
<path d="M42.2145 46.9587H42.1691C41.8059 46.9587 41.4882 46.6857 41.352 46.3672L34.6792 30.3048C34.2707 30.3503 33.9076 30.3503 33.499 30.3503C29.459 30.3503 25.5099 28.6667 22.6955 25.8L16.6582 40.4063L21.2883 39.0868C21.6969 38.9503 22.1962 39.1778 22.4231 39.5418L24.7382 43.7735L29.686 31.7608C29.8676 31.2603 30.4577 31.0328 30.957 31.2148C31.184 31.3058 31.3656 31.4878 31.5017 31.7608C31.5925 31.9884 31.5925 32.2614 31.5017 32.4889L25.7822 46.3672C25.646 46.7312 25.3283 46.9587 24.9198 46.9587H24.8744C24.5112 46.9587 24.1935 46.7767 24.0119 46.4582L21.1067 41.1344L15.2964 42.818C14.9333 42.909 14.5702 42.818 14.2978 42.545C14.0708 42.272 13.9801 41.8624 14.1162 41.5439L21.2883 24.1164C19.3818 21.5228 18.3832 18.4286 18.3832 15.1524C18.3378 6.8254 25.1467 0 33.499 0C41.8513 0 48.6603 6.8254 48.6603 15.1979C48.6603 22.3873 43.6216 28.5757 36.6765 30.0317L42.3506 43.7735L44.6657 39.5418C44.8927 39.1323 45.3466 38.9503 45.8005 39.0868L50.4306 40.4063L44.9834 27.4381C44.8019 26.9376 45.0288 26.3915 45.5282 26.164C46.0275 25.982 46.5722 26.2095 46.7992 26.7101L52.9272 41.5894C53.0634 41.9534 53.018 42.3175 52.7456 42.5905C52.5641 42.818 52.2917 42.909 52.0193 42.909C51.9286 42.909 51.8378 42.909 51.747 42.8635L45.9367 41.1799L43.0315 46.5037C42.8954 46.7767 42.5322 46.9587 42.2145 46.9587ZM34.9516 29.8497L41.7151 46.1852C41.8059 46.3672 41.9875 46.5037 42.1691 46.5037L42.2145 46.7312V46.5037C42.396 46.5037 42.5776 46.4127 42.6684 46.2307L45.7551 40.5884L51.8832 42.363C51.9286 42.363 51.974 42.363 52.0193 42.363C52.1555 42.363 52.2917 42.3175 52.3825 42.181C52.5187 42.0444 52.5641 41.8169 52.4733 41.6349L46.3452 26.8466C46.2544 26.5735 45.9367 26.4825 45.6643 26.5735C45.392 26.6646 45.2558 26.9831 45.392 27.2561L51.1115 41.1344L45.5735 39.5418C45.3466 39.4963 45.0742 39.5873 44.9834 39.7693L42.2145 44.8201L35.9956 29.7132L36.268 29.6677C43.1677 28.3481 48.1609 22.2508 48.1609 15.1979C48.2063 7.05291 41.6244 0.455026 33.499 0.455026C25.4191 0.455026 18.7917 7.05291 18.7917 15.1979C18.7917 18.3831 19.7903 21.4317 21.6969 23.9799L21.7876 24.0709L21.7422 24.2074L14.4794 41.7259C14.3886 41.9079 14.434 42.1354 14.5702 42.272C14.7063 42.4085 14.8879 42.4995 15.1149 42.4085L21.2429 40.6339L24.3296 46.2762C24.4204 46.4582 24.602 46.5492 24.7836 46.5492C25.0105 46.5492 25.1921 46.4127 25.2375 46.2307L31.0024 32.3069C31.0478 32.1704 31.0478 32.0339 31.0024 31.8974C30.957 31.7608 30.8662 31.6698 30.73 31.6243C30.4577 31.5333 30.1853 31.6698 30.0492 31.8974L24.7382 44.8201L21.9692 39.7693C21.833 39.5418 21.6061 39.4508 21.3791 39.5418L15.8412 41.1344L22.5139 24.981L22.7409 25.254C25.5099 28.2116 29.4137 29.9407 33.4536 29.9407C33.8622 29.9407 34.3161 29.9407 34.77 29.8952L34.9516 29.8497ZM33.499 28.8942C25.9638 28.8942 19.8357 22.7513 19.8357 15.1979C19.8357 7.64444 25.9638 1.50159 33.499 1.50159C41.0343 1.50159 47.1623 7.64444 47.1623 15.1979C47.1623 22.7513 41.0343 28.8942 33.499 28.8942ZM33.499 1.95661C26.2361 1.95661 20.2897 7.91746 20.2897 15.1979C20.2897 22.4783 26.2361 28.4392 33.499 28.4392C40.7619 28.4392 46.7084 22.4783 46.7084 15.1979C46.7084 7.87196 40.8073 1.95661 33.499 1.95661ZM33.499 27.3926C26.7809 27.3926 21.3337 21.9323 21.3337 15.1979C21.3337 8.46349 26.7809 2.95767 33.499 2.95767C39.5817 2.95767 44.7565 7.50794 45.5735 13.5598C45.6643 14.1058 45.2558 14.5608 44.7565 14.6519C44.2118 14.7429 43.7578 14.3333 43.667 13.8328C42.9861 8.73651 38.6284 4.91429 33.499 4.91429C27.8249 4.91429 23.2402 9.51005 23.2402 15.1979C23.2402 20.8857 27.8249 25.4815 33.499 25.4815C38.6284 25.4815 42.9861 21.6593 43.667 16.563C43.7578 16.0169 44.2118 15.6529 44.7565 15.7439C45.0288 15.7894 45.2558 15.9259 45.392 16.1079C45.5282 16.3355 45.6189 16.563 45.5735 16.836C44.8019 22.8423 39.5817 27.3926 33.499 27.3926ZM33.499 3.4127C27.0532 3.4127 21.7876 8.69101 21.7876 15.1979C21.7876 21.7048 27.0532 26.9376 33.499 26.9376C39.3547 26.9376 44.3479 22.5693 45.1196 16.745C45.1196 16.6085 45.1196 16.472 45.0288 16.381C44.938 16.2899 44.8019 16.1989 44.6657 16.1989C44.3933 16.1534 44.121 16.381 44.0756 16.654C43.3947 21.9778 38.81 25.982 33.4536 25.982C27.5525 25.982 22.7409 21.1587 22.7409 15.2434C22.7409 9.32804 27.5525 4.50476 33.4536 4.50476C38.81 4.50476 43.3493 8.50899 44.0756 13.8328C44.121 14.1058 44.3479 14.3333 44.6657 14.2878C44.938 14.2423 45.165 13.9693 45.1196 13.6963C44.3479 7.82646 39.3547 3.4127 33.499 3.4127ZM38.3561 22.8423C38.2199 22.8423 38.0383 22.7968 37.9475 22.7513L33.5444 20.5217L29.0959 22.7513C28.7782 22.8878 28.3696 22.8878 28.0973 22.6603C27.8249 22.4328 27.6433 22.0688 27.6887 21.7503L28.415 16.836L24.9651 13.2868C24.6928 13.0138 24.602 12.6497 24.7382 12.2857C24.829 11.9217 25.1467 11.6942 25.5099 11.6487L30.3669 10.8296L32.6366 6.46138C32.8181 6.14286 33.1359 5.96085 33.499 5.96085C33.8622 5.96085 34.1799 6.14286 34.3615 6.46138L36.6311 10.8296L41.4882 11.6487C41.8513 11.6942 42.1237 11.9672 42.2599 12.2857C42.3506 12.6497 42.3053 13.0138 42.0329 13.2868L38.583 16.836L39.3093 21.7503C39.3547 22.1143 39.2185 22.4783 38.9008 22.6603C38.7646 22.7968 38.5376 22.8423 38.3561 22.8423ZM33.499 20.0212L38.1291 22.3418C38.3107 22.4328 38.4922 22.3873 38.6738 22.2963C38.81 22.1598 38.9008 21.9778 38.9008 21.7958L38.1291 16.654L41.7605 12.9683C41.8967 12.8317 41.9421 12.6497 41.8967 12.4677C41.8513 12.2857 41.6698 12.1492 41.4882 12.1037L36.4042 11.2392L33.9983 6.64339C33.8168 6.27937 33.2721 6.27937 33.0905 6.64339L30.6847 11.2392L25.6006 12.1037C25.4191 12.1492 25.2375 12.2857 25.1921 12.4677C25.1467 12.6497 25.1921 12.8317 25.3283 12.9683L28.9597 16.654L28.1427 21.7958C28.0973 21.9778 28.188 22.1598 28.3696 22.2963C28.5058 22.3873 28.7328 22.4328 28.9143 22.3418L33.499 20.0212ZM37.7206 20.9767L33.7714 18.9746C33.6352 18.8836 33.4536 18.8836 33.3174 18.9746L29.3683 20.9767L30.0038 16.563C30.0492 16.4265 29.9584 16.2444 29.8676 16.1079L26.7809 12.9228L31.1386 12.1947C31.2748 12.1492 31.4563 12.0582 31.5017 11.9217L33.5444 7.96296L35.5871 11.9217C35.6779 12.0582 35.8141 12.1492 35.9502 12.1947L40.308 12.9228L37.2212 16.1079C37.1305 16.2444 37.0397 16.381 37.0851 16.563L37.7206 20.9767ZM27.6433 13.2868L30.1399 15.8349C30.3669 16.0624 30.4577 16.3354 30.4123 16.654L29.8676 20.2032L33.0451 18.6106C33.3174 18.4741 33.6352 18.4741 33.9076 18.6106L37.0851 20.2032L36.5403 16.654C36.495 16.3354 36.5857 16.0624 36.8127 15.8349L39.3093 13.2868L35.8595 12.6952C35.5417 12.6497 35.3147 12.4677 35.1786 12.1947L33.5444 9.00952L31.9103 12.1947C31.7741 12.4677 31.5017 12.6497 31.2294 12.6952L27.6433 13.2868Z" fill="#00AEEF"/>
<path fill-rule="evenodd" clip-rule="evenodd" d="M45.3929 23.7068L47.4356 28.8486C47.4356 28.8486 46.1192 29.5766 46.0738 29.4401C46.0284 29.3036 44.2581 25.0264 44.2581 25.0264" fill="#00AEEF"/>
<path d="M46.0738 29.6677C46.0284 29.6677 46.0284 29.6677 45.983 29.6677L45.8922 29.6222L45.8468 29.5312C45.8015 29.3947 44.0311 25.1174 44.0311 25.1174L44.4397 24.9354C44.4397 24.9354 45.8922 28.3936 46.21 29.1671C46.3916 29.0761 46.8001 28.8941 47.1632 28.7121L45.2113 23.7523L45.6199 23.5703L47.708 28.8941L47.5264 28.9851C46.5731 29.5767 46.2554 29.6677 46.0738 29.6677Z" fill="#00AEEF"/>
<path fill-rule="evenodd" clip-rule="evenodd" d="M30.5939 33.8995L32.3188 29.8043L30.9117 29.2128L29.0959 33.7175L30.5939 33.8995Z" fill="#00AEEF"/>
<path d="M30.7306 34.1725L28.7333 33.8995L30.776 28.9397L32.5917 29.7132L30.7306 34.1725ZM29.4142 33.5355L30.4582 33.672L32.0016 29.9408L31.0029 29.5312L29.4142 33.5355Z" fill="#00AEEF"/>
</svg>
