<svg width="82" height="78" viewBox="0 0 82 78" fill="none" xmlns="http://www.w3.org/2000/svg">
<g clip-path="url(#clip0)">
<path d="M52.208 44.015H29.7914V45.9626H52.208V44.015Z" fill="#00AEEF"/>
<path d="M52.208 49.3708H29.7914V51.3184H52.208V49.3708Z" fill="#00AEEF"/>
<path d="M52.208 54.7266H29.7914V56.6741H52.208V54.7266Z" fill="#00AEEF"/>
<path d="M52.208 60.0824H29.7914V62.03H52.208V60.0824Z" fill="#00AEEF"/>
<path d="M41.873 7.05992C41.679 7.30336 41.3393 7.44943 40.9997 7.44943C40.66 7.44943 40.3689 7.30336 40.1263 7.05992C39.7866 6.6704 39.1074 6.62172 38.7192 6.96254C38.331 7.30336 38.2825 7.93632 38.6222 8.37452C39.2044 9.05617 40.0778 9.44568 40.9511 9.44568C41.873 9.44568 42.6979 9.05617 43.2801 8.37452C43.4742 8.17977 43.5227 7.93632 43.5227 7.64419C43.5227 7.40074 43.3772 7.1573 43.1831 6.96254C42.8435 6.62172 42.2127 6.6704 41.873 7.05992Z" fill="#00AEEF"/>
<path d="M41.0001 0C37.5066 0 34.6924 2.82397 34.6924 6.32959C34.6924 9.83521 37.5066 12.6592 41.0001 12.6592C44.4936 12.6592 47.3078 9.83521 47.3078 6.32959C47.3078 2.82397 44.4936 0 41.0001 0ZM45.3669 6.32959C45.3669 8.71536 43.4261 10.6629 41.0486 10.6629C38.6711 10.6629 36.7303 8.71536 36.7303 6.32959C36.7303 3.94382 38.6711 1.99625 41.0486 1.99625C43.3776 1.99625 45.3669 3.94382 45.3669 6.32959Z" fill="#00AEEF"/>
<path d="M41.0001 13.0974C35.1291 13.0974 30.3741 17.8689 30.3741 23.7603C30.3741 24.2959 30.8108 24.7341 31.3445 24.7341H32.9942H33.7705H36.1966H40.2723H50.7043C51.238 24.7341 51.6747 24.2959 51.6747 23.7603C51.6747 17.9176 46.8711 13.0974 41.0001 13.0974ZM33.7705 22.7865H32.9942H32.412C32.8972 18.4532 36.6333 15.0937 41.0001 15.0937C45.4155 15.0937 49.1031 18.4532 49.5883 22.7865H40.2238H36.1481H33.7705Z" fill="#00AEEF"/>
<path d="M40.9999 33.5469C40.3207 33.5469 39.7869 33.0113 39.7869 32.3296V28.4345C39.7869 27.7529 40.3207 27.2173 40.9999 27.2173C41.6792 27.2173 42.213 27.7529 42.213 28.4345V32.3296C42.213 32.9626 41.6792 33.5469 40.9999 33.5469Z" fill="#00AEEF"/>
<path d="M11.499 45.5243C11.3049 45.7677 10.9652 45.9138 10.6256 45.9138C10.2859 45.9138 9.99481 45.7677 9.75221 45.5243C9.41256 45.1348 8.73327 45.0861 8.34511 45.4269C7.95694 45.7677 7.90842 46.4007 8.24807 46.8389C8.83031 47.5205 9.70369 47.91 10.5771 47.91C11.4504 47.91 12.3238 47.5205 12.9061 46.8389C13.1001 46.6441 13.1487 46.4007 13.1487 46.1085C13.1487 45.8651 13.0031 45.6217 12.809 45.4269C12.5179 45.0861 11.8386 45.1348 11.499 45.5243Z" fill="#00AEEF"/>
<path d="M10.626 38.4644C7.1325 38.4644 4.3183 41.2883 4.3183 44.7939C4.3183 48.2996 7.1325 51.1235 10.626 51.1235C14.1195 51.1235 16.9337 48.2996 16.9337 44.7939C16.9822 41.2883 14.1195 38.4644 10.626 38.4644ZM14.9929 44.7939C14.9929 47.1797 13.052 49.1273 10.6745 49.1273C8.297 49.1273 6.35617 47.1797 6.35617 44.7939C6.35617 42.4082 8.297 40.4606 10.6745 40.4606C13.052 40.4119 14.9929 42.4082 14.9929 44.7939Z" fill="#00AEEF"/>
<path d="M10.626 51.5618C4.75503 51.5618 0 56.3333 0 62.2247C0 62.7603 0.436686 63.1985 0.970414 63.1985H2.62012H3.39645H5.82249H9.89822H20.3302C20.8639 63.1985 21.3006 62.7603 21.3006 62.2247C21.3006 56.3333 16.497 51.5618 10.626 51.5618ZM3.39645 61.2509H2.62012H2.03787C2.52308 56.9176 6.25917 53.558 10.626 53.558C15.0414 53.558 18.729 56.9176 19.2142 61.2509H9.89822H5.82249H3.39645Z" fill="#00AEEF"/>
<path d="M24.066 52.0487H20.2814C19.6021 52.0487 19.0684 51.5131 19.0684 50.8315C19.0684 50.1498 19.6021 49.6143 20.2814 49.6143H24.066C24.7453 49.6143 25.279 50.1498 25.279 50.8315C25.279 51.5131 24.7453 52.0487 24.066 52.0487Z" fill="#00AEEF"/>
<path d="M70.5004 45.5243C70.6945 45.7677 71.0342 45.9138 71.3738 45.9138C71.7134 45.9138 72.0046 45.7677 72.2472 45.5243C72.5868 45.1348 73.2661 45.0861 73.6543 45.4269C74.0424 45.7677 74.091 46.4007 73.7513 46.8389C73.1691 47.5205 72.2957 47.91 71.4223 47.91C70.5004 47.91 69.6756 47.5205 69.0933 46.8389C68.8992 46.6441 68.8507 46.4007 68.8507 46.1085C68.8507 45.8651 68.9963 45.6217 69.1904 45.4269C69.53 45.0861 70.1608 45.1348 70.5004 45.5243Z" fill="#00AEEF"/>
<path d="M65.0665 44.7939C65.0665 48.2996 67.8807 51.1235 71.3742 51.1235C74.8676 51.1235 77.6818 48.2996 77.6818 44.7939C77.6818 41.2883 74.8676 38.4644 71.3742 38.4644C67.8807 38.4644 65.0665 41.2883 65.0665 44.7939ZM71.3742 40.4119C73.7517 40.4119 75.6925 42.3595 75.6925 44.7453C75.6925 47.131 73.7517 49.0786 71.3742 49.0786C68.9966 49.0786 67.0558 47.131 67.0558 44.7453C67.0073 42.4082 68.9966 40.4119 71.3742 40.4119Z" fill="#00AEEF"/>
<path d="M60.6996 62.2247C60.6996 62.7603 61.1363 63.1985 61.67 63.1985H72.102H76.1777H78.6037H79.3801H81.0298C81.5635 63.1985 82.0002 62.7603 82.0002 62.2247C82.0002 56.3333 77.2452 51.5618 71.3741 51.5618C65.5031 51.5618 60.6996 56.3333 60.6996 62.2247ZM76.2262 61.2509H72.1505H62.786C63.2712 56.9176 67.0073 53.558 71.3741 53.558C75.7895 53.558 79.4771 56.9176 79.9623 61.2509H79.3801H78.6037H76.2262Z" fill="#00AEEF"/>
<path d="M61.7183 52.0487H57.9337C57.2544 52.0487 56.7207 51.5131 56.7207 50.8315C56.7207 50.1498 57.2544 49.6143 57.9337 49.6143H61.7183C62.3976 49.6143 62.9314 50.1498 62.9314 50.8315C62.9314 51.5131 62.3976 52.0487 61.7183 52.0487Z" fill="#00AEEF"/>
<path d="M52.2079 44.015H29.7914V45.9626H52.2079V44.015Z" fill="#00AEEF"/>
<path d="M52.2079 49.3708H29.7914V51.3184H52.2079V49.3708Z" fill="#00AEEF"/>
<path d="M52.2079 54.7266H29.7914V56.6741H52.2079V54.7266Z" fill="#00AEEF"/>
<path d="M52.2079 60.0824H29.7914V62.03H52.2079V60.0824Z" fill="#00AEEF"/>
<path d="M57.4486 78H30.3741C26.4924 78 23.3386 75.176 23.3386 71.6704V37.9288C23.3386 34.4232 26.4924 31.5992 30.3741 31.5992H57.4486C58.1279 31.5992 58.6616 32.1348 58.6616 32.8165V76.7828C58.6616 77.4157 58.1279 78 57.4486 78ZM30.3741 34.0337C27.851 34.0337 25.7646 35.7865 25.7646 37.9288V71.6704C25.7646 73.8127 27.851 75.5655 30.3741 75.5655H56.2356V34.0337H30.3741Z" fill="#00AEEF"/>
</g>
<defs>
<clipPath id="clip0">
<rect width="82" height="78" fill="white"/>
</clipPath>
</defs>
</svg>
