<svg width="71" height="73" viewBox="0 0 71 73" fill="none" xmlns="http://www.w3.org/2000/svg">
<path d="M24.3893 60.8879H4.66455V62.7585H24.3893V60.8879Z" fill="#00AEEF"/>
<path d="M24.3893 66.1255H4.66455V67.9961H24.3893V66.1255Z" fill="#00AEEF"/>
<path fill-rule="evenodd" clip-rule="evenodd" d="M35.5684 24.5516C34.044 24.5516 32.7506 23.6163 32.7506 21.6989H30.9028C30.9028 24.5516 32.9816 26.4222 35.5684 26.4222C38.1553 26.4222 40.234 24.5516 40.234 21.6989H38.3862C38.34 23.5695 37.0928 24.5516 35.5684 24.5516ZM69.1052 5.09737L68.0889 4.58296L69.1052 3.78796V5.09737ZM64.7629 16.9757H62.1299L66.7955 6.03267L68.8742 7.0615L64.7629 16.9757ZM67.0265 18.893C67.165 19.8283 67.2112 20.8104 67.2112 21.7457V25.2063C67.2112 32.7822 63.5157 39.8437 57.3719 44.1461L56.9562 44.4266V56.679H38.34V48.1678H29.0551V36.6169L23.0037 35.214L28.4545 25.3466L28.4084 25.0192C28.0388 22.9616 28.0388 20.7636 28.3622 18.8463H29.0551H38.34H67.0265V18.893ZM33.7207 9.44651C33.2125 9.44651 32.7968 9.02562 32.7968 8.51121C32.7968 7.9968 33.2125 7.57591 33.7207 7.57591C34.2288 7.57591 34.6445 7.9968 34.6445 8.51121C34.6445 9.02562 34.2288 9.44651 33.7207 9.44651ZM27.1611 8.51121C27.1611 4.86355 30.0713 1.91736 33.6745 1.91736C37.2776 1.91736 40.1878 4.86355 40.1878 8.51121C40.1878 10.8495 38.9406 13.0474 36.908 14.2165L36.4923 14.4971V16.9757H34.6445V11.1768C35.707 10.8027 36.4923 9.7271 36.4923 8.51121C36.4923 6.96797 35.2451 5.65855 33.6745 5.65855C32.1039 5.65855 30.8566 6.9212 30.8566 8.51121C30.8566 9.7271 31.6419 10.7559 32.7044 11.1768V16.9757H30.8566V14.4971L30.3947 14.2165C28.4084 13.0474 27.1611 10.8495 27.1611 8.51121ZM44.4376 8.83856L45.5463 11.3639C43.6061 11.5042 42.0817 13.1409 42.0817 15.1051V16.9757H38.34V15.5727C40.1878 14.3101 41.4812 12.3459 41.897 10.148L44.4376 8.83856ZM48.087 16.9757H43.9295V15.1051C43.9295 14.0762 44.761 13.1877 45.7773 13.1877H46.3778L48.087 16.9757ZM45.5001 3.18001L49.1956 4.77002L48.3179 5.1909L51.0896 11.2703H47.5788L45.3153 6.21973L44.4838 6.64061L45.5001 3.18001ZM53.6764 16.9757H50.1195L48.4103 13.1877H51.921L53.6764 16.9757ZM57.0024 3.78796V1.91736H58.8501V3.78796H57.0024ZM70.9991 0L65.5944 4.11531L60.1436 16.9757H55.7551L54.046 13.1877H55.1546C57.2333 13.1877 58.8963 11.5042 58.8963 9.44651V5.65855H60.7441V0H55.1546V5.65855H57.0024V9.44651C57.0024 10.4753 56.1709 11.3171 55.1546 11.3171H53.1683L50.7662 6.07944L53.6302 4.62972L44.2991 0.607944L42.0817 8.41768C42.0356 3.78796 38.2938 0 33.7207 0C29.1013 0 25.3134 3.78796 25.3134 8.51121C25.3134 11.3171 26.7454 13.9827 29.0551 15.5727V16.9757H26.7916L26.653 17.7707C26.191 20.1557 26.1449 22.5874 26.5144 25.0192L20.1396 36.4766L27.1611 38.1134V49.9917H36.4923V58.5029H58.8501V45.3619C65.3635 40.6855 69.1052 33.1563 69.1052 25.1595V21.6989C69.1052 20.3895 68.9666 19.0801 68.7356 17.7707L68.597 16.9757H66.7493L70.9529 6.78091V0H70.9991Z" fill="#00AEEF"/>
<path d="M43.4223 57.2869L42.7755 57.1933C42.637 57.1933 42.5446 57.1466 42.406 57.0998C42.3136 57.0998 42.2212 57.0531 42.1288 57.0063C42.0364 57.0063 41.9902 57.0063 41.8979 57.0063V71.176H1.84776V28.4797C1.84776 25.1126 4.57319 22.3535 7.89915 22.3535H27.8087C27.6701 21.9794 27.6239 21.5585 27.6701 21.1844C27.6701 20.9506 27.7163 20.7167 27.8087 20.4829H7.94535C3.55693 20.4829 0 24.0838 0 28.4797V72.9999H43.7918V57.2401C43.6994 57.2869 43.5608 57.2869 43.4223 57.2869Z" fill="#00AEEF"/>
<path d="M24.3893 45.3152H4.66455V47.1858H24.3893V45.3152Z" fill="#00AEEF"/>
<path d="M24.3893 40.0774H4.66455V41.948H24.3893V40.0774Z" fill="#00AEEF"/>
<path d="M16.0758 27.217L9.42393 34.793L8.22288 32.9691L6.69849 33.998L9.19296 37.8794L17.4617 28.4329L16.0758 27.217Z" fill="#00AEEF"/>
<path d="M24.3893 50.5061H4.66455V52.3767H24.3893V50.5061Z" fill="#00AEEF"/>
<path d="M24.3893 55.697H4.66455V57.5676H24.3893V55.697Z" fill="#00AEEF"/>
</svg>
