<svg width="33" height="46" viewBox="0 0 33 46" fill="none" xmlns="http://www.w3.org/2000/svg">
<path d="M11.7384 21.0616C12.2675 21.1094 12.6524 21.3009 13.0372 21.6838L12.484 22.4018C12.1954 22.0907 11.9067 21.9471 11.57 21.9471C11.1852 21.9471 10.8484 22.2104 10.8484 22.5215C10.8484 22.713 10.9687 22.8566 11.1611 23.0002C11.2573 23.048 11.4016 23.1198 11.7624 23.2634C12.2675 23.4549 12.5562 23.6464 12.7726 23.8378C13.0613 24.1011 13.2056 24.4601 13.2056 24.8909C13.2056 25.7764 12.6524 26.4226 11.7143 26.638V27.4996H11.1852V26.6859C10.4155 26.662 9.79012 26.303 9.35718 25.6568L9.98254 25.0106C10.3674 25.5371 10.7522 25.7525 11.2573 25.7525C11.7384 25.7525 12.0992 25.4414 12.0992 25.0106C12.0992 24.6516 11.9308 24.484 11.3054 24.2208C10.7522 23.9814 10.4395 23.8139 10.2471 23.6703C9.93444 23.431 9.76607 23.048 9.76607 22.5933C9.76607 22.0668 10.0306 21.5642 10.4636 21.277C10.6801 21.1334 10.8484 21.0855 11.1852 21.0137V20.2H11.7143V21.0616H11.7384Z" fill="#00AEEF"/>
<path d="M11.9787 27.7627H10.9685V26.9251C10.2229 26.8293 9.62157 26.4464 9.18862 25.8002L9.06836 25.6327L10.0305 24.6514L10.1988 24.8668C10.5356 25.3215 10.8482 25.513 11.2812 25.513C11.6179 25.513 11.8825 25.2976 11.8825 25.0104C11.8825 24.8189 11.8584 24.6993 11.2331 24.436C10.6558 24.1967 10.3191 24.0291 10.1267 23.8616C9.76588 23.5744 9.54941 23.1197 9.54941 22.617C9.54941 22.0187 9.86209 21.4204 10.3672 21.1092C10.5596 20.9896 10.728 20.9178 10.9685 20.846V19.9844H11.9787V20.822C12.4598 20.9178 12.8446 21.1092 13.2294 21.4922L13.3738 21.6358L12.5079 22.7846L12.3154 22.5692C12.0749 22.3059 11.8584 22.1862 11.5698 22.1862C11.3052 22.1862 11.0888 22.3538 11.0888 22.5213C11.0888 22.5452 11.0888 22.6649 11.3052 22.8085C11.3774 22.8564 11.5698 22.9521 11.8584 23.0479C12.3876 23.2633 12.7003 23.4308 12.9408 23.6701C13.2775 23.9573 13.4459 24.4121 13.4459 24.9147C13.4459 25.8481 12.8927 26.5421 11.9547 26.8293V27.7627H11.9787ZM11.4496 27.2841H11.4977V26.4703L11.6901 26.4225C12.5319 26.231 12.9889 25.6805 12.9889 24.9147C12.9889 24.5557 12.8686 24.2445 12.6281 24.0291C12.4357 23.8377 12.1471 23.6941 11.6901 23.5026C11.3052 23.359 11.1369 23.2872 11.0407 23.2154C10.752 23.0239 10.6077 22.7846 10.6077 22.5213C10.6077 22.0666 11.0407 21.7076 11.5698 21.7076C11.9066 21.7076 12.1952 21.8272 12.4598 22.0426L12.7243 21.7076C12.4357 21.4443 12.123 21.3246 11.7141 21.2768L11.4977 21.2528V20.463H11.4496V21.2289L11.2571 21.3007C10.9685 21.3486 10.8242 21.3964 10.6318 21.5161C10.271 21.7554 10.0305 22.1862 10.0305 22.641C10.0305 23 10.1748 23.3111 10.4394 23.5265C10.6077 23.6462 10.9204 23.8137 11.4496 24.0291C12.0509 24.2924 12.3876 24.5078 12.3876 25.0343C12.3876 25.5848 11.9066 26.0156 11.3052 26.0156C10.8001 26.0156 10.3912 25.8241 10.0064 25.3933L9.71778 25.7045C10.1026 26.1831 10.6077 26.4464 11.2331 26.4703H11.4736V27.2841H11.4496Z" fill="#00AEEF"/>
<path d="M11.497 30.539H5.62822C3.84833 30.539 2.23682 28.0978 2.23682 25.4412C2.23682 24.2924 3.07865 22.5452 4.81043 20.0801C4.81043 20.0562 4.85854 20.0083 6.83084 17.2799L6.903 17.1841C7.09542 16.9209 7.48026 16.8491 7.74484 17.0405C8.00941 17.232 8.08157 17.6149 7.88915 17.8782L7.81699 17.974C6.10927 20.2955 5.82064 20.7024 5.79658 20.7502C3.75212 23.6462 3.43944 24.9146 3.43944 25.4172C3.43944 27.6909 4.76233 29.3184 5.62822 29.3184H11.497C11.8338 29.3184 12.0983 29.5817 12.0983 29.9167C12.0983 30.2518 11.8338 30.539 11.497 30.539Z" fill="#00AEEF"/>
<path d="M19.3142 23.5265C19.0977 23.5265 18.8572 23.4068 18.7609 23.1675C18.1356 21.8033 17.2216 20.6545 16.2354 19.4339C15.8265 18.9313 15.4177 18.4047 15.0328 17.8782C14.8404 17.6149 14.8885 17.232 15.1531 17.0405C15.4177 16.8491 15.8025 16.8969 15.9949 17.1602C16.3798 17.6628 16.7646 18.1893 17.1735 18.668C18.1596 19.8886 19.1698 21.1571 19.8433 22.641C19.9876 22.9521 19.8433 23.2872 19.5547 23.4308C19.4825 23.5026 19.3863 23.5265 19.3142 23.5265Z" fill="#00AEEF"/>
<path d="M15.4415 15.9158H7.14344C6.90292 15.9158 6.68645 15.7722 6.59024 15.5568C6.42187 15.15 5.82056 13.7618 5.82056 13.1396C5.82056 11.7275 7.07129 11.0813 8.24986 11.0813H14.3832C15.5378 11.0813 16.8125 11.7275 16.8125 13.1396C16.8125 13.7858 16.1872 15.15 15.9948 15.5568C15.8985 15.7722 15.6821 15.9158 15.4415 15.9158ZM7.52828 14.7192H15.0567C15.3453 14.073 15.5859 13.355 15.5859 13.1396C15.5859 12.3258 14.5757 12.278 14.3592 12.278H8.24986C8.05744 12.278 7.02318 12.3258 7.02318 13.1396C7.02318 13.355 7.26371 14.049 7.52828 14.7192Z" fill="#00AEEF"/>
<path d="M14.3836 18.4765H8.22619C7.19193 18.4765 6.3501 17.6389 6.3501 16.6097C6.3501 15.5806 7.19193 14.7429 8.22619 14.7429H14.3836C15.4179 14.7429 16.2597 15.5806 16.2597 16.6097C16.2838 17.6389 15.4419 18.4765 14.3836 18.4765ZM8.22619 15.9157C7.84135 15.9157 7.55272 16.2268 7.55272 16.5858C7.55272 16.9687 7.8654 17.2559 8.22619 17.2559H14.3836C14.7685 17.2559 15.0571 16.9448 15.0571 16.5858C15.0571 16.2029 14.7444 15.9157 14.3836 15.9157H8.22619Z" fill="#00AEEF"/>
<path d="M20.4927 4.3081C20.9978 4.35596 21.3346 4.5235 21.7194 4.90643L21.1903 5.57657C20.9257 5.28937 20.6611 5.14577 20.3244 5.14577C19.9636 5.14577 19.6509 5.3851 19.6509 5.69623C19.6509 5.86377 19.7471 6.00737 19.9395 6.15097C20.0117 6.19884 20.156 6.27064 20.4927 6.41424C20.9497 6.6057 21.2384 6.7493 21.4308 6.94077C21.6954 7.1801 21.8397 7.5391 21.8397 7.92204C21.8397 8.73577 21.3346 9.33411 20.4446 9.54951V10.3393H19.9636V9.57344C19.242 9.54951 18.6648 9.21444 18.2559 8.61611L18.8331 8.01777C19.1939 8.49644 19.5547 8.71184 20.0117 8.71184C20.4446 8.71184 20.8054 8.40071 20.8054 8.01777C20.8054 7.68271 20.6371 7.51517 20.0598 7.27584C19.5547 7.06044 19.242 6.91684 19.0736 6.77324C18.785 6.5339 18.6166 6.1749 18.6166 5.79197C18.6166 5.3133 18.8572 4.83463 19.2661 4.57136C19.4585 4.42776 19.6269 4.3799 19.9395 4.33203V3.56616H20.4206V4.3081H20.4927Z" fill="#00AEEF"/>
<path d="M20.6128 10.4351H19.8912V9.66922C19.1937 9.59742 18.6164 9.26235 18.2075 8.66402L18.1594 8.59222L18.9051 7.82635L18.9772 7.94601C19.3139 8.40075 19.6266 8.59222 20.0596 8.59222C20.4444 8.59222 20.733 8.35288 20.733 8.01781C20.733 7.77848 20.6368 7.63488 20.0836 7.39555C19.5545 7.18014 19.2418 7.01261 19.0734 6.86901C18.7607 6.62968 18.5683 6.22281 18.5683 5.79201C18.5683 5.26547 18.8569 4.73894 19.2899 4.45174C19.4823 4.33207 19.6266 4.26027 19.8912 4.2124V3.44653H20.6128V4.2124C21.0938 4.2842 21.4546 4.47567 21.7914 4.83467L21.8635 4.90647L21.19 5.74414L21.0938 5.64841C20.8533 5.38514 20.6128 5.26547 20.3241 5.26547C20.0355 5.26547 19.7709 5.45694 19.7709 5.69627C19.7709 5.81594 19.8431 5.93561 20.0115 6.05527C20.0836 6.10314 20.2279 6.17494 20.5406 6.29461C21.0217 6.48608 21.3103 6.65361 21.5268 6.84508C21.8154 7.10834 21.9597 7.49128 21.9597 7.92208C21.9597 8.75975 21.4306 9.40595 20.5647 9.64529V10.4351H20.6128ZM20.1317 10.1958H20.3723V9.42988L20.4685 9.40595C21.2862 9.21448 21.7673 8.66402 21.7673 7.89815C21.7673 7.53915 21.647 7.20408 21.4065 7.01261C21.2141 6.82114 20.9495 6.67754 20.4925 6.51001C20.1317 6.36641 19.9874 6.31854 19.9153 6.24674C19.6747 6.07921 19.5545 5.91167 19.5545 5.69627C19.5545 5.33727 19.9153 5.02614 20.3482 5.02614C20.6609 5.02614 20.9495 5.14581 21.19 5.38514L21.5508 4.90647C21.2381 4.61927 20.9255 4.47567 20.4925 4.4278H20.3963V3.68587H20.1558V4.4278L20.0596 4.45174C19.7709 4.4996 19.6266 4.54747 19.4342 4.66714C19.0734 4.90647 18.8329 5.33727 18.8329 5.79201C18.8329 6.15101 18.9772 6.48608 19.2418 6.67754C19.4102 6.79721 19.6988 6.96474 20.2039 7.15621C20.733 7.37161 21.0217 7.56308 21.0217 7.99388C21.0217 8.44862 20.6128 8.80762 20.1077 8.80762C19.6507 8.80762 19.2658 8.61615 18.9051 8.18535L18.4481 8.61615C18.8329 9.14268 19.362 9.40595 19.9874 9.45382H20.1077V10.1958H20.1317Z" fill="#00AEEF"/>
<path d="M2.66964 1.05299C3.1988 1.10086 3.58364 1.29233 3.96848 1.67526L3.41527 2.39326C3.12664 2.08213 2.83801 1.93853 2.50128 1.93853C2.11644 1.93853 1.7797 2.2018 1.7797 2.51293C1.7797 2.7044 1.89996 2.848 2.09238 2.9916C2.18859 3.03947 2.33291 3.11127 2.6937 3.25487C3.1988 3.44633 3.48743 3.6378 3.7039 3.82927C3.99253 4.09254 4.13684 4.45154 4.13684 4.88234C4.13684 5.76787 3.58364 6.41408 2.64559 6.62948V7.49108H2.14049V6.70128C1.37081 6.67734 0.745445 6.31834 0.3125 5.67214L0.937864 5.02594C1.3227 5.55247 1.70754 5.76787 2.21265 5.76787C2.6937 5.76787 3.05448 5.45674 3.05448 5.02594C3.05448 4.66694 2.88612 4.4994 2.26075 4.23614C1.70754 3.9968 1.39486 3.82927 1.20244 3.68567C0.889759 3.44633 0.721392 3.0634 0.721392 2.60866C0.721392 2.08213 0.985969 1.57953 1.41891 1.29233C1.63539 1.14873 1.80375 1.10086 2.14049 1.02906V0.239258H2.66964V1.05299Z" fill="#00AEEF"/>
<path d="M2.91035 7.75442H1.90015V6.91675C1.15452 6.82102 0.553207 6.43809 0.120262 5.79188L0 5.62435L0.962099 4.64308L1.13047 4.85848C1.4672 5.31321 1.77988 5.50468 2.21283 5.50468C2.54956 5.50468 2.81414 5.28928 2.81414 5.00208C2.81414 4.81061 2.79009 4.69095 2.16472 4.42768C1.58746 4.18835 1.25073 4.02081 1.05831 3.85328C0.697522 3.59001 0.48105 3.13528 0.48105 2.63267C0.48105 2.03434 0.793732 1.436 1.29883 1.12487C1.49125 0.957336 1.68367 0.909469 1.90015 0.861602V0H2.91035V0.837669C3.3914 0.933403 3.77624 1.12487 4.16108 1.5078L4.28134 1.67534L3.41545 2.77627L3.22303 2.56087C2.98251 2.29761 2.76603 2.17794 2.47741 2.17794C2.21283 2.17794 1.99636 2.34547 1.99636 2.51301C1.99636 2.53694 1.99636 2.65661 2.21283 2.80021C2.28499 2.84807 2.47741 2.94381 2.76603 3.03954C3.29519 3.25494 3.60787 3.42248 3.8484 3.66181C4.18513 3.94901 4.3535 4.40375 4.3535 4.88241C4.3535 5.81582 3.80029 6.50989 2.86224 6.79709V7.75442H2.91035ZM2.3812 7.27575H2.4293V6.46202L2.62172 6.41415C3.46356 6.22268 3.92055 5.67222 3.92055 4.90635C3.92055 4.54735 3.80029 4.23621 3.55977 4.02081C3.36735 3.82934 3.07872 3.68574 2.62172 3.49428C2.21283 3.32674 2.06851 3.27888 1.9723 3.20708C1.68367 3.01561 1.53936 2.77627 1.53936 2.51301C1.53936 2.05827 1.9723 1.69927 2.50146 1.69927C2.83819 1.69927 3.12682 1.81894 3.3914 2.03434L3.65598 1.69927C3.36735 1.436 3.05466 1.31634 2.64577 1.26847L2.4293 1.24454V0.478668H2.3812V1.24454L2.16472 1.2924C1.87609 1.34027 1.73178 1.38814 1.56341 1.5078C1.20262 1.74714 0.962099 2.17794 0.962099 2.63267C0.962099 2.99168 1.10641 3.30281 1.37099 3.51821C1.53936 3.63788 1.85204 3.80541 2.3812 4.02081C2.98251 4.28408 3.31924 4.49948 3.31924 5.02601C3.31924 5.57648 2.83819 6.00728 2.23688 6.00728C1.73178 6.00728 1.32289 5.81582 0.938047 5.38502L0.649417 5.69615C1.03426 6.17482 1.53936 6.43809 2.16472 6.46202H2.40525V7.27575H2.3812Z" fill="#00AEEF"/>
<path d="M23.5718 46C23.2591 46 22.9705 45.8803 22.73 45.6889L22.7059 45.6649L15.9472 38.6524C15.5623 38.2934 15.3939 37.7669 15.4902 37.2404C15.6104 36.7138 15.9712 36.283 16.4763 36.1155C17.703 35.6847 18.4005 36.3788 19.0259 36.9771C19.1702 37.1207 19.3386 37.2643 19.5069 37.4318L16.8852 29.7492C16.5485 28.744 17.0776 27.667 18.0878 27.3319C18.5689 27.1644 19.098 27.2123 19.555 27.4277C20.012 27.6431 20.3488 28.0499 20.5171 28.5286L21.6476 31.8075C21.84 31.6639 22.0324 31.5203 22.273 31.4485C23.1388 31.1613 24.0528 31.4964 24.5098 32.2383C24.7023 32.0708 24.9187 31.9272 25.1833 31.8314C26.0492 31.5442 26.9632 31.8793 27.4202 32.6212C27.6126 32.4537 27.8291 32.3101 28.0937 32.2144C29.1039 31.8793 30.1862 32.4058 30.523 33.411L32.856 40.2321C33.0725 40.8783 33.0244 41.5723 32.7358 42.1946C32.4231 42.8169 31.918 43.2716 31.2686 43.487L24.0047 45.9521C23.8364 45.9761 23.7161 46 23.5718 46ZM23.5477 44.8033C23.5718 44.8033 23.5718 44.8033 23.5958 44.8033L30.8597 42.3382C31.1964 42.2185 31.4851 41.9792 31.6534 41.6441C31.8218 41.3091 31.8458 40.9501 31.7256 40.5911L29.3925 33.77C29.2722 33.411 28.8633 33.1956 28.4785 33.3153C28.1418 33.435 27.9493 33.8179 28.0456 34.1769C28.0937 34.3444 28.0696 34.512 27.9734 34.6556C27.8772 34.7992 27.7329 34.8949 27.5404 34.9188C27.5164 34.9188 27.4923 34.9188 27.4683 34.9188C27.2037 34.9188 26.9632 34.7752 26.867 34.512L26.4821 33.3632C26.3619 33.0042 25.953 32.7888 25.5681 32.9324C25.3998 33.0042 25.2555 33.1238 25.1593 33.2914C25.063 33.4589 25.063 33.6504 25.1111 33.8418C25.2074 34.153 25.063 34.488 24.7263 34.6077C24.4136 34.7034 24.0769 34.5598 23.9566 34.2248L23.5237 32.9802C23.4034 32.6212 22.9945 32.4058 22.6097 32.5255C22.2489 32.6452 22.0324 33.052 22.1527 33.435C22.2489 33.7461 22.0805 34.0812 21.7679 34.2008C21.4552 34.2966 21.1184 34.129 20.9982 33.8179L19.2904 28.8637C19.2183 28.6961 19.098 28.5286 18.9297 28.4568C18.7613 28.3611 18.5689 28.3611 18.3765 28.4089C18.0157 28.5286 17.7992 28.9355 17.9195 29.3184L20.7817 37.6472C20.926 38.0302 20.7577 38.4849 20.3969 38.7482C20.0601 38.9875 19.5791 38.9875 19.2423 38.7482C18.7613 38.437 18.4246 38.078 18.1119 37.7908C17.5106 37.1925 17.3181 37.025 16.789 37.2164C16.6928 37.2404 16.5966 37.3361 16.5725 37.4558C16.5485 37.5515 16.5966 37.6712 16.6687 37.743L16.6928 37.7669L23.5477 44.8033Z" fill="#00AEEF"/>
<path d="M10.7754 10.5786C10.4387 10.5786 10.1741 10.3153 10.1741 9.98023C10.1741 8.08949 8.63476 6.55775 6.73461 6.55775C6.39788 6.55775 6.1333 6.29449 6.1333 5.95942C6.1333 5.62435 6.39788 5.36108 6.73461 5.36108C9.30823 5.36108 11.3767 7.44329 11.3767 9.98023C11.3767 10.3153 11.1122 10.5786 10.7754 10.5786Z" fill="#00AEEF"/>
<path d="M14.1191 9.26218C14.071 9.26218 14.0229 9.26218 13.9748 9.23825C13.6621 9.16645 13.4457 8.83138 13.5419 8.52024C13.7102 7.87404 14.1191 7.32357 14.6964 6.96457C15.2736 6.60557 15.9471 6.50984 16.6206 6.67737C16.9333 6.74917 17.1497 7.08424 17.0535 7.39537C16.9573 7.70651 16.6446 7.92191 16.3319 7.82618C15.9952 7.75437 15.6344 7.80224 15.3217 7.96978C15.0091 8.16124 14.8166 8.44844 14.7204 8.78351C14.6242 9.07071 14.3837 9.26218 14.1191 9.26218Z" fill="#00AEEF"/>
<path d="M17.5098 26.5182C17.2693 26.5182 17.0288 26.3506 16.9326 26.1113L16.1869 23.9334C16.0907 23.6222 16.2591 23.2872 16.5718 23.1675C16.8844 23.0718 17.2212 23.2393 17.3414 23.5504L18.0871 25.7284C18.1833 26.0395 18.0149 26.3746 17.7022 26.4942C17.6301 26.5182 17.582 26.5182 17.5098 26.5182Z" fill="#00AEEF"/>
<path d="M20.1318 26.6856C20.0356 26.6856 19.9394 26.6617 19.8672 26.6138C19.5786 26.4702 19.4583 26.1112 19.6027 25.824L20.6129 23.7658C20.7572 23.4786 21.118 23.3589 21.4066 23.5025C21.6952 23.6461 21.8155 24.0051 21.6712 24.2923L20.661 26.3506C20.5648 26.566 20.3483 26.6856 20.1318 26.6856Z" fill="#00AEEF"/>
<path d="M21.8623 28.6723C21.6218 28.6723 21.3813 28.5047 21.2851 28.2654C21.1889 27.9543 21.3572 27.6192 21.6699 27.4995L23.8587 26.7576C24.1714 26.6619 24.5081 26.8294 24.6284 27.1405C24.7246 27.4517 24.5562 27.7867 24.2435 27.9064L22.0547 28.6483C21.9826 28.6483 21.9345 28.6723 21.8623 28.6723Z" fill="#00AEEF"/>
<path d="M13.1802 31.5922C12.9397 31.5922 12.6991 31.4246 12.6029 31.1853C12.5067 30.8742 12.6751 30.5391 12.9878 30.4194L15.1766 29.6775C15.4892 29.5818 15.826 29.7493 15.9462 30.0604C16.0424 30.3716 15.8741 30.7066 15.5614 30.8263L13.3726 31.5682C13.3005 31.5682 13.2524 31.5922 13.1802 31.5922Z" fill="#00AEEF"/>
<path d="M15.5375 28.2414C15.4413 28.2414 15.3451 28.2175 15.2729 28.1696L13.2044 27.1645C12.9158 27.0209 12.7955 26.6619 12.9398 26.3747C13.0841 26.0875 13.4449 25.9678 13.7335 26.1114L15.8021 27.1166C16.0907 27.2602 16.211 27.6192 16.0666 27.9064C15.9704 28.1218 15.754 28.2414 15.5375 28.2414Z" fill="#00AEEF"/>
</svg>
