<svg width="33" height="39" viewBox="0 0 33 39" fill="none" xmlns="http://www.w3.org/2000/svg">
<g clip-path="url(#clip0)">
<path d="M17.5805 4.16896C17.7381 4.16896 17.8731 4.30131 17.8731 4.45572C17.8731 4.65425 18.0532 4.83072 18.2558 4.83072C18.4584 4.83072 18.6385 4.65425 18.6385 4.45572C18.6385 4.01455 18.3684 3.66161 17.9632 3.50719V3.35278C17.9632 3.15425 17.7831 2.97778 17.5805 2.97778C17.3779 2.97778 17.1978 3.15425 17.1978 3.35278V3.50719C16.8151 3.66161 16.5225 4.03661 16.5225 4.45572C16.5225 5.18367 17.1078 5.44837 17.4004 5.58072C17.7606 5.73514 17.8506 5.84543 17.8506 6.0219C17.8506 6.17631 17.7156 6.30867 17.558 6.30867C17.4004 6.30867 17.2653 6.17631 17.2653 6.0219C17.2653 5.82337 17.0853 5.6469 16.8827 5.6469C16.6801 5.6469 16.5 5.82337 16.5 6.0219C16.5 6.46308 16.7701 6.81602 17.1753 6.97043V7.12484C17.1753 7.32337 17.3554 7.49984 17.558 7.49984C17.7606 7.49984 17.9407 7.32337 17.9407 7.12484V6.97043C18.3233 6.81602 18.616 6.44102 18.616 6.0219C18.616 5.29396 18.0307 5.02925 17.7381 4.8969C17.3779 4.74249 17.2879 4.63219 17.2879 4.45572C17.2879 4.30131 17.4229 4.16896 17.5805 4.16896Z" fill="#00AEEF"/>
<path d="M17.5806 10.4779C20.5294 10.4779 22.938 8.11765 22.938 5.22794C22.938 2.33824 20.5294 0 17.5806 0C14.6317 0 12.2231 2.36029 12.2231 5.25C12.2231 8.13971 14.6317 10.4779 17.5806 10.4779ZM17.5806 1.10294C19.9216 1.10294 21.8125 2.95588 21.8125 5.25C21.8125 7.54412 19.9216 9.39706 17.5806 9.39706C15.2395 9.39706 13.3487 7.54412 13.3487 5.25C13.3487 2.95588 15.2395 1.10294 17.5806 1.10294Z" fill="#00AEEF"/>
<path d="M15.4872 8.4487C16.1174 8.84576 16.8378 9.04429 17.5581 9.04429C17.8282 9.04429 18.1209 9.02223 18.4135 8.95605C19.8767 8.64723 21.0472 7.50017 21.3623 6.06635C21.4299 5.77958 21.2498 5.47076 20.9346 5.40458C20.642 5.3384 20.3269 5.51487 20.2593 5.8237C20.0342 6.8384 19.2013 7.65458 18.1659 7.87517C16.6802 8.20605 15.217 7.27958 14.8794 5.8237C14.7218 5.11782 14.8569 4.38988 15.2395 3.79429C15.6222 3.1987 16.2525 2.75752 16.9728 2.60311C18.4585 2.27223 19.9442 3.1987 20.2593 4.65458C20.3269 4.94135 20.6195 5.13988 20.9346 5.0737C21.2273 5.00752 21.4299 4.72076 21.3623 4.41193C20.9121 2.38252 18.8187 1.08105 16.7477 1.52223C14.6543 1.98546 13.3262 4.01488 13.7764 6.06635C14.0015 7.05899 14.6093 7.89723 15.4872 8.4487Z" fill="#00AEEF"/>
<path d="M18.008 33.2649C15.622 33.1767 12.8532 32.8679 10.6247 31.2355C10.3771 31.059 10.0169 31.1032 9.83683 31.3458C9.65675 31.5885 9.70177 31.9414 9.94938 32.1179C12.4255 33.9487 15.3969 34.2796 17.963 34.3679H17.9855C18.2782 34.3679 18.5258 34.1252 18.5483 33.8385C18.5708 33.5296 18.3232 33.287 18.008 33.2649Z" fill="#00AEEF"/>
<path d="M7.99112 26.2941C8.01363 25.9853 7.78853 25.7206 7.47339 25.6985C7.15824 25.6765 6.88812 25.8971 6.86561 26.2059C6.77557 27.2868 7.02318 28.3897 7.63096 29.4265C7.74351 29.603 7.92359 29.7132 8.12618 29.7132C8.21622 29.7132 8.30627 29.6912 8.39631 29.6471C8.66643 29.4927 8.75647 29.1618 8.5989 28.8971C8.12618 28.0368 7.92359 27.1324 7.99112 26.2941Z" fill="#00AEEF"/>
<path d="M25.5943 24.5073C25.0315 24.5073 24.5813 24.9485 24.5813 25.5C24.5813 26.0514 25.0315 26.4926 25.5943 26.4926C26.157 26.4926 26.6072 26.0514 26.6072 25.5C26.6072 24.9485 26.157 24.5073 25.5943 24.5073Z" fill="#00AEEF"/>
<path d="M30.839 23.7795H30.2538C29.691 22.3456 28.7005 21.0221 27.3499 19.9192L28.2954 18.0001C28.3629 17.8677 28.3629 17.7133 28.3179 17.5809C28.2729 17.4486 28.1603 17.3383 28.0252 17.2721C26.337 16.478 24.4911 16.4559 23.1855 17.1839C22.7353 14.7354 20.5518 12.8604 17.9181 12.8604C15.1494 12.8604 12.8759 14.9339 12.5832 17.5589C7.99114 19.0809 4.97476 22.478 4.79468 26.2942C4.72715 26.1839 4.63711 26.0515 4.54707 25.9633C4.18691 25.5883 3.69168 25.3898 3.17395 25.3898C2.6337 25.3898 2.16098 25.5662 1.77831 25.9412C1.46317 26.2501 1.26058 26.6251 1.14802 27.0221C1.03547 26.6471 1.12551 26.228 1.41815 25.9192C1.62074 25.6986 1.62074 25.3456 1.39564 25.1471C1.17053 24.9486 0.810371 24.9486 0.607779 25.1692C-0.27012 26.0956 -0.20259 27.5295 0.72033 28.3677C0.945432 28.5883 1.21555 28.7427 1.50819 28.8751C1.57572 28.9853 1.66576 29.0736 1.7558 29.1618C2.29605 29.7133 3.01637 29.978 3.7367 29.978C4.29946 29.978 4.88472 29.8015 5.35744 29.4706C5.89768 30.9045 6.86562 32.228 8.21624 33.353V36.9265C8.21624 38.1177 9.49932 39.0442 11.1426 39.0442C12.7858 39.0442 14.0689 38.1177 14.0689 36.9265V36.1765C15.2845 36.4633 16.545 36.5956 17.8281 36.5956C18.8636 36.5956 19.8765 36.5074 20.867 36.3309V36.9265C20.867 38.1177 22.1501 39.0442 23.7933 39.0442C25.4366 39.0442 26.7196 38.1177 26.7196 36.9265V33.9045C28.0703 32.9339 29.1282 31.7648 29.8261 30.4633H30.839C32.0546 30.4633 33 29.0074 33 27.1324C33 25.2354 32.0546 23.7795 30.839 23.7795ZM17.9407 13.9633C20.2817 13.9633 22.1726 15.8162 22.1726 18.1104C22.1726 18.4854 22.1276 18.8604 22.015 19.2133H18.9311C18.9536 19.1251 18.9761 19.0148 18.9761 18.9045C18.9761 18.1765 18.3909 17.9118 18.0982 17.7795C17.7381 17.6251 17.648 17.5148 17.648 17.3383C17.648 17.1839 17.7831 17.0515 17.9407 17.0515C18.0982 17.0515 18.2333 17.1839 18.2333 17.3383C18.2333 17.5368 18.4134 17.7133 18.616 17.7133C18.8186 17.7133 18.9986 17.5368 18.9986 17.3383C18.9986 16.8971 18.7285 16.5442 18.3233 16.3898V16.2354C18.3233 16.0368 18.1432 15.8604 17.9407 15.8604C17.7381 15.8604 17.558 16.0368 17.558 16.2354V16.3898C17.1753 16.5442 16.8827 16.9192 16.8827 17.3383C16.8827 18.0662 17.4679 18.3309 17.7606 18.4633C18.1207 18.6177 18.2108 18.728 18.2108 18.9045C18.2108 19.0589 18.0757 19.1912 17.9181 19.1912C17.7606 19.1912 17.6255 19.0589 17.6255 18.9045C17.6255 18.7059 17.4454 18.5295 17.2428 18.5295C17.0402 18.5295 16.8602 18.7059 16.8602 18.9045C16.8602 19.0148 16.8827 19.1251 16.9052 19.2133H15.3745C15.307 19.0368 15.2394 18.8824 15.1944 18.7059C14.8568 17.2501 15.8022 15.8162 17.2879 15.4854C18.7735 15.1545 20.2592 16.0809 20.5744 17.5368C20.6419 17.8236 20.9345 18.0221 21.2497 17.9559C21.5423 17.8898 21.7449 17.603 21.6774 17.2942C21.2722 15.2427 19.1787 13.9412 17.1078 14.3824C15.0143 14.8456 13.6862 16.8751 14.1589 18.9265C14.1814 19.0148 14.204 19.103 14.2265 19.2133H13.8663C13.7763 18.8604 13.7087 18.4854 13.7087 18.1104C13.7087 15.8162 15.5996 13.9633 17.9407 13.9633ZM2.58868 26.7133C2.74625 26.5589 2.94884 26.4706 3.17395 26.4706C3.17395 26.4706 3.17395 26.4706 3.19646 26.4706C3.42156 26.4706 3.62415 26.5589 3.78172 26.7133C4.00682 26.9339 3.98431 27.2648 3.78172 27.4854C3.48909 27.7721 3.10641 27.9265 2.70123 27.9486C2.56617 27.9486 2.45362 27.9486 2.31856 27.9265C2.13847 27.5295 2.25103 27.0442 2.58868 26.7133ZM4.86221 28.4118C4.54707 28.7206 4.11937 28.8751 3.71419 28.853C4.00682 28.7206 4.29946 28.5442 4.52456 28.3015C4.52456 28.3015 4.52456 28.3015 4.54707 28.3015L4.56958 28.2795C4.59209 28.2574 4.6146 28.2354 4.63711 28.2133L4.65962 28.1912C4.77217 28.0589 4.86221 27.9265 4.90723 27.7942C4.92974 27.9706 4.97476 28.1471 4.99727 28.3236C4.95225 28.3236 4.90723 28.3677 4.86221 28.4118ZM30.839 29.3383H29.4659C29.2408 29.3383 29.0607 29.4706 28.9482 29.6471C28.2954 30.9706 27.2149 32.1839 25.7967 33.1324C25.6392 33.2427 25.5491 33.3971 25.5491 33.5956V36.9045C25.5491 37.3898 24.8063 37.9192 23.7483 37.9192C22.6903 37.9192 21.9475 37.3898 21.9475 36.9045V35.6251C21.9475 35.4486 21.8799 35.2942 21.7449 35.1839C21.6098 35.0736 21.4297 35.0515 21.2722 35.0736C20.1467 35.3383 18.9761 35.4706 17.8056 35.4706C16.3649 35.4706 14.9693 35.2721 13.6412 34.9192C13.4611 34.8751 13.281 34.8971 13.146 35.0074C13.0109 35.1177 12.9209 35.2721 12.9209 35.4486V36.9045C12.9209 37.3898 12.178 37.9192 11.1201 37.9192C10.0621 37.9192 9.31924 37.3898 9.31924 36.9045V33.0662C9.31924 32.8898 9.25171 32.7354 9.11665 32.6471C7.06822 31.0148 5.9427 28.8971 5.9427 26.6692C5.9427 23.2721 8.55389 20.228 12.6282 18.7501C12.6508 18.9265 12.6733 19.103 12.7183 19.2795H12.6282C12.3131 19.2795 12.0655 19.5221 12.0655 19.8309C12.0655 20.1398 12.3131 20.3824 12.6282 20.3824H23.2081C23.5232 20.3824 23.7708 20.1398 23.7708 19.8309C23.7708 19.5221 23.5232 19.2795 23.2081 19.2795H23.163C23.2081 19.0368 23.2531 18.7942 23.2756 18.5295C23.2756 18.5295 23.2981 18.5295 23.2981 18.5074C24.086 17.7133 25.5941 17.5589 27.0348 18.0662L26.1569 19.853C26.0443 20.0956 26.1119 20.3604 26.3145 20.5368C27.7776 21.6618 28.8131 23.0295 29.3308 24.5295C29.3984 24.7501 29.6235 24.9045 29.8711 24.9045H30.8615C31.2892 24.9045 31.897 25.7648 31.897 27.1324C31.8745 28.4559 31.2667 29.3383 30.839 29.3383Z" fill="#00AEEF"/>
</g>
<defs>
<clipPath id="clip0">
<rect width="33" height="39" fill="white"/>
</clipPath>
</defs>
</svg>
