<svg width="77" height="86" viewBox="0 0 77 86" fill="none" xmlns="http://www.w3.org/2000/svg">
<path fill-rule="evenodd" clip-rule="evenodd" d="M13.7622 11.8582H10.805V8.92186H7.84786V11.8582H4.77696V14.7945H7.73412V17.7308H10.6913V14.7945H13.6484V11.8582H13.7622ZM5.9712 29.9278H2.95716V32.8641H0V35.8004H2.95716V38.7367H5.91433V35.8004H8.87149V32.8641H5.91433V29.9278H5.9712ZM65.342 8.8654H68.2991V5.92909H71.2563V2.93631H68.2991V0H65.342V2.93631H62.3848V5.87262H65.342V8.8654ZM73.986 23.9987V21.0624H71.0288V23.9987H68.0716V26.935H71.0288V29.9278H73.986V26.9915H76.9431V24.0552H73.986V23.9987ZM46.1773 7.84898L48.7363 9.31714L47.2578 11.8582L44.6987 10.39L46.1773 7.84898ZM53.229 13.8345L54.7075 16.3756L52.1485 17.8437L50.6699 15.3027L53.229 13.8345ZM53.3996 22.5305H56.3567V25.4668H53.3996V22.5305ZM53.229 34.1628L50.6699 32.6947L52.1485 30.1536L54.7075 31.6218L53.229 34.1628ZM23.7142 34.1628L22.2356 31.6218L24.7947 30.1536L26.2733 32.6947L23.7142 34.1628ZM20.5864 22.5305H23.5436V25.4668H20.5864V22.5305ZM23.7142 13.8345L26.2733 15.3027L24.7947 17.8437L22.2356 16.3756L23.7142 13.8345ZM30.8227 7.84898L32.3013 10.39L29.7422 11.8582L28.2637 9.31714L30.8227 7.84898ZM37.0214 6.21142H39.9786V9.14774H37.0214V6.21142ZM43.7319 32.977L42.9926 33.4288V37.3815H40.0355V28.1773C41.7415 27.5561 42.9926 25.9186 42.9926 23.9987C42.9926 21.5706 41.0022 19.5378 38.5 19.5378C36.0547 19.5378 34.0074 21.5141 34.0074 23.9987C34.0074 25.9186 35.2585 27.5561 36.9646 28.1773V37.325H34.0074V33.3723L33.2681 32.9206C30.0266 31.0571 28.0362 27.6126 28.0362 23.9422C28.0362 18.239 32.6994 13.5522 38.5 13.5522C44.2437 13.5522 48.9638 18.1825 48.9638 23.9422C48.9638 27.6691 46.9165 31.1136 43.7319 32.977ZM37.0214 23.9987C37.0214 23.2081 37.7038 22.5305 38.5 22.5305C39.2962 22.5305 39.9786 23.2081 39.9786 23.9987C39.9786 24.7892 39.2962 25.4668 38.5 25.4668C37.647 25.4668 37.0214 24.8457 37.0214 23.9987ZM45.2105 41.7859H43.7319H33.2681H31.7895C31.3914 41.7859 31.0502 41.4471 31.0502 41.0519C31.0502 40.6566 31.3914 40.3178 31.7895 40.3178H45.2105C45.6086 40.3178 45.9498 40.6566 45.9498 41.0519C45.9498 41.4471 45.6086 41.7859 45.2105 41.7859ZM43.7319 46.2469H33.2681C32.87 46.2469 32.5288 45.9081 32.5288 45.5128C32.5288 45.1175 32.87 44.7787 33.2681 44.7787H43.7319C44.13 44.7787 44.4712 45.1175 44.4712 45.5128C44.4712 45.9081 44.13 46.2469 43.7319 46.2469ZM51.921 23.9987C51.921 16.6579 45.8929 10.6724 38.5 10.6724C31.1071 10.6724 25.079 16.6579 25.079 23.9987C25.079 28.4596 27.3538 32.5817 31.0502 35.0663V37.3815C29.3442 37.7203 28.0931 39.2449 28.0931 40.9954C28.0931 42.2942 28.7755 43.48 29.856 44.1011C29.6854 44.4964 29.6285 44.9481 29.6285 45.3999C29.6285 47.4327 31.2777 49.1267 33.3818 49.1267H43.8456C45.8929 49.1267 47.599 47.4892 47.599 45.3999C47.599 44.9481 47.4852 44.4964 47.3715 44.1011C48.3951 43.4235 49.1344 42.2942 49.1344 40.9954C49.1344 39.1884 47.8264 37.7203 46.1773 37.3815V35.0663C49.6462 32.6382 51.921 28.4596 51.921 23.9987Z" fill="#00AEEF"/>
<path fill-rule="evenodd" clip-rule="evenodd" d="M60.508 36.9863H63.067L42.0257 57.8228L35.5427 51.3855C35.2014 51.0467 34.6328 51.0467 34.2916 51.3855L19.6195 65.8976C19.2783 66.2364 19.2783 66.8011 19.6195 67.1399C19.7901 67.3093 20.0175 67.4222 20.245 67.4222C20.4725 67.4222 20.7 67.3093 20.8706 67.1399L34.9171 53.2489L41.457 59.6862C41.7982 60.025 42.3669 60.025 42.7081 59.6862L64.375 38.2285V40.7696C64.375 41.2778 64.7731 41.6166 65.228 41.6166C65.7399 41.6166 66.0811 41.2213 66.0811 40.7696V36.1392C66.0811 35.631 65.683 35.2922 65.228 35.2922H60.508C59.9961 35.2922 59.6549 35.6875 59.6549 36.1392C59.6549 36.6475 60.053 36.9863 60.508 36.9863ZM61.7022 83.7414H15.2975C13.8189 83.7414 12.6815 82.5555 12.6815 81.1438V80.2968H64.375V81.1438C64.375 82.5555 63.1808 83.7414 61.7022 83.7414ZM17.2879 70.9232H59.7118L63.7495 78.4899H13.2502L17.2879 70.9232ZM41.1726 74.9889H35.8839C35.3721 74.9889 35.0308 75.3842 35.0308 75.8359C35.0308 76.3441 35.4289 76.6829 35.8839 76.6829H41.1726C41.6845 76.6829 42.0257 76.2876 42.0257 75.8359C42.0257 75.3842 41.6276 74.9889 41.1726 74.9889ZM66.0811 79.2804C66.0811 79.2239 66.0811 79.2239 66.0811 79.1675V79.111C66.0811 79.0546 66.0811 79.0545 66.0242 78.9981L61.1335 69.8503V48.8444C61.1335 48.3362 60.7354 47.9974 60.2805 47.9974C59.7687 47.9974 59.4275 48.3927 59.4275 48.8444V69.1727H17.6291V44.6094C17.6291 43.1412 18.8233 42.0119 20.245 42.0119H23.9983C24.5102 42.0119 24.8514 41.6166 24.8514 41.1649C24.8514 40.6566 24.4533 40.3178 23.9983 40.3178H20.245C17.7997 40.3178 15.8661 42.2942 15.8661 44.6658V69.9068L10.9754 78.9981C10.9754 78.9981 10.9754 79.0546 10.9186 79.111V79.1675C10.9186 79.2239 10.9186 79.2239 10.9186 79.2804C10.9186 79.3369 10.9186 79.3369 10.9186 79.3934V81.1438C10.9186 83.5719 12.909 85.4918 15.2975 85.4918H61.7022C64.1475 85.4918 66.0811 83.5155 66.0811 81.1438V79.3934C66.1379 79.3369 66.0811 79.2804 66.0811 79.2804Z" fill="#00AEEF" stroke="#00AEEF" stroke-width="0.25" stroke-miterlimit="10"/>
</svg>
