<svg width="46" height="43" viewBox="0 0 46 43" fill="none" xmlns="http://www.w3.org/2000/svg">
<g clip-path="url(#clip0)">
<path d="M30.2144 30.5956L29.2728 24.3104L33.7316 19.7695C34.2578 19.2434 34.4516 18.4681 34.2024 17.7482C33.9808 17.0283 33.3715 16.5023 32.6238 16.3915L26.3649 15.3394L23.4293 9.69093C23.097 9.02641 22.4047 8.61108 21.6569 8.61108C20.9092 8.61108 20.2168 9.02641 19.8845 9.69093L16.9212 15.3394L10.6623 16.3915C9.91459 16.5023 9.30532 17.0283 9.08377 17.7482C8.86221 18.4681 9.02838 19.2434 9.55457 19.7695L14.0133 24.3104L13.0717 30.5956C12.9609 31.3432 13.2656 32.0631 13.8749 32.5061C14.4841 32.9491 15.2873 33.0045 15.9519 32.6723L21.6292 29.848L27.3342 32.6723C27.6112 32.8107 27.9158 32.8938 28.2204 32.8938C28.6358 32.8938 29.0513 32.7553 29.4113 32.5061C30.0205 32.0631 30.3252 31.3155 30.2144 30.5956ZM28.5805 31.3709C28.3866 31.5093 28.1373 31.5093 27.9435 31.4263L21.9339 28.4359C21.8231 28.3806 21.74 28.3529 21.6292 28.3529C21.5184 28.3529 21.4077 28.3806 21.3246 28.4359L15.315 31.4263C15.1211 31.537 14.8442 31.5093 14.678 31.3709C14.4841 31.2325 14.401 31.011 14.4287 30.7894L15.4257 24.1719C15.4534 23.9504 15.398 23.7289 15.2319 23.5905L10.5239 18.8004C10.3577 18.6343 10.3023 18.3851 10.3854 18.1636C10.4685 17.9421 10.6346 17.7759 10.8839 17.7482L17.5028 16.6407C17.7243 16.613 17.8905 16.4746 18.0013 16.2808L21.103 10.3278C21.2138 10.1339 21.4077 9.9955 21.6569 9.9955C21.8785 9.9955 22.1 10.1339 22.2108 10.3278L25.3125 16.2808C25.4233 16.4746 25.5895 16.613 25.811 16.6407L32.4299 17.7482C32.6515 17.7759 32.8454 17.9421 32.9284 18.1636C33.0115 18.3851 32.9561 18.6343 32.79 18.8004L28.082 23.5905C27.9435 23.7566 27.8604 23.9504 27.8881 24.1719L28.8851 30.7894C28.8851 31.011 28.7743 31.2601 28.5805 31.3709Z" fill="#00AEEF"/>
<path d="M17.2535 22.926L13.9302 19.5203C13.8472 19.4649 13.8195 19.3819 13.8472 19.2988C13.8749 19.2157 13.9579 19.1604 14.041 19.1327L18.7213 18.3574C18.9429 18.3297 19.109 18.1913 19.2198 17.9975L21.4077 13.7888C21.4907 13.6227 21.74 13.6227 21.8231 13.7888L24.0386 17.9975C24.1494 18.1913 24.3156 18.3297 24.5371 18.3574L29.2174 19.1327C29.6051 19.1881 29.9652 18.9389 30.0205 18.5512C30.0759 18.1636 29.8267 17.8036 29.439 17.7483L25.091 17.0284L23.0416 13.1243C22.7647 12.5982 22.2108 12.2383 21.6015 12.2383C20.9923 12.2383 20.4384 12.5705 20.1614 13.1243L18.1121 17.0284L13.7641 17.7483C13.1548 17.859 12.684 18.2743 12.4901 18.8558C12.2963 19.4373 12.4624 20.0464 12.8779 20.4894L15.9796 23.6459L15.3426 27.9929C15.2873 28.3806 15.5365 28.7128 15.9242 28.7682C15.9519 28.7682 15.9796 28.7682 16.035 28.7682C16.3673 28.7682 16.672 28.519 16.7274 28.1868L17.4197 23.4797C17.4751 23.3136 17.392 23.0921 17.2535 22.926Z" fill="#00AEEF"/>
<path d="M27.2787 23.6458L29.8543 21.0154C30.1312 20.7385 30.1312 20.2955 29.8543 20.0463C29.5774 19.7694 29.1343 19.7694 28.885 20.0463L26.0325 22.9259C25.894 23.092 25.811 23.2858 25.8386 23.5073L26.531 28.2143C26.531 28.2974 26.5033 28.3805 26.4479 28.4359C26.3925 28.4912 26.2818 28.4912 26.1987 28.4635L21.9338 26.3315C21.7399 26.2485 21.5184 26.2485 21.3245 26.3315L17.6689 28.159C17.3365 28.3251 17.1981 28.7404 17.3642 29.1004C17.5304 29.4326 17.9458 29.5711 18.3058 29.4049L21.6568 27.7436L25.6171 29.7095C25.8386 29.8203 26.0879 29.8756 26.3371 29.8756C26.6695 29.8756 27.0295 29.7649 27.2787 29.5711C27.7772 29.2111 28.0265 28.6297 27.9434 28.0205L27.2787 23.6458Z" fill="#00AEEF"/>
<path d="M21.4907 6.06375C21.8784 6.06375 22.1831 5.75918 22.1831 5.37154V0.692209C22.1831 0.304572 21.8784 0 21.4907 0C21.103 0 20.7983 0.304572 20.7983 0.692209V5.37154C20.7983 5.73149 21.1307 6.06375 21.4907 6.06375Z" fill="#00AEEF"/>
<path d="M12.8223 7.86335C12.9608 8.08486 13.1824 8.2233 13.4316 8.2233C13.5424 8.2233 13.6809 8.19561 13.7639 8.14023C14.0963 7.94642 14.207 7.53109 14.0132 7.19883L11.6869 3.15633C11.493 2.82407 11.0776 2.71332 10.7453 2.90714C10.4129 3.10096 10.3022 3.51628 10.496 3.84854L12.8223 7.86335Z" fill="#00AEEF"/>
<path d="M7.86513 12.8196L3.82178 10.4938C3.48945 10.3 3.07404 10.4107 2.88018 10.743C2.68632 11.0753 2.7971 11.4906 3.12943 11.6844L7.17278 14.0102C7.28355 14.0656 7.39433 14.0933 7.50511 14.0933C7.75435 14.0933 7.97591 13.9825 8.11438 13.7333C8.30824 13.4565 8.19746 13.0134 7.86513 12.8196Z" fill="#00AEEF"/>
<path d="M6.06502 21.4862C6.06502 21.0985 5.76039 20.7939 5.37267 20.7939H0.692354C0.304636 20.7939 0 21.0985 0 21.4862C0 21.8738 0.304636 22.1784 0.692354 22.1784H5.37267C5.73269 22.1784 6.06502 21.8738 6.06502 21.4862Z" fill="#00AEEF"/>
<path d="M7.17278 28.962L3.12943 31.2879C2.7971 31.4817 2.68632 31.897 2.88018 32.2293C3.01865 32.4508 3.24021 32.5892 3.48945 32.5892C3.60023 32.5892 3.7387 32.5615 3.82178 32.5062L7.86513 30.1803C8.19746 29.9865 8.30824 29.5712 8.11438 29.2389C7.92052 28.879 7.50511 28.7682 7.17278 28.962Z" fill="#00AEEF"/>
<path d="M13.7916 34.8874C13.4593 34.6935 13.0439 34.8043 12.85 35.1366L10.5237 39.1791C10.3299 39.5113 10.4407 39.9266 10.773 40.1205C10.8838 40.1758 10.9945 40.2035 11.1053 40.2035C11.3546 40.2035 11.5761 40.0928 11.7146 39.8436L14.0409 35.8011C14.2348 35.4965 14.124 35.0535 13.7916 34.8874Z" fill="#00AEEF"/>
<path d="M21.4907 36.9363C21.103 36.9363 20.7983 37.2409 20.7983 37.6285V42.3078C20.7983 42.6955 21.103 43 21.4907 43C21.8784 43 22.1831 42.6955 22.1831 42.3078V37.6285C22.1831 37.2409 21.8784 36.9363 21.4907 36.9363Z" fill="#00AEEF"/>
<path d="M30.159 35.1366C29.9652 34.8043 29.5498 34.6935 29.2174 34.8874C28.8851 35.0812 28.7743 35.4965 28.9682 35.8288L31.2945 39.8713C31.433 40.0928 31.6545 40.2312 31.9038 40.2312C32.0146 40.2312 32.153 40.2035 32.2361 40.1482C32.5684 39.9543 32.6792 39.539 32.4854 39.2067L30.159 35.1366Z" fill="#00AEEF"/>
<path d="M36.944 21.4862C36.944 21.8738 37.2486 22.1784 37.6363 22.1784H42.3166C42.7044 22.1784 43.009 21.8738 43.009 21.4862C43.009 21.0985 42.7044 20.7939 42.3166 20.7939H37.6363C37.2486 20.7939 36.944 21.1262 36.944 21.4862Z" fill="#00AEEF"/>
<path d="M35.4761 14.1211C35.5869 14.1211 35.7254 14.0934 35.8085 14.0381L39.8518 11.7122C40.1842 11.5184 40.2949 11.1031 40.1011 10.7708C39.9072 10.4386 39.4918 10.3278 39.1595 10.5216L35.1161 12.8475C34.7838 13.0413 34.673 13.4566 34.8669 13.7889C35.0053 14.0104 35.2546 14.1211 35.4761 14.1211Z" fill="#00AEEF"/>
<path d="M29.2174 8.11275C29.3282 8.16812 29.439 8.19581 29.5498 8.19581C29.799 8.19581 30.0206 8.08506 30.159 7.83586L32.4854 3.79337C32.6792 3.46111 32.5684 3.04578 32.2361 2.85196C31.9038 2.65814 31.4884 2.7689 31.2945 3.10116L28.9682 7.14366C28.7743 7.5036 28.8851 7.94662 29.2174 8.11275Z" fill="#00AEEF"/>
<path d="M46 34.4167C45.9723 34.2229 45.8892 34.0567 45.7507 33.946L41.5135 30.4849L44.726 27.4392C44.9199 27.2454 45.003 26.9962 44.9199 26.7193C44.8368 26.4424 44.6153 26.2763 44.366 26.2486L30.5189 24.0889C30.2697 24.0612 30.0204 24.1443 29.882 24.3381C29.7158 24.5319 29.6881 24.7811 29.7712 25.0303L34.8115 38.0992C34.8946 38.3484 35.1439 38.5146 35.3931 38.5422C35.4208 38.5422 35.4208 38.5422 35.4485 38.5422C35.6977 38.5422 35.9193 38.4038 36.0301 38.21L38.301 34.4167L42.5382 37.85C42.8428 38.0992 43.2583 38.0439 43.5075 37.7393L45.8338 34.8597C45.9723 34.8043 46.0277 34.6105 46 34.4167ZM42.8982 36.3826L38.5779 32.8661C38.4672 32.7554 38.301 32.7 38.1348 32.7C38.1071 32.7 38.0517 32.7 38.0241 32.7C37.8302 32.7277 37.664 32.8661 37.5533 33.0323L35.587 36.2995L31.4882 25.6672L42.7598 27.4392L39.9903 30.0419C39.8519 30.1804 39.7688 30.3742 39.7688 30.568C39.7688 30.7618 39.8796 30.9556 40.018 31.0664L44.3383 34.5828L42.8982 36.3826Z" fill="#00AEEF"/>
</g>
<defs>
<clipPath id="clip0">
<rect width="46" height="43" fill="white"/>
</clipPath>
</defs>
</svg>
