<svg width="44" height="44" viewBox="0 0 44 44" fill="none" xmlns="http://www.w3.org/2000/svg">
<path fill-rule="evenodd" clip-rule="evenodd" d="M32.9293 22.3891V19.0643C32.9293 18.463 33.4244 17.9678 34.0257 17.9678C34.627 17.9678 35.1222 18.463 35.1222 19.0643V22.3891C35.1222 22.9904 34.627 23.4855 34.0257 23.4855C33.4244 23.4855 32.9293 22.9904 32.9293 22.3891ZM34.7331 27.2347V24.7942C35.7588 24.4759 36.537 23.5209 36.537 22.3891V19.0643C36.537 17.9325 35.7588 16.9421 34.7331 16.6592V15.4212C34.7331 15.0322 34.4148 14.7138 34.0257 14.7138C33.6367 14.7138 33.3183 15.0322 33.3183 15.4212V16.6592C32.2926 16.9775 31.5145 17.9325 31.5145 19.0643V22.3891C31.5145 23.5209 32.2926 24.5113 33.3183 24.7942V27.2347H27.5884C27.1994 27.2347 26.881 27.5531 26.881 27.9421C26.881 28.3312 27.1994 28.6495 27.5884 28.6495H40.4984C40.8875 28.6495 41.2058 28.3312 41.2058 27.9421C41.2058 27.5531 40.8875 27.2347 40.4984 27.2347H34.7331ZM16.9775 9.90354C16.9775 5.97749 13.7942 2.79421 9.90354 2.79421C8.27653 2.79421 6.72026 3.36013 5.44695 4.38585C4.209 5.37621 3.32476 6.791 2.97106 8.34727C2.90032 8.73633 3.11254 9.09003 3.50161 9.19614C3.89068 9.26688 4.24437 9.05466 4.35048 8.6656C4.9164 6.0836 7.2508 4.209 9.90354 4.209C13.0514 4.209 15.5981 6.75563 15.5981 9.90354C15.5981 13.0514 13.0514 15.5981 9.90354 15.5981C7.28617 15.5981 4.95177 13.7235 4.35048 11.1415C4.27974 10.7524 3.89068 10.5402 3.50161 10.6109C3.11254 10.6817 2.90032 11.0707 2.97106 11.4598C3.32476 13.0161 4.209 14.3955 5.44695 15.4212C6.72026 16.4469 8.27653 17.0129 9.90354 17.0129C13.7942 17.0129 16.9775 13.8296 16.9775 9.90354ZM9.90354 11.9196C9.62058 11.9196 9.37299 11.672 9.37299 11.3891C9.37299 11 9.05466 10.6817 8.6656 10.6817C8.27653 10.6817 7.9582 11 7.9582 11.3891C7.9582 12.2026 8.45338 12.91 9.19614 13.1929V13.5113C9.19614 13.9003 9.51447 14.2186 9.90354 14.2186C10.2926 14.2186 10.6109 13.9003 10.6109 13.5113V13.1929C11.3183 12.91 11.8489 12.2026 11.8489 11.3891C11.8489 10.045 10.7524 9.51447 10.2219 9.26688C9.58521 8.94855 9.40836 8.7717 9.40836 8.41801C9.40836 8.13505 9.65595 7.88746 9.93891 7.88746C10.2219 7.88746 10.4695 8.13505 10.4695 8.41801C10.4695 8.80707 10.7878 9.1254 11.1768 9.1254C11.5659 9.1254 11.8842 8.80707 11.8842 8.41801C11.8842 7.6045 11.3891 6.89711 10.6463 6.61415V6.29582C10.6463 5.90675 10.328 5.58842 9.93891 5.58842C9.54984 5.58842 9.23151 5.90675 9.23151 6.29582V6.61415C8.52412 6.89711 7.99357 7.6045 7.99357 8.41801C7.99357 9.76206 9.09003 10.2926 9.62058 10.5402C10.2572 10.8585 10.4341 11.0354 10.4341 11.3891C10.4341 11.672 10.1865 11.9196 9.90354 11.9196ZM1.41479 9.90354C1.41479 5.23473 5.19936 1.41479 9.90354 1.41479C14.6077 1.41479 18.3923 5.23473 18.3923 9.90354C18.3923 14.5723 14.5723 18.3923 9.90354 18.3923C5.23473 18.3923 1.41479 14.6077 1.41479 9.90354ZM28.0129 1.41479C30.9486 1.41479 33.3537 3.81994 33.3537 6.75563V9.79743C33.3537 10.1865 33.672 10.5048 34.0611 10.5048C34.4502 10.5048 34.7685 10.1865 34.7685 9.79743V6.75563C34.7331 3.0418 31.7267 0 28.0129 0C24.299 0 21.2926 3.00643 21.2926 6.72026V25.4309C21.2926 28.3666 18.8875 30.7363 15.9518 30.7363C13.0161 30.7363 10.6109 28.3312 10.6109 25.3601V19.7717C15.7395 19.418 19.8071 15.1029 19.8071 9.90354C19.8071 4.45659 15.3505 0 9.90354 0C4.45659 0 0 4.45659 0 9.90354C0 15.1383 4.06752 19.418 9.19614 19.7717V25.3601C9.19614 29.074 12.2026 32.1158 15.9164 32.1158C19.6302 32.1158 22.6367 29.1093 22.6367 25.3955V6.72026C22.672 3.78457 25.0772 1.41479 28.0129 1.41479ZM42.6206 35.1222C42.6206 35.9711 42.4437 38.1994 40.9228 39.9678C39.4373 41.701 37.1383 42.5852 34.0611 42.5852C30.9839 42.5852 28.6495 41.7363 27.164 39.9678C25.6431 38.1994 25.4662 35.9711 25.4662 35.1222V20.7621C25.4662 19.9132 25.6431 17.6849 27.164 15.9164C28.6495 14.1833 30.9486 13.299 34.0257 13.299C37.1029 13.299 39.4019 14.1833 40.8875 15.9164C42.4084 17.7203 42.5852 19.9132 42.5852 20.7621V35.1222H42.6206ZM34.0257 11.8842C26.6688 11.8842 24.0514 16.6592 24.0514 20.7621V35.1222C24.0514 39.2251 26.6688 44 34.0257 44C41.3826 44 44 39.2251 44 35.1222V20.7621C44 16.6945 41.3826 11.8842 34.0257 11.8842Z" fill="#00AEEF"/>
</svg>
