<svg width="82" height="74" viewBox="0 0 82 74" fill="none" xmlns="http://www.w3.org/2000/svg">
<path d="M21.4011 21.4985H14.4739C18.5288 10.919 28.7225 3.3945 40.6621 3.3945C56.1497 3.3945 68.7088 16.0673 68.7088 31.5688H72.0879C72.1442 14.1437 58.0082 0 40.6621 0C26.864 0 15.0934 8.99541 10.9258 21.4985H0L10.7005 40.1116L21.4011 21.4985ZM15.544 24.893L10.7005 33.3226L5.85714 24.893H15.544Z" fill="#00AEEF"/>
<path d="M71.2994 33.0963L60.5989 51.7095H67.1319C63.3022 62.685 52.8832 70.6055 40.6621 70.6055C25.1744 70.6055 12.6154 57.9327 12.6154 42.4312H9.23627C9.23627 59.8563 23.3159 74 40.6621 74C54.7981 74 66.7376 64.6085 70.6799 51.7095H82L71.2994 33.0963ZM66.456 48.3715L71.2994 39.9419L76.1428 48.3715H66.456Z" fill="#00AEEF"/>
<path d="M40.3807 47.0704C39.9864 47.0704 39.7048 47.0138 39.4232 46.8441C39.1416 46.6744 38.8037 46.3915 38.5221 45.9389L38.1279 45.4297L36.2131 47.4098L36.4947 47.8059C36.9452 48.4848 37.5084 48.9939 38.1279 49.39C38.6348 49.6728 39.1416 49.8426 39.7612 49.9557V51.4832H41.845V49.7294C42.6334 49.5031 43.2529 49.0505 43.7598 48.5413C44.323 47.8624 44.6046 47.0138 44.6046 46.1086C44.6046 45.2034 44.2667 44.2982 43.6472 43.7325C43.1403 43.2799 42.5771 42.9404 41.6197 42.5444C40.9439 42.2615 40.6623 42.1484 40.6059 42.0918C40.437 41.9786 40.3807 41.8655 40.3243 41.8089C40.268 41.7523 40.268 41.6958 40.268 41.6392C40.268 41.526 40.3243 41.4129 40.437 41.2997C40.5496 41.1866 40.7749 41.13 41.0002 41.13C41.2254 41.13 41.4507 41.1866 41.6197 41.2997C41.845 41.4129 42.0139 41.5826 42.2392 41.8089L42.6897 42.3181L44.4356 40.0551L44.0977 39.7156C43.7035 39.3196 43.3092 38.9802 42.8587 38.7539C42.5771 38.5841 42.2392 38.5276 41.9013 38.4144V36.8303H39.8175V38.471C39.7048 38.5276 39.5922 38.5276 39.4796 38.5841C39.2543 38.6973 39.029 38.8104 38.8037 38.9236C37.8463 39.5459 37.2831 40.6774 37.2831 41.8655C37.2831 42.8273 37.6774 43.7325 38.4095 44.2982C38.8601 44.6377 39.4796 44.9205 40.4933 45.3731C41.0565 45.5994 41.3381 45.7692 41.4507 45.8823C41.507 45.9389 41.5634 45.9955 41.5634 46.052C41.5634 46.1086 41.6197 46.1652 41.6197 46.2783C41.6197 46.5046 41.507 46.6744 41.3381 46.8441C40.9439 46.9572 40.7186 47.0704 40.3807 47.0704Z" fill="#00AEEF"/>
<path d="M23.879 44.6376C23.5974 45.4296 23.4285 46.2217 23.4285 47.0137C23.4285 49.6161 24.2169 51.9923 25.3433 53.7461C25.9065 54.5947 26.5823 55.3302 27.3708 55.896C28.1592 56.4617 29.004 56.8012 30.0178 56.8012H31.482C31.9326 56.8012 32.4958 56.8012 33.1153 56.8012H37.1702H37.7334H43.7595H44.3227C44.3227 56.8012 45.2801 56.8012 46.5191 56.8012C47.7018 56.8012 49.1098 56.8012 50.0109 56.8012H51.4752C52.4326 56.8012 53.3337 56.4617 54.1221 55.896C55.3048 55.1039 56.2059 53.8593 56.9381 52.3317C57.6139 50.8042 58.0645 48.9938 58.0645 47.0137C58.0645 46.2217 57.8955 45.4296 57.6139 44.6376C57.2197 43.4495 56.5438 42.1483 55.8117 40.847C55.0796 39.5458 54.1785 38.188 53.3337 36.9434L53.2774 36.8302C52.8831 36.321 50.6304 33.1528 49.7856 31.9648C49.9546 31.5687 50.0109 31.1161 50.0109 30.607C50.0109 29.9281 49.8419 29.3058 49.504 28.74C49.6167 28.5137 49.8982 27.8914 50.1798 27.1559C50.3488 26.7033 50.5178 26.1941 50.6867 25.685C50.743 25.4587 50.7993 25.1758 50.8557 24.9495C50.912 24.7232 50.9683 24.4969 50.9683 24.1574C50.9683 23.3654 50.743 22.6299 50.4051 22.0642C50.1235 21.6116 49.7856 21.2721 49.3914 20.9892C48.8282 20.5932 48.265 20.3669 47.7018 20.1972C47.1386 20.084 46.6318 20.0275 46.2375 20.0275H41.9573H39.1977H34.9175C34.5232 20.0275 34.0727 20.084 33.6221 20.1972C32.89 20.3669 32.1015 20.6498 31.3694 21.3287C31.0315 21.6681 30.6936 22.0642 30.4683 22.5733C30.243 23.0825 30.1304 23.6483 30.1304 24.214C30.1304 24.4969 30.1867 24.7232 30.1867 24.9495C30.243 25.3455 30.412 25.7981 30.5246 26.1941C30.9189 27.4388 31.5384 28.7966 31.5384 28.7966C31.2568 29.3623 31.0878 29.9846 31.0878 30.607C31.0878 31.2293 31.2568 31.8516 31.5384 32.3608C31.1441 32.9265 30.6373 33.6054 30.1304 34.3409C29.6798 34.9632 29.2293 35.5856 28.8914 36.0382C28.7224 36.2645 28.5535 36.4908 28.4971 36.6039C28.4408 36.6605 28.3845 36.7171 28.3845 36.7736L28.3282 36.8302V36.8868C27.1455 38.584 26.0191 40.3944 25.118 42.0917C24.5548 42.9969 24.1606 43.8455 23.879 44.6376ZM34.129 29.9281C34.298 29.7584 34.5232 29.6452 34.8048 29.6452H46.1249C46.4065 29.6452 46.6318 29.7584 46.8007 29.9281C46.9697 30.0978 47.0823 30.3241 47.0823 30.607C47.0823 30.8898 46.9697 31.1161 46.8007 31.2859C46.6318 31.4556 46.4065 31.5687 46.1249 31.5687H34.7485C34.4669 31.5687 34.2417 31.4556 34.0727 31.2859C33.9037 31.1161 33.7911 30.8898 33.7911 30.607C33.8474 30.3807 33.9601 30.1544 34.129 29.9281ZM32.8337 24.214C32.8337 23.8746 32.89 23.7614 33.0026 23.5917C33.059 23.4785 33.1716 23.422 33.2842 23.3088C33.4532 23.1957 33.7348 23.0825 34.0164 22.9694C34.298 22.9128 34.5796 22.8562 34.8048 22.8562H39.0851H41.8447H46.1249C46.2939 22.8562 46.5754 22.8562 46.8007 22.9128C47.1949 22.9694 47.5329 23.1391 47.7581 23.3654C47.8708 23.4785 47.9271 23.5351 47.9834 23.6483C48.0397 23.7614 48.096 23.9311 48.096 24.1574C48.096 24.1574 48.096 24.2706 48.0397 24.3837C47.9834 24.61 47.8708 24.9495 47.7581 25.2889C47.5892 25.7981 47.3639 26.3073 47.195 26.7599H33.7348C33.6221 26.477 33.5095 26.1941 33.3969 25.8547C33.2279 25.4587 33.1153 25.0626 33.0026 24.7232C32.9463 24.5535 32.9463 24.3837 32.89 24.2706C32.89 24.3272 32.89 24.2706 32.8337 24.214ZM26.526 45.5428C26.8639 44.581 27.4271 43.4495 28.1029 42.2048C28.7787 41.0168 29.6235 39.7155 30.4683 38.4709C30.4683 38.4709 30.5246 38.3577 30.6373 38.2446C31.1441 37.5091 32.6647 35.4724 33.5658 34.1712C33.9601 34.2843 34.3543 34.3409 34.7485 34.3409H46.0686C46.6318 34.3409 47.1386 34.2278 47.6455 34.0015C48.0397 34.5106 48.5466 35.2461 49.0535 35.925C49.504 36.5473 49.9546 37.1697 50.2925 37.6223C50.4614 37.8486 50.6304 38.0749 50.6867 38.188C50.743 38.2446 50.7993 38.3012 50.7993 38.3577L50.8557 38.4143C51.982 40.055 53.1084 41.7522 53.8969 43.3363C54.2911 44.1284 54.629 44.8073 54.798 45.4862C55.0232 46.1085 55.0796 46.6177 55.0796 46.9571C55.0796 48.9938 54.4601 50.8608 53.6153 52.1054C53.221 52.7278 52.7142 53.2369 52.3199 53.5198C51.9257 53.8027 51.5315 53.9158 51.3062 53.9158H49.504C49.2787 53.9158 48.9971 53.9158 48.7156 53.9158C48.1524 53.9158 47.4765 53.9158 46.857 53.9158C46.6881 53.9158 46.5754 53.9158 46.4065 53.9158C46.2375 53.9158 46.1249 53.9158 45.9559 53.9158H45.618C44.9985 53.9158 44.548 53.9158 44.3227 53.9158H44.2101C44.1537 53.9158 44.1537 53.9158 44.1537 53.9158H43.5906H37.6771H37.1139H36.7197C35.9312 53.9158 34.0727 53.9158 32.6084 53.9158H31.4257H29.9614C29.7362 53.9158 29.3982 53.8027 28.9477 53.5198C28.3282 53.0672 27.596 52.2186 27.0892 51.0871C26.5823 49.9556 26.2444 48.5412 26.2444 46.9571C26.2444 46.6743 26.357 46.1651 26.526 45.5428Z" fill="#00AEEF"/>
</svg>
