<svg width="23" height="25" viewBox="0 0 23 25" fill="none" xmlns="http://www.w3.org/2000/svg">
<mask id="path-1-inside-1" fill="white">
<path fill-rule="evenodd" clip-rule="evenodd" d="M4.76147 3.82893H3.94335V3.00462H3.12524V3.82893H2.27567V4.65324H3.09378V5.47754H3.91189V4.65324H4.73V3.82893H4.76147ZM2.60606 8.90159H1.77221V9.72589H0.954102V10.5502H1.77221V11.3745H2.59032V10.5502H3.40844V9.72589H2.59032V8.90159H2.60606ZM19.0312 2.98877H19.8493V2.16447H20.6674V1.32431H19.8493V0.5H19.0312V1.32431H18.2131V2.14861H19.0312V2.98877ZM21.4226 7.23712V6.41281H20.6045V7.23712H19.7864V8.06143H20.6045V8.90159H21.4226V8.07728H22.2407V7.25297H21.4226V7.23712ZM13.7292 2.70343L14.4372 3.11559L14.0281 3.82893L13.3202 3.41678L13.7292 2.70343ZM15.6801 4.38375L16.0892 5.09709L15.3812 5.50925L14.9721 4.79591L15.6801 4.38375ZM15.7273 6.82497H16.5454V7.64927H15.7273V6.82497ZM15.6801 10.0905L14.9721 9.67834L15.3812 8.965L16.0892 9.37715L15.6801 10.0905ZM7.51472 10.0905L7.10567 9.37715L7.81365 8.965L8.22271 9.67834L7.51472 10.0905ZM6.64941 6.82497H7.46753V7.64927H6.64941V6.82497ZM7.51472 4.38375L8.22271 4.79591L7.81365 5.50925L7.10567 5.09709L7.51472 4.38375ZM9.48134 2.70343L9.89039 3.41678L9.18241 3.82893L8.77336 3.11559L9.48134 2.70343ZM11.1962 2.24373H12.0143V3.06803H11.1962V2.24373ZM13.0527 9.7576L12.8482 9.88441V10.9941H12.0301V8.41017C12.5021 8.2358 12.8482 7.77609 12.8482 7.23712C12.8482 6.55548 12.2975 5.98481 11.6053 5.98481C10.9288 5.98481 10.3624 6.53963 10.3624 7.23712C10.3624 7.77609 10.7085 8.2358 11.1805 8.41017V10.9782H10.3624V9.86856L10.1579 9.74174C9.26108 9.21863 8.71043 8.25165 8.71043 7.22127C8.71043 5.62021 10.0005 4.30449 11.6053 4.30449C13.1943 4.30449 14.5001 5.60436 14.5001 7.22127C14.5001 8.26751 13.9338 9.23448 13.0527 9.7576ZM11.1962 7.23712C11.1962 7.01519 11.385 6.82497 11.6053 6.82497C11.8255 6.82497 12.0143 7.01519 12.0143 7.23712C12.0143 7.45905 11.8255 7.64927 11.6053 7.64927C11.3693 7.64927 11.1962 7.4749 11.1962 7.23712ZM13.4618 12.2305H13.0527H10.1579H9.7488C9.63867 12.2305 9.54427 12.1354 9.54427 12.0244C9.54427 11.9135 9.63867 11.8184 9.7488 11.8184H13.4618C13.5719 11.8184 13.6663 11.9135 13.6663 12.0244C13.6663 12.1354 13.5719 12.2305 13.4618 12.2305ZM13.0527 13.4828H10.1579C10.0477 13.4828 9.95333 13.3877 9.95333 13.2768C9.95333 13.1658 10.0477 13.0707 10.1579 13.0707H13.0527C13.1628 13.0707 13.2572 13.1658 13.2572 13.2768C13.2572 13.3877 13.1628 13.4828 13.0527 13.4828ZM15.3182 7.23712C15.3182 5.17635 13.6506 3.49604 11.6053 3.49604C9.56 3.49604 7.89231 5.17635 7.89231 7.23712C7.89231 8.48943 8.52163 9.64663 9.54427 10.3441V10.9941C9.07228 11.0892 8.72616 11.5172 8.72616 12.0086C8.72616 12.3732 8.91495 12.7061 9.21388 12.8805C9.16668 12.9914 9.15095 13.1182 9.15095 13.245C9.15095 13.8157 9.6072 14.2913 10.1893 14.2913H13.0842C13.6506 14.2913 14.1225 13.8316 14.1225 13.245C14.1225 13.1182 14.0911 12.9914 14.0596 12.8805C14.3428 12.6902 14.5473 12.3732 14.5473 12.0086C14.5473 11.5013 14.1855 11.0892 13.7292 10.9941V10.3441C14.6889 9.66249 15.3182 8.48943 15.3182 7.23712Z"/>
</mask>
<path fill-rule="evenodd" clip-rule="evenodd" d="M4.76147 3.82893H3.94335V3.00462H3.12524V3.82893H2.27567V4.65324H3.09378V5.47754H3.91189V4.65324H4.73V3.82893H4.76147ZM2.60606 8.90159H1.77221V9.72589H0.954102V10.5502H1.77221V11.3745H2.59032V10.5502H3.40844V9.72589H2.59032V8.90159H2.60606ZM19.0312 2.98877H19.8493V2.16447H20.6674V1.32431H19.8493V0.5H19.0312V1.32431H18.2131V2.14861H19.0312V2.98877ZM21.4226 7.23712V6.41281H20.6045V7.23712H19.7864V8.06143H20.6045V8.90159H21.4226V8.07728H22.2407V7.25297H21.4226V7.23712ZM13.7292 2.70343L14.4372 3.11559L14.0281 3.82893L13.3202 3.41678L13.7292 2.70343ZM15.6801 4.38375L16.0892 5.09709L15.3812 5.50925L14.9721 4.79591L15.6801 4.38375ZM15.7273 6.82497H16.5454V7.64927H15.7273V6.82497ZM15.6801 10.0905L14.9721 9.67834L15.3812 8.965L16.0892 9.37715L15.6801 10.0905ZM7.51472 10.0905L7.10567 9.37715L7.81365 8.965L8.22271 9.67834L7.51472 10.0905ZM6.64941 6.82497H7.46753V7.64927H6.64941V6.82497ZM7.51472 4.38375L8.22271 4.79591L7.81365 5.50925L7.10567 5.09709L7.51472 4.38375ZM9.48134 2.70343L9.89039 3.41678L9.18241 3.82893L8.77336 3.11559L9.48134 2.70343ZM11.1962 2.24373H12.0143V3.06803H11.1962V2.24373ZM13.0527 9.7576L12.8482 9.88441V10.9941H12.0301V8.41017C12.5021 8.2358 12.8482 7.77609 12.8482 7.23712C12.8482 6.55548 12.2975 5.98481 11.6053 5.98481C10.9288 5.98481 10.3624 6.53963 10.3624 7.23712C10.3624 7.77609 10.7085 8.2358 11.1805 8.41017V10.9782H10.3624V9.86856L10.1579 9.74174C9.26108 9.21863 8.71043 8.25165 8.71043 7.22127C8.71043 5.62021 10.0005 4.30449 11.6053 4.30449C13.1943 4.30449 14.5001 5.60436 14.5001 7.22127C14.5001 8.26751 13.9338 9.23448 13.0527 9.7576ZM11.1962 7.23712C11.1962 7.01519 11.385 6.82497 11.6053 6.82497C11.8255 6.82497 12.0143 7.01519 12.0143 7.23712C12.0143 7.45905 11.8255 7.64927 11.6053 7.64927C11.3693 7.64927 11.1962 7.4749 11.1962 7.23712ZM13.4618 12.2305H13.0527H10.1579H9.7488C9.63867 12.2305 9.54427 12.1354 9.54427 12.0244C9.54427 11.9135 9.63867 11.8184 9.7488 11.8184H13.4618C13.5719 11.8184 13.6663 11.9135 13.6663 12.0244C13.6663 12.1354 13.5719 12.2305 13.4618 12.2305ZM13.0527 13.4828H10.1579C10.0477 13.4828 9.95333 13.3877 9.95333 13.2768C9.95333 13.1658 10.0477 13.0707 10.1579 13.0707H13.0527C13.1628 13.0707 13.2572 13.1658 13.2572 13.2768C13.2572 13.3877 13.1628 13.4828 13.0527 13.4828ZM15.3182 7.23712C15.3182 5.17635 13.6506 3.49604 11.6053 3.49604C9.56 3.49604 7.89231 5.17635 7.89231 7.23712C7.89231 8.48943 8.52163 9.64663 9.54427 10.3441V10.9941C9.07228 11.0892 8.72616 11.5172 8.72616 12.0086C8.72616 12.3732 8.91495 12.7061 9.21388 12.8805C9.16668 12.9914 9.15095 13.1182 9.15095 13.245C9.15095 13.8157 9.6072 14.2913 10.1893 14.2913H13.0842C13.6506 14.2913 14.1225 13.8316 14.1225 13.245C14.1225 13.1182 14.0911 12.9914 14.0596 12.8805C14.3428 12.6902 14.5473 12.3732 14.5473 12.0086C14.5473 11.5013 14.1855 11.0892 13.7292 10.9941V10.3441C14.6889 9.66249 15.3182 8.48943 15.3182 7.23712Z" fill="#00AEEF" stroke="#00AEEF" mask="url(#path-1-inside-1)"/>
<path fill-rule="evenodd" clip-rule="evenodd" d="M17.6938 10.8831H18.4018L12.5806 16.7325L10.7871 14.9254C10.6927 14.8303 10.5354 14.8303 10.441 14.9254L6.38187 18.9993C6.28747 19.0945 6.28747 19.253 6.38187 19.3481C6.42907 19.3956 6.492 19.4273 6.55493 19.4273C6.61786 19.4273 6.68079 19.3956 6.72799 19.3481L10.614 15.4485L12.4233 17.2556C12.5177 17.3507 12.675 17.3507 12.7694 17.2556L18.7637 11.2318V11.9452C18.7637 12.0878 18.8738 12.183 18.9997 12.183C19.1413 12.183 19.2357 12.072 19.2357 11.9452V10.6453C19.2357 10.5026 19.1255 10.4075 18.9997 10.4075H17.6938C17.5522 10.4075 17.4578 10.5185 17.4578 10.6453C17.4578 10.788 17.568 10.8831 17.6938 10.8831ZM18.0242 24.0086H5.18617C4.77711 24.0086 4.46245 23.6757 4.46245 23.2794V23.0416H18.7637V23.2794C18.7637 23.6757 18.4333 24.0086 18.0242 24.0086ZM5.73682 20.4102H17.4736L18.5906 22.5344H4.61978L5.73682 20.4102ZM12.3446 21.5515H10.8815C10.7399 21.5515 10.6455 21.6625 10.6455 21.7893C10.6455 21.932 10.7556 22.0271 10.8815 22.0271H12.3446C12.4862 22.0271 12.5806 21.9161 12.5806 21.7893C12.5806 21.6625 12.4705 21.5515 12.3446 21.5515ZM19.2357 22.7563C19.2357 22.7404 19.2357 22.7404 19.2357 22.7246V22.7087C19.2357 22.6929 19.2357 22.6929 19.2199 22.677L17.8669 20.109V14.212C17.8669 14.0694 17.7568 13.9742 17.6309 13.9742C17.4893 13.9742 17.3949 14.0852 17.3949 14.212V19.9188H5.83121V13.0231C5.83121 12.611 6.16161 12.2939 6.55493 12.2939H7.5933C7.7349 12.2939 7.82929 12.183 7.82929 12.0561C7.82929 11.9135 7.71916 11.8184 7.5933 11.8184H6.55493C5.87841 11.8184 5.34349 12.3732 5.34349 13.039V20.1248L3.99046 22.677C3.99046 22.677 3.99046 22.6929 3.97473 22.7087V22.7246C3.97473 22.7404 3.97473 22.7404 3.97473 22.7563C3.97473 22.7721 3.97473 22.7721 3.97473 22.788V23.2794C3.97473 23.961 4.52538 24.5 5.18617 24.5H18.0242C18.7007 24.5 19.2357 23.9452 19.2357 23.2794V22.788C19.2514 22.7721 19.2357 22.7563 19.2357 22.7563Z" fill="#00AEEF" stroke="#00AEEF" stroke-width="0.5" stroke-miterlimit="10"/>
</svg>
