<svg width="25" height="25" viewBox="0 0 25 25" fill="none" xmlns="http://www.w3.org/2000/svg">
<mask id="path-1-inside-1" fill="white">
<path d="M8.96053 20.0522H2.39551V20.6672H8.96053V20.0522Z"/>
</mask>
<path d="M8.96053 20.0522H2.39551V20.6672H8.96053V20.0522Z" fill="#00AEEF"/>
<path d="M2.39551 20.0522V18.0522H0.395508V20.0522H2.39551ZM8.96053 20.0522H10.9605V18.0522H8.96053V20.0522ZM8.96053 20.6672V22.6672H10.9605V20.6672H8.96053ZM2.39551 20.6672H0.395508V22.6672H2.39551V20.6672ZM2.39551 22.0522H8.96053V18.0522H2.39551V22.0522ZM6.96053 20.0522V20.6672H10.9605V20.0522H6.96053ZM8.96053 18.6672H2.39551V22.6672H8.96053V18.6672ZM4.39551 20.6672V20.0522H0.395508V20.6672H4.39551Z" fill="#00AEEF" mask="url(#path-1-inside-1)"/>
<mask id="path-3-inside-2" fill="white">
<path d="M8.96053 21.7739H2.39551V22.3889H8.96053V21.7739Z"/>
</mask>
<path d="M8.96053 21.7739H2.39551V22.3889H8.96053V21.7739Z" fill="#00AEEF"/>
<path d="M2.39551 21.7739V19.7739H0.395508V21.7739H2.39551ZM8.96053 21.7739H10.9605V19.7739H8.96053V21.7739ZM8.96053 22.3889V24.3889H10.9605V22.3889H8.96053ZM2.39551 22.3889H0.395508V24.3889H2.39551V22.3889ZM2.39551 23.7739H8.96053V19.7739H2.39551V23.7739ZM6.96053 21.7739V22.3889H10.9605V21.7739H6.96053ZM8.96053 20.3889H2.39551V24.3889H8.96053V20.3889ZM4.39551 22.3889V21.7739H0.395508V22.3889H4.39551Z" fill="#00AEEF" mask="url(#path-3-inside-2)"/>
<mask id="path-5-inside-3" fill="white">
<path d="M8.96053 14.9321H2.39551V15.5471H8.96053V14.9321Z"/>
</mask>
<path d="M8.96053 14.9321H2.39551V15.5471H8.96053V14.9321Z" fill="#00AEEF"/>
<path d="M2.39551 14.9321V12.9321H0.395508V14.9321H2.39551ZM8.96053 14.9321H10.9605V12.9321H8.96053V14.9321ZM8.96053 15.5471V17.5471H10.9605V15.5471H8.96053ZM2.39551 15.5471H0.395508V17.5471H2.39551V15.5471ZM2.39551 16.9321H8.96053V12.9321H2.39551V16.9321ZM6.96053 14.9321V15.5471H10.9605V14.9321H6.96053ZM8.96053 13.5471H2.39551V17.5471H8.96053V13.5471ZM4.39551 15.5471V14.9321H0.395508V15.5471H4.39551Z" fill="#00AEEF" mask="url(#path-5-inside-3)"/>
<mask id="path-7-inside-4" fill="white">
<path fill-rule="evenodd" clip-rule="evenodd" d="M12.6811 8.10593C12.1737 8.10593 11.7432 7.79843 11.7432 7.16807H11.1282C11.1282 8.10593 11.8201 8.72092 12.6811 8.72092C13.5421 8.72092 14.2339 8.10593 14.2339 7.16807H13.6189C13.6036 7.78306 13.1884 8.10593 12.6811 8.10593ZM23.8431 1.71003L23.5049 1.54091L23.8431 1.27954V1.71003ZM22.3979 5.61522H21.5216L23.0744 2.01752L23.7663 2.35577L22.3979 5.61522ZM23.1513 6.24558C23.1974 6.55308 23.2128 6.87595 23.2128 7.18344V8.32117C23.2128 10.8119 21.9828 13.1335 19.938 14.548L19.7996 14.6402V18.6684H13.6036V15.8702H10.5132V12.0726L8.49913 11.6114L10.3134 8.3673L10.298 8.25968C10.175 7.58319 10.175 6.86057 10.2826 6.23021H10.5132H13.6036H23.1513V6.24558ZM12.0661 3.13988C11.897 3.13988 11.7586 3.00151 11.7586 2.83239C11.7586 2.66326 11.897 2.52489 12.0661 2.52489C12.2352 2.52489 12.3736 2.66326 12.3736 2.83239C12.3736 3.00151 12.2352 3.13988 12.0661 3.13988ZM9.88286 2.83239C9.88286 1.63315 10.8515 0.664545 12.0507 0.664545C13.2499 0.664545 14.2185 1.63315 14.2185 2.83239C14.2185 3.60112 13.8034 4.32374 13.1269 4.70811L12.9886 4.80035V5.61522H12.3736V3.70875C12.7272 3.58575 12.9886 3.23213 12.9886 2.83239C12.9886 2.32502 12.5734 1.89453 12.0507 1.89453C11.528 1.89453 11.1128 2.30964 11.1128 2.83239C11.1128 3.23213 11.3742 3.57037 11.7278 3.70875V5.61522H11.1128V4.80035L10.9591 4.70811C10.298 4.32374 9.88286 3.60112 9.88286 2.83239ZM15.633 2.94001L16.002 3.77025C15.3563 3.81637 14.8489 4.35449 14.8489 5.00023V5.61522H13.6036V5.15397C14.2185 4.73886 14.649 4.09312 14.7874 3.3705L15.633 2.94001ZM16.8476 5.61522H15.4639V5.00023C15.4639 4.66198 15.7406 4.36986 16.0789 4.36986H16.2788L16.8476 5.61522ZM15.9866 1.07966L17.2166 1.6024L16.9245 1.74078L17.847 3.7395H16.6785L15.9251 2.07902L15.6484 2.2174L15.9866 1.07966ZM18.708 5.61522H17.5241L16.9552 4.36986H18.1237L18.708 5.61522ZM19.815 1.27954V0.664545H20.4299V1.27954H19.815ZM24.4735 0.0341797L22.6747 1.38716L20.8604 5.61522H19.3998L18.831 4.36986H19.2C19.8918 4.36986 20.4453 3.81637 20.4453 3.13988V1.89453H21.0603V0.0341797H19.2V1.89453H19.815V3.13988C19.815 3.47813 19.5382 3.75487 19.2 3.75487H18.5388L17.7394 2.0329L18.6926 1.55628L15.5869 0.234052L14.8489 2.80164C14.8335 1.27954 13.5882 0.0341797 12.0661 0.0341797C10.5286 0.0341797 9.26787 1.27954 9.26787 2.83239C9.26787 3.75487 9.74449 4.63123 10.5132 5.15397V5.61522H9.75986L9.71374 5.87659C9.55999 6.6607 9.54462 7.46019 9.66762 8.25968L7.5459 12.0265L9.88286 12.5646V16.4698H12.9886V19.268H20.4299V14.9477C22.5978 13.4102 23.8431 10.9349 23.8431 8.3058V7.16807C23.8431 6.73757 23.797 6.30708 23.7201 5.87659L23.674 5.61522H23.059L24.4581 2.26352V0.0341797H24.4735Z"/>
</mask>
<path fill-rule="evenodd" clip-rule="evenodd" d="M12.6811 8.10593C12.1737 8.10593 11.7432 7.79843 11.7432 7.16807H11.1282C11.1282 8.10593 11.8201 8.72092 12.6811 8.72092C13.5421 8.72092 14.2339 8.10593 14.2339 7.16807H13.6189C13.6036 7.78306 13.1884 8.10593 12.6811 8.10593ZM23.8431 1.71003L23.5049 1.54091L23.8431 1.27954V1.71003ZM22.3979 5.61522H21.5216L23.0744 2.01752L23.7663 2.35577L22.3979 5.61522ZM23.1513 6.24558C23.1974 6.55308 23.2128 6.87595 23.2128 7.18344V8.32117C23.2128 10.8119 21.9828 13.1335 19.938 14.548L19.7996 14.6402V18.6684H13.6036V15.8702H10.5132V12.0726L8.49913 11.6114L10.3134 8.3673L10.298 8.25968C10.175 7.58319 10.175 6.86057 10.2826 6.23021H10.5132H13.6036H23.1513V6.24558ZM12.0661 3.13988C11.897 3.13988 11.7586 3.00151 11.7586 2.83239C11.7586 2.66326 11.897 2.52489 12.0661 2.52489C12.2352 2.52489 12.3736 2.66326 12.3736 2.83239C12.3736 3.00151 12.2352 3.13988 12.0661 3.13988ZM9.88286 2.83239C9.88286 1.63315 10.8515 0.664545 12.0507 0.664545C13.2499 0.664545 14.2185 1.63315 14.2185 2.83239C14.2185 3.60112 13.8034 4.32374 13.1269 4.70811L12.9886 4.80035V5.61522H12.3736V3.70875C12.7272 3.58575 12.9886 3.23213 12.9886 2.83239C12.9886 2.32502 12.5734 1.89453 12.0507 1.89453C11.528 1.89453 11.1128 2.30964 11.1128 2.83239C11.1128 3.23213 11.3742 3.57037 11.7278 3.70875V5.61522H11.1128V4.80035L10.9591 4.70811C10.298 4.32374 9.88286 3.60112 9.88286 2.83239ZM15.633 2.94001L16.002 3.77025C15.3563 3.81637 14.8489 4.35449 14.8489 5.00023V5.61522H13.6036V5.15397C14.2185 4.73886 14.649 4.09312 14.7874 3.3705L15.633 2.94001ZM16.8476 5.61522H15.4639V5.00023C15.4639 4.66198 15.7406 4.36986 16.0789 4.36986H16.2788L16.8476 5.61522ZM15.9866 1.07966L17.2166 1.6024L16.9245 1.74078L17.847 3.7395H16.6785L15.9251 2.07902L15.6484 2.2174L15.9866 1.07966ZM18.708 5.61522H17.5241L16.9552 4.36986H18.1237L18.708 5.61522ZM19.815 1.27954V0.664545H20.4299V1.27954H19.815ZM24.4735 0.0341797L22.6747 1.38716L20.8604 5.61522H19.3998L18.831 4.36986H19.2C19.8918 4.36986 20.4453 3.81637 20.4453 3.13988V1.89453H21.0603V0.0341797H19.2V1.89453H19.815V3.13988C19.815 3.47813 19.5382 3.75487 19.2 3.75487H18.5388L17.7394 2.0329L18.6926 1.55628L15.5869 0.234052L14.8489 2.80164C14.8335 1.27954 13.5882 0.0341797 12.0661 0.0341797C10.5286 0.0341797 9.26787 1.27954 9.26787 2.83239C9.26787 3.75487 9.74449 4.63123 10.5132 5.15397V5.61522H9.75986L9.71374 5.87659C9.55999 6.6607 9.54462 7.46019 9.66762 8.25968L7.5459 12.0265L9.88286 12.5646V16.4698H12.9886V19.268H20.4299V14.9477C22.5978 13.4102 23.8431 10.9349 23.8431 8.3058V7.16807C23.8431 6.73757 23.797 6.30708 23.7201 5.87659L23.674 5.61522H23.059L24.4581 2.26352V0.0341797H24.4735Z" fill="#00AEEF" stroke="#00AEEF" stroke-width="4" mask="url(#path-7-inside-4)"/>
<mask id="path-8-inside-5" fill="white">
<path d="M15.295 18.8685L15.0798 18.8377C15.0337 18.8377 15.0029 18.8224 14.9568 18.807C14.9261 18.807 14.8953 18.7916 14.8646 18.7762C14.8338 18.7762 14.8184 18.7762 14.7877 18.7762V23.4348H1.45776V9.39764C1.45776 8.29066 2.36487 7.38355 3.47186 7.38355H10.0984C10.0523 7.26055 10.0369 7.12217 10.0523 6.99918C10.0523 6.9223 10.0676 6.84543 10.0984 6.76855H3.48723C2.02663 6.76855 0.842773 7.95241 0.842773 9.39764V24.0344H15.418V18.8531C15.3873 18.8685 15.3412 18.8685 15.295 18.8685Z"/>
</mask>
<path d="M15.295 18.8685L15.0798 18.8377C15.0337 18.8377 15.0029 18.8224 14.9568 18.807C14.9261 18.807 14.8953 18.7916 14.8646 18.7762C14.8338 18.7762 14.8184 18.7762 14.7877 18.7762V23.4348H1.45776V9.39764C1.45776 8.29066 2.36487 7.38355 3.47186 7.38355H10.0984C10.0523 7.26055 10.0369 7.12217 10.0523 6.99918C10.0523 6.9223 10.0676 6.84543 10.0984 6.76855H3.48723C2.02663 6.76855 0.842773 7.95241 0.842773 9.39764V24.0344H15.418V18.8531C15.3873 18.8685 15.3412 18.8685 15.295 18.8685Z" fill="#00AEEF"/>
<path d="M15.295 18.8685L15.0122 20.8484L15.1529 20.8685H15.295V18.8685ZM15.0798 18.8377L15.3626 16.8578L15.2219 16.8377H15.0798V18.8377ZM14.9568 18.807L15.5893 16.9096L15.2814 16.807H14.9568V18.807ZM14.8646 18.7762L15.759 16.9874L15.3367 16.7762H14.8646V18.7762ZM14.7877 18.7762V16.7762H12.7877V18.7762H14.7877ZM14.7877 23.4348V25.4348H16.7877V23.4348H14.7877ZM1.45776 23.4348H-0.542236V25.4348H1.45776V23.4348ZM10.0984 7.38355V9.38355H12.9844L11.971 6.6813L10.0984 7.38355ZM10.0523 6.99918L12.0368 7.24725L12.0523 7.12369V6.99918H10.0523ZM10.0984 6.76855L11.9553 7.51134L13.0524 4.76855H10.0984V6.76855ZM0.842773 24.0344H-1.15723V26.0344H0.842773V24.0344ZM15.418 24.0344V26.0344H17.418V24.0344H15.418ZM15.418 18.8531H17.418V15.6171L14.5236 17.0643L15.418 18.8531ZM15.5779 16.8886L15.3626 16.8578L14.797 20.8176L15.0122 20.8484L15.5779 16.8886ZM15.0798 16.8377C15.3003 16.8377 15.4792 16.8783 15.593 16.9125C15.637 16.9257 15.6696 16.9376 15.6617 16.9348C15.6599 16.9342 15.66 16.9342 15.6554 16.9326C15.652 16.9313 15.6468 16.9295 15.6407 16.9273C15.6286 16.923 15.6106 16.9168 15.5893 16.9096L14.3243 20.7044C14.3099 20.6996 14.2929 20.6934 14.3163 20.7018C14.3286 20.7062 14.3804 20.7248 14.4436 20.7438C14.5958 20.7895 14.8132 20.8377 15.0798 20.8377V16.8377ZM14.9568 16.807C15.269 16.807 15.504 16.8839 15.6129 16.9247C15.7133 16.9624 15.7933 17.0046 15.759 16.9874L13.9701 20.5651C13.9738 20.567 14.0043 20.5823 14.0388 20.5985C14.0753 20.6156 14.1346 20.6423 14.2085 20.6701C14.3481 20.7224 14.6138 20.807 14.9568 20.807V16.807ZM14.8646 16.7762C14.8645 16.7762 14.8644 16.7762 14.8644 16.7762C14.8643 16.7762 14.8643 16.7762 14.8642 16.7762C14.8641 16.7762 14.8641 16.7762 14.864 16.7762C14.864 16.7762 14.8639 16.7762 14.8638 16.7762C14.8638 16.7762 14.8637 16.7762 14.8637 16.7762C14.8636 16.7762 14.8635 16.7762 14.8635 16.7762C14.8634 16.7762 14.8634 16.7762 14.8633 16.7762C14.8632 16.7762 14.8632 16.7762 14.8631 16.7762C14.8631 16.7762 14.863 16.7762 14.8629 16.7762C14.8629 16.7762 14.8628 16.7762 14.8628 16.7762C14.8627 16.7762 14.8627 16.7762 14.8626 16.7762C14.8625 16.7762 14.8625 16.7762 14.8624 16.7762C14.8624 16.7762 14.8623 16.7762 14.8622 16.7762C14.8622 16.7762 14.8621 16.7762 14.8621 16.7762C14.862 16.7762 14.8619 16.7762 14.8619 16.7762C14.8618 16.7762 14.8618 16.7762 14.8617 16.7762C14.8617 16.7762 14.8616 16.7762 14.8615 16.7762C14.8615 16.7762 14.8614 16.7762 14.8614 16.7762C14.8613 16.7762 14.8613 16.7762 14.8612 16.7762C14.8611 16.7762 14.8611 16.7762 14.861 16.7762C14.861 16.7762 14.8609 16.7762 14.8608 16.7762C14.8608 16.7762 14.8607 16.7762 14.8607 16.7762C14.8606 16.7762 14.8606 16.7762 14.8605 16.7762C14.8604 16.7762 14.8604 16.7762 14.8603 16.7762C14.8603 16.7762 14.8602 16.7762 14.8602 16.7762C14.8601 16.7762 14.86 16.7762 14.86 16.7762C14.8599 16.7762 14.8599 16.7762 14.8598 16.7762C14.8598 16.7762 14.8597 16.7762 14.8596 16.7762C14.8596 16.7762 14.8595 16.7762 14.8595 16.7762C14.8594 16.7762 14.8594 16.7762 14.8593 16.7762C14.8592 16.7762 14.8592 16.7762 14.8591 16.7762C14.8591 16.7762 14.859 16.7762 14.859 16.7762C14.8589 16.7762 14.8588 16.7762 14.8588 16.7762C14.8587 16.7762 14.8587 16.7762 14.8586 16.7762C14.8586 16.7762 14.8585 16.7762 14.8585 16.7762C14.8584 16.7762 14.8583 16.7762 14.8583 16.7762C14.8582 16.7762 14.8582 16.7762 14.8581 16.7762C14.8581 16.7762 14.858 16.7762 14.8579 16.7762C14.8579 16.7762 14.8578 16.7762 14.8578 16.7762C14.8577 16.7762 14.8577 16.7762 14.8576 16.7762C14.8576 16.7762 14.8575 16.7762 14.8574 16.7762C14.8574 16.7762 14.8573 16.7762 14.8573 16.7762C14.8572 16.7762 14.8572 16.7762 14.8571 16.7762C14.8571 16.7762 14.857 16.7762 14.8569 16.7762C14.8569 16.7762 14.8568 16.7762 14.8568 16.7762C14.8567 16.7762 14.8567 16.7762 14.8566 16.7762C14.8566 16.7762 14.8565 16.7762 14.8565 16.7762C14.8564 16.7762 14.8563 16.7762 14.8563 16.7762C14.8562 16.7762 14.8562 16.7762 14.8561 16.7762C14.8561 16.7762 14.856 16.7762 14.856 16.7762C14.8559 16.7762 14.8558 16.7762 14.8558 16.7762C14.8557 16.7762 14.8557 16.7762 14.8556 16.7762C14.8556 16.7762 14.8555 16.7762 14.8555 16.7762C14.8554 16.7762 14.8554 16.7762 14.8553 16.7762C14.8552 16.7762 14.8552 16.7762 14.8551 16.7762C14.8551 16.7762 14.855 16.7762 14.855 16.7762C14.8549 16.7762 14.8549 16.7762 14.8548 16.7762C14.8548 16.7762 14.8547 16.7762 14.8547 16.7762C14.8546 16.7762 14.8545 16.7762 14.8545 16.7762C14.8544 16.7762 14.8544 16.7762 14.8543 16.7762C14.8543 16.7762 14.8542 16.7762 14.8542 16.7762C14.8541 16.7762 14.8541 16.7762 14.854 16.7762C14.854 16.7762 14.8539 16.7762 14.8538 16.7762C14.8538 16.7762 14.8537 16.7762 14.8537 16.7762C14.8536 16.7762 14.8536 16.7762 14.8535 16.7762C14.8535 16.7762 14.8534 16.7762 14.8534 16.7762C14.8533 16.7762 14.8533 16.7762 14.8532 16.7762C14.8532 16.7762 14.8531 16.7762 14.853 16.7762C14.853 16.7762 14.8529 16.7762 14.8529 16.7762C14.8528 16.7762 14.8528 16.7762 14.8527 16.7762C14.8527 16.7762 14.8526 16.7762 14.8526 16.7762C14.8525 16.7762 14.8525 16.7762 14.8524 16.7762C14.8524 16.7762 14.8523 16.7762 14.8523 16.7762C14.8522 16.7762 14.8521 16.7762 14.8521 16.7762C14.852 16.7762 14.852 16.7762 14.8519 16.7762C14.8519 16.7762 14.8518 16.7762 14.8518 16.7762C14.8517 16.7762 14.8517 16.7762 14.8516 16.7762C14.8516 16.7762 14.8515 16.7762 14.8515 16.7762C14.8514 16.7762 14.8514 16.7762 14.8513 16.7762C14.8513 16.7762 14.8512 16.7762 14.8511 16.7762C14.8511 16.7762 14.851 16.7762 14.851 16.7762C14.8509 16.7762 14.8509 16.7762 14.8508 16.7762C14.8508 16.7762 14.8507 16.7762 14.8507 16.7762C14.8506 16.7762 14.8506 16.7762 14.8505 16.7762C14.8505 16.7762 14.8504 16.7762 14.8504 16.7762C14.8503 16.7762 14.8503 16.7762 14.8502 16.7762C14.8502 16.7762 14.8501 16.7762 14.8501 16.7762C14.85 16.7762 14.85 16.7762 14.8499 16.7762C14.8499 16.7762 14.8498 16.7762 14.8498 16.7762C14.8497 16.7762 14.8496 16.7762 14.8496 16.7762C14.8495 16.7762 14.8495 16.7762 14.8494 16.7762C14.8494 16.7762 14.8493 16.7762 14.8493 16.7762C14.8492 16.7762 14.8492 16.7762 14.8491 16.7762C14.8491 16.7762 14.849 16.7762 14.849 16.7762C14.8489 16.7762 14.8489 16.7762 14.8488 16.7762C14.8488 16.7762 14.8487 16.7762 14.8487 16.7762C14.8486 16.7762 14.8486 16.7762 14.8485 16.7762C14.8485 16.7762 14.8484 16.7762 14.8484 16.7762C14.8483 16.7762 14.8483 16.7762 14.8482 16.7762C14.8482 16.7762 14.8481 16.7762 14.8481 16.7762C14.848 16.7762 14.848 16.7762 14.8479 16.7762C14.8479 16.7762 14.8478 16.7762 14.8478 16.7762C14.8477 16.7762 14.8477 16.7762 14.8476 16.7762C14.8476 16.7762 14.8475 16.7762 14.8475 16.7762C14.8474 16.7762 14.8474 16.7762 14.8473 16.7762C14.8473 16.7762 14.8472 16.7762 14.8472 16.7762C14.8471 16.7762 14.8471 16.7762 14.847 16.7762C14.847 16.7762 14.8469 16.7762 14.8469 16.7762C14.8468 16.7762 14.8468 16.7762 14.8467 16.7762C14.8467 16.7762 14.8466 16.7762 14.8466 16.7762C14.8465 16.7762 14.8465 16.7762 14.8464 16.7762C14.8464 16.7762 14.8463 16.7762 14.8463 16.7762C14.8462 16.7762 14.8462 16.7762 14.8461 16.7762C14.8461 16.7762 14.846 16.7762 14.846 16.7762C14.8459 16.7762 14.8459 16.7762 14.8458 16.7762C14.8458 16.7762 14.8457 16.7762 14.8457 16.7762C14.8456 16.7762 14.8456 16.7762 14.8455 16.7762C14.8455 16.7762 14.8454 16.7762 14.8454 16.7762C14.8453 16.7762 14.8453 16.7762 14.8452 16.7762C14.8452 16.7762 14.8451 16.7762 14.8451 16.7762C14.845 16.7762 14.845 16.7762 14.8449 16.7762C14.8449 16.7762 14.8448 16.7762 14.8448 16.7762C14.8447 16.7762 14.8447 16.7762 14.8446 16.7762C14.8446 16.7762 14.8445 16.7762 14.8445 16.7762C14.8444 16.7762 14.8444 16.7762 14.8443 16.7762C14.8443 16.7762 14.8442 16.7762 14.8442 16.7762C14.8441 16.7762 14.8441 16.7762 14.844 16.7762C14.844 16.7762 14.8439 16.7762 14.8439 16.7762C14.8438 16.7762 14.8438 16.7762 14.8437 16.7762C14.8437 16.7762 14.8437 16.7762 14.8436 16.7762C14.8436 16.7762 14.8435 16.7762 14.8435 16.7762C14.8434 16.7762 14.8434 16.7762 14.8433 16.7762C14.8433 16.7762 14.8432 16.7762 14.8432 16.7762C14.8431 16.7762 14.8431 16.7762 14.843 16.7762C14.843 16.7762 14.8429 16.7762 14.8429 16.7762C14.8428 16.7762 14.8428 16.7762 14.8427 16.7762C14.8427 16.7762 14.8426 16.7762 14.8426 16.7762C14.8425 16.7762 14.8425 16.7762 14.8424 16.7762C14.8424 16.7762 14.8423 16.7762 14.8423 16.7762C14.8422 16.7762 14.8422 16.7762 14.8421 16.7762C14.8421 16.7762 14.8421 16.7762 14.842 16.7762C14.842 16.7762 14.8419 16.7762 14.8419 16.7762C14.8418 16.7762 14.8418 16.7762 14.8417 16.7762C14.8417 16.7762 14.8416 16.7762 14.8416 16.7762C14.8415 16.7762 14.8415 16.7762 14.8414 16.7762C14.8414 16.7762 14.8413 16.7762 14.8413 16.7762C14.8412 16.7762 14.8412 16.7762 14.8411 16.7762C14.8411 16.7762 14.841 16.7762 14.841 16.7762C14.841 16.7762 14.8409 16.7762 14.8409 16.7762C14.8408 16.7762 14.8408 16.7762 14.8407 16.7762C14.8407 16.7762 14.8406 16.7762 14.8406 16.7762C14.8405 16.7762 14.8405 16.7762 14.8404 16.7762C14.8404 16.7762 14.8403 16.7762 14.8403 16.7762C14.8402 16.7762 14.8402 16.7762 14.8401 16.7762C14.8401 16.7762 14.84 16.7762 14.84 16.7762C14.84 16.7762 14.8399 16.7762 14.8399 16.7762C14.8398 16.7762 14.8398 16.7762 14.8397 16.7762C14.8397 16.7762 14.8396 16.7762 14.8396 16.7762C14.8395 16.7762 14.8395 16.7762 14.8394 16.7762C14.8394 16.7762 14.8393 16.7762 14.8393 16.7762C14.8392 16.7762 14.8392 16.7762 14.8392 16.7762C14.8391 16.7762 14.8391 16.7762 14.839 16.7762C14.839 16.7762 14.8389 16.7762 14.8389 16.7762C14.8388 16.7762 14.8388 16.7762 14.8387 16.7762C14.8387 16.7762 14.8386 16.7762 14.8386 16.7762C14.8385 16.7762 14.8385 16.7762 14.8384 16.7762C14.8384 16.7762 14.8384 16.7762 14.8383 16.7762C14.8383 16.7762 14.8382 16.7762 14.8382 16.7762C14.8381 16.7762 14.8381 16.7762 14.838 16.7762C14.838 16.7762 14.8379 16.7762 14.8379 16.7762C14.8378 16.7762 14.8378 16.7762 14.8377 16.7762C14.8377 16.7762 14.8377 16.7762 14.8376 16.7762C14.8376 16.7762 14.8375 16.7762 14.8375 16.7762C14.8374 16.7762 14.8374 16.7762 14.8373 16.7762C14.8373 16.7762 14.8372 16.7762 14.8372 16.7762C14.8371 16.7762 14.8371 16.7762 14.837 16.7762C14.837 16.7762 14.837 16.7762 14.8369 16.7762C14.8369 16.7762 14.8368 16.7762 14.8368 16.7762C14.8367 16.7762 14.8367 16.7762 14.8366 16.7762C14.8366 16.7762 14.8365 16.7762 14.8365 16.7762C14.8364 16.7762 14.8364 16.7762 14.8363 16.7762C14.8363 16.7762 14.8363 16.7762 14.8362 16.7762C14.8362 16.7762 14.8361 16.7762 14.8361 16.7762C14.836 16.7762 14.836 16.7762 14.8359 16.7762C14.8359 16.7762 14.8358 16.7762 14.8358 16.7762C14.8357 16.7762 14.8357 16.7762 14.8357 16.7762C14.8356 16.7762 14.8356 16.7762 14.8355 16.7762C14.8355 16.7762 14.8354 16.7762 14.8354 16.7762C14.8353 16.7762 14.8353 16.7762 14.8352 16.7762C14.8352 16.7762 14.8351 16.7762 14.8351 16.7762C14.8351 16.7762 14.835 16.7762 14.835 16.7762C14.8349 16.7762 14.8349 16.7762 14.8348 16.7762C14.8348 16.7762 14.8347 16.7762 14.8347 16.7762C14.8346 16.7762 14.8346 16.7762 14.8345 16.7762C14.8345 16.7762 14.8345 16.7762 14.8344 16.7762C14.8344 16.7762 14.8343 16.7762 14.8343 16.7762C14.8342 16.7762 14.8342 16.7762 14.8341 16.7762C14.8341 16.7762 14.834 16.7762 14.834 16.7762C14.834 16.7762 14.8339 16.7762 14.8339 16.7762C14.8338 16.7762 14.8338 16.7762 14.8337 16.7762C14.8337 16.7762 14.8336 16.7762 14.8336 16.7762C14.8335 16.7762 14.8335 16.7762 14.8335 16.7762C14.8334 16.7762 14.8334 16.7762 14.8333 16.7762C14.8333 16.7762 14.8332 16.7762 14.8332 16.7762C14.8331 16.7762 14.8331 16.7762 14.833 16.7762C14.833 16.7762 14.8329 16.7762 14.8329 16.7762C14.8329 16.7762 14.8328 16.7762 14.8328 16.7762C14.8327 16.7762 14.8327 16.7762 14.8326 16.7762C14.8326 16.7762 14.8325 16.7762 14.8325 16.7762C14.8324 16.7762 14.8324 16.7762 14.8324 16.7762C14.8323 16.7762 14.8323 16.7762 14.8322 16.7762C14.8322 16.7762 14.8321 16.7762 14.8321 16.7762C14.832 16.7762 14.832 16.7762 14.8319 16.7762C14.8319 16.7762 14.8319 16.7762 14.8318 16.7762C14.8318 16.7762 14.8317 16.7762 14.8317 16.7762C14.8316 16.7762 14.8316 16.7762 14.8315 16.7762C14.8315 16.7762 14.8314 16.7762 14.8314 16.7762C14.8314 16.7762 14.8313 16.7762 14.8313 16.7762C14.8312 16.7762 14.8312 16.7762 14.8311 16.7762C14.8311 16.7762 14.831 16.7762 14.831 16.7762C14.8309 16.7762 14.8309 16.7762 14.8309 16.7762C14.8308 16.7762 14.8308 16.7762 14.8307 16.7762C14.8307 16.7762 14.8306 16.7762 14.8306 16.7762C14.8305 16.7762 14.8305 16.7762 14.8304 16.7762C14.8304 16.7762 14.8304 16.7762 14.8303 16.7762C14.8303 16.7762 14.8302 16.7762 14.8302 16.7762C14.8301 16.7762 14.8301 16.7762 14.83 16.7762C14.83 16.7762 14.83 16.7762 14.8299 16.7762C14.8299 16.7762 14.8298 16.7762 14.8298 16.7762C14.8297 16.7762 14.8297 16.7762 14.8296 16.7762C14.8296 16.7762 14.8295 16.7762 14.8295 16.7762C14.8295 16.7762 14.8294 16.7762 14.8294 16.7762C14.8293 16.7762 14.8293 16.7762 14.8292 16.7762C14.8292 16.7762 14.8291 16.7762 14.8291 16.7762C14.829 16.7762 14.829 16.7762 14.829 16.7762C14.8289 16.7762 14.8289 16.7762 14.8288 16.7762C14.8288 16.7762 14.8287 16.7762 14.8287 16.7762C14.8286 16.7762 14.8286 16.7762 14.8286 16.7762C14.8285 16.7762 14.8285 16.7762 14.8284 16.7762C14.8284 16.7762 14.8283 16.7762 14.8283 16.7762C14.8282 16.7762 14.8282 16.7762 14.8281 16.7762C14.8281 16.7762 14.8281 16.7762 14.828 16.7762C14.828 16.7762 14.8279 16.7762 14.8279 16.7762C14.8278 16.7762 14.8278 16.7762 14.8277 16.7762C14.8277 16.7762 14.8276 16.7762 14.8276 16.7762C14.8276 16.7762 14.8275 16.7762 14.8275 16.7762C14.8274 16.7762 14.8274 16.7762 14.8273 16.7762C14.8273 16.7762 14.8272 16.7762 14.8272 16.7762C14.8272 16.7762 14.8271 16.7762 14.8271 16.7762C14.827 16.7762 14.827 16.7762 14.8269 16.7762C14.8269 16.7762 14.8268 16.7762 14.8268 16.7762C14.8267 16.7762 14.8267 16.7762 14.8267 16.7762C14.8266 16.7762 14.8266 16.7762 14.8265 16.7762C14.8265 16.7762 14.8264 16.7762 14.8264 16.7762C14.8263 16.7762 14.8263 16.7762 14.8263 16.7762C14.8262 16.7762 14.8262 16.7762 14.8261 16.7762C14.8261 16.7762 14.826 16.7762 14.826 16.7762C14.8259 16.7762 14.8259 16.7762 14.8258 16.7762C14.8258 16.7762 14.8258 16.7762 14.8257 16.7762C14.8257 16.7762 14.8256 16.7762 14.8256 16.7762C14.8255 16.7762 14.8255 16.7762 14.8254 16.7762C14.8254 16.7762 14.8254 16.7762 14.8253 16.7762C14.8253 16.7762 14.8252 16.7762 14.8252 16.7762C14.8251 16.7762 14.8251 16.7762 14.825 16.7762C14.825 16.7762 14.8249 16.7762 14.8249 16.7762C14.8249 16.7762 14.8248 16.7762 14.8248 16.7762C14.8247 16.7762 14.8247 16.7762 14.8246 16.7762C14.8246 16.7762 14.8245 16.7762 14.8245 16.7762C14.8245 16.7762 14.8244 16.7762 14.8244 16.7762C14.8243 16.7762 14.8243 16.7762 14.8242 16.7762C14.8242 16.7762 14.8241 16.7762 14.8241 16.7762C14.824 16.7762 14.824 16.7762 14.824 16.7762C14.8239 16.7762 14.8239 16.7762 14.8238 16.7762C14.8238 16.7762 14.8237 16.7762 14.8237 16.7762C14.8236 16.7762 14.8236 16.7762 14.8235 16.7762C14.8235 16.7762 14.8235 16.7762 14.8234 16.7762C14.8234 16.7762 14.8233 16.7762 14.8233 16.7762C14.8232 16.7762 14.8232 16.7762 14.8231 16.7762C14.8231 16.7762 14.8231 16.7762 14.823 16.7762C14.823 16.7762 14.8229 16.7762 14.8229 16.7762C14.8228 16.7762 14.8228 16.7762 14.8227 16.7762C14.8227 16.7762 14.8226 16.7762 14.8226 16.7762C14.8226 16.7762 14.8225 16.7762 14.8225 16.7762C14.8224 16.7762 14.8224 16.7762 14.8223 16.7762C14.8223 16.7762 14.8222 16.7762 14.8222 16.7762C14.8221 16.7762 14.8221 16.7762 14.8221 16.7762C14.822 16.7762 14.822 16.7762 14.8219 16.7762C14.8219 16.7762 14.8218 16.7762 14.8218 16.7762C14.8217 16.7762 14.8217 16.7762 14.8216 16.7762C14.8216 16.7762 14.8216 16.7762 14.8215 16.7762C14.8215 16.7762 14.8214 16.7762 14.8214 16.7762C14.8213 16.7762 14.8213 16.7762 14.8212 16.7762C14.8212 16.7762 14.8212 16.7762 14.8211 16.7762C14.8211 16.7762 14.821 16.7762 14.821 16.7762C14.8209 16.7762 14.8209 16.7762 14.8208 16.7762C14.8208 16.7762 14.8207 16.7762 14.8207 16.7762C14.8207 16.7762 14.8206 16.7762 14.8206 16.7762C14.8205 16.7762 14.8205 16.7762 14.8204 16.7762C14.8204 16.7762 14.8203 16.7762 14.8203 16.7762C14.8202 16.7762 14.8202 16.7762 14.8202 16.7762C14.8201 16.7762 14.8201 16.7762 14.82 16.7762C14.82 16.7762 14.8199 16.7762 14.8199 16.7762C14.8198 16.7762 14.8198 16.7762 14.8197 16.7762C14.8197 16.7762 14.8197 16.7762 14.8196 16.7762C14.8196 16.7762 14.8195 16.7762 14.8195 16.7762C14.8194 16.7762 14.8194 16.7762 14.8193 16.7762C14.8193 16.7762 14.8192 16.7762 14.8192 16.7762C14.8191 16.7762 14.8191 16.7762 14.8191 16.7762C14.819 16.7762 14.819 16.7762 14.8189 16.7762C14.8189 16.7762 14.8188 16.7762 14.8188 16.7762C14.8187 16.7762 14.8187 16.7762 14.8186 16.7762C14.8186 16.7762 14.8186 16.7762 14.8185 16.7762C14.8185 16.7762 14.8184 16.7762 14.8184 16.7762C14.8183 16.7762 14.8183 16.7762 14.8182 16.7762C14.8182 16.7762 14.8181 16.7762 14.8181 16.7762C14.8181 16.7762 14.818 16.7762 14.818 16.7762C14.8179 16.7762 14.8179 16.7762 14.8178 16.7762C14.8178 16.7762 14.8177 16.7762 14.8177 16.7762C14.8176 16.7762 14.8176 16.7762 14.8175 16.7762C14.8175 16.7762 14.8175 16.7762 14.8174 16.7762C14.8174 16.7762 14.8173 16.7762 14.8173 16.7762C14.8172 16.7762 14.8172 16.7762 14.8171 16.7762C14.8171 16.7762 14.817 16.7762 14.817 16.7762C14.8169 16.7762 14.8169 16.7762 14.8169 16.7762C14.8168 16.7762 14.8168 16.7762 14.8167 16.7762C14.8167 16.7762 14.8166 16.7762 14.8166 16.7762C14.8165 16.7762 14.8165 16.7762 14.8164 16.7762C14.8164 16.7762 14.8163 16.7762 14.8163 16.7762C14.8163 16.7762 14.8162 16.7762 14.8162 16.7762C14.8161 16.7762 14.8161 16.7762 14.816 16.7762C14.816 16.7762 14.8159 16.7762 14.8159 16.7762C14.8158 16.7762 14.8158 16.7762 14.8157 16.7762C14.8157 16.7762 14.8157 16.7762 14.8156 16.7762C14.8156 16.7762 14.8155 16.7762 14.8155 16.7762C14.8154 16.7762 14.8154 16.7762 14.8153 16.7762C14.8153 16.7762 14.8152 16.7762 14.8152 16.7762C14.8151 16.7762 14.8151 16.7762 14.8151 16.7762C14.815 16.7762 14.815 16.7762 14.8149 16.7762C14.8149 16.7762 14.8148 16.7762 14.8148 16.7762C14.8147 16.7762 14.8147 16.7762 14.8146 16.7762C14.8146 16.7762 14.8145 16.7762 14.8145 16.7762C14.8144 16.7762 14.8144 16.7762 14.8144 16.7762C14.8143 16.7762 14.8143 16.7762 14.8142 16.7762C14.8142 16.7762 14.8141 16.7762 14.8141 16.7762C14.814 16.7762 14.814 16.7762 14.8139 16.7762C14.8139 16.7762 14.8138 16.7762 14.8138 16.7762C14.8137 16.7762 14.8137 16.7762 14.8136 16.7762C14.8136 16.7762 14.8136 16.7762 14.8135 16.7762C14.8135 16.7762 14.8134 16.7762 14.8134 16.7762C14.8133 16.7762 14.8133 16.7762 14.8132 16.7762C14.8132 16.7762 14.8131 16.7762 14.8131 16.7762C14.813 16.7762 14.813 16.7762 14.8129 16.7762C14.8129 16.7762 14.8128 16.7762 14.8128 16.7762C14.8128 16.7762 14.8127 16.7762 14.8127 16.7762C14.8126 16.7762 14.8126 16.7762 14.8125 16.7762C14.8125 16.7762 14.8124 16.7762 14.8124 16.7762C14.8123 16.7762 14.8123 16.7762 14.8122 16.7762C14.8122 16.7762 14.8121 16.7762 14.8121 16.7762C14.812 16.7762 14.812 16.7762 14.8119 16.7762C14.8119 16.7762 14.8119 16.7762 14.8118 16.7762C14.8118 16.7762 14.8117 16.7762 14.8117 16.7762C14.8116 16.7762 14.8116 16.7762 14.8115 16.7762C14.8115 16.7762 14.8114 16.7762 14.8114 16.7762C14.8113 16.7762 14.8113 16.7762 14.8112 16.7762C14.8112 16.7762 14.8111 16.7762 14.8111 16.7762C14.811 16.7762 14.811 16.7762 14.8109 16.7762C14.8109 16.7762 14.8109 16.7762 14.8108 16.7762C14.8108 16.7762 14.8107 16.7762 14.8107 16.7762C14.8106 16.7762 14.8106 16.7762 14.8105 16.7762C14.8105 16.7762 14.8104 16.7762 14.8104 16.7762C14.8103 16.7762 14.8103 16.7762 14.8102 16.7762C14.8102 16.7762 14.8101 16.7762 14.8101 16.7762C14.81 16.7762 14.81 16.7762 14.8099 16.7762C14.8099 16.7762 14.8098 16.7762 14.8098 16.7762C14.8097 16.7762 14.8097 16.7762 14.8097 16.7762C14.8096 16.7762 14.8096 16.7762 14.8095 16.7762C14.8095 16.7762 14.8094 16.7762 14.8094 16.7762C14.8093 16.7762 14.8093 16.7762 14.8092 16.7762C14.8092 16.7762 14.8091 16.7762 14.8091 16.7762C14.809 16.7762 14.809 16.7762 14.8089 16.7762C14.8089 16.7762 14.8088 16.7762 14.8088 16.7762C14.8087 16.7762 14.8087 16.7762 14.8086 16.7762C14.8086 16.7762 14.8085 16.7762 14.8085 16.7762C14.8084 16.7762 14.8084 16.7762 14.8083 16.7762C14.8083 16.7762 14.8082 16.7762 14.8082 16.7762C14.8081 16.7762 14.8081 16.7762 14.808 16.7762C14.808 16.7762 14.8079 16.7762 14.8079 16.7762C14.8079 16.7762 14.8078 16.7762 14.8078 16.7762C14.8077 16.7762 14.8077 16.7762 14.8076 16.7762C14.8076 16.7762 14.8075 16.7762 14.8075 16.7762C14.8074 16.7762 14.8074 16.7762 14.8073 16.7762C14.8073 16.7762 14.8072 16.7762 14.8072 16.7762C14.8071 16.7762 14.8071 16.7762 14.807 16.7762C14.807 16.7762 14.8069 16.7762 14.8069 16.7762C14.8068 16.7762 14.8068 16.7762 14.8067 16.7762C14.8067 16.7762 14.8066 16.7762 14.8066 16.7762C14.8065 16.7762 14.8065 16.7762 14.8064 16.7762C14.8064 16.7762 14.8063 16.7762 14.8063 16.7762C14.8062 16.7762 14.8062 16.7762 14.8061 16.7762C14.8061 16.7762 14.806 16.7762 14.806 16.7762C14.8059 16.7762 14.8059 16.7762 14.8058 16.7762C14.8058 16.7762 14.8057 16.7762 14.8057 16.7762C14.8056 16.7762 14.8056 16.7762 14.8055 16.7762C14.8055 16.7762 14.8054 16.7762 14.8054 16.7762C14.8053 16.7762 14.8053 16.7762 14.8052 16.7762C14.8052 16.7762 14.8051 16.7762 14.8051 16.7762C14.805 16.7762 14.805 16.7762 14.8049 16.7762C14.8049 16.7762 14.8048 16.7762 14.8048 16.7762C14.8047 16.7762 14.8047 16.7762 14.8046 16.7762C14.8046 16.7762 14.8045 16.7762 14.8045 16.7762C14.8044 16.7762 14.8044 16.7762 14.8043 16.7762C14.8043 16.7762 14.8042 16.7762 14.8042 16.7762C14.8041 16.7762 14.8041 16.7762 14.804 16.7762C14.804 16.7762 14.8039 16.7762 14.8039 16.7762C14.8038 16.7762 14.8038 16.7762 14.8037 16.7762C14.8037 16.7762 14.8036 16.7762 14.8036 16.7762C14.8035 16.7762 14.8035 16.7762 14.8034 16.7762C14.8034 16.7762 14.8033 16.7762 14.8033 16.7762C14.8032 16.7762 14.8032 16.7762 14.8031 16.7762C14.803 16.7762 14.803 16.7762 14.8029 16.7762C14.8029 16.7762 14.8028 16.7762 14.8028 16.7762C14.8027 16.7762 14.8027 16.7762 14.8026 16.7762C14.8026 16.7762 14.8025 16.7762 14.8025 16.7762C14.8024 16.7762 14.8024 16.7762 14.8023 16.7762C14.8023 16.7762 14.8022 16.7762 14.8022 16.7762C14.8021 16.7762 14.8021 16.7762 14.802 16.7762C14.802 16.7762 14.8019 16.7762 14.8019 16.7762C14.8018 16.7762 14.8018 16.7762 14.8017 16.7762C14.8017 16.7762 14.8016 16.7762 14.8016 16.7762C14.8015 16.7762 14.8014 16.7762 14.8014 16.7762C14.8013 16.7762 14.8013 16.7762 14.8012 16.7762C14.8012 16.7762 14.8011 16.7762 14.8011 16.7762C14.801 16.7762 14.801 16.7762 14.8009 16.7762C14.8009 16.7762 14.8008 16.7762 14.8008 16.7762C14.8007 16.7762 14.8007 16.7762 14.8006 16.7762C14.8006 16.7762 14.8005 16.7762 14.8005 16.7762C14.8004 16.7762 14.8004 16.7762 14.8003 16.7762C14.8002 16.7762 14.8002 16.7762 14.8001 16.7762C14.8001 16.7762 14.8 16.7762 14.8 16.7762C14.7999 16.7762 14.7999 16.7762 14.7998 16.7762C14.7998 16.7762 14.7997 16.7762 14.7997 16.7762C14.7996 16.7762 14.7996 16.7762 14.7995 16.7762C14.7995 16.7762 14.7994 16.7762 14.7993 16.7762C14.7993 16.7762 14.7992 16.7762 14.7992 16.7762C14.7991 16.7762 14.7991 16.7762 14.799 16.7762C14.799 16.7762 14.7989 16.7762 14.7989 16.7762C14.7988 16.7762 14.7988 16.7762 14.7987 16.7762C14.7987 16.7762 14.7986 16.7762 14.7986 16.7762C14.7985 16.7762 14.7984 16.7762 14.7984 16.7762C14.7983 16.7762 14.7983 16.7762 14.7982 16.7762C14.7982 16.7762 14.7981 16.7762 14.7981 16.7762C14.798 16.7762 14.798 16.7762 14.7979 16.7762C14.7979 16.7762 14.7978 16.7762 14.7977 16.7762C14.7977 16.7762 14.7976 16.7762 14.7976 16.7762C14.7975 16.7762 14.7975 16.7762 14.7974 16.7762C14.7974 16.7762 14.7973 16.7762 14.7973 16.7762C14.7972 16.7762 14.7972 16.7762 14.7971 16.7762C14.797 16.7762 14.797 16.7762 14.7969 16.7762C14.7969 16.7762 14.7968 16.7762 14.7968 16.7762C14.7967 16.7762 14.7967 16.7762 14.7966 16.7762C14.7966 16.7762 14.7965 16.7762 14.7964 16.7762C14.7964 16.7762 14.7963 16.7762 14.7963 16.7762C14.7962 16.7762 14.7962 16.7762 14.7961 16.7762C14.7961 16.7762 14.796 16.7762 14.7959 16.7762C14.7959 16.7762 14.7958 16.7762 14.7958 16.7762C14.7957 16.7762 14.7957 16.7762 14.7956 16.7762C14.7956 16.7762 14.7955 16.7762 14.7955 16.7762C14.7954 16.7762 14.7953 16.7762 14.7953 16.7762C14.7952 16.7762 14.7952 16.7762 14.7951 16.7762C14.7951 16.7762 14.795 16.7762 14.795 16.7762C14.7949 16.7762 14.7948 16.7762 14.7948 16.7762C14.7947 16.7762 14.7947 16.7762 14.7946 16.7762C14.7946 16.7762 14.7945 16.7762 14.7945 16.7762C14.7944 16.7762 14.7943 16.7762 14.7943 16.7762C14.7942 16.7762 14.7942 16.7762 14.7941 16.7762C14.7941 16.7762 14.794 16.7762 14.7939 16.7762C14.7939 16.7762 14.7938 16.7762 14.7938 16.7762C14.7937 16.7762 14.7937 16.7762 14.7936 16.7762C14.7936 16.7762 14.7935 16.7762 14.7934 16.7762C14.7934 16.7762 14.7933 16.7762 14.7933 16.7762C14.7932 16.7762 14.7932 16.7762 14.7931 16.7762C14.793 16.7762 14.793 16.7762 14.7929 16.7762C14.7929 16.7762 14.7928 16.7762 14.7928 16.7762C14.7927 16.7762 14.7926 16.7762 14.7926 16.7762C14.7925 16.7762 14.7925 16.7762 14.7924 16.7762C14.7924 16.7762 14.7923 16.7762 14.7923 16.7762C14.7922 16.7762 14.7921 16.7762 14.7921 16.7762C14.792 16.7762 14.792 16.7762 14.7919 16.7762C14.7918 16.7762 14.7918 16.7762 14.7917 16.7762C14.7917 16.7762 14.7916 16.7762 14.7916 16.7762C14.7915 16.7762 14.7914 16.7762 14.7914 16.7762C14.7913 16.7762 14.7913 16.7762 14.7912 16.7762C14.7912 16.7762 14.7911 16.7762 14.791 16.7762C14.791 16.7762 14.7909 16.7762 14.7909 16.7762C14.7908 16.7762 14.7908 16.7762 14.7907 16.7762C14.7906 16.7762 14.7906 16.7762 14.7905 16.7762C14.7905 16.7762 14.7904 16.7762 14.7903 16.7762C14.7903 16.7762 14.7902 16.7762 14.7902 16.7762C14.7901 16.7762 14.7901 16.7762 14.79 16.7762C14.7899 16.7762 14.7899 16.7762 14.7898 16.7762C14.7898 16.7762 14.7897 16.7762 14.7896 16.7762C14.7896 16.7762 14.7895 16.7762 14.7895 16.7762C14.7894 16.7762 14.7893 16.7762 14.7893 16.7762C14.7892 16.7762 14.7892 16.7762 14.7891 16.7762C14.7891 16.7762 14.789 16.7762 14.7889 16.7762C14.7889 16.7762 14.7888 16.7762 14.7888 16.7762C14.7887 16.7762 14.7886 16.7762 14.7886 16.7762C14.7885 16.7762 14.7885 16.7762 14.7884 16.7762C14.7883 16.7762 14.7883 16.7762 14.7882 16.7762C14.7882 16.7762 14.7881 16.7762 14.788 16.7762C14.788 16.7762 14.7879 16.7762 14.7879 16.7762C14.7878 16.7762 14.7877 16.7762 14.7877 16.7762V20.7762C14.7877 20.7762 14.7878 20.7762 14.7879 20.7762C14.7879 20.7762 14.788 20.7762 14.788 20.7762C14.7881 20.7762 14.7882 20.7762 14.7882 20.7762C14.7883 20.7762 14.7883 20.7762 14.7884 20.7762C14.7885 20.7762 14.7885 20.7762 14.7886 20.7762C14.7886 20.7762 14.7887 20.7762 14.7888 20.7762C14.7888 20.7762 14.7889 20.7762 14.7889 20.7762C14.789 20.7762 14.7891 20.7762 14.7891 20.7762C14.7892 20.7762 14.7892 20.7762 14.7893 20.7762C14.7893 20.7762 14.7894 20.7762 14.7895 20.7762C14.7895 20.7762 14.7896 20.7762 14.7896 20.7762C14.7897 20.7762 14.7898 20.7762 14.7898 20.7762C14.7899 20.7762 14.7899 20.7762 14.79 20.7762C14.7901 20.7762 14.7901 20.7762 14.7902 20.7762C14.7902 20.7762 14.7903 20.7762 14.7903 20.7762C14.7904 20.7762 14.7905 20.7762 14.7905 20.7762C14.7906 20.7762 14.7906 20.7762 14.7907 20.7762C14.7908 20.7762 14.7908 20.7762 14.7909 20.7762C14.7909 20.7762 14.791 20.7762 14.791 20.7762C14.7911 20.7762 14.7912 20.7762 14.7912 20.7762C14.7913 20.7762 14.7913 20.7762 14.7914 20.7762C14.7914 20.7762 14.7915 20.7762 14.7916 20.7762C14.7916 20.7762 14.7917 20.7762 14.7917 20.7762C14.7918 20.7762 14.7918 20.7762 14.7919 20.7762C14.792 20.7762 14.792 20.7762 14.7921 20.7762C14.7921 20.7762 14.7922 20.7762 14.7923 20.7762C14.7923 20.7762 14.7924 20.7762 14.7924 20.7762C14.7925 20.7762 14.7925 20.7762 14.7926 20.7762C14.7926 20.7762 14.7927 20.7762 14.7928 20.7762C14.7928 20.7762 14.7929 20.7762 14.7929 20.7762C14.793 20.7762 14.793 20.7762 14.7931 20.7762C14.7932 20.7762 14.7932 20.7762 14.7933 20.7762C14.7933 20.7762 14.7934 20.7762 14.7934 20.7762C14.7935 20.7762 14.7936 20.7762 14.7936 20.7762C14.7937 20.7762 14.7937 20.7762 14.7938 20.7762C14.7938 20.7762 14.7939 20.7762 14.7939 20.7762C14.794 20.7762 14.7941 20.7762 14.7941 20.7762C14.7942 20.7762 14.7942 20.7762 14.7943 20.7762C14.7943 20.7762 14.7944 20.7762 14.7945 20.7762C14.7945 20.7762 14.7946 20.7762 14.7946 20.7762C14.7947 20.7762 14.7947 20.7762 14.7948 20.7762C14.7948 20.7762 14.7949 20.7762 14.795 20.7762C14.795 20.7762 14.7951 20.7762 14.7951 20.7762C14.7952 20.7762 14.7952 20.7762 14.7953 20.7762C14.7953 20.7762 14.7954 20.7762 14.7955 20.7762C14.7955 20.7762 14.7956 20.7762 14.7956 20.7762C14.7957 20.7762 14.7957 20.7762 14.7958 20.7762C14.7958 20.7762 14.7959 20.7762 14.7959 20.7762C14.796 20.7762 14.7961 20.7762 14.7961 20.7762C14.7962 20.7762 14.7962 20.7762 14.7963 20.7762C14.7963 20.7762 14.7964 20.7762 14.7964 20.7762C14.7965 20.7762 14.7966 20.7762 14.7966 20.7762C14.7967 20.7762 14.7967 20.7762 14.7968 20.7762C14.7968 20.7762 14.7969 20.7762 14.7969 20.7762C14.797 20.7762 14.797 20.7762 14.7971 20.7762C14.7972 20.7762 14.7972 20.7762 14.7973 20.7762C14.7973 20.7762 14.7974 20.7762 14.7974 20.7762C14.7975 20.7762 14.7975 20.7762 14.7976 20.7762C14.7976 20.7762 14.7977 20.7762 14.7977 20.7762C14.7978 20.7762 14.7979 20.7762 14.7979 20.7762C14.798 20.7762 14.798 20.7762 14.7981 20.7762C14.7981 20.7762 14.7982 20.7762 14.7982 20.7762C14.7983 20.7762 14.7983 20.7762 14.7984 20.7762C14.7984 20.7762 14.7985 20.7762 14.7986 20.7762C14.7986 20.7762 14.7987 20.7762 14.7987 20.7762C14.7988 20.7762 14.7988 20.7762 14.7989 20.7762C14.7989 20.7762 14.799 20.7762 14.799 20.7762C14.7991 20.7762 14.7991 20.7762 14.7992 20.7762C14.7992 20.7762 14.7993 20.7762 14.7993 20.7762C14.7994 20.7762 14.7995 20.7762 14.7995 20.7762C14.7996 20.7762 14.7996 20.7762 14.7997 20.7762C14.7997 20.7762 14.7998 20.7762 14.7998 20.7762C14.7999 20.7762 14.7999 20.7762 14.8 20.7762C14.8 20.7762 14.8001 20.7762 14.8001 20.7762C14.8002 20.7762 14.8002 20.7762 14.8003 20.7762C14.8004 20.7762 14.8004 20.7762 14.8005 20.7762C14.8005 20.7762 14.8006 20.7762 14.8006 20.7762C14.8007 20.7762 14.8007 20.7762 14.8008 20.7762C14.8008 20.7762 14.8009 20.7762 14.8009 20.7762C14.801 20.7762 14.801 20.7762 14.8011 20.7762C14.8011 20.7762 14.8012 20.7762 14.8012 20.7762C14.8013 20.7762 14.8013 20.7762 14.8014 20.7762C14.8014 20.7762 14.8015 20.7762 14.8016 20.7762C14.8016 20.7762 14.8017 20.7762 14.8017 20.7762C14.8018 20.7762 14.8018 20.7762 14.8019 20.7762C14.8019 20.7762 14.802 20.7762 14.802 20.7762C14.8021 20.7762 14.8021 20.7762 14.8022 20.7762C14.8022 20.7762 14.8023 20.7762 14.8023 20.7762C14.8024 20.7762 14.8024 20.7762 14.8025 20.7762C14.8025 20.7762 14.8026 20.7762 14.8026 20.7762C14.8027 20.7762 14.8027 20.7762 14.8028 20.7762C14.8028 20.7762 14.8029 20.7762 14.8029 20.7762C14.803 20.7762 14.803 20.7762 14.8031 20.7762C14.8032 20.7762 14.8032 20.7762 14.8033 20.7762C14.8033 20.7762 14.8034 20.7762 14.8034 20.7762C14.8035 20.7762 14.8035 20.7762 14.8036 20.7762C14.8036 20.7762 14.8037 20.7762 14.8037 20.7762C14.8038 20.7762 14.8038 20.7762 14.8039 20.7762C14.8039 20.7762 14.804 20.7762 14.804 20.7762C14.8041 20.7762 14.8041 20.7762 14.8042 20.7762C14.8042 20.7762 14.8043 20.7762 14.8043 20.7762C14.8044 20.7762 14.8044 20.7762 14.8045 20.7762C14.8045 20.7762 14.8046 20.7762 14.8046 20.7762C14.8047 20.7762 14.8047 20.7762 14.8048 20.7762C14.8048 20.7762 14.8049 20.7762 14.8049 20.7762C14.805 20.7762 14.805 20.7762 14.8051 20.7762C14.8051 20.7762 14.8052 20.7762 14.8052 20.7762C14.8053 20.7762 14.8053 20.7762 14.8054 20.7762C14.8054 20.7762 14.8055 20.7762 14.8055 20.7762C14.8056 20.7762 14.8056 20.7762 14.8057 20.7762C14.8057 20.7762 14.8058 20.7762 14.8058 20.7762C14.8059 20.7762 14.8059 20.7762 14.806 20.7762C14.806 20.7762 14.8061 20.7762 14.8061 20.7762C14.8062 20.7762 14.8062 20.7762 14.8063 20.7762C14.8063 20.7762 14.8064 20.7762 14.8064 20.7762C14.8065 20.7762 14.8065 20.7762 14.8066 20.7762C14.8066 20.7762 14.8067 20.7762 14.8067 20.7762C14.8068 20.7762 14.8068 20.7762 14.8069 20.7762C14.8069 20.7762 14.807 20.7762 14.807 20.7762C14.8071 20.7762 14.8071 20.7762 14.8072 20.7762C14.8072 20.7762 14.8073 20.7762 14.8073 20.7762C14.8074 20.7762 14.8074 20.7762 14.8075 20.7762C14.8075 20.7762 14.8076 20.7762 14.8076 20.7762C14.8077 20.7762 14.8077 20.7762 14.8078 20.7762C14.8078 20.7762 14.8079 20.7762 14.8079 20.7762C14.8079 20.7762 14.808 20.7762 14.808 20.7762C14.8081 20.7762 14.8081 20.7762 14.8082 20.7762C14.8082 20.7762 14.8083 20.7762 14.8083 20.7762C14.8084 20.7762 14.8084 20.7762 14.8085 20.7762C14.8085 20.7762 14.8086 20.7762 14.8086 20.7762C14.8087 20.7762 14.8087 20.7762 14.8088 20.7762C14.8088 20.7762 14.8089 20.7762 14.8089 20.7762C14.809 20.7762 14.809 20.7762 14.8091 20.7762C14.8091 20.7762 14.8092 20.7762 14.8092 20.7762C14.8093 20.7762 14.8093 20.7762 14.8094 20.7762C14.8094 20.7762 14.8095 20.7762 14.8095 20.7762C14.8096 20.7762 14.8096 20.7762 14.8097 20.7762C14.8097 20.7762 14.8097 20.7762 14.8098 20.7762C14.8098 20.7762 14.8099 20.7762 14.8099 20.7762C14.81 20.7762 14.81 20.7762 14.8101 20.7762C14.8101 20.7762 14.8102 20.7762 14.8102 20.7762C14.8103 20.7762 14.8103 20.7762 14.8104 20.7762C14.8104 20.7762 14.8105 20.7762 14.8105 20.7762C14.8106 20.7762 14.8106 20.7762 14.8107 20.7762C14.8107 20.7762 14.8108 20.7762 14.8108 20.7762C14.8109 20.7762 14.8109 20.7762 14.8109 20.7762C14.811 20.7762 14.811 20.7762 14.8111 20.7762C14.8111 20.7762 14.8112 20.7762 14.8112 20.7762C14.8113 20.7762 14.8113 20.7762 14.8114 20.7762C14.8114 20.7762 14.8115 20.7762 14.8115 20.7762C14.8116 20.7762 14.8116 20.7762 14.8117 20.7762C14.8117 20.7762 14.8118 20.7762 14.8118 20.7762C14.8119 20.7762 14.8119 20.7762 14.8119 20.7762C14.812 20.7762 14.812 20.7762 14.8121 20.7762C14.8121 20.7762 14.8122 20.7762 14.8122 20.7762C14.8123 20.7762 14.8123 20.7762 14.8124 20.7762C14.8124 20.7762 14.8125 20.7762 14.8125 20.7762C14.8126 20.7762 14.8126 20.7762 14.8127 20.7762C14.8127 20.7762 14.8128 20.7762 14.8128 20.7762C14.8128 20.7762 14.8129 20.7762 14.8129 20.7762C14.813 20.7762 14.813 20.7762 14.8131 20.7762C14.8131 20.7762 14.8132 20.7762 14.8132 20.7762C14.8133 20.7762 14.8133 20.7762 14.8134 20.7762C14.8134 20.7762 14.8135 20.7762 14.8135 20.7762C14.8136 20.7762 14.8136 20.7762 14.8136 20.7762C14.8137 20.7762 14.8137 20.7762 14.8138 20.7762C14.8138 20.7762 14.8139 20.7762 14.8139 20.7762C14.814 20.7762 14.814 20.7762 14.8141 20.7762C14.8141 20.7762 14.8142 20.7762 14.8142 20.7762C14.8143 20.7762 14.8143 20.7762 14.8144 20.7762C14.8144 20.7762 14.8144 20.7762 14.8145 20.7762C14.8145 20.7762 14.8146 20.7762 14.8146 20.7762C14.8147 20.7762 14.8147 20.7762 14.8148 20.7762C14.8148 20.7762 14.8149 20.7762 14.8149 20.7762C14.815 20.7762 14.815 20.7762 14.8151 20.7762C14.8151 20.7762 14.8151 20.7762 14.8152 20.7762C14.8152 20.7762 14.8153 20.7762 14.8153 20.7762C14.8154 20.7762 14.8154 20.7762 14.8155 20.7762C14.8155 20.7762 14.8156 20.7762 14.8156 20.7762C14.8157 20.7762 14.8157 20.7762 14.8157 20.7762C14.8158 20.7762 14.8158 20.7762 14.8159 20.7762C14.8159 20.7762 14.816 20.7762 14.816 20.7762C14.8161 20.7762 14.8161 20.7762 14.8162 20.7762C14.8162 20.7762 14.8163 20.7762 14.8163 20.7762C14.8163 20.7762 14.8164 20.7762 14.8164 20.7762C14.8165 20.7762 14.8165 20.7762 14.8166 20.7762C14.8166 20.7762 14.8167 20.7762 14.8167 20.7762C14.8168 20.7762 14.8168 20.7762 14.8169 20.7762C14.8169 20.7762 14.8169 20.7762 14.817 20.7762C14.817 20.7762 14.8171 20.7762 14.8171 20.7762C14.8172 20.7762 14.8172 20.7762 14.8173 20.7762C14.8173 20.7762 14.8174 20.7762 14.8174 20.7762C14.8175 20.7762 14.8175 20.7762 14.8175 20.7762C14.8176 20.7762 14.8176 20.7762 14.8177 20.7762C14.8177 20.7762 14.8178 20.7762 14.8178 20.7762C14.8179 20.7762 14.8179 20.7762 14.818 20.7762C14.818 20.7762 14.8181 20.7762 14.8181 20.7762C14.8181 20.7762 14.8182 20.7762 14.8182 20.7762C14.8183 20.7762 14.8183 20.7762 14.8184 20.7762C14.8184 20.7762 14.8185 20.7762 14.8185 20.7762C14.8186 20.7762 14.8186 20.7762 14.8186 20.7762C14.8187 20.7762 14.8187 20.7762 14.8188 20.7762C14.8188 20.7762 14.8189 20.7762 14.8189 20.7762C14.819 20.7762 14.819 20.7762 14.8191 20.7762C14.8191 20.7762 14.8191 20.7762 14.8192 20.7762C14.8192 20.7762 14.8193 20.7762 14.8193 20.7762C14.8194 20.7762 14.8194 20.7762 14.8195 20.7762C14.8195 20.7762 14.8196 20.7762 14.8196 20.7762C14.8197 20.7762 14.8197 20.7762 14.8197 20.7762C14.8198 20.7762 14.8198 20.7762 14.8199 20.7762C14.8199 20.7762 14.82 20.7762 14.82 20.7762C14.8201 20.7762 14.8201 20.7762 14.8202 20.7762C14.8202 20.7762 14.8202 20.7762 14.8203 20.7762C14.8203 20.7762 14.8204 20.7762 14.8204 20.7762C14.8205 20.7762 14.8205 20.7762 14.8206 20.7762C14.8206 20.7762 14.8207 20.7762 14.8207 20.7762C14.8207 20.7762 14.8208 20.7762 14.8208 20.7762C14.8209 20.7762 14.8209 20.7762 14.821 20.7762C14.821 20.7762 14.8211 20.7762 14.8211 20.7762C14.8212 20.7762 14.8212 20.7762 14.8212 20.7762C14.8213 20.7762 14.8213 20.7762 14.8214 20.7762C14.8214 20.7762 14.8215 20.7762 14.8215 20.7762C14.8216 20.7762 14.8216 20.7762 14.8216 20.7762C14.8217 20.7762 14.8217 20.7762 14.8218 20.7762C14.8218 20.7762 14.8219 20.7762 14.8219 20.7762C14.822 20.7762 14.822 20.7762 14.8221 20.7762C14.8221 20.7762 14.8221 20.7762 14.8222 20.7762C14.8222 20.7762 14.8223 20.7762 14.8223 20.7762C14.8224 20.7762 14.8224 20.7762 14.8225 20.7762C14.8225 20.7762 14.8226 20.7762 14.8226 20.7762C14.8226 20.7762 14.8227 20.7762 14.8227 20.7762C14.8228 20.7762 14.8228 20.7762 14.8229 20.7762C14.8229 20.7762 14.823 20.7762 14.823 20.7762C14.8231 20.7762 14.8231 20.7762 14.8231 20.7762C14.8232 20.7762 14.8232 20.7762 14.8233 20.7762C14.8233 20.7762 14.8234 20.7762 14.8234 20.7762C14.8235 20.7762 14.8235 20.7762 14.8235 20.7762C14.8236 20.7762 14.8236 20.7762 14.8237 20.7762C14.8237 20.7762 14.8238 20.7762 14.8238 20.7762C14.8239 20.7762 14.8239 20.7762 14.824 20.7762C14.824 20.7762 14.824 20.7762 14.8241 20.7762C14.8241 20.7762 14.8242 20.7762 14.8242 20.7762C14.8243 20.7762 14.8243 20.7762 14.8244 20.7762C14.8244 20.7762 14.8245 20.7762 14.8245 20.7762C14.8245 20.7762 14.8246 20.7762 14.8246 20.7762C14.8247 20.7762 14.8247 20.7762 14.8248 20.7762C14.8248 20.7762 14.8249 20.7762 14.8249 20.7762C14.8249 20.7762 14.825 20.7762 14.825 20.7762C14.8251 20.7762 14.8251 20.7762 14.8252 20.7762C14.8252 20.7762 14.8253 20.7762 14.8253 20.7762C14.8254 20.7762 14.8254 20.7762 14.8254 20.7762C14.8255 20.7762 14.8255 20.7762 14.8256 20.7762C14.8256 20.7762 14.8257 20.7762 14.8257 20.7762C14.8258 20.7762 14.8258 20.7762 14.8258 20.7762C14.8259 20.7762 14.8259 20.7762 14.826 20.7762C14.826 20.7762 14.8261 20.7762 14.8261 20.7762C14.8262 20.7762 14.8262 20.7762 14.8263 20.7762C14.8263 20.7762 14.8263 20.7762 14.8264 20.7762C14.8264 20.7762 14.8265 20.7762 14.8265 20.7762C14.8266 20.7762 14.8266 20.7762 14.8267 20.7762C14.8267 20.7762 14.8267 20.7762 14.8268 20.7762C14.8268 20.7762 14.8269 20.7762 14.8269 20.7762C14.827 20.7762 14.827 20.7762 14.8271 20.7762C14.8271 20.7762 14.8272 20.7762 14.8272 20.7762C14.8272 20.7762 14.8273 20.7762 14.8273 20.7762C14.8274 20.7762 14.8274 20.7762 14.8275 20.7762C14.8275 20.7762 14.8276 20.7762 14.8276 20.7762C14.8276 20.7762 14.8277 20.7762 14.8277 20.7762C14.8278 20.7762 14.8278 20.7762 14.8279 20.7762C14.8279 20.7762 14.828 20.7762 14.828 20.7762C14.8281 20.7762 14.8281 20.7762 14.8281 20.7762C14.8282 20.7762 14.8282 20.7762 14.8283 20.7762C14.8283 20.7762 14.8284 20.7762 14.8284 20.7762C14.8285 20.7762 14.8285 20.7762 14.8286 20.7762C14.8286 20.7762 14.8286 20.7762 14.8287 20.7762C14.8287 20.7762 14.8288 20.7762 14.8288 20.7762C14.8289 20.7762 14.8289 20.7762 14.829 20.7762C14.829 20.7762 14.829 20.7762 14.8291 20.7762C14.8291 20.7762 14.8292 20.7762 14.8292 20.7762C14.8293 20.7762 14.8293 20.7762 14.8294 20.7762C14.8294 20.7762 14.8295 20.7762 14.8295 20.7762C14.8295 20.7762 14.8296 20.7762 14.8296 20.7762C14.8297 20.7762 14.8297 20.7762 14.8298 20.7762C14.8298 20.7762 14.8299 20.7762 14.8299 20.7762C14.83 20.7762 14.83 20.7762 14.83 20.7762C14.8301 20.7762 14.8301 20.7762 14.8302 20.7762C14.8302 20.7762 14.8303 20.7762 14.8303 20.7762C14.8304 20.7762 14.8304 20.7762 14.8304 20.7762C14.8305 20.7762 14.8305 20.7762 14.8306 20.7762C14.8306 20.7762 14.8307 20.7762 14.8307 20.7762C14.8308 20.7762 14.8308 20.7762 14.8309 20.7762C14.8309 20.7762 14.8309 20.7762 14.831 20.7762C14.831 20.7762 14.8311 20.7762 14.8311 20.7762C14.8312 20.7762 14.8312 20.7762 14.8313 20.7762C14.8313 20.7762 14.8314 20.7762 14.8314 20.7762C14.8314 20.7762 14.8315 20.7762 14.8315 20.7762C14.8316 20.7762 14.8316 20.7762 14.8317 20.7762C14.8317 20.7762 14.8318 20.7762 14.8318 20.7762C14.8319 20.7762 14.8319 20.7762 14.8319 20.7762C14.832 20.7762 14.832 20.7762 14.8321 20.7762C14.8321 20.7762 14.8322 20.7762 14.8322 20.7762C14.8323 20.7762 14.8323 20.7762 14.8324 20.7762C14.8324 20.7762 14.8324 20.7762 14.8325 20.7762C14.8325 20.7762 14.8326 20.7762 14.8326 20.7762C14.8327 20.7762 14.8327 20.7762 14.8328 20.7762C14.8328 20.7762 14.8329 20.7762 14.8329 20.7762C14.8329 20.7762 14.833 20.7762 14.833 20.7762C14.8331 20.7762 14.8331 20.7762 14.8332 20.7762C14.8332 20.7762 14.8333 20.7762 14.8333 20.7762C14.8334 20.7762 14.8334 20.7762 14.8335 20.7762C14.8335 20.7762 14.8335 20.7762 14.8336 20.7762C14.8336 20.7762 14.8337 20.7762 14.8337 20.7762C14.8338 20.7762 14.8338 20.7762 14.8339 20.7762C14.8339 20.7762 14.834 20.7762 14.834 20.7762C14.834 20.7762 14.8341 20.7762 14.8341 20.7762C14.8342 20.7762 14.8342 20.7762 14.8343 20.7762C14.8343 20.7762 14.8344 20.7762 14.8344 20.7762C14.8345 20.7762 14.8345 20.7762 14.8345 20.7762C14.8346 20.7762 14.8346 20.7762 14.8347 20.7762C14.8347 20.7762 14.8348 20.7762 14.8348 20.7762C14.8349 20.7762 14.8349 20.7762 14.835 20.7762C14.835 20.7762 14.8351 20.7762 14.8351 20.7762C14.8351 20.7762 14.8352 20.7762 14.8352 20.7762C14.8353 20.7762 14.8353 20.7762 14.8354 20.7762C14.8354 20.7762 14.8355 20.7762 14.8355 20.7762C14.8356 20.7762 14.8356 20.7762 14.8357 20.7762C14.8357 20.7762 14.8357 20.7762 14.8358 20.7762C14.8358 20.7762 14.8359 20.7762 14.8359 20.7762C14.836 20.7762 14.836 20.7762 14.8361 20.7762C14.8361 20.7762 14.8362 20.7762 14.8362 20.7762C14.8363 20.7762 14.8363 20.7762 14.8363 20.7762C14.8364 20.7762 14.8364 20.7762 14.8365 20.7762C14.8365 20.7762 14.8366 20.7762 14.8366 20.7762C14.8367 20.7762 14.8367 20.7762 14.8368 20.7762C14.8368 20.7762 14.8369 20.7762 14.8369 20.7762C14.837 20.7762 14.837 20.7762 14.837 20.7762C14.8371 20.7762 14.8371 20.7762 14.8372 20.7762C14.8372 20.7762 14.8373 20.7762 14.8373 20.7762C14.8374 20.7762 14.8374 20.7762 14.8375 20.7762C14.8375 20.7762 14.8376 20.7762 14.8376 20.7762C14.8377 20.7762 14.8377 20.7762 14.8377 20.7762C14.8378 20.7762 14.8378 20.7762 14.8379 20.7762C14.8379 20.7762 14.838 20.7762 14.838 20.7762C14.8381 20.7762 14.8381 20.7762 14.8382 20.7762C14.8382 20.7762 14.8383 20.7762 14.8383 20.7762C14.8384 20.7762 14.8384 20.7762 14.8384 20.7762C14.8385 20.7762 14.8385 20.7762 14.8386 20.7762C14.8386 20.7762 14.8387 20.7762 14.8387 20.7762C14.8388 20.7762 14.8388 20.7762 14.8389 20.7762C14.8389 20.7762 14.839 20.7762 14.839 20.7762C14.8391 20.7762 14.8391 20.7762 14.8392 20.7762C14.8392 20.7762 14.8392 20.7762 14.8393 20.7762C14.8393 20.7762 14.8394 20.7762 14.8394 20.7762C14.8395 20.7762 14.8395 20.7762 14.8396 20.7762C14.8396 20.7762 14.8397 20.7762 14.8397 20.7762C14.8398 20.7762 14.8398 20.7762 14.8399 20.7762C14.8399 20.7762 14.84 20.7762 14.84 20.7762C14.84 20.7762 14.8401 20.7762 14.8401 20.7762C14.8402 20.7762 14.8402 20.7762 14.8403 20.7762C14.8403 20.7762 14.8404 20.7762 14.8404 20.7762C14.8405 20.7762 14.8405 20.7762 14.8406 20.7762C14.8406 20.7762 14.8407 20.7762 14.8407 20.7762C14.8408 20.7762 14.8408 20.7762 14.8409 20.7762C14.8409 20.7762 14.841 20.7762 14.841 20.7762C14.841 20.7762 14.8411 20.7762 14.8411 20.7762C14.8412 20.7762 14.8412 20.7762 14.8413 20.7762C14.8413 20.7762 14.8414 20.7762 14.8414 20.7762C14.8415 20.7762 14.8415 20.7762 14.8416 20.7762C14.8416 20.7762 14.8417 20.7762 14.8417 20.7762C14.8418 20.7762 14.8418 20.7762 14.8419 20.7762C14.8419 20.7762 14.842 20.7762 14.842 20.7762C14.8421 20.7762 14.8421 20.7762 14.8421 20.7762C14.8422 20.7762 14.8422 20.7762 14.8423 20.7762C14.8423 20.7762 14.8424 20.7762 14.8424 20.7762C14.8425 20.7762 14.8425 20.7762 14.8426 20.7762C14.8426 20.7762 14.8427 20.7762 14.8427 20.7762C14.8428 20.7762 14.8428 20.7762 14.8429 20.7762C14.8429 20.7762 14.843 20.7762 14.843 20.7762C14.8431 20.7762 14.8431 20.7762 14.8432 20.7762C14.8432 20.7762 14.8433 20.7762 14.8433 20.7762C14.8434 20.7762 14.8434 20.7762 14.8435 20.7762C14.8435 20.7762 14.8436 20.7762 14.8436 20.7762C14.8437 20.7762 14.8437 20.7762 14.8437 20.7762C14.8438 20.7762 14.8438 20.7762 14.8439 20.7762C14.8439 20.7762 14.844 20.7762 14.844 20.7762C14.8441 20.7762 14.8441 20.7762 14.8442 20.7762C14.8442 20.7762 14.8443 20.7762 14.8443 20.7762C14.8444 20.7762 14.8444 20.7762 14.8445 20.7762C14.8445 20.7762 14.8446 20.7762 14.8446 20.7762C14.8447 20.7762 14.8447 20.7762 14.8448 20.7762C14.8448 20.7762 14.8449 20.7762 14.8449 20.7762C14.845 20.7762 14.845 20.7762 14.8451 20.7762C14.8451 20.7762 14.8452 20.7762 14.8452 20.7762C14.8453 20.7762 14.8453 20.7762 14.8454 20.7762C14.8454 20.7762 14.8455 20.7762 14.8455 20.7762C14.8456 20.7762 14.8456 20.7762 14.8457 20.7762C14.8457 20.7762 14.8458 20.7762 14.8458 20.7762C14.8459 20.7762 14.8459 20.7762 14.846 20.7762C14.846 20.7762 14.8461 20.7762 14.8461 20.7762C14.8462 20.7762 14.8462 20.7762 14.8463 20.7762C14.8463 20.7762 14.8464 20.7762 14.8464 20.7762C14.8465 20.7762 14.8465 20.7762 14.8466 20.7762C14.8466 20.7762 14.8467 20.7762 14.8467 20.7762C14.8468 20.7762 14.8468 20.7762 14.8469 20.7762C14.8469 20.7762 14.847 20.7762 14.847 20.7762C14.8471 20.7762 14.8471 20.7762 14.8472 20.7762C14.8472 20.7762 14.8473 20.7762 14.8473 20.7762C14.8474 20.7762 14.8474 20.7762 14.8475 20.7762C14.8475 20.7762 14.8476 20.7762 14.8476 20.7762C14.8477 20.7762 14.8477 20.7762 14.8478 20.7762C14.8478 20.7762 14.8479 20.7762 14.8479 20.7762C14.848 20.7762 14.848 20.7762 14.8481 20.7762C14.8481 20.7762 14.8482 20.7762 14.8482 20.7762C14.8483 20.7762 14.8483 20.7762 14.8484 20.7762C14.8484 20.7762 14.8485 20.7762 14.8485 20.7762C14.8486 20.7762 14.8486 20.7762 14.8487 20.7762C14.8487 20.7762 14.8488 20.7762 14.8488 20.7762C14.8489 20.7762 14.8489 20.7762 14.849 20.7762C14.849 20.7762 14.8491 20.7762 14.8491 20.7762C14.8492 20.7762 14.8492 20.7762 14.8493 20.7762C14.8493 20.7762 14.8494 20.7762 14.8494 20.7762C14.8495 20.7762 14.8495 20.7762 14.8496 20.7762C14.8496 20.7762 14.8497 20.7762 14.8498 20.7762C14.8498 20.7762 14.8499 20.7762 14.8499 20.7762C14.85 20.7762 14.85 20.7762 14.8501 20.7762C14.8501 20.7762 14.8502 20.7762 14.8502 20.7762C14.8503 20.7762 14.8503 20.7762 14.8504 20.7762C14.8504 20.7762 14.8505 20.7762 14.8505 20.7762C14.8506 20.7762 14.8506 20.7762 14.8507 20.7762C14.8507 20.7762 14.8508 20.7762 14.8508 20.7762C14.8509 20.7762 14.8509 20.7762 14.851 20.7762C14.851 20.7762 14.8511 20.7762 14.8511 20.7762C14.8512 20.7762 14.8513 20.7762 14.8513 20.7762C14.8514 20.7762 14.8514 20.7762 14.8515 20.7762C14.8515 20.7762 14.8516 20.7762 14.8516 20.7762C14.8517 20.7762 14.8517 20.7762 14.8518 20.7762C14.8518 20.7762 14.8519 20.7762 14.8519 20.7762C14.852 20.7762 14.852 20.7762 14.8521 20.7762C14.8521 20.7762 14.8522 20.7762 14.8523 20.7762C14.8523 20.7762 14.8524 20.7762 14.8524 20.7762C14.8525 20.7762 14.8525 20.7762 14.8526 20.7762C14.8526 20.7762 14.8527 20.7762 14.8527 20.7762C14.8528 20.7762 14.8528 20.7762 14.8529 20.7762C14.8529 20.7762 14.853 20.7762 14.853 20.7762C14.8531 20.7762 14.8532 20.7762 14.8532 20.7762C14.8533 20.7762 14.8533 20.7762 14.8534 20.7762C14.8534 20.7762 14.8535 20.7762 14.8535 20.7762C14.8536 20.7762 14.8536 20.7762 14.8537 20.7762C14.8537 20.7762 14.8538 20.7762 14.8538 20.7762C14.8539 20.7762 14.854 20.7762 14.854 20.7762C14.8541 20.7762 14.8541 20.7762 14.8542 20.7762C14.8542 20.7762 14.8543 20.7762 14.8543 20.7762C14.8544 20.7762 14.8544 20.7762 14.8545 20.7762C14.8545 20.7762 14.8546 20.7762 14.8547 20.7762C14.8547 20.7762 14.8548 20.7762 14.8548 20.7762C14.8549 20.7762 14.8549 20.7762 14.855 20.7762C14.855 20.7762 14.8551 20.7762 14.8551 20.7762C14.8552 20.7762 14.8552 20.7762 14.8553 20.7762C14.8554 20.7762 14.8554 20.7762 14.8555 20.7762C14.8555 20.7762 14.8556 20.7762 14.8556 20.7762C14.8557 20.7762 14.8557 20.7762 14.8558 20.7762C14.8558 20.7762 14.8559 20.7762 14.856 20.7762C14.856 20.7762 14.8561 20.7762 14.8561 20.7762C14.8562 20.7762 14.8562 20.7762 14.8563 20.7762C14.8563 20.7762 14.8564 20.7762 14.8565 20.7762C14.8565 20.7762 14.8566 20.7762 14.8566 20.7762C14.8567 20.7762 14.8567 20.7762 14.8568 20.7762C14.8568 20.7762 14.8569 20.7762 14.8569 20.7762C14.857 20.7762 14.8571 20.7762 14.8571 20.7762C14.8572 20.7762 14.8572 20.7762 14.8573 20.7762C14.8573 20.7762 14.8574 20.7762 14.8574 20.7762C14.8575 20.7762 14.8576 20.7762 14.8576 20.7762C14.8577 20.7762 14.8577 20.7762 14.8578 20.7762C14.8578 20.7762 14.8579 20.7762 14.8579 20.7762C14.858 20.7762 14.8581 20.7762 14.8581 20.7762C14.8582 20.7762 14.8582 20.7762 14.8583 20.7762C14.8583 20.7762 14.8584 20.7762 14.8585 20.7762C14.8585 20.7762 14.8586 20.7762 14.8586 20.7762C14.8587 20.7762 14.8587 20.7762 14.8588 20.7762C14.8588 20.7762 14.8589 20.7762 14.859 20.7762C14.859 20.7762 14.8591 20.7762 14.8591 20.7762C14.8592 20.7762 14.8592 20.7762 14.8593 20.7762C14.8594 20.7762 14.8594 20.7762 14.8595 20.7762C14.8595 20.7762 14.8596 20.7762 14.8596 20.7762C14.8597 20.7762 14.8598 20.7762 14.8598 20.7762C14.8599 20.7762 14.8599 20.7762 14.86 20.7762C14.86 20.7762 14.8601 20.7762 14.8602 20.7762C14.8602 20.7762 14.8603 20.7762 14.8603 20.7762C14.8604 20.7762 14.8604 20.7762 14.8605 20.7762C14.8606 20.7762 14.8606 20.7762 14.8607 20.7762C14.8607 20.7762 14.8608 20.7762 14.8608 20.7762C14.8609 20.7762 14.861 20.7762 14.861 20.7762C14.8611 20.7762 14.8611 20.7762 14.8612 20.7762C14.8613 20.7762 14.8613 20.7762 14.8614 20.7762C14.8614 20.7762 14.8615 20.7762 14.8615 20.7762C14.8616 20.7762 14.8617 20.7762 14.8617 20.7762C14.8618 20.7762 14.8618 20.7762 14.8619 20.7762C14.8619 20.7762 14.862 20.7762 14.8621 20.7762C14.8621 20.7762 14.8622 20.7762 14.8622 20.7762C14.8623 20.7762 14.8624 20.7762 14.8624 20.7762C14.8625 20.7762 14.8625 20.7762 14.8626 20.7762C14.8627 20.7762 14.8627 20.7762 14.8628 20.7762C14.8628 20.7762 14.8629 20.7762 14.8629 20.7762C14.863 20.7762 14.8631 20.7762 14.8631 20.7762C14.8632 20.7762 14.8632 20.7762 14.8633 20.7762C14.8634 20.7762 14.8634 20.7762 14.8635 20.7762C14.8635 20.7762 14.8636 20.7762 14.8637 20.7762C14.8637 20.7762 14.8638 20.7762 14.8638 20.7762C14.8639 20.7762 14.864 20.7762 14.864 20.7762C14.8641 20.7762 14.8641 20.7762 14.8642 20.7762C14.8643 20.7762 14.8643 20.7762 14.8644 20.7762C14.8644 20.7762 14.8645 20.7762 14.8646 20.7762V16.7762ZM12.7877 18.7762V23.4348H16.7877V18.7762H12.7877ZM14.7877 21.4348H1.45776V25.4348H14.7877V21.4348ZM3.45776 23.4348V9.39764H-0.542236V23.4348H3.45776ZM3.45776 9.39764C3.45776 9.39618 3.45788 9.39628 3.45768 9.39726C3.4575 9.39812 3.4573 9.39858 3.45736 9.39844C3.45765 9.39776 3.45946 9.39413 3.46391 9.38969C3.46835 9.38525 3.47198 9.38343 3.47266 9.38314C3.4728 9.38308 3.47234 9.38328 3.47148 9.38346C3.47049 9.38366 3.4704 9.38355 3.47186 9.38355V5.38355C1.2603 5.38355 -0.542236 7.18609 -0.542236 9.39764H3.45776ZM3.47186 9.38355H10.0984V5.38355H3.47186V9.38355ZM11.971 6.6813C12.0079 6.77957 12.0285 6.87236 12.0386 6.95768C12.0485 7.04259 12.0503 7.13931 12.0368 7.24725L8.0677 6.75111C8.01221 7.19499 8.06586 7.65949 8.22572 8.08579L11.971 6.6813ZM12.0523 6.99918C12.0523 7.19578 12.0117 7.37031 11.9553 7.51134L8.24143 6.02577C8.12352 6.32055 8.05226 6.64883 8.05226 6.99918H12.0523ZM10.0984 4.76855H3.48723V8.76855H10.0984V4.76855ZM3.48723 4.76855C0.929656 4.76855 -1.15723 6.84026 -1.15723 9.39764H2.84277C2.84277 9.06456 3.1236 8.76855 3.48723 8.76855V4.76855ZM-1.15723 9.39764V24.0344H2.84277V9.39764H-1.15723ZM0.842773 26.0344H15.418V22.0344H0.842773V26.0344ZM17.418 24.0344V18.8531H13.418V24.0344H17.418ZM14.5236 17.0643C14.6913 16.9804 14.84 16.9369 14.9427 16.9132C15.0462 16.8893 15.1304 16.8794 15.1813 16.8748C15.2673 16.867 15.3389 16.8685 15.295 16.8685V20.8685C15.2973 20.8685 15.415 20.87 15.5434 20.8584C15.6587 20.8479 15.9682 20.8141 16.3125 20.642L14.5236 17.0643Z" fill="#00AEEF" mask="url(#path-8-inside-5)"/>
<mask id="path-10-inside-6" fill="white">
<path d="M8.96053 13.2104H2.39551V13.8254H8.96053V13.2104Z"/>
</mask>
<path d="M8.96053 13.2104H2.39551V13.8254H8.96053V13.2104Z" fill="#00AEEF"/>
<path d="M2.39551 13.2104V11.2104H0.395508V13.2104H2.39551ZM8.96053 13.2104H10.9605V11.2104H8.96053V13.2104ZM8.96053 13.8254V15.8254H10.9605V13.8254H8.96053ZM2.39551 13.8254H0.395508V15.8254H2.39551V13.8254ZM2.39551 15.2104H8.96053V11.2104H2.39551V15.2104ZM6.96053 13.2104V13.8254H10.9605V13.2104H6.96053ZM8.96053 11.8254H2.39551V15.8254H8.96053V11.8254ZM4.39551 13.8254V13.2104H0.395508V13.8254H4.39551Z" fill="#00AEEF" mask="url(#path-10-inside-6)"/>
<mask id="path-12-inside-7" fill="white">
<path d="M6.19334 8.98242L3.97938 11.4731L3.57963 10.8735L3.07227 11.2118L3.9025 12.4879L6.65458 9.38217L6.19334 8.98242Z"/>
</mask>
<path d="M6.19334 8.98242L3.97938 11.4731L3.57963 10.8735L3.07227 11.2118L3.9025 12.4879L6.65458 9.38217L6.19334 8.98242Z" fill="#00AEEF"/>
<path d="M6.19334 8.98242L7.5032 7.47104L6.01068 6.17752L4.69852 7.65369L6.19334 8.98242ZM3.97938 11.4731L2.31528 12.5825L3.75265 14.7386L5.47419 12.8019L3.97938 11.4731ZM3.57963 10.8735L5.24373 9.76412L4.13433 8.10002L2.47023 9.20941L3.57963 10.8735ZM3.07227 11.2118L1.96287 9.54766L0.317305 10.6447L1.39584 12.3024L3.07227 11.2118ZM3.9025 12.4879L2.22608 13.5786L3.65798 15.7794L5.39936 13.8143L3.9025 12.4879ZM6.65458 9.38217L8.15145 10.7086L9.49256 9.19515L7.96444 7.87079L6.65458 9.38217ZM4.69852 7.65369L2.48456 10.1444L5.47419 12.8019L7.68816 10.3111L4.69852 7.65369ZM5.64348 10.3637L5.24373 9.76412L1.91553 11.9829L2.31528 12.5825L5.64348 10.3637ZM2.47023 9.20941L1.96287 9.54766L4.18166 12.8759L4.68903 12.5376L2.47023 9.20941ZM1.39584 12.3024L2.22608 13.5786L5.57893 11.3972L4.74869 10.1211L1.39584 12.3024ZM5.39936 13.8143L8.15145 10.7086L5.15772 8.05574L2.40564 11.1614L5.39936 13.8143ZM7.96444 7.87079L7.5032 7.47104L4.88348 10.4938L5.34472 10.8935L7.96444 7.87079Z" fill="#00AEEF" mask="url(#path-12-inside-7)"/>
<mask id="path-14-inside-8" fill="white">
<path d="M8.96053 16.6387H2.39551V17.2537H8.96053V16.6387Z"/>
</mask>
<path d="M8.96053 16.6387H2.39551V17.2537H8.96053V16.6387Z" fill="#00AEEF"/>
<path d="M2.39551 16.6387V14.6387H0.395508V16.6387H2.39551ZM8.96053 16.6387H10.9605V14.6387H8.96053V16.6387ZM8.96053 17.2537V19.2537H10.9605V17.2537H8.96053ZM2.39551 17.2537H0.395508V19.2537H2.39551V17.2537ZM2.39551 18.6387H8.96053V14.6387H2.39551V18.6387ZM6.96053 16.6387V17.2537H10.9605V16.6387H6.96053ZM8.96053 15.2537H2.39551V19.2537H8.96053V15.2537ZM4.39551 17.2537V16.6387H0.395508V17.2537H4.39551Z" fill="#00AEEF" mask="url(#path-14-inside-8)"/>
<mask id="path-16-inside-9" fill="white">
<path d="M8.96053 18.3457H2.39551V18.9607H8.96053V18.3457Z"/>
</mask>
<path d="M8.96053 18.3457H2.39551V18.9607H8.96053V18.3457Z" fill="#00AEEF"/>
<path d="M2.39551 18.3457V16.3457H0.395508V18.3457H2.39551ZM8.96053 18.3457H10.9605V16.3457H8.96053V18.3457ZM8.96053 18.9607V20.9607H10.9605V18.9607H8.96053ZM2.39551 18.9607H0.395508V20.9607H2.39551V18.9607ZM2.39551 20.3457H8.96053V16.3457H2.39551V20.3457ZM6.96053 18.3457V18.9607H10.9605V18.3457H6.96053ZM8.96053 16.9607H2.39551V20.9607H8.96053V16.9607ZM4.39551 18.9607V18.3457H0.395508V18.9607H4.39551Z" fill="#00AEEF" mask="url(#path-16-inside-9)"/>
</svg>
