<svg width="37" height="39" viewBox="0 0 37 39" fill="none" xmlns="http://www.w3.org/2000/svg">
<path d="M36.9753 0.981339C36.9753 0.229863 36.7452 0 36.0109 0C29.0653 0 22.1285 0 15.183 0C14.3778 0 14.1212 0.247545 14.1212 1.05207C14.1212 8.78785 14.1212 16.5148 14.1212 24.2506C14.1212 24.9932 14.3689 25.2319 15.1033 25.2319C22.0578 25.2319 29.021 25.2319 35.9755 25.2319C36.8072 25.2319 36.9841 25.0551 36.9841 24.2241C36.9841 20.3694 36.9841 16.506 36.9841 12.6513C36.9753 8.76133 36.9841 4.87133 36.9753 0.981339ZM21.9516 1.69745C22.4471 1.69745 22.8541 2.08645 22.8541 2.58154C22.8541 3.05895 22.4382 3.49215 21.9604 3.49215C21.5003 3.50099 21.0491 3.05011 21.0491 2.59922C21.0491 2.10413 21.4561 1.69745 21.9516 1.69745ZM19.2264 1.68861C19.7219 1.67093 20.1289 2.06877 20.1289 2.56386C20.1378 3.05011 19.7219 3.47447 19.2441 3.48331C18.7929 3.49215 18.3682 3.07663 18.3505 2.60806C18.3416 2.12181 18.7221 1.70629 19.2264 1.68861ZM16.5367 1.69745C17.0233 1.69745 17.448 2.11297 17.4392 2.59038C17.4303 3.05895 16.9879 3.50099 16.5278 3.49215C16.05 3.49215 15.6342 3.06779 15.6342 2.58154C15.643 2.08645 16.0323 1.68861 16.5367 1.69745ZM35.5154 23.2073C35.5154 23.3842 35.5154 23.5521 35.5154 23.782C35.303 23.782 35.1438 23.782 34.9845 23.782C28.7291 23.782 22.4825 23.782 16.227 23.782C15.6253 23.782 15.6253 23.782 15.6253 23.1897C15.6253 17.3724 15.6253 11.5462 15.6253 5.7289C15.6253 5.1454 15.6253 5.1454 16.2005 5.1454C22.4559 5.1454 28.7025 5.15424 34.958 5.13656C35.4092 5.13656 35.5242 5.26033 35.5242 5.70238C35.5065 11.5374 35.5154 17.3724 35.5154 23.2073Z" fill="#00AEEF"/>
<path d="M31.9055 26.9558C31.9055 27.9195 31.9055 28.8566 31.9055 29.8203C21.7658 29.8203 11.6881 29.8203 1.57492 29.8203C1.57492 23.6935 1.57492 17.5933 1.57492 11.4401C5.22025 11.4401 8.82134 11.4401 12.4313 11.4401C12.4313 10.9185 12.4313 10.4587 12.4313 9.91943C12.1924 9.91943 11.9977 9.91943 11.8119 9.91943C8.25507 9.91943 4.70707 9.92828 1.15022 9.92828C0.185806 9.92828 0 10.1139 0 11.0953C0.00884788 17.4784 0.0176958 23.8615 0.0176958 30.2358C0.0176958 31.1729 0.221197 31.3763 1.15907 31.3763C11.5111 31.3763 21.8631 31.3851 32.2151 31.3851C32.4186 31.3851 32.631 31.3851 32.8345 31.3498C33.1796 31.2879 33.4273 31.0669 33.4273 30.7309C33.4538 29.4843 33.4361 28.2378 33.4361 26.9647C32.9141 26.9558 32.4363 26.9558 31.9055 26.9558Z" fill="#00AEEF"/>
<path d="M3.99926 12.8369C3.1764 12.8369 2.94636 13.0668 2.94636 13.889C2.94636 17.3988 2.94636 20.8998 2.94636 24.4096C2.94636 25.4529 2.94636 26.5049 2.94636 27.5482C2.94636 28.2024 3.20295 28.4499 3.85769 28.4676C3.97271 28.4676 4.09658 28.4676 4.2116 28.4676C12.3959 28.4676 20.5802 28.4676 28.7556 28.4676C29.0034 28.4676 29.26 28.4765 29.5077 28.4588C29.9501 28.4234 30.1978 28.167 30.2332 27.7161C30.2509 27.4686 30.2332 27.221 30.2332 26.9205C21.6331 26.9205 13.0772 26.9205 4.52128 26.9205C4.52128 23.2692 4.52128 19.6886 4.52128 16.055C7.17565 16.055 9.78577 16.055 12.4313 16.055C12.4313 14.9853 12.4313 13.9597 12.4313 12.8458C12.2278 12.8458 12.0685 12.8458 11.9093 12.8458C9.28144 12.8369 6.64477 12.8369 3.99926 12.8369ZM5.12294 15.056C4.79556 15.0648 4.50358 14.7819 4.50358 14.446C4.50358 14.1277 4.77787 13.8536 5.09639 13.8536C5.40607 13.8536 5.68035 14.1277 5.6892 14.4371C5.69805 14.7642 5.43261 15.0471 5.12294 15.056ZM6.9633 15.0648C6.63592 15.0737 6.34394 14.7908 6.35279 14.446C6.36164 14.1277 6.62708 13.8625 6.9456 13.8625C7.25528 13.8625 7.52956 14.1365 7.53841 14.4548C7.53841 14.7642 7.27297 15.0471 6.9633 15.0648ZM8.80366 15.0648C8.47628 15.0737 8.19315 14.7819 8.202 14.446C8.21085 14.1277 8.48513 13.8625 8.80366 13.8625C9.11333 13.8713 9.38762 14.1542 9.38762 14.4636C9.38762 14.7731 9.11333 15.0471 8.80366 15.0648Z" fill="#00AEEF"/>
<path d="M22.624 36.5748C18.6779 36.5748 14.7317 36.5748 10.7767 36.5748C10.6617 36.5748 10.5024 36.5394 10.4316 36.6013C10.2193 36.7781 9.91845 36.9638 9.86537 37.1936C9.82113 37.4235 9.97154 37.7594 10.1485 37.9539C10.2724 38.0954 10.582 38.1219 10.8032 38.1219C12.7763 38.1308 14.7494 38.1308 16.7225 38.1308C17.0056 38.1308 17.2799 38.1308 17.563 38.1308C19.2884 38.1308 21.0137 38.1308 22.7302 38.1308C23.3495 38.1308 23.7123 37.7329 23.6061 37.1936C23.5353 36.7781 23.2168 36.5748 22.624 36.5748Z" fill="#00AEEF"/>
<path d="M14.2362 33.2064C14.2273 32.8351 14.0238 32.6141 13.6699 32.6053C13.2983 32.5964 13.1125 32.844 13.1125 33.2064C13.1037 33.7192 13.1037 34.2408 13.1125 34.7536C13.1125 35.1249 13.3249 35.3371 13.6876 35.3371C15.7226 35.3459 17.7576 35.3371 19.7927 35.3283C20.1643 35.3283 20.3589 35.1161 20.3678 34.7448C20.3766 34.2408 20.3766 33.7457 20.3678 33.2418C20.3589 32.8351 20.1377 32.5876 19.8015 32.5964C19.4741 32.5964 19.2529 32.8528 19.2352 33.2595C19.2264 33.5601 19.2352 33.8607 19.2352 34.1789C17.5364 34.1789 15.9261 34.1789 14.2362 34.1789C14.2362 33.8253 14.2362 33.5159 14.2362 33.2064Z" fill="#00AEEF"/>
<path d="M6.80397 20.6788C7.60913 20.6876 8.41428 20.6788 9.21059 20.6788C9.21059 19.5648 9.21059 18.5128 9.21059 17.4607C8.13115 17.4607 7.09595 17.4607 5.98996 17.4607C5.98996 18.2917 5.98112 19.0786 5.98996 19.8566C5.99881 20.8202 5.88379 20.6699 6.80397 20.6788Z" fill="#00AEEF"/>
<path d="M5.99003 25.4882C7.11371 25.4882 8.14891 25.4882 9.21066 25.4882C9.21066 24.4273 9.21066 23.3929 9.21066 22.2966C8.202 22.2966 7.24643 22.2966 6.28201 22.2966C6.04312 22.2966 5.98118 22.4116 5.98118 22.6237C5.99003 23.2426 5.98118 23.8615 5.98118 24.4803C5.99003 24.8074 5.99003 25.1346 5.99003 25.4882Z" fill="#00AEEF"/>
<path d="M12.1835 24.0738C12.4755 24.0827 12.5021 23.9412 12.4047 23.6672C12.0154 23.6672 11.6438 23.6495 11.2811 23.676C11.166 23.6848 11.0599 23.8086 10.9537 23.8793C11.0687 23.9412 11.1749 24.0562 11.2988 24.065C11.5907 24.0915 11.8916 24.065 12.1835 24.0738Z" fill="#00AEEF"/>
<path d="M11.2191 22.288C11.1307 22.2968 11.051 22.4117 10.9714 22.4736C11.051 22.5444 11.1218 22.6593 11.2014 22.6681C11.6084 22.6858 12.0154 22.677 12.4225 22.677C12.449 22.6239 12.4755 22.5709 12.5021 22.5267C12.3959 22.4471 12.2897 22.2968 12.1747 22.288C11.865 22.2526 11.5377 22.2615 11.2191 22.288Z" fill="#00AEEF"/>
<path d="M11.2279 18.9019C11.1394 18.9108 11.051 19.0345 10.9625 19.1053C11.051 19.1671 11.1306 19.2732 11.2191 19.2821C11.5553 19.2998 11.9004 19.3086 12.2366 19.2732C12.3339 19.2644 12.4135 19.0964 12.502 18.9992C12.4755 18.9638 12.4401 18.9284 12.4135 18.8931C12.0242 18.8931 11.6261 18.8842 11.2279 18.9019Z" fill="#00AEEF"/>
<path d="M11.2368 17.4962C11.1394 17.505 11.0598 17.6288 10.9625 17.6995C11.051 17.7614 11.1306 17.8675 11.2279 17.8675C11.5464 17.8852 11.8738 17.8675 12.2012 17.8764C12.502 17.8852 12.502 17.7349 12.4135 17.4785C12.0242 17.4874 11.6261 17.4697 11.2368 17.4962Z" fill="#00AEEF"/>
<path d="M11.1395 25.4353C11.6261 25.4441 12.1216 25.4441 12.7498 25.4441C12.5728 25.2584 12.4932 25.0993 12.3959 25.0905C11.9889 25.0639 11.573 25.0728 11.166 25.0905C11.0952 25.0905 11.0156 25.2054 10.9802 25.285C10.9625 25.3026 11.0775 25.4353 11.1395 25.4353Z" fill="#00AEEF"/>
<path d="M11.2014 20.6613C11.3695 20.6879 11.5553 20.6702 11.7234 20.6702V20.6613C11.9181 20.6613 12.1039 20.679 12.2897 20.6525C12.3516 20.6436 12.4224 20.5287 12.4401 20.4491C12.4489 20.4138 12.3428 20.3077 12.2808 20.3077C11.9181 20.29 11.5464 20.29 11.1837 20.3077C11.1129 20.3077 11.0421 20.4138 10.9625 20.4668C11.051 20.5376 11.1217 20.6436 11.2014 20.6613Z" fill="#00AEEF"/>
<path d="M32.5955 18.3626C27.8354 18.3626 23.0752 18.3714 18.3239 18.3538C17.9523 18.3538 17.8815 18.5041 17.8904 18.8223C17.908 19.6622 17.9169 20.5021 17.8815 21.342C17.8638 21.7575 18.0142 21.8548 18.4124 21.8548C23.1106 21.8459 27.8088 21.8459 32.507 21.8459C32.6486 21.8459 32.799 21.8459 32.9937 21.8459C32.9937 20.732 32.9848 19.7064 32.9937 18.6809C33.0025 18.3626 32.8256 18.3626 32.5955 18.3626Z" fill="#00AEEF"/>
<path d="M18.4213 12.6868C19.8901 12.6691 21.3677 12.678 22.8364 12.678C22.9957 12.678 23.1461 12.6603 23.3142 12.6515C23.3142 10.8391 23.3142 9.06205 23.3142 7.22314C21.5712 7.22314 19.8812 7.22314 18.1824 7.22314C17.8639 7.22314 17.8904 7.42649 17.8904 7.63867C17.8904 9.15046 17.9081 10.6711 17.8816 12.1829C17.8727 12.6072 18.032 12.6868 18.4213 12.6868Z" fill="#00AEEF"/>
<path d="M31.5427 10.2554C31.4985 10.2554 31.4542 10.2554 31.41 10.2554C29.4192 10.2554 27.4284 10.2554 25.4465 10.2554C25.3403 10.2554 25.2165 10.2289 25.1457 10.2731C25.013 10.3615 24.8449 10.503 24.836 10.6268C24.836 10.7417 25.013 10.8832 25.1457 10.9627C25.2342 11.0158 25.3757 10.9804 25.4907 10.9804C26.4906 10.9804 27.4904 10.9804 28.499 10.9804C29.5165 10.9804 30.534 10.9804 31.5515 10.9804C31.7993 10.9804 32.1001 10.9981 32.109 10.6444C32.1178 10.2554 31.7993 10.282 31.5427 10.2554Z" fill="#00AEEF"/>
<path d="M25.066 8.43423C25.1811 8.50496 25.3492 8.49612 25.4907 8.49612C26.4729 8.49612 27.4638 8.49612 28.4459 8.49612C29.4457 8.49612 30.4456 8.49612 31.4454 8.49612C31.6046 8.49612 31.7816 8.48728 31.9143 8.42539C32.0028 8.38119 32.1001 8.22205 32.0913 8.1248C32.0913 8.01871 31.9851 7.88609 31.8878 7.84189C31.7816 7.78884 31.6312 7.79769 31.4985 7.79769C29.4723 7.79769 27.4373 7.79769 25.4111 7.79769C25.3049 7.79769 25.1899 7.77116 25.1103 7.81537C24.9953 7.87725 24.836 8.00103 24.836 8.09828C24.8272 8.19553 24.951 8.3635 25.066 8.43423Z" fill="#00AEEF"/>
<path d="M25.3226 13.4559C26.3667 13.4559 27.4107 13.4559 28.4636 13.4559C29.5077 13.4559 30.5517 13.4559 31.6046 13.4559C31.8435 13.4559 32.1089 13.4736 32.1089 13.1288C32.1178 12.7752 31.8435 12.7929 31.6046 12.7929C29.5165 12.7929 27.4196 12.7929 25.3315 12.7929C25.0837 12.7929 24.8183 12.7929 24.8183 13.1288C24.8094 13.4648 25.0749 13.4559 25.3226 13.4559Z" fill="#00AEEF"/>
<path d="M25.3138 15.9489C26.349 15.9489 27.3754 15.9489 28.4106 15.9489C28.6318 15.9489 28.853 15.9489 29.0742 15.9489C29.9589 15.9489 30.8437 15.9578 31.7285 15.9312C31.8612 15.9312 31.9851 15.7367 32.1178 15.6307C31.994 15.5157 31.8789 15.3919 31.7462 15.2859C31.7108 15.2593 31.6312 15.277 31.5693 15.277C29.49 15.277 27.4196 15.277 25.3403 15.277C25.0926 15.277 24.836 15.2947 24.8183 15.613C24.8006 15.9666 25.0749 15.9489 25.3138 15.9489Z" fill="#00AEEF"/>
</svg>
