<svg width="30" height="30" viewBox="0 0 30 30" fill="none" xmlns="http://www.w3.org/2000/svg">
<g clip-path="url(#clip0)">
<path d="M20.3739 16.929H11.6259V17.678H20.3739V16.929Z" fill="#00AEEF"/>
<path d="M20.3739 18.9888H11.6259V19.7378H20.3739V18.9888Z" fill="#00AEEF"/>
<path d="M20.3739 21.0488H11.6259V21.7979H20.3739V21.0488Z" fill="#00AEEF"/>
<path d="M20.3739 23.1086H11.6259V23.8577H20.3739V23.1086Z" fill="#00AEEF"/>
<path d="M16.3407 2.71545C16.265 2.80908 16.1324 2.86526 15.9999 2.86526C15.8673 2.86526 15.7537 2.80908 15.659 2.71545C15.5265 2.56563 15.2614 2.54691 15.1099 2.67799C14.9585 2.80908 14.9395 3.05253 15.0721 3.22106C15.2993 3.48324 15.6401 3.63305 15.9809 3.63305C16.3407 3.63305 16.6626 3.48324 16.8898 3.22106C16.9656 3.14616 16.9845 3.05252 16.9845 2.94017C16.9845 2.84653 16.9277 2.7529 16.8519 2.67799C16.7194 2.54691 16.4732 2.56563 16.3407 2.71545Z" fill="#00AEEF"/>
<path d="M16 0C14.6367 0 13.5385 1.08614 13.5385 2.43446C13.5385 3.78277 14.6367 4.86891 16 4.86891C17.3633 4.86891 18.4616 3.78277 18.4616 2.43446C18.4616 1.08614 17.3633 0 16 0ZM17.7042 2.43446C17.7042 3.35206 16.9468 4.10112 16.019 4.10112C15.0912 4.10112 14.3338 3.35206 14.3338 2.43446C14.3338 1.51685 15.0912 0.76779 16.019 0.76779C16.9278 0.76779 17.7042 1.51685 17.7042 2.43446Z" fill="#00AEEF"/>
<path d="M16 5.03735C13.7089 5.03735 11.8533 6.87256 11.8533 9.13848C11.8533 9.34447 12.0237 9.51301 12.232 9.51301H12.8758H13.1787H14.1255H15.716H19.787C19.9953 9.51301 20.1657 9.34447 20.1657 9.13848C20.1657 6.89129 18.2912 5.03735 16 5.03735ZM13.1787 8.76395H12.8758H12.6486C12.8379 7.09728 14.2959 5.80514 16 5.80514C17.7231 5.80514 19.1622 7.09728 19.3515 8.76395H15.6971H14.1066H13.1787Z" fill="#00AEEF"/>
<path d="M16 12.9025C15.7349 12.9025 15.5266 12.6965 15.5266 12.4343V10.9362C15.5266 10.674 15.7349 10.468 16 10.468C16.2651 10.468 16.4733 10.674 16.4733 10.9362V12.4343C16.4733 12.6778 16.2651 12.9025 16 12.9025Z" fill="#00AEEF"/>
<path d="M4.4874 17.5094C4.41166 17.603 4.27912 17.6592 4.14657 17.6592C4.01403 17.6592 3.90042 17.603 3.80575 17.5094C3.6732 17.3596 3.40811 17.3409 3.25663 17.4719C3.10515 17.603 3.08622 17.8465 3.21876 18.015C3.44598 18.2772 3.78681 18.427 4.12764 18.427C4.46847 18.427 4.8093 18.2772 5.03651 18.015C5.11225 17.9401 5.13119 17.8465 5.13119 17.7341C5.13119 17.6405 5.07438 17.5468 4.99864 17.4719C4.88504 17.3409 4.61995 17.3596 4.4874 17.5094Z" fill="#00AEEF"/>
<path d="M4.14673 14.7939C2.78342 14.7939 1.6852 15.8801 1.6852 17.2284C1.6852 18.5767 2.78342 19.6629 4.14673 19.6629C5.51005 19.6629 6.60827 18.5767 6.60827 17.2284C6.62721 15.8801 5.51005 14.7939 4.14673 14.7939ZM5.85088 17.2284C5.85088 18.146 5.09348 18.8951 4.16567 18.8951C3.23786 18.8951 2.48046 18.146 2.48046 17.2284C2.48046 16.3108 3.23786 15.5617 4.16567 15.5617C5.09348 15.543 5.85088 16.3108 5.85088 17.2284Z" fill="#00AEEF"/>
<path d="M4.14675 19.8315C1.85562 19.8315 0 21.6667 0 23.9327C0 24.1387 0.170414 24.3072 0.378698 24.3072H1.02249H1.32544H2.27219H3.86272H7.93373C8.14201 24.3072 8.31243 24.1387 8.31243 23.9327C8.31243 21.6667 6.43787 19.8315 4.14675 19.8315ZM1.32544 23.5581H1.02249H0.795266C0.984615 21.8915 2.4426 20.5993 4.14675 20.5993C5.86982 20.5993 7.30888 21.8915 7.49822 23.5581H3.86272H2.27219H1.32544Z" fill="#00AEEF"/>
<path d="M9.39161 20.0188H7.91469C7.6496 20.0188 7.44131 19.8129 7.44131 19.5507C7.44131 19.2885 7.6496 19.0825 7.91469 19.0825H9.39161C9.6567 19.0825 9.86498 19.2885 9.86498 19.5507C9.86498 19.8129 9.6567 20.0188 9.39161 20.0188Z" fill="#00AEEF"/>
<path d="M27.5124 17.5094C27.5881 17.603 27.7206 17.6592 27.8532 17.6592C27.9857 17.6592 28.0993 17.603 28.194 17.5094C28.3266 17.3596 28.5916 17.3409 28.7431 17.4719C28.8946 17.603 28.9135 17.8465 28.781 18.015C28.5538 18.2772 28.2129 18.427 27.8721 18.427C27.5123 18.427 27.1905 18.2772 26.9632 18.015C26.8875 17.9401 26.8686 17.8465 26.8686 17.7341C26.8686 17.6405 26.9254 17.5468 27.0011 17.4719C27.1337 17.3409 27.3798 17.3596 27.5124 17.5094Z" fill="#00AEEF"/>
<path d="M25.3918 17.2284C25.3918 18.5767 26.49 19.6629 27.8533 19.6629C29.2167 19.6629 30.3149 18.5767 30.3149 17.2284C30.3149 15.8801 29.2167 14.7939 27.8533 14.7939C26.49 14.7939 25.3918 15.8801 25.3918 17.2284ZM27.8533 15.543C28.7811 15.543 29.5385 16.2921 29.5385 17.2097C29.5385 18.1273 28.7811 18.8763 27.8533 18.8763C26.9255 18.8763 26.1681 18.1273 26.1681 17.2097C26.1492 16.3108 26.9255 15.543 27.8533 15.543Z" fill="#00AEEF"/>
<path d="M23.6877 23.9327C23.6877 24.1387 23.8581 24.3072 24.0664 24.3072H28.1374H29.7279H30.6746H30.9776H31.6214C31.8297 24.3072 32.0001 24.1387 32.0001 23.9327C32.0001 21.6667 30.1445 19.8315 27.8533 19.8315C25.5622 19.8315 23.6877 21.6667 23.6877 23.9327ZM29.7468 23.5581H28.1563H24.5019C24.6912 21.8915 26.1492 20.5993 27.8533 20.5993C29.5764 20.5993 31.0155 21.8915 31.2048 23.5581H30.9776H30.6746H29.7468Z" fill="#00AEEF"/>
<path d="M24.0852 20.0188H22.6083C22.3432 20.0188 22.1349 19.8129 22.1349 19.5507C22.1349 19.2885 22.3432 19.0825 22.6083 19.0825H24.0852C24.3503 19.0825 24.5586 19.2885 24.5586 19.5507C24.5586 19.8129 24.3503 20.0188 24.0852 20.0188Z" fill="#00AEEF"/>
<path d="M20.3739 16.9287H11.6259V17.6778H20.3739V16.9287Z" fill="#00AEEF"/>
<path d="M20.3739 18.9888H11.6259V19.7378H20.3739V18.9888Z" fill="#00AEEF"/>
<path d="M20.3739 21.0486H11.6259V21.7976H20.3739V21.0486Z" fill="#00AEEF"/>
<path d="M20.3739 23.1086H11.6259V23.8577H20.3739V23.1086Z" fill="#00AEEF"/>
<path d="M22.419 30H11.8533C10.3385 30 9.10774 28.9139 9.10774 27.5655V14.588C9.10774 13.2397 10.3385 12.1536 11.8533 12.1536H22.419C22.6841 12.1536 22.8924 12.3596 22.8924 12.6217V29.5318C22.8924 29.7753 22.6841 30 22.419 30ZM11.8533 13.0899C10.8687 13.0899 10.0545 13.7641 10.0545 14.588V27.5655C10.0545 28.3895 10.8687 29.0637 11.8533 29.0637H21.9456V13.0899H11.8533Z" fill="#00AEEF"/>
</g>
<defs>
<clipPath id="clip0">
<rect width="32" height="30" fill="white"/>
</clipPath>
</defs>
</svg>
