<svg width="29" height="33" viewBox="0 0 29 33" fill="none" xmlns="http://www.w3.org/2000/svg">
<path d="M13.6456 17.381C13.9219 16.9191 14.3019 16.5256 14.7856 16.2177C16.53 15.0886 18.8618 15.5676 20.0018 17.2783C21.1417 19.0062 20.6581 21.3156 18.9309 22.4447C17.1864 23.5738 14.8546 23.0948 13.7147 21.3841C13.2311 20.6656 13.0411 19.8273 13.1102 19.0404" stroke="#00AEEF" stroke-miterlimit="10" stroke-linecap="round" stroke-linejoin="round"/>
<path d="M21.0033 16.6283C22.506 18.8864 21.8669 21.9315 19.587 23.4199C17.307 24.9082 14.2326 24.2752 12.7299 22.0171C11.2272 19.7589 11.8663 16.7138 14.1462 15.2255C16.4262 13.7543 19.5006 14.3701 21.0033 16.6283Z" stroke="#00AEEF" stroke-miterlimit="10" stroke-linecap="round" stroke-linejoin="round"/>
<path d="M20.9863 22.3079C21.2454 22.4447 21.4699 22.65 21.6426 22.9066L26.0643 29.5785C26.617 30.4167 26.3925 31.5458 25.5461 32.1103L25.2871 32.2814C24.4407 32.8289 23.3008 32.6065 22.7308 31.7682L18.3091 25.0964C18.1364 24.8226 18.0327 24.5318 18.0155 24.2239" stroke="#00AEEF" stroke-miterlimit="10" stroke-linecap="round" stroke-linejoin="round"/>
<path d="M22.0052 25.6438L24.8033 29.8522C25.0796 30.2628 25.3387 30.6391 25.0796 31.2037" stroke="#00AEEF" stroke-miterlimit="10" stroke-linecap="round" stroke-linejoin="round"/>
<path d="M20.6749 23.6594L21.4349 24.8056" stroke="#00AEEF" stroke-miterlimit="10" stroke-linecap="round" stroke-linejoin="round"/>
<path fill-rule="evenodd" clip-rule="evenodd" d="M24.7859 16.9705L25.5631 17.0218C25.5977 16.5941 25.615 16.1665 25.615 15.7388H24.8377C24.8377 16.1493 24.8204 16.5599 24.7859 16.9705Z" fill="#00AEEF"/>
<path fill-rule="evenodd" clip-rule="evenodd" d="M23.8705 18.6126L24.2678 19.2798C24.6823 19.0403 25.0968 18.681 25.3386 18.1678L24.6305 17.8428C24.4923 18.1507 24.216 18.4244 23.8705 18.6126Z" fill="#00AEEF"/>
<path fill-rule="evenodd" clip-rule="evenodd" d="M21.8323 19.1943L21.9013 19.9641C22.3504 19.9299 22.7995 19.8444 23.2486 19.7075L23.024 18.9719C22.6441 19.0917 22.2468 19.1601 21.8323 19.1943Z" fill="#00AEEF"/>
<path fill-rule="evenodd" clip-rule="evenodd" d="M23.663 10.8803L24.1639 10.2473C23.7493 10.0249 23.3003 9.87094 22.8339 9.7854L22.5403 10.521C22.9203 10.5894 23.3003 10.7092 23.663 10.8803Z" fill="#00AEEF"/>
<path fill-rule="evenodd" clip-rule="evenodd" d="M24.6476 12.591L25.3903 12.2831C25.3212 11.8554 25.2349 11.4448 25.0622 11.0514C25.0449 11.0172 25.0276 10.9829 25.0103 10.9487L24.3713 11.4619C24.3885 11.4962 24.4058 11.5133 24.4231 11.5475C24.544 11.8896 24.5958 12.2489 24.6476 12.591Z" fill="#00AEEF"/>
<path fill-rule="evenodd" clip-rule="evenodd" d="M24.8204 14.7294L25.5976 14.6952L25.5631 14.0622L25.5458 13.7372L25.5112 13.3779L24.734 13.4977C24.7858 13.8911 24.8031 14.3188 24.8204 14.7294Z" fill="#00AEEF"/>
<path fill-rule="evenodd" clip-rule="evenodd" d="M17.0308 10.0075L17.4454 9.35744C17.3244 9.27191 17.1863 9.16926 17.0308 9.0324L16.8063 8.82711L16.599 8.62183L16.0118 9.13505C16.1672 9.28901 16.3227 9.44298 16.4781 9.59694C16.6508 9.7338 16.8236 9.88777 17.0308 10.0075Z" fill="#00AEEF"/>
<path fill-rule="evenodd" clip-rule="evenodd" d="M19.3625 10.5038L19.3798 9.73397C19.1725 9.73397 18.9652 9.73397 18.7752 9.71687C18.5852 9.69976 18.4125 9.69976 18.2225 9.64844L18.0498 10.4012C18.2743 10.4525 18.4989 10.4696 18.7234 10.4696C18.9307 10.4867 19.1552 10.5038 19.3625 10.5038Z" fill="#00AEEF"/>
<path fill-rule="evenodd" clip-rule="evenodd" d="M21.5908 10.4695L21.6944 9.69971L20.3472 9.73392L20.3645 10.5038L21.0035 10.4866L21.5908 10.4695Z" fill="#00AEEF"/>
<path fill-rule="evenodd" clip-rule="evenodd" d="M13.6454 4.48208L13.9909 3.79778C13.5591 3.57539 13.0927 3.45564 12.6091 3.38721L12.5055 4.15704C12.92 4.20836 13.3 4.311 13.6454 4.48208Z" fill="#00AEEF"/>
<path fill-rule="evenodd" clip-rule="evenodd" d="M14.7853 5.9705L15.5625 5.93628C15.5625 5.66257 15.4762 5.38885 15.3725 5.14935C15.2689 4.90984 15.1135 4.68745 14.9407 4.49927L14.3535 5.01249C14.4744 5.14935 14.578 5.30331 14.6471 5.45728C14.7335 5.62835 14.7853 5.79942 14.7853 5.9705Z" fill="#00AEEF"/>
<path fill-rule="evenodd" clip-rule="evenodd" d="M15.4068 8.24561L16.0977 7.90346C16.0286 7.73239 15.9595 7.56131 15.9077 7.39024C15.8386 7.20206 15.7868 7.01388 15.735 6.80859L14.975 6.99677C15.0268 7.20206 15.0787 7.40735 15.1477 7.61264C15.2341 7.81792 15.3205 8.04032 15.4068 8.24561Z" fill="#00AEEF"/>
<path fill-rule="evenodd" clip-rule="evenodd" d="M6.75379 19.793L6.65016 19.0232C6.14927 19.0916 5.66564 19.2285 5.1993 19.468L5.57928 20.1523C5.942 19.9641 6.33926 19.8443 6.75379 19.793Z" fill="#00AEEF"/>
<path d="M9.13732 18.989H7.79008V19.7588H9.13732V18.989Z" fill="#00AEEF"/>
<path d="M11.5206 18.989H10.1734V19.7588H11.5206V18.989Z" fill="#00AEEF"/>
<path fill-rule="evenodd" clip-rule="evenodd" d="M4.57745 24.9766L3.90384 25.37C4.04202 25.5924 4.21474 25.8148 4.43928 26.003C4.66381 26.1912 4.90563 26.328 5.18198 26.4136L5.44106 25.6951C5.06107 25.5582 4.76745 25.3016 4.57745 24.9766Z" fill="#00AEEF"/>
<path fill-rule="evenodd" clip-rule="evenodd" d="M4.18018 22.8211L3.40293 22.7698C3.36839 23.2488 3.38566 23.7278 3.48929 24.2239L4.24927 24.0699C4.16291 23.6594 4.14564 23.2488 4.18018 22.8211Z" fill="#00AEEF"/>
<path fill-rule="evenodd" clip-rule="evenodd" d="M4.83648 20.7512L4.23195 20.2722C3.90378 20.6828 3.67924 21.1618 3.55833 21.6579L4.31831 21.8461C4.42194 21.4355 4.57739 21.0592 4.83648 20.7512Z" fill="#00AEEF"/>
<path d="M20.7789 18.5103H19.1208V20.3065H20.7789V18.5103Z" fill="#00AEEF"/>
<path d="M17.7908 18.5103H16.1327V20.3065H17.7908V18.5103Z" fill="#00AEEF"/>
<path d="M14.837 18.5103H13.1788V20.3065H14.837V18.5103Z" fill="#00AEEF"/>
<path d="M6.49435 26.3794C6.49435 26.79 6.18345 27.115 5.78619 27.115C5.38893 27.115 5.07803 26.79 5.07803 26.3794C5.07803 25.9688 5.38893 25.6438 5.78619 25.6438C6.18345 25.6438 6.49435 25.9859 6.49435 26.3794Z" stroke="#00AEEF" stroke-miterlimit="10" stroke-linecap="round" stroke-linejoin="round"/>
<path d="M11.472 2.48323L10.1405 3.80176L11.4473 5.09627L12.7788 3.77775L11.472 2.48323Z" stroke="#00AEEF" stroke-miterlimit="10" stroke-linecap="round" stroke-linejoin="round"/>
</svg>
