<svg width="38" height="34" viewBox="0 0 38 34" fill="none" xmlns="http://www.w3.org/2000/svg">
<path d="M9.91758 9.87768H6.70742C8.58654 5.01682 13.3104 1.55963 18.8434 1.55963C26.0206 1.55963 31.8407 7.38226 31.8407 14.5046H33.4066C33.4327 6.49847 26.8819 0 18.8434 0C12.4492 0 6.99451 4.13303 5.06319 9.87768H0L4.95879 18.4297L9.91758 9.87768ZM7.2033 11.4373L4.95879 15.3104L2.71429 11.4373H7.2033Z" fill="#00AEEF"/>
<path d="M33.0412 15.2063L28.0824 23.7583H31.1099C29.3352 28.8011 24.5069 32.4402 18.8434 32.4402C11.6662 32.4402 5.84616 26.6176 5.84616 19.4953H4.28023C4.28023 27.5014 10.805 33.9999 18.8434 33.9999C25.3942 33.9999 30.9272 29.6849 32.7541 23.7583H38L33.0412 15.2063ZM30.7967 22.2246L33.0412 18.3516L35.2857 22.2246H30.7967Z" fill="#00AEEF"/>
<path d="M18.713 21.6268C18.5303 21.6268 18.3998 21.6008 18.2693 21.5228C18.1388 21.4448 17.9822 21.3148 17.8517 21.1069L17.669 20.8729L16.7817 21.7827L16.9122 21.9647C17.121 22.2766 17.382 22.5106 17.669 22.6925C17.9039 22.8225 18.1388 22.9005 18.4259 22.9525V23.6543H19.3916V22.8485C19.757 22.7445 20.044 22.5366 20.2789 22.3026C20.5399 21.9907 20.6704 21.6008 20.6704 21.1849C20.6704 20.769 20.5138 20.3531 20.2267 20.0931C19.9918 19.8852 19.7309 19.7292 19.2872 19.5473C18.974 19.4173 18.8435 19.3653 18.8174 19.3393C18.7391 19.2873 18.713 19.2353 18.6869 19.2093C18.6608 19.1833 18.6608 19.1573 18.6608 19.1314C18.6608 19.0794 18.6869 19.0274 18.7391 18.9754C18.7913 18.9234 18.8957 18.8974 19.0001 18.8974C19.1045 18.8974 19.2089 18.9234 19.2872 18.9754C19.3916 19.0274 19.4699 19.1054 19.5743 19.2093L19.7831 19.4433L20.5921 18.4035L20.4355 18.2476C20.2528 18.0656 20.0701 17.9096 19.8614 17.8057C19.7309 17.7277 19.5743 17.7017 19.4177 17.6497V16.9219H18.452V17.6757C18.3998 17.7017 18.3476 17.7017 18.2954 17.7277C18.191 17.7797 18.0866 17.8317 17.9822 17.8836C17.5385 18.1696 17.2776 18.6895 17.2776 19.2353C17.2776 19.6772 17.4602 20.0931 17.7995 20.3531C18.0083 20.509 18.2954 20.639 18.7652 20.8469C19.0262 20.9509 19.1567 21.0289 19.2089 21.0809C19.235 21.1069 19.2611 21.1329 19.2611 21.1589C19.2611 21.1849 19.2872 21.2109 19.2872 21.2629C19.2872 21.3668 19.235 21.4448 19.1567 21.5228C18.974 21.5748 18.8696 21.6268 18.713 21.6268Z" fill="#00AEEF"/>
<path d="M11.0659 20.509C10.9354 20.8729 10.8571 21.2368 10.8571 21.6007C10.8571 22.7965 11.2225 23.8882 11.7445 24.694C12.0054 25.0839 12.3186 25.4218 12.684 25.6818C13.0494 25.9417 13.4409 26.0977 13.9107 26.0977H14.5892C14.798 26.0977 15.059 26.0977 15.3461 26.0977H17.2252H17.4862H20.2788H20.5398C20.5398 26.0977 20.9835 26.0977 21.5576 26.0977C22.1057 26.0977 22.7582 26.0977 23.1758 26.0977H23.8544C24.298 26.0977 24.7156 25.9417 25.081 25.6818C25.6291 25.3179 26.0467 24.746 26.3859 24.0442C26.6991 23.3423 26.9079 22.5105 26.9079 21.6007C26.9079 21.2368 26.8296 20.8729 26.6991 20.509C26.5164 19.9631 26.2033 19.3653 25.864 18.7674C25.5247 18.1695 25.1071 17.5457 24.7156 16.9738L24.6895 16.9218C24.5068 16.6879 23.4629 15.2322 23.0714 14.6864C23.1497 14.5044 23.1758 14.2965 23.1758 14.0625C23.1758 13.7506 23.0975 13.4647 22.9409 13.2047C22.9931 13.1007 23.1236 12.8148 23.2541 12.4769C23.3324 12.2689 23.4107 12.035 23.489 11.801C23.5151 11.6971 23.5412 11.5671 23.5673 11.4631C23.5934 11.3592 23.6195 11.2552 23.6195 11.0992C23.6195 10.7353 23.5151 10.3974 23.3585 10.1374C23.228 9.92949 23.0714 9.77352 22.8887 9.64356C22.6277 9.4616 22.3667 9.35762 22.1057 9.27964C21.8447 9.22765 21.6098 9.20166 21.4272 9.20166H19.4436H18.1648H16.1813C15.9986 9.20166 15.7898 9.22765 15.581 9.27964C15.2417 9.35762 14.8763 9.48759 14.537 9.79952C14.3805 9.95548 14.2239 10.1374 14.1195 10.3714C14.0151 10.6053 13.9629 10.8653 13.9629 11.1252C13.9629 11.2552 13.989 11.3592 13.989 11.4631C14.0151 11.6451 14.0934 11.853 14.1456 12.035C14.3283 12.6069 14.6153 13.2307 14.6153 13.2307C14.4848 13.4907 14.4065 13.7766 14.4065 14.0625C14.4065 14.3484 14.4848 14.6344 14.6153 14.8683C14.4326 15.1283 14.1978 15.4402 13.9629 15.7781C13.7541 16.064 13.5453 16.35 13.3887 16.5579C13.3104 16.6619 13.2321 16.7659 13.206 16.8179C13.1799 16.8439 13.1538 16.8699 13.1538 16.8958L13.1277 16.9218V16.9478C12.5796 17.7277 12.0576 18.5595 11.6401 19.3393C11.3791 19.7552 11.1964 20.1451 11.0659 20.509ZM15.8159 13.7506C15.8942 13.6726 15.9986 13.6206 16.1291 13.6206H21.375C21.5055 13.6206 21.6098 13.6726 21.6881 13.7506C21.7664 13.8286 21.8186 13.9325 21.8186 14.0625C21.8186 14.1925 21.7664 14.2965 21.6881 14.3744C21.6098 14.4524 21.5055 14.5044 21.375 14.5044H16.103C15.9725 14.5044 15.8681 14.4524 15.7898 14.3744C15.7115 14.2965 15.6593 14.1925 15.6593 14.0625C15.6854 13.9585 15.7376 13.8546 15.8159 13.7506ZM15.2156 11.1252C15.2156 10.9692 15.2417 10.9173 15.2939 10.8393C15.32 10.7873 15.3722 10.7613 15.4244 10.7093C15.5027 10.6573 15.6332 10.6053 15.7637 10.5533C15.8942 10.5273 16.0247 10.5014 16.1291 10.5014H18.1126H19.3914H21.375C21.4533 10.5014 21.5837 10.5014 21.6881 10.5273C21.8708 10.5533 22.0274 10.6313 22.1318 10.7353C22.184 10.7873 22.2101 10.8133 22.2362 10.8653C22.2623 10.9173 22.2884 10.9952 22.2884 11.0992C22.2884 11.0992 22.2884 11.1512 22.2623 11.2032C22.2362 11.3072 22.184 11.4631 22.1318 11.6191C22.0535 11.853 21.9491 12.087 21.8708 12.2949H15.6332C15.581 12.165 15.5288 12.035 15.4766 11.879C15.3983 11.6971 15.3461 11.5151 15.2939 11.3592C15.2678 11.2812 15.2678 11.2032 15.2417 11.1512C15.2417 11.1772 15.2417 11.1512 15.2156 11.1252ZM12.2925 20.9249C12.4491 20.483 12.7101 19.9631 13.0233 19.3913C13.3365 18.8454 13.728 18.2475 14.1195 17.6757C14.1195 17.6757 14.1456 17.6237 14.1978 17.5717C14.4326 17.2338 15.1373 16.298 15.5549 15.7001C15.7376 15.7521 15.9203 15.7781 16.103 15.7781H21.3489C21.6098 15.7781 21.8447 15.7261 22.0796 15.6221C22.2623 15.8561 22.4972 16.194 22.7321 16.5059C22.9409 16.7919 23.1497 17.0778 23.3063 17.2858C23.3846 17.3897 23.4629 17.4937 23.489 17.5457C23.5151 17.5717 23.5412 17.5977 23.5412 17.6237L23.5673 17.6497C24.0892 18.4035 24.6112 19.1833 24.9766 19.9111C25.1593 20.2751 25.3159 20.587 25.3942 20.8989C25.4986 21.1848 25.5247 21.4188 25.5247 21.5747C25.5247 22.5105 25.2376 23.3683 24.8461 23.9402C24.6634 24.2261 24.4285 24.4601 24.2458 24.59C24.0631 24.72 23.8805 24.772 23.7761 24.772H22.9409C22.8365 24.772 22.706 24.772 22.5755 24.772C22.3145 24.772 22.0013 24.772 21.7142 24.772C21.6359 24.772 21.5837 24.772 21.5055 24.772C21.4272 24.772 21.375 24.772 21.2967 24.772H21.1401C20.853 24.772 20.6442 24.772 20.5398 24.772H20.4876C20.4615 24.772 20.4615 24.772 20.4615 24.772H20.2005H17.4601H17.1991H17.0164C16.6511 24.772 15.7898 24.772 15.1112 24.772H14.5631H13.8846C13.7802 24.772 13.6236 24.72 13.4148 24.59C13.1277 24.3821 12.7884 23.9922 12.5535 23.4723C12.3186 22.9524 12.162 22.3026 12.162 21.5747C12.162 21.4448 12.2142 21.2108 12.2925 20.9249Z" fill="#00AEEF"/>
</svg>
