<svg width="163" height="17" viewBox="0 0 163 17" fill="none" xmlns="http://www.w3.org/2000/svg">
<g clip-path="url(#clip0)">
<path d="M95.0473 16.9041C94.3066 16.8895 93.5708 16.7756 92.8581 16.5651L91.0624 16.9041V1.2088L92.8581 0.914597V7.08653C93.5964 6.29571 94.6028 5.83662 95.6623 5.80737C98.4911 5.80737 100.133 8.17381 100.133 11.3205C100.133 14.4673 98.0483 16.9041 95.0473 16.9041ZM95.3179 7.52144C94.407 7.52342 93.5297 7.87927 92.8581 8.51919V14.4673C93.4979 14.9797 94.2894 15.2443 95.0965 15.2156C97.132 15.2156 98.2697 13.4887 98.2697 11.3461C98.2881 9.04364 97.1628 7.52144 95.3179 7.52144Z" fill="white"/>
<path d="M104.044 6.12717V12.6892C104.044 14.4865 104.702 15.1069 106.012 15.1069C107.029 15.0956 108.005 14.6895 108.749 13.9684V6.12717H110.544V16.629L108.749 16.9233V15.3499C108.313 15.8249 107.79 16.2048 107.212 16.4672C106.633 16.7297 106.01 16.8695 105.379 16.8785C103.448 16.8785 102.249 15.5354 102.249 13.2777V6.12717H104.044Z" fill="white"/>
<path d="M116.116 16.9296C114.885 16.9239 113.677 16.5844 112.61 15.9447L113.072 14.237C113.989 14.8553 115.054 15.1943 116.146 15.2156C117.284 15.2156 118.139 14.6719 118.139 13.7381C118.139 12.6892 116.958 12.3503 115.777 12.0049C114.381 11.5956 112.807 10.8728 112.807 8.9541C112.807 7.03537 114.388 5.78819 116.399 5.78819C117.521 5.78637 118.63 6.05105 119.639 6.56208L119.178 8.26975C118.291 7.79019 117.312 7.52562 116.312 7.49586C115.236 7.49586 114.541 7.94996 114.541 8.77502C114.541 9.77916 115.611 10.1181 116.86 10.4635C118.33 10.8728 119.904 11.602 119.904 13.5847C119.904 15.5673 118.305 16.9296 116.116 16.9296Z" fill="white"/>
<path d="M122.855 3.83747C122.69 3.84128 122.525 3.80819 122.373 3.74044C122.221 3.67268 122.084 3.57183 121.972 3.44463C121.86 3.31743 121.776 3.16683 121.725 3.00293C121.673 2.83904 121.656 2.66563 121.675 2.49436C121.663 2.32521 121.685 2.15537 121.739 1.99542C121.793 1.83547 121.879 1.68885 121.99 1.5647C122.101 1.44054 122.235 1.34153 122.385 1.27382C122.534 1.20612 122.696 1.17117 122.859 1.17117C123.022 1.17117 123.183 1.20612 123.332 1.27382C123.482 1.34153 123.616 1.44054 123.727 1.5647C123.839 1.68885 123.924 1.83547 123.978 1.99542C124.032 2.15537 124.054 2.32521 124.042 2.49436C124.06 2.66598 124.042 2.83951 123.99 3.0034C123.938 3.16729 123.853 3.31778 123.741 3.44485C123.628 3.57192 123.491 3.67265 123.339 3.74035C123.186 3.80805 123.021 3.84116 122.855 3.83747ZM121.958 16.5651V6.08239L123.753 5.78819V16.5651H121.958Z" fill="white"/>
<path d="M133.021 16.5651V10.003C133.021 8.20579 132.369 7.5854 130.942 7.5854C129.963 7.6189 129.029 8.02382 128.316 8.72385V16.5651H126.521V6.08239L128.316 5.78819V7.36155C129.169 6.40829 130.349 5.843 131.6 5.78819C133.642 5.78819 134.847 7.1313 134.847 9.38901V16.5651H133.021Z" fill="white"/>
<path d="M138.764 11.6659C138.832 13.7126 140.142 15.1708 142.073 15.1708C143.132 15.1855 144.173 14.886 145.074 14.3074L145.4 16.0406C144.378 16.6325 143.223 16.9305 142.054 16.9041C139.029 16.9041 136.969 14.6463 136.969 11.4612C136.969 8.09067 139.115 5.78819 141.919 5.78819C144.379 5.78819 145.756 7.38074 145.756 9.8623C145.754 10.4244 145.68 10.9837 145.535 11.5252L138.77 11.5764L138.764 11.6659ZM143.998 10.1629V10.003C143.998 8.45523 143.297 7.44469 141.722 7.44469C140.995 7.45343 140.298 7.74426 139.767 8.26014C139.235 8.77602 138.909 9.47974 138.85 10.2333L143.998 10.1629Z" fill="white"/>
<path d="M150.664 16.9296C149.433 16.9239 148.225 16.5844 147.159 15.9447L147.62 14.237C148.537 14.8544 149.602 15.1932 150.695 15.2156C151.839 15.2156 152.687 14.6719 152.687 13.7381C152.687 12.6892 151.506 12.3503 150.326 12.0049C148.899 11.5956 147.349 10.8664 147.349 8.9541C147.349 7.04176 148.924 5.78819 150.941 5.78819C152.063 5.78838 153.171 6.05296 154.182 6.56208L153.739 8.26975C152.85 7.79009 151.868 7.52554 150.867 7.49586C149.797 7.49586 149.096 7.94996 149.096 8.77502C149.096 9.77916 150.166 10.1181 151.414 10.4635C152.884 10.8728 154.489 11.602 154.489 13.5847C154.489 15.5673 152.829 16.9296 150.664 16.9296Z" fill="white"/>
<path d="M159.212 16.9296C157.981 16.9239 156.773 16.5844 155.706 15.9447L156.168 14.237C157.085 14.8553 158.15 15.1943 159.242 15.2156C160.386 15.2156 161.235 14.6719 161.235 13.7381C161.235 12.6892 160.054 12.3503 158.873 12.0049C157.447 11.5956 155.891 10.8664 155.891 8.9541C155.891 7.04176 157.471 5.78819 159.488 5.78819C160.611 5.78838 161.719 6.05296 162.729 6.56208L162.268 8.26975C161.379 7.78946 160.397 7.52488 159.396 7.49586C158.326 7.49586 157.625 7.94996 157.625 8.77502C157.625 9.77916 158.695 10.1181 159.943 10.4635C161.413 10.8728 162.988 11.602 162.988 13.5847C162.988 15.5673 161.401 16.9296 159.212 16.9296Z" fill="white"/>
<path d="M6.6045 2.66704C5.60827 2.66704 5.32539 3.12753 5.32539 4.13807V5.81376H7.99429L7.72986 8.52558H5.32539V16.7506H2.13992V8.52558H-0.00012207V5.81376H2.13992V4.18284C2.13992 1.44544 3.20379 -4.03445e-06 6.14943 -4.03445e-06C6.76609 -0.00175188 7.38226 0.0366982 7.99429 0.11512V2.67343L6.6045 2.66704Z" fill="white"/>
<path d="M8.1972 10.9368C8.1972 7.87961 9.587 5.58352 12.5019 5.58352C13.1339 5.5461 13.7618 5.70963 14.3023 6.05237C14.8427 6.39511 15.2701 6.90081 15.5275 7.50226V5.81377H18.6022V16.7506H15.5275V15.0941C15.2693 15.6923 14.8406 16.1935 14.2994 16.5299C13.7583 16.8662 13.1307 17.0214 12.5019 16.9744C9.587 16.9744 8.1972 14.6783 8.1972 11.6275V10.9368ZM11.3765 11.6723C11.3765 13.3032 11.9484 14.3841 13.4305 14.3841C14.7342 14.3841 15.3983 13.3928 15.3983 11.8258V10.7257C15.3983 9.16516 14.7342 8.16742 13.4305 8.16742C11.9484 8.16742 11.3765 9.24831 11.3765 10.8792V11.6723Z" fill="white"/>
<path d="M25.213 5.58352C26.2836 5.52877 27.3478 5.78334 28.2878 6.31904L27.5806 8.6599C26.9171 8.33305 26.1931 8.16062 25.459 8.15463C23.7371 8.15463 22.9992 9.19075 22.9992 10.956V11.5956C22.9992 13.3672 23.7494 14.3969 25.459 14.3969C26.1935 14.3941 26.9181 14.2215 27.5806 13.8916L28.2878 16.2389C27.3461 16.7693 26.2827 17.0214 25.213 16.968C21.4802 16.968 19.783 14.883 19.783 11.5252V11.0199C19.7707 7.67494 21.4679 5.58352 25.213 5.58352Z" fill="white"/>
<path d="M28.669 11.6915V10.7257C28.669 7.63017 30.3725 5.6091 33.8408 5.6091C37.1062 5.6091 38.5452 7.67494 38.5452 10.7257V12.4718H31.8484C31.916 13.9684 32.5556 14.6336 34.3082 14.6336C35.4624 14.6451 36.6081 14.428 37.6843 13.994L38.2562 16.2645C36.9626 16.8215 35.5727 17.0958 34.1729 17.0703C30.1695 17 28.669 14.9086 28.669 11.6915ZM31.8484 10.2716H35.6672V9.99021C35.6672 8.8006 35.206 7.85402 33.8224 7.85402C32.4387 7.85402 31.8484 8.8006 31.8484 10.2716Z" fill="white"/>
<path d="M50.3401 11.6275C50.3401 14.6783 48.9257 16.9744 46.0354 16.9744C45.3922 17.0202 44.7505 16.8659 44.1919 16.531C43.6334 16.1961 43.1833 15.6959 42.8991 15.0941V16.7506H39.8674V0.319789L43.0467 0V7.32957C43.3306 6.77608 43.7601 6.318 44.2849 6.00883C44.8098 5.69966 45.4084 5.55215 46.0108 5.58352C48.9257 5.58352 50.3155 7.87961 50.3155 10.9368L50.3401 11.6275ZM47.1546 10.8728C47.1546 9.33145 46.5827 8.18661 45.0576 8.18661C43.7539 8.18661 43.0467 9.15237 43.0467 10.7129V11.8578C43.0467 13.4248 43.7539 14.4161 45.0576 14.4161C46.5827 14.4161 47.1546 13.2649 47.1546 11.7235V10.8728Z" fill="white"/>
<path d="M51.3978 11.5572V11.0071C51.3978 7.85402 53.1197 5.58352 56.6311 5.58352C60.1425 5.58352 61.8643 7.85402 61.8643 11.0071V11.5572C61.8643 14.7039 60.1425 16.9744 56.6311 16.9744C53.1197 16.9744 51.3978 14.7103 51.3978 11.5572ZM58.685 10.7769C58.685 9.32505 58.1131 8.18021 56.6311 8.18021C55.149 8.18021 54.5771 9.32505 54.5771 10.7769V11.7874C54.5771 13.2329 55.1552 14.3841 56.6311 14.3841C58.107 14.3841 58.685 13.2329 58.685 11.7874V10.7769Z" fill="white"/>
<path d="M62.9282 11.5572V11.0071C62.9282 7.85402 64.6501 5.58352 68.1615 5.58352C71.6729 5.58352 73.3948 7.85402 73.3948 11.0071V11.5572C73.3948 14.7039 71.6729 16.9744 68.1615 16.9744C64.6501 16.9744 62.9282 14.7103 62.9282 11.5572ZM70.2154 10.7769C70.2154 9.32505 69.6435 8.18021 68.1615 8.18021C66.6794 8.18021 66.1075 9.32505 66.1075 10.7769V11.7874C66.1075 13.2329 66.6794 14.3841 68.1615 14.3841C69.6435 14.3841 70.2154 13.2329 70.2154 11.7874V10.7769Z" fill="white"/>
<path d="M77.7671 11.0263L80.9034 5.81377H84.2856L80.9956 11.2118L84.4209 16.7506H81.0387L77.7671 11.3973V16.7506H74.5878V0.319789L77.7671 0V11.0263Z" fill="white"/>
</g>
<defs>
<clipPath id="clip0">
<rect width="163" height="17" fill="white" transform="translate(-0.00012207)"/>
</clipPath>
</defs>
</svg>
