<svg width="31" height="34" viewBox="0 0 31 34" fill="none" xmlns="http://www.w3.org/2000/svg">
<g clip-path="url(#clip0)">
<path fill-rule="evenodd" clip-rule="evenodd" d="M5.73787 4.68812H4.58573V3.52725H3.43358V4.68812H2.23713V5.84898H3.38927V7.00985H4.54141V5.84898H5.69355V4.68812H5.73787ZM2.70242 11.8319H1.52812V12.9928H0.375977V14.1536H1.52812V15.3145H2.68026V14.1536H3.8324V12.9928H2.68026V11.8319H2.70242ZM25.8339 3.50492H26.986V2.34406H28.1382V1.16087H26.986V0H25.8339V1.16087H24.6817V2.32173H25.8339V3.50492ZM29.2017 9.48785V8.32699H28.0495V9.48785H26.8974V10.6487H28.0495V11.8319H29.2017V10.671H30.3538V9.51018H29.2017V9.48785ZM18.3671 3.10309L19.3642 3.68352L18.7881 4.68812L17.791 4.10768L18.3671 3.10309ZM21.1145 5.46947L21.6906 6.47406L20.6936 7.0545L20.1175 6.0499L21.1145 5.46947ZM21.181 8.90742H22.3331V10.0683H21.181V8.90742ZM21.1145 13.5062L20.1175 12.9258L20.6936 11.9212L21.6906 12.5016L21.1145 13.5062ZM9.61527 13.5062L9.0392 12.5016L10.0362 11.9212L10.6123 12.9258L9.61527 13.5062ZM8.39666 8.90742H9.5488V10.0683H8.39666V8.90742ZM9.61527 5.46947L10.6123 6.0499L10.0362 7.0545L9.0392 6.47406L9.61527 5.46947ZM12.3848 3.10309L12.9609 4.10768L11.9639 4.68812L11.3878 3.68352L12.3848 3.10309ZM14.7999 2.45568H15.952V3.61655H14.7999V2.45568ZM17.4144 13.0374L17.1263 13.216V14.7787H15.9742V11.1399C16.6389 10.8943 17.1263 10.2469 17.1263 9.48785C17.1263 8.52791 16.3509 7.72423 15.376 7.72423C14.4232 7.72423 13.6256 8.50558 13.6256 9.48785C13.6256 10.2469 14.1131 10.8943 14.7778 11.1399V14.7564H13.6256V13.1937L13.3376 13.0151C12.0746 12.2784 11.2992 10.9166 11.2992 9.46553C11.2992 7.21077 13.116 5.35785 15.376 5.35785C17.6138 5.35785 19.4528 7.18844 19.4528 9.46553C19.4528 10.9389 18.6551 12.3007 17.4144 13.0374ZM14.7999 9.48785C14.7999 9.17531 15.0658 8.90742 15.376 8.90742C15.6862 8.90742 15.952 9.17531 15.952 9.48785C15.952 9.80039 15.6862 10.0683 15.376 10.0683C15.0436 10.0683 14.7999 9.82272 14.7999 9.48785ZM17.9905 16.52H17.4144H13.3376H12.7615C12.6064 16.52 12.4735 16.3861 12.4735 16.2298C12.4735 16.0735 12.6064 15.9396 12.7615 15.9396H17.9905C18.1455 15.9396 18.2785 16.0735 18.2785 16.2298C18.2785 16.3861 18.1455 16.52 17.9905 16.52ZM17.4144 18.2837H13.3376C13.1825 18.2837 13.0495 18.1497 13.0495 17.9934C13.0495 17.8372 13.1825 17.7032 13.3376 17.7032H17.4144C17.5695 17.7032 17.7024 17.8372 17.7024 17.9934C17.7024 18.1497 17.5695 18.2837 17.4144 18.2837ZM20.6049 9.48785C20.6049 6.58569 18.2563 4.2193 15.376 4.2193C12.4956 4.2193 10.147 6.58569 10.147 9.48785C10.147 11.2515 11.0333 12.8812 12.4735 13.8634V14.7787C11.8088 14.9127 11.3213 15.5154 11.3213 16.2075C11.3213 16.7209 11.5872 17.1898 12.0082 17.4353C11.9417 17.5916 11.9196 17.7702 11.9196 17.9488C11.9196 18.7525 12.5621 19.4222 13.3819 19.4222H17.4587C18.2563 19.4222 18.921 18.7748 18.921 17.9488C18.921 17.7702 18.8767 17.5916 18.8324 17.4353C19.2312 17.1674 19.5193 16.7209 19.5193 16.2075C19.5193 15.4931 19.0097 14.9127 18.3671 14.7787V13.8634C19.7187 12.9035 20.6049 11.2515 20.6049 9.48785Z" fill="#00AEEF"/>
<path fill-rule="evenodd" clip-rule="evenodd" d="M23.9509 14.6224H24.948L16.75 22.8601L14.2242 20.3151C14.0912 20.1811 13.8697 20.1811 13.7367 20.3151L8.02033 26.0524C7.88739 26.1864 7.88739 26.4096 8.02033 26.5436C8.0868 26.6105 8.17542 26.6552 8.26405 26.6552C8.35268 26.6552 8.4413 26.6105 8.50777 26.5436L13.9804 21.0518L16.5285 23.5968C16.6614 23.7307 16.883 23.7307 17.0159 23.5968L25.4576 15.1135V16.1181C25.4576 16.319 25.6126 16.453 25.7899 16.453C25.9893 16.453 26.1222 16.2967 26.1222 16.1181V14.2875C26.1222 14.0866 25.9672 13.9526 25.7899 13.9526H23.9509C23.7515 13.9526 23.6186 14.1089 23.6186 14.2875C23.6186 14.4884 23.7737 14.6224 23.9509 14.6224ZM24.4162 33.1069H6.33643C5.76036 33.1069 5.31722 32.6381 5.31722 32.08V31.7452H25.4576V32.08C25.4576 32.6381 24.9923 33.1069 24.4162 33.1069ZM7.11191 28.0393H23.6407L25.2138 31.0308H5.53879L7.11191 28.0393ZM16.4177 29.6467H14.3571C14.1577 29.6467 14.0248 29.8029 14.0248 29.9815C14.0248 30.1824 14.1799 30.3164 14.3571 30.3164H16.4177C16.6171 30.3164 16.75 30.1601 16.75 29.9815C16.75 29.8029 16.5949 29.6467 16.4177 29.6467ZM26.1222 31.3433C26.1222 31.321 26.1222 31.321 26.1222 31.2987V31.2763C26.1222 31.254 26.1222 31.254 26.1001 31.2317L24.1946 27.6151V19.3105C24.1946 19.1096 24.0395 18.9756 23.8623 18.9756C23.6629 18.9756 23.5299 19.1319 23.5299 19.3105V27.3473H7.24485V17.6362C7.24485 17.0557 7.71013 16.6092 8.26405 16.6092H9.72638C9.92579 16.6092 10.0587 16.453 10.0587 16.2744C10.0587 16.0735 9.90364 15.9395 9.72638 15.9395H8.26405C7.31132 15.9395 6.55799 16.7209 6.55799 17.6585V27.6375L4.65253 31.2317C4.65253 31.2317 4.65253 31.254 4.63037 31.2763V31.2987C4.63037 31.321 4.63037 31.321 4.63037 31.3433C4.63037 31.3656 4.63037 31.3656 4.63037 31.388V32.08C4.63037 33.04 5.40585 33.799 6.33643 33.799H24.4162C25.3689 33.799 26.1222 33.0176 26.1222 32.08V31.388C26.1444 31.3656 26.1222 31.3433 26.1222 31.3433Z" fill="#00AEEF"/>
</g>
<defs>
<clipPath id="clip0">
<rect width="30" height="34" fill="white" transform="translate(0.375977)"/>
</clipPath>
</defs>
</svg>
