<svg width="189" height="27" viewBox="0 0 189 27" fill="none" xmlns="http://www.w3.org/2000/svg">
<path d="M1.58388 5.248H4.55388V21H1.58388V5.248ZM10.0824 11.628H10.2584C10.5957 11.0853 11.0504 10.66 11.6224 10.352C12.1944 10.0293 12.8471 9.868 13.5804 9.868C14.2551 9.868 14.8491 9.978 15.3624 10.198C15.8757 10.418 16.2937 10.7333 16.6164 11.144C16.9537 11.54 17.2031 12.024 17.3644 12.596C17.5404 13.1533 17.6284 13.7767 17.6284 14.466V21H14.7464V14.818C14.7464 14.0407 14.5704 13.4687 14.2184 13.102C13.8811 12.7207 13.3824 12.53 12.7224 12.53C12.3264 12.53 11.9744 12.618 11.6664 12.794C11.3731 12.9553 11.1164 13.1827 10.8964 13.476C10.6911 13.7547 10.5297 14.092 10.4124 14.488C10.3097 14.8693 10.2584 15.28 10.2584 15.72V21H7.37641V10.22H10.0824V11.628ZM24.1698 21.352C23.4658 21.352 22.8351 21.264 22.2778 21.088C21.7351 20.912 21.2585 20.6847 20.8478 20.406C20.4518 20.1127 20.1145 19.7827 19.8358 19.416C19.5571 19.0347 19.3445 18.6533 19.1978 18.272L21.7718 17.172C22.0211 17.7293 22.3511 18.1473 22.7618 18.426C23.1871 18.69 23.6565 18.822 24.1698 18.822C24.6978 18.822 25.1158 18.7267 25.4238 18.536C25.7318 18.3453 25.8858 18.118 25.8858 17.854C25.8858 17.5607 25.7538 17.326 25.4898 17.15C25.2405 16.9593 24.8005 16.7907 24.1698 16.644L22.6518 16.314C22.3145 16.2407 21.9625 16.1233 21.5958 15.962C21.2438 15.8007 20.9211 15.5953 20.6278 15.346C20.3345 15.0967 20.0925 14.796 19.9018 14.444C19.7111 14.092 19.6158 13.6813 19.6158 13.212C19.6158 12.684 19.7258 12.2147 19.9458 11.804C20.1805 11.3933 20.4958 11.0487 20.8918 10.77C21.2878 10.4767 21.7498 10.2567 22.2778 10.11C22.8205 9.94867 23.3998 9.868 24.0158 9.868C25.0425 9.868 25.9591 10.0733 26.7658 10.484C27.5725 10.88 28.1665 11.518 28.5478 12.398L26.0618 13.41C25.8565 12.9847 25.5558 12.6767 25.1598 12.486C24.7638 12.2953 24.3678 12.2 23.9718 12.2C23.5611 12.2 23.2018 12.288 22.8938 12.464C22.5858 12.6253 22.4318 12.838 22.4318 13.102C22.4318 13.3513 22.5565 13.5493 22.8058 13.696C23.0698 13.8427 23.4218 13.9747 23.8618 14.092L25.5118 14.488C26.6118 14.752 27.4258 15.1773 27.9538 15.764C28.4965 16.336 28.7678 17.018 28.7678 17.81C28.7678 18.2793 28.6578 18.7267 28.4378 19.152C28.2178 19.5773 27.9025 19.9587 27.4918 20.296C27.0958 20.6187 26.6118 20.8753 26.0398 21.066C25.4825 21.2567 24.8591 21.352 24.1698 21.352ZM31.6171 12.684H29.7251V10.22H31.6171V6.92H34.4991V10.22H37.1391V12.684H34.4991V16.864C34.4991 17.1133 34.5211 17.348 34.5651 17.568C34.6238 17.7733 34.7265 17.9493 34.8731 18.096C35.0785 18.3307 35.3718 18.448 35.7531 18.448C36.0025 18.448 36.2005 18.426 36.3471 18.382C36.4938 18.3233 36.6331 18.25 36.7651 18.162L37.5791 20.692C37.2418 20.8533 36.8751 20.9707 36.4791 21.044C36.0978 21.132 35.6725 21.176 35.2031 21.176C34.6605 21.176 34.1691 21.0953 33.7291 20.934C33.3038 20.758 32.9445 20.5233 32.6511 20.23C31.9618 19.57 31.6171 18.6313 31.6171 17.414V12.684ZM45.6884 19.856H45.5124C45.175 20.2667 44.7644 20.6187 44.2804 20.912C43.811 21.2053 43.2024 21.352 42.4544 21.352C41.897 21.352 41.369 21.2567 40.8704 21.066C40.3864 20.89 39.961 20.6407 39.5944 20.318C39.2277 19.9953 38.9417 19.6067 38.7364 19.152C38.531 18.6973 38.4284 18.1987 38.4284 17.656C38.4284 17.0987 38.5384 16.6 38.7584 16.16C38.9784 15.7053 39.2864 15.3167 39.6824 14.994C40.0784 14.6713 40.5404 14.4293 41.0684 14.268C41.611 14.092 42.1977 14.004 42.8284 14.004C43.5324 14.004 44.1117 14.0627 44.5664 14.18C45.021 14.2827 45.395 14.3927 45.6884 14.51V14.18C45.6884 13.608 45.461 13.1387 45.0064 12.772C44.5517 12.3907 43.987 12.2 43.3124 12.2C42.315 12.2 41.4717 12.618 40.7824 13.454L38.6924 12.024C39.8364 10.5867 41.3984 9.868 43.3784 9.868C45.0504 9.868 46.3264 10.264 47.2064 11.056C48.0864 11.8333 48.5264 12.992 48.5264 14.532V21H45.6884V19.856ZM45.6884 16.622C45.351 16.4607 44.999 16.336 44.6324 16.248C44.2804 16.1453 43.8917 16.094 43.4664 16.094C42.777 16.094 42.2417 16.248 41.8604 16.556C41.4937 16.8493 41.3104 17.216 41.3104 17.656C41.3104 18.096 41.4864 18.448 41.8384 18.712C42.205 18.976 42.623 19.108 43.0924 19.108C43.4737 19.108 43.8257 19.042 44.1484 18.91C44.471 18.7633 44.7424 18.58 44.9624 18.36C45.197 18.1253 45.373 17.8613 45.4904 17.568C45.6224 17.26 45.6884 16.9447 45.6884 16.622ZM55.6824 26.104C54.9197 26.104 54.2377 26.0013 53.6364 25.796C53.0497 25.6053 52.5364 25.3487 52.0964 25.026C51.6564 24.718 51.2897 24.3733 50.9964 23.992C50.7031 23.6107 50.4904 23.2293 50.3584 22.848L53.1084 21.748C53.3137 22.32 53.6511 22.76 54.1204 23.068C54.5897 23.3907 55.1104 23.552 55.6824 23.552C56.5917 23.552 57.3104 23.266 57.8384 22.694C58.3664 22.1367 58.6304 21.352 58.6304 20.34V19.592H58.4544C58.1171 20.0613 57.6697 20.4353 57.1124 20.714C56.5697 20.978 55.9244 21.11 55.1764 21.11C54.5311 21.11 53.9004 20.978 53.2844 20.714C52.6831 20.45 52.1477 20.076 51.6784 19.592C51.2091 19.0933 50.8277 18.4993 50.5344 17.81C50.2411 17.1207 50.0944 16.3507 50.0944 15.5C50.0944 14.6493 50.2411 13.8793 50.5344 13.19C50.8277 12.486 51.2091 11.892 51.6784 11.408C52.1477 10.9093 52.6831 10.528 53.2844 10.264C53.9004 10 54.5311 9.868 55.1764 9.868C55.9244 9.868 56.5697 10.0073 57.1124 10.286C57.6697 10.55 58.1171 10.9167 58.4544 11.386H58.6304V10.22H61.3804V20.23C61.3804 21.1393 61.2411 21.9533 60.9624 22.672C60.6837 23.4053 60.2951 24.0213 59.7964 24.52C59.2977 25.0333 58.6964 25.422 57.9924 25.686C57.3031 25.9647 56.5331 26.104 55.6824 26.104ZM55.7924 18.514C56.1444 18.514 56.4891 18.448 56.8264 18.316C57.1784 18.184 57.4864 17.9933 57.7504 17.744C58.0144 17.48 58.2271 17.1647 58.3884 16.798C58.5497 16.4167 58.6304 15.984 58.6304 15.5C58.6304 15.016 58.5497 14.5833 58.3884 14.202C58.2271 13.8207 58.0144 13.5053 57.7504 13.256C57.4864 12.992 57.1784 12.794 56.8264 12.662C56.4891 12.53 56.1444 12.464 55.7924 12.464C55.4404 12.464 55.0957 12.53 54.7584 12.662C54.4211 12.794 54.1204 12.992 53.8564 13.256C53.5924 13.52 53.3797 13.8427 53.2184 14.224C53.0571 14.5907 52.9764 15.016 52.9764 15.5C52.9764 15.984 53.0571 16.4167 53.2184 16.798C53.3797 17.1647 53.5924 17.48 53.8564 17.744C54.1204 17.9933 54.4211 18.184 54.7584 18.316C55.0957 18.448 55.4404 18.514 55.7924 18.514ZM63.8373 10.22H66.5433V11.716H66.7193C66.8513 11.452 67.0273 11.21 67.2473 10.99C67.4673 10.77 67.7093 10.5793 67.9733 10.418C68.252 10.2567 68.5453 10.132 68.8533 10.044C69.176 9.956 69.4913 9.912 69.7993 9.912C70.1807 9.912 70.5033 9.94867 70.7673 10.022C71.046 10.0953 71.2807 10.1907 71.4713 10.308L70.7013 12.926C70.5253 12.838 70.3273 12.772 70.1073 12.728C69.902 12.6693 69.6453 12.64 69.3373 12.64C68.9413 12.64 68.582 12.7207 68.2593 12.882C67.9367 13.0287 67.658 13.2413 67.4233 13.52C67.2033 13.7987 67.0273 14.1287 66.8953 14.51C66.778 14.8767 66.7193 15.28 66.7193 15.72V21H63.8373V10.22ZM79.0106 19.856H78.8346C78.4973 20.2667 78.0866 20.6187 77.6026 20.912C77.1333 21.2053 76.5246 21.352 75.7766 21.352C75.2193 21.352 74.6913 21.2567 74.1926 21.066C73.7086 20.89 73.2833 20.6407 72.9166 20.318C72.55 19.9953 72.264 19.6067 72.0586 19.152C71.8533 18.6973 71.7506 18.1987 71.7506 17.656C71.7506 17.0987 71.8606 16.6 72.0806 16.16C72.3006 15.7053 72.6086 15.3167 73.0046 14.994C73.4006 14.6713 73.8626 14.4293 74.3906 14.268C74.9333 14.092 75.52 14.004 76.1506 14.004C76.8546 14.004 77.434 14.0627 77.8886 14.18C78.3433 14.2827 78.7173 14.3927 79.0106 14.51V14.18C79.0106 13.608 78.7833 13.1387 78.3286 12.772C77.874 12.3907 77.3093 12.2 76.6346 12.2C75.6373 12.2 74.794 12.618 74.1046 13.454L72.0146 12.024C73.1586 10.5867 74.7206 9.868 76.7006 9.868C78.3726 9.868 79.6486 10.264 80.5286 11.056C81.4086 11.8333 81.8486 12.992 81.8486 14.532V21H79.0106V19.856ZM79.0106 16.622C78.6733 16.4607 78.3213 16.336 77.9546 16.248C77.6026 16.1453 77.214 16.094 76.7886 16.094C76.0993 16.094 75.564 16.248 75.1826 16.556C74.816 16.8493 74.6326 17.216 74.6326 17.656C74.6326 18.096 74.8086 18.448 75.1606 18.712C75.5273 18.976 75.9453 19.108 76.4146 19.108C76.796 19.108 77.148 19.042 77.4706 18.91C77.7933 18.7633 78.0646 18.58 78.2846 18.36C78.5193 18.1253 78.6953 17.8613 78.8126 17.568C78.9446 17.26 79.0106 16.9447 79.0106 16.622ZM84.1401 10.22H86.8461V11.628H87.0221C87.3594 11.1 87.8141 10.6747 88.3861 10.352C88.9727 10.0293 89.6181 9.868 90.3221 9.868C91.1434 9.868 91.8327 10.0587 92.3901 10.44C92.9474 10.8213 93.3434 11.2907 93.5781 11.848C93.9154 11.3053 94.3921 10.8433 95.0081 10.462C95.6241 10.066 96.3721 9.868 97.2521 9.868C97.9121 9.868 98.4841 9.978 98.9681 10.198C99.4521 10.4033 99.8481 10.6967 100.156 11.078C100.479 11.4593 100.721 11.9213 100.882 12.464C101.043 12.992 101.124 13.5713 101.124 14.202V21H98.2421V14.73C98.2421 13.2633 97.6407 12.53 96.4381 12.53C96.0567 12.53 95.7194 12.618 95.4261 12.794C95.1327 12.9553 94.8834 13.1827 94.6781 13.476C94.4874 13.7547 94.3334 14.092 94.2161 14.488C94.1134 14.884 94.0621 15.3093 94.0621 15.764V21H91.1801V14.73C91.1801 13.2633 90.5494 12.53 89.2881 12.53C88.9214 12.53 88.5987 12.618 88.3201 12.794C88.0414 12.9553 87.8067 13.1827 87.6161 13.476C87.4254 13.7547 87.2787 14.092 87.1761 14.488C87.0734 14.884 87.0221 15.3093 87.0221 15.764V21H84.1401V10.22Z" fill="white"/>
<path d="M120.985 21.904C120.244 21.8895 119.508 21.7755 118.796 21.565L117 21.904V6.20876L118.796 5.91455V12.0865C119.534 11.2957 120.54 10.8366 121.6 10.8073C124.429 10.8073 126.07 13.1738 126.07 16.3205C126.07 19.4672 123.986 21.904 120.985 21.904ZM121.255 12.5214C120.344 12.5234 119.467 12.8792 118.796 13.5191V19.4672C119.435 19.9796 120.227 20.2442 121.034 20.2155C123.069 20.2155 124.207 18.4887 124.207 16.3461C124.226 14.0436 123.1 12.5214 121.255 12.5214Z" fill="white"/>
<path d="M129.982 11.1272V17.6893C129.982 19.4865 130.64 20.1069 131.95 20.1069C132.967 20.0956 133.943 19.6895 134.686 18.9684V11.1272H136.482V21.6291L134.686 21.9233V20.3499C134.251 20.8249 133.728 21.2048 133.15 21.4673C132.571 21.7297 131.948 21.8695 131.317 21.8785C129.386 21.8785 128.186 20.5354 128.186 18.2777V11.1272H129.982Z" fill="white"/>
<path d="M142.053 21.9296C140.822 21.9238 139.614 21.5843 138.548 20.9446L139.009 19.2369C139.926 19.8552 140.991 20.1942 142.084 20.2155C143.221 20.2155 144.076 19.6718 144.076 18.7381C144.076 17.6891 142.895 17.3502 141.715 17.0048C140.319 16.5955 138.745 15.8727 138.745 13.954C138.745 12.0353 140.325 10.7881 142.336 10.7881C143.459 10.7863 144.567 11.051 145.577 11.562L145.115 13.2697C144.229 12.7901 143.249 12.5255 142.25 12.4958C141.174 12.4958 140.479 12.9499 140.479 13.7749C140.479 14.7791 141.549 15.118 142.797 15.4634C144.267 15.8727 145.841 16.6019 145.841 18.5846C145.841 20.5673 144.242 21.9296 142.053 21.9296Z" fill="white"/>
<path d="M148.793 8.83744C148.628 8.84125 148.463 8.80816 148.311 8.74041C148.158 8.67265 148.022 8.57179 147.91 8.44459C147.798 8.31739 147.714 8.1668 147.662 8.0029C147.611 7.83901 147.594 7.6656 147.613 7.49432C147.601 7.32518 147.623 7.15534 147.677 6.99539C147.731 6.83544 147.816 6.68882 147.927 6.56467C148.039 6.44051 148.173 6.3415 148.323 6.27379C148.472 6.20609 148.633 6.17114 148.796 6.17114C148.959 6.17114 149.121 6.20609 149.27 6.27379C149.42 6.3415 149.554 6.44051 149.665 6.56467C149.776 6.68882 149.862 6.83544 149.916 6.99539C149.97 7.15534 149.992 7.32518 149.98 7.49432C149.998 7.66595 149.98 7.83948 149.928 8.00337C149.876 8.16726 149.791 8.31774 149.679 8.44481C149.566 8.57189 149.429 8.67262 149.277 8.74032C149.124 8.80802 148.959 8.84113 148.793 8.83744ZM147.895 21.5651V11.0824L149.691 10.7882V21.5651H147.895Z" fill="white"/>
<path d="M158.958 21.565V15.0029C158.958 13.2057 158.306 12.5853 156.879 12.5853C155.9 12.6188 154.966 13.0237 154.254 13.7238V21.565H152.458V11.0823L154.254 10.7881V12.3614C155.107 11.4082 156.286 10.8429 157.537 10.7881C159.579 10.7881 160.784 12.1312 160.784 14.3889V21.565H158.958Z" fill="white"/>
<path d="M164.702 16.6658C164.769 18.7125 166.079 20.1707 168.01 20.1707C169.069 20.1854 170.11 19.8859 171.011 19.3073L171.337 21.0405C170.316 21.6324 169.161 21.9304 167.992 21.904C164.966 21.904 162.906 19.6462 162.906 16.4611C162.906 13.0906 165.052 10.7881 167.857 10.7881C170.316 10.7881 171.694 12.3806 171.694 14.8622C171.692 15.4243 171.617 15.9836 171.472 16.5251L164.708 16.5763L164.702 16.6658ZM169.935 15.1628V15.0029C169.935 13.4551 169.234 12.4446 167.66 12.4446C166.933 12.4533 166.235 12.7442 165.704 13.26C165.173 13.7759 164.846 14.4796 164.788 15.2332L169.935 15.1628Z" fill="white"/>
<path d="M176.602 21.9295C175.371 21.9238 174.163 21.5843 173.097 20.9446L173.558 19.2369C174.475 19.8543 175.54 20.1931 176.633 20.2155C177.776 20.2155 178.625 19.6718 178.625 18.738C178.625 17.6891 177.444 17.3502 176.264 17.0048C174.837 16.5955 173.287 15.8663 173.287 13.954C173.287 12.0417 174.861 10.7881 176.879 10.7881C178.001 10.7883 179.109 11.0529 180.119 11.562L179.677 13.2697C178.788 12.79 177.806 12.5254 176.805 12.4958C175.735 12.4958 175.034 12.9499 175.034 13.7749C175.034 14.7791 176.104 15.118 177.352 15.4634C178.822 15.8727 180.427 16.6019 180.427 18.5846C180.427 20.5672 178.766 21.9295 176.602 21.9295Z" fill="white"/>
<path d="M185.15 21.9295C183.919 21.9238 182.711 21.5843 181.644 20.9446L182.106 19.2369C183.023 19.8552 184.088 20.1942 185.18 20.2155C186.324 20.2155 187.173 19.6718 187.173 18.738C187.173 17.6891 185.992 17.3502 184.811 17.0048C183.385 16.5955 181.829 15.8663 181.829 13.954C181.829 12.0417 183.409 10.7881 185.426 10.7881C186.549 10.7883 187.657 11.0529 188.667 11.562L188.206 13.2697C187.317 12.7894 186.335 12.5248 185.334 12.4958C184.264 12.4958 183.563 12.9499 183.563 13.7749C183.563 14.7791 184.633 15.118 185.881 15.4634C187.351 15.8727 188.925 16.6019 188.925 18.5846C188.925 20.5672 187.339 21.9295 185.15 21.9295Z" fill="white"/>
<line x1="108.5" y1="4" x2="108.5" y2="24" stroke="white"/>
</svg>
