<svg width="31" height="34" viewBox="0 0 31 34" fill="none" xmlns="http://www.w3.org/2000/svg">
<g clip-path="url(#clip0)">
<path fill-rule="evenodd" clip-rule="evenodd" d="M5.98689 4.68812H4.83475V3.52725H3.68261V4.68812H2.48615V5.84898H3.63829V7.00985H4.79044V5.84898H5.94258V4.68812H5.98689ZM2.95144 11.8319H1.77714V12.9928H0.625V14.1536H1.77714V15.3145H2.92928V14.1536H4.08143V12.9928H2.92928V11.8319H2.95144ZM26.0829 3.50492H27.235V2.34406H28.3872V1.16087H27.235V0H26.0829V1.16087H24.9308V2.32173H26.0829V3.50492ZM29.4507 9.48785V8.32699H28.2986V9.48785H27.1464V10.6487H28.2986V11.8319H29.4507V10.671H30.6028V9.51018H29.4507V9.48785ZM18.6161 3.10309L19.6132 3.68352L19.0371 4.68812L18.0401 4.10768L18.6161 3.10309ZM21.3636 5.46947L21.9396 6.47406L20.9426 7.0545L20.3665 6.0499L21.3636 5.46947ZM21.43 8.90742H22.5822V10.0683H21.43V8.90742ZM21.3636 13.5062L20.3665 12.9258L20.9426 11.9212L21.9396 12.5016L21.3636 13.5062ZM9.86429 13.5062L9.28822 12.5016L10.2853 11.9212L10.8613 12.9258L9.86429 13.5062ZM8.64568 8.90742H9.79782V10.0683H8.64568V8.90742ZM9.86429 5.46947L10.8613 6.0499L10.2853 7.0545L9.28822 6.47406L9.86429 5.46947ZM12.6339 3.10309L13.2099 4.10768L12.2129 4.68812L11.6368 3.68352L12.6339 3.10309ZM15.0489 2.45568H16.2011V3.61655H15.0489V2.45568ZM17.6634 13.0374L17.3754 13.216V14.7787H16.2232V11.1399C16.8879 10.8943 17.3754 10.2469 17.3754 9.48785C17.3754 8.52791 16.5999 7.72423 15.625 7.72423C14.6723 7.72423 13.8746 8.50558 13.8746 9.48785C13.8746 10.2469 14.3621 10.8943 15.0268 11.1399V14.7564H13.8746V13.1937L13.5866 13.0151C12.3237 12.2784 11.5482 10.9166 11.5482 9.46553C11.5482 7.21077 13.365 5.35785 15.625 5.35785C17.8628 5.35785 19.7018 7.18844 19.7018 9.46553C19.7018 10.9389 18.9042 12.3007 17.6634 13.0374ZM15.0489 9.48785C15.0489 9.17531 15.3148 8.90742 15.625 8.90742C15.9352 8.90742 16.2011 9.17531 16.2011 9.48785C16.2011 9.80039 15.9352 10.0683 15.625 10.0683C15.2927 10.0683 15.0489 9.82272 15.0489 9.48785ZM18.2395 16.52H17.6634H13.5866H13.0105C12.8554 16.52 12.7225 16.3861 12.7225 16.2298C12.7225 16.0735 12.8554 15.9396 13.0105 15.9396H18.2395C18.3946 15.9396 18.5275 16.0735 18.5275 16.2298C18.5275 16.3861 18.3946 16.52 18.2395 16.52ZM17.6634 18.2837H13.5866C13.4315 18.2837 13.2986 18.1497 13.2986 17.9934C13.2986 17.8372 13.4315 17.7032 13.5866 17.7032H17.6634C17.8185 17.7032 17.9514 17.8372 17.9514 17.9934C17.9514 18.1497 17.8185 18.2837 17.6634 18.2837ZM20.854 9.48785C20.854 6.58569 18.5054 4.2193 15.625 4.2193C12.7446 4.2193 10.396 6.58569 10.396 9.48785C10.396 11.2515 11.2823 12.8812 12.7225 13.8634V14.7787C12.0578 14.9127 11.5703 15.5154 11.5703 16.2075C11.5703 16.7209 11.8362 17.1898 12.2572 17.4353C12.1907 17.5916 12.1686 17.7702 12.1686 17.9488C12.1686 18.7525 12.8111 19.4222 13.6309 19.4222H17.7077C18.5054 19.4222 19.1701 18.7748 19.1701 17.9488C19.1701 17.7702 19.1257 17.5916 19.0814 17.4353C19.4802 17.1674 19.7683 16.7209 19.7683 16.2075C19.7683 15.4931 19.2587 14.9127 18.6161 14.7787V13.8634C19.9677 12.9035 20.854 11.2515 20.854 9.48785Z" fill="#00AEEF"/>
<path fill-rule="evenodd" clip-rule="evenodd" d="M24.1998 14.6224H25.1969L16.9989 22.8601L14.4731 20.3151C14.3401 20.1812 14.1186 20.1812 13.9856 20.3151L8.26923 26.0525C8.13629 26.1864 8.13629 26.4097 8.26923 26.5436C8.3357 26.6106 8.42432 26.6553 8.51295 26.6553C8.60158 26.6553 8.6902 26.6106 8.75667 26.5436L14.2293 21.0518L16.7774 23.5968C16.9103 23.7308 17.1319 23.7308 17.2648 23.5968L25.7065 15.1136V16.1182C25.7065 16.3191 25.8615 16.453 26.0388 16.453C26.2382 16.453 26.3712 16.2968 26.3712 16.1182V14.2876C26.3712 14.0866 26.2161 13.9527 26.0388 13.9527H24.1998C24.0004 13.9527 23.8675 14.109 23.8675 14.2876C23.8675 14.4885 24.0226 14.6224 24.1998 14.6224ZM24.6651 33.107H6.58533C6.00926 33.107 5.56613 32.6382 5.56613 32.0801V31.7452H25.7065V32.0801C25.7065 32.6382 25.2412 33.107 24.6651 33.107ZM7.36081 28.0394H23.8896L25.4627 31.0308H5.78769L7.36081 28.0394ZM16.6666 29.6467H14.606C14.4066 29.6467 14.2737 29.803 14.2737 29.9816C14.2737 30.1825 14.4288 30.3165 14.606 30.3165H16.6666C16.866 30.3165 16.9989 30.1602 16.9989 29.9816C16.9989 29.803 16.8438 29.6467 16.6666 29.6467ZM26.3712 31.3434C26.3712 31.321 26.3712 31.3211 26.3712 31.2987V31.2764C26.3712 31.2541 26.3711 31.2541 26.349 31.2318L24.4435 27.6152V19.3105C24.4435 19.1096 24.2884 18.9757 24.1112 18.9757C23.9118 18.9757 23.7788 19.1319 23.7788 19.3105V27.3473H7.49375V17.6362C7.49375 17.0558 7.95904 16.6093 8.51295 16.6093H9.97528C10.1747 16.6093 10.3076 16.453 10.3076 16.2744C10.3076 16.0735 10.1525 15.9396 9.97528 15.9396H8.51295C7.56022 15.9396 6.80689 16.7209 6.80689 17.6585V27.6375L4.90143 31.2318C4.90143 31.2318 4.90143 31.2541 4.87927 31.2764V31.2987C4.87927 31.3211 4.87927 31.321 4.87927 31.3434C4.87927 31.3657 4.87927 31.3657 4.87927 31.388V32.0801C4.87927 33.04 5.65475 33.7991 6.58533 33.7991H24.6651C25.6178 33.7991 26.3712 33.0177 26.3712 32.0801V31.388C26.3933 31.3657 26.3712 31.3434 26.3712 31.3434Z" fill="#00AEEF"/>
</g>
<defs>
<clipPath id="clip0">
<rect width="30" height="34" fill="white" transform="translate(0.625)"/>
</clipPath>
</defs>
</svg>
