<svg width="159" height="39" viewBox="0 0 159 39" fill="none" xmlns="http://www.w3.org/2000/svg">
<g clip-path="url(#clip0)">
<path d="M-1 5.7417H5.00405V27.7334H15.94V33.2584H-1V5.7417Z" fill="white"/>
<path d="M18.6203 14.625H24.3027V33.2584H18.6203V14.625ZM21.5151 5.30835C23.3377 5.30835 24.8387 6.82502 24.8387 8.66668C24.8387 10.5083 23.3377 12.025 21.5151 12.025C19.6924 12.025 18.1914 10.5083 18.1914 8.66668C18.1914 6.82502 19.5852 5.30835 21.5151 5.30835Z" fill="white"/>
<path d="M48.2117 5.7417H54.0013V22.2084L60.4342 14.625H67.5104L60.0053 23.1834L67.296 33.2584H60.1125L54.0013 24.05V33.2584H48.2117V5.7417Z" fill="white"/>
<path d="M27.5193 14.6249H32.9873V17.1166H33.0945C33.845 15.5999 35.7749 14.0833 38.5624 14.0833C44.3521 14.0833 45.4242 17.9833 45.4242 22.9666V33.1499H39.7418V24.0499C39.7418 21.8833 39.7418 19.0666 36.7398 19.0666C33.7378 19.0666 33.3089 21.4499 33.3089 23.8333V33.0416H27.6265V14.6249H27.5193Z" fill="white"/>
<path d="M79.5186 21.7751C79.5186 19.8251 78.0175 18.2001 75.9805 18.2001C73.5145 18.2001 72.1207 19.9334 71.9063 21.7751H79.5186ZM84.3432 30.0084C82.5206 32.3918 79.5186 33.6918 76.5165 33.6918C70.8341 33.6918 66.2239 29.7918 66.2239 23.8334C66.2239 17.8751 70.8341 13.9751 76.5165 13.9751C81.8773 13.9751 85.201 17.8751 85.201 23.8334V25.6751H71.9063C72.3351 27.8418 74.0506 29.2501 76.1949 29.2501C78.0175 29.2501 79.3041 28.2751 80.2691 26.9751L84.3432 30.0084Z" fill="white"/>
<path d="M97.1017 19.0667C94.2069 19.0667 92.4915 21.0167 92.4915 23.8334C92.4915 26.65 94.2069 28.6 97.1017 28.6C99.9965 28.6 101.712 26.65 101.712 23.8334C101.712 21.0167 99.9965 19.0667 97.1017 19.0667ZM106.966 33.2584H101.712V30.7667H101.605C100.747 32.0667 98.4955 33.6917 95.9224 33.6917C90.4544 33.6917 86.8091 29.6834 86.8091 24.05C86.8091 18.85 90.0255 14.0834 95.2791 14.0834C97.6378 14.0834 99.8893 14.7334 101.176 16.575H101.283V5.7417H106.966V33.2584Z" fill="white"/>
<path d="M148.458 0H115.543C113.935 0 112.648 1.3 112.648 2.81667V36.1833C112.648 37.7 113.935 39 115.543 39H148.458C150.066 39 151.353 37.7 151.353 36.1833V2.81667C151.353 1.3 150.066 0 148.458 0ZM124.12 33.2583H118.438V14.625H124.12V33.2583ZM121.332 12.025C119.51 12.025 118.009 10.5083 118.009 8.66667C118.009 6.825 119.51 5.30833 121.332 5.30833C123.155 5.30833 124.656 6.825 124.656 8.66667C124.656 10.6167 123.155 12.025 121.332 12.025ZM145.563 33.2583H139.881V24.1583C139.881 21.9917 139.881 19.175 136.879 19.175C133.877 19.175 133.448 21.5583 133.448 23.9417V33.15H127.765V14.625H133.233V17.1167H133.34C134.091 15.6 136.021 14.0833 138.808 14.0833C144.598 14.0833 145.67 17.9833 145.67 22.9667V33.2583H145.563Z" fill="white"/>
</g>
<defs>
<clipPath id="clip0">
<rect width="159" height="39" fill="white"/>
</clipPath>
</defs>
</svg>
