<svg width="29" height="27" viewBox="0 0 29 27" fill="none" xmlns="http://www.w3.org/2000/svg">
<path opacity="0.82" d="M8.88574 3.45874L13.2169 7.25846L8.88574 3.45874Z" fill="#06618D"/>
<path opacity="0.82" d="M7.67187 3.45874H4.66488C3.5614 3.45874 3.03724 4.69037 3.75451 5.42411L5.85113 7.25846H12.0306L7.67187 3.45874Z" fill="#06618D"/>
<path opacity="0.82" d="M21.5482 21.0161L22.9276 22.2216C23.7276 22.7719 24.9138 22.2478 24.9138 21.2782V18.5529L21.5482 15.6179V21.0161Z" fill="#06618D"/>
<path opacity="0.82" d="M21.5482 14.5437L24.9138 17.4787L21.5482 14.5437Z" fill="#06618D"/>
<path opacity="0.82" d="M1.2165 7.25879C0.11302 7.25879 -0.411135 8.54283 0.416478 9.22416L19.5619 26.0216C20.3343 26.7029 21.5758 26.1788 21.5758 25.183V22.0646L4.6373 7.25879H1.2165Z" fill="#06618D"/>
<path opacity="0.82" d="M13.2169 7.25879L21.5482 14.5438L13.2169 7.25879Z" fill="#06618D"/>
<path opacity="0.82" d="M13.2169 7.25879L21.5482 14.5438L13.2169 7.25879Z" fill="#06618D"/>
<path opacity="0.82" d="M12.0306 7.25879H5.85114L21.5482 21.0164V15.6182L12.0306 7.25879Z" fill="#06618D"/>
<path opacity="0.82" d="M12.0306 7.25879H5.85114L21.5482 21.0164V15.6182L12.0306 7.25879Z" fill="#06618D"/>
<path opacity="0.8" d="M27.4518 0H7.25805C6.43044 0 6.04422 0.969585 6.65114 1.49368L8.88569 3.43285H23.6724C24.362 3.43285 24.9138 3.95695 24.9138 4.61208V17.4787L26.8449 19.1821C27.4242 19.68 28.3622 19.2869 28.3622 18.5531V0.864765C28.3622 0.393075 27.9484 0 27.4518 0Z" fill="url(#paint0_linear)"/>
<path opacity="0.82" d="M23.6724 3.45874H8.88574L13.2445 7.25846H20.362C21.0241 7.25846 21.5482 7.75636 21.5482 8.38528V14.5434L24.8863 17.4784V4.63796C24.9138 3.98284 24.3345 3.45874 23.6724 3.45874Z" fill="#06618D"/>
<path opacity="0.8" d="M23.6724 3.45874H8.88574L13.2445 7.25846H20.362C21.0241 7.25846 21.5482 7.75636 21.5482 8.38528V14.5434L24.8863 17.4784V4.63796C24.9138 3.98284 24.3345 3.45874 23.6724 3.45874Z" fill="url(#paint1_linear)"/>
<path opacity="0.82" d="M21.5482 8.3856C21.5482 7.75668 21.024 7.25879 20.3619 7.25879H13.2169L21.5482 14.5438V8.3856Z" fill="#06618D"/>
<path opacity="0.82" d="M21.5482 8.3856C21.5482 7.75668 21.024 7.25879 20.3619 7.25879H13.2169L21.5482 14.5438V8.3856Z" fill="#06618D"/>
<path opacity="0.8" d="M21.5482 8.3856C21.5482 7.75668 21.024 7.25879 20.3619 7.25879H13.2169L21.5482 14.5438V8.3856Z" fill="url(#paint2_linear)"/>
<defs>
<linearGradient id="paint0_linear" x1="17.3648" y1="3.47168e-09" x2="17.3648" y2="19.4183" gradientUnits="userSpaceOnUse">
<stop stop-color="#22C1DC"/>
<stop offset="1" stop-color="#06618D"/>
</linearGradient>
<linearGradient id="paint1_linear" x1="16.8936" y1="-0.000317776" x2="16.8936" y2="19.4179" gradientUnits="userSpaceOnUse">
<stop stop-color="#22C1DC"/>
<stop offset="1" stop-color="#06618D"/>
</linearGradient>
<linearGradient id="paint2_linear" x1="17.3917" y1="2.82836e-06" x2="17.3917" y2="19.4183" gradientUnits="userSpaceOnUse">
<stop stop-color="#22C1DC"/>
<stop offset="1" stop-color="#06618D"/>
</linearGradient>
</defs>
</svg>
