<svg width="29" height="28" viewBox="0 0 29 28" fill="none" xmlns="http://www.w3.org/2000/svg">
<g clip-path="url(#clip0)">
<path d="M10.2439 23.3542H2.46515V24.0717H10.2439V23.3542Z" fill="#00AEEF"/>
<path d="M10.2439 25.3632H2.46515V26.0807H10.2439V25.3632Z" fill="#00AEEF"/>
<path fill-rule="evenodd" clip-rule="evenodd" d="M14.6521 9.41704C14.051 9.41704 13.5409 9.0583 13.5409 8.32287H12.8122C12.8122 9.41704 13.632 10.1345 14.6521 10.1345C15.6723 10.1345 16.4921 9.41704 16.4921 8.32287H15.7634C15.7452 9.04036 15.2533 9.41704 14.6521 9.41704ZM27.8779 1.95516L27.4771 1.75785L27.8779 1.45291V1.95516ZM26.1655 6.51121H25.1271L26.967 2.3139L27.7868 2.70852L26.1655 6.51121ZM27.0581 7.24664C27.1128 7.60538 27.131 7.98206 27.131 8.34081V9.66816C27.131 12.574 25.6736 15.2825 23.2507 16.9327L23.0868 17.0404V21.7399H15.7452V18.4753H12.0835V14.0448L9.69704 13.5067L11.8467 9.72197L11.8285 9.59641C11.6827 8.80717 11.6827 7.96413 11.8102 7.2287H12.0835H15.7452H27.0581V7.24664ZM13.9235 3.62332C13.7231 3.62332 13.5591 3.46188 13.5591 3.26457C13.5591 3.06726 13.7231 2.90583 13.9235 2.90583C14.1238 2.90583 14.2878 3.06726 14.2878 3.26457C14.2878 3.46188 14.1238 3.62332 13.9235 3.62332ZM11.3366 3.26457C11.3366 1.86547 12.4843 0.735426 13.9052 0.735426C15.3262 0.735426 16.4739 1.86547 16.4739 3.26457C16.4739 4.16144 15.982 5.00448 15.1804 5.45291L15.0165 5.56054V6.51121H14.2878V4.287C14.7068 4.1435 15.0165 3.73094 15.0165 3.26457C15.0165 2.67265 14.5246 2.1704 13.9052 2.1704C13.2858 2.1704 12.794 2.65471 12.794 3.26457C12.794 3.73094 13.1037 4.12556 13.5227 4.287V6.51121H12.794V5.56054L12.6118 5.45291C11.8285 5.00448 11.3366 4.16144 11.3366 3.26457ZM18.1499 3.39013L18.5871 4.35874C17.822 4.41256 17.2208 5.04036 17.2208 5.79372V6.51121H15.7452V5.97309C16.4739 5.48879 16.984 4.73543 17.1479 3.89238L18.1499 3.39013ZM19.589 6.51121H17.9495V5.79372C17.9495 5.3991 18.2774 5.0583 18.6782 5.0583H18.915L19.589 6.51121ZM18.5689 1.21973L20.0262 1.8296L19.6801 1.99103L20.7732 4.32287H19.3886L18.496 2.38565L18.1681 2.54709L18.5689 1.21973ZM21.7933 6.51121H20.3906L19.7166 5.0583H21.1011L21.7933 6.51121ZM23.105 1.45291V0.735426H23.8337V1.45291H23.105ZM28.6248 0L26.4934 1.57848L24.3437 6.51121H22.6131L21.9391 5.0583H22.3763C23.1961 5.0583 23.8519 4.41256 23.8519 3.62332V2.1704H24.5806V0H22.3763V2.1704H23.105V3.62332C23.105 4.01794 22.7771 4.34081 22.3763 4.34081H21.5929L20.6456 2.33184L21.7751 1.77578L18.0952 0.233184L17.2208 3.2287C17.2026 1.45291 15.727 0 13.9235 0C12.1017 0 10.6079 1.45291 10.6079 3.26457C10.6079 4.34081 11.1726 5.36323 12.0835 5.97309V6.51121H11.1909L11.1362 6.81614C10.954 7.73094 10.9358 8.66368 11.0816 9.59641L8.56757 13.991L11.3366 14.6188V19.1749H15.0165V22.4395H23.8337V17.3991C26.4023 15.6054 27.8779 12.7175 27.8779 9.65022V8.32287C27.8779 7.82063 27.8233 7.31839 27.7322 6.81614L27.6775 6.51121H26.9488L28.6066 2.6009V0H28.6248Z" fill="#00AEEF"/>
<path d="M17.7493 21.9731L17.4942 21.9372C17.4396 21.9372 17.4031 21.9193 17.3485 21.9014C17.3121 21.9014 17.2756 21.8834 17.2392 21.8655C17.2027 21.8655 17.1845 21.8655 17.1481 21.8655V27.3005H1.35369V10.9238C1.35369 9.63229 2.42851 8.574 3.74016 8.574H11.5918C11.5372 8.4305 11.519 8.26906 11.5372 8.12556C11.5372 8.03588 11.5554 7.94619 11.5918 7.85651H3.75838C2.02773 7.85651 0.625 9.23767 0.625 10.9238V28H17.895V21.9552C17.8586 21.9731 17.8039 21.9731 17.7493 21.9731Z" fill="#00AEEF"/>
<path d="M10.2439 17.3812H2.46515V18.0987H10.2439V17.3812Z" fill="#00AEEF"/>
<path d="M10.2439 15.3723H2.46515V16.0897H10.2439V15.3723Z" fill="#00AEEF"/>
<path d="M6.96478 10.4395L4.34148 13.3453L3.86783 12.6457L3.26666 13.0403L4.2504 14.5291L7.5113 10.9058L6.96478 10.4395Z" fill="#00AEEF"/>
<path d="M10.2439 19.3722H2.46515V20.0897H10.2439V19.3722Z" fill="#00AEEF"/>
<path d="M10.2439 21.3632H2.46515V22.0807H10.2439V21.3632Z" fill="#00AEEF"/>
</g>
<defs>
<clipPath id="clip0">
<rect width="28" height="28" fill="white" transform="translate(0.625)"/>
</clipPath>
</defs>
</svg>
