<svg width="20" height="19" viewBox="0 0 20 19" fill="none" xmlns="http://www.w3.org/2000/svg">
<path d="M10.125 5.14583C13.1254 5.14583 15.8013 6.83208 17.1075 9.5C15.8013 12.1679 13.1334 13.8542 10.125 13.8542C7.11669 13.8542 4.44877 12.1679 3.14252 9.5C4.44877 6.83208 7.1246 5.14583 10.125 5.14583ZM10.125 3.5625C6.16669 3.5625 2.78627 6.02458 1.41669 9.5C2.78627 12.9754 6.16669 15.4375 10.125 15.4375C14.0834 15.4375 17.4638 12.9754 18.8334 9.5C17.4638 6.02458 14.0834 3.5625 10.125 3.5625ZM10.125 7.52083C11.2175 7.52083 12.1042 8.4075 12.1042 9.5C12.1042 10.5925 11.2175 11.4792 10.125 11.4792C9.03252 11.4792 8.14585 10.5925 8.14585 9.5C8.14585 8.4075 9.03252 7.52083 10.125 7.52083ZM10.125 5.9375C8.16169 5.9375 6.56252 7.53667 6.56252 9.5C6.56252 11.4633 8.16169 13.0625 10.125 13.0625C12.0884 13.0625 13.6875 11.4633 13.6875 9.5C13.6875 7.53667 12.0884 5.9375 10.125 5.9375Z" fill="#00AEEF"/>
</svg>
