<svg width="30" height="33" viewBox="0 0 30 33" fill="none" xmlns="http://www.w3.org/2000/svg">
<g clip-path="url(#clip0)">
<path d="M14.2706 17.381C14.547 16.9191 14.927 16.5257 15.4106 16.2177C17.1551 15.0886 19.4868 15.5676 20.6268 17.2784C21.7667 19.0062 21.2831 21.3157 19.5559 22.4448C17.8114 23.5739 15.4797 23.0949 14.3397 21.3841C13.8561 20.6656 13.6661 19.8274 13.7352 19.0404" stroke="#00AEEF" stroke-miterlimit="10" stroke-linecap="round" stroke-linejoin="round"/>
<path d="M21.6283 16.6283C23.131 18.8864 22.4919 21.9315 20.212 23.4199C17.9321 24.9082 14.8576 24.2752 13.3549 22.0171C11.8523 19.7589 12.4913 16.7138 14.7713 15.2255C17.0512 13.7543 20.1256 14.3701 21.6283 16.6283Z" stroke="#00AEEF" stroke-miterlimit="10" stroke-linecap="round" stroke-linejoin="round"/>
<path d="M21.6113 22.308C21.8704 22.4448 22.0949 22.6501 22.2677 22.9067L26.6893 29.5786C27.242 30.4168 27.0175 31.5459 26.1712 32.1105L25.9121 32.2815C25.0657 32.829 23.9258 32.6066 23.3558 31.7683L18.9341 25.0965C18.7614 24.8228 18.6578 24.5319 18.6405 24.224" stroke="#00AEEF" stroke-miterlimit="10" stroke-linecap="round" stroke-linejoin="round"/>
<path d="M22.6302 25.6439L25.4283 29.8523C25.7046 30.2628 25.9637 30.6392 25.7046 31.2037" stroke="#00AEEF" stroke-miterlimit="10" stroke-linecap="round" stroke-linejoin="round"/>
<path d="M21.2999 23.6594L22.0599 24.8055" stroke="#00AEEF" stroke-miterlimit="10" stroke-linecap="round" stroke-linejoin="round"/>
<path fill-rule="evenodd" clip-rule="evenodd" d="M25.4109 16.9704L26.1881 17.0218C26.2227 16.5941 26.24 16.1664 26.24 15.7387H25.4627C25.4627 16.1493 25.4454 16.5599 25.4109 16.9704Z" fill="#00AEEF"/>
<path fill-rule="evenodd" clip-rule="evenodd" d="M24.4955 18.6127L24.8928 19.2799C25.3073 19.0404 25.7219 18.6812 25.9637 18.1679L25.2555 17.8429C25.1173 18.1508 24.841 18.4245 24.4955 18.6127Z" fill="#00AEEF"/>
<path fill-rule="evenodd" clip-rule="evenodd" d="M22.4573 19.1944L22.5264 19.9643C22.9754 19.9301 23.4245 19.8445 23.8736 19.7077L23.6491 18.972C23.2691 19.0918 22.8718 19.1602 22.4573 19.1944Z" fill="#00AEEF"/>
<path fill-rule="evenodd" clip-rule="evenodd" d="M24.288 10.8803L24.7889 10.2473C24.3743 10.0249 23.9253 9.87094 23.4589 9.7854L23.1653 10.521C23.5453 10.5894 23.9253 10.7092 24.288 10.8803Z" fill="#00AEEF"/>
<path fill-rule="evenodd" clip-rule="evenodd" d="M25.2726 12.591L26.0153 12.283C25.9462 11.8554 25.8599 11.4448 25.6872 11.0513C25.6699 11.0171 25.6526 10.9829 25.6353 10.9487L24.9963 11.4619C25.0135 11.4961 25.0308 11.5132 25.0481 11.5474C25.169 11.8896 25.2208 12.2488 25.2726 12.591Z" fill="#00AEEF"/>
<path fill-rule="evenodd" clip-rule="evenodd" d="M25.4454 14.7294L26.2226 14.6952L26.1881 14.0622L26.1708 13.7372L26.1363 13.3779L25.359 13.4977C25.4108 13.8911 25.4281 14.3188 25.4454 14.7294Z" fill="#00AEEF"/>
<path fill-rule="evenodd" clip-rule="evenodd" d="M17.6558 10.0078L18.0704 9.35769C17.9495 9.27215 17.8113 9.1695 17.6558 9.03265L17.4313 8.82736L17.224 8.62207L16.6368 9.13529C16.7922 9.28926 16.9477 9.44322 17.1031 9.59719C17.2758 9.73405 17.4486 9.88801 17.6558 10.0078Z" fill="#00AEEF"/>
<path fill-rule="evenodd" clip-rule="evenodd" d="M19.9875 10.5039L20.0048 9.73404C19.7975 9.73404 19.5902 9.73403 19.4002 9.71693C19.2102 9.69982 19.0375 9.69982 18.8475 9.6485L18.6748 10.4012C18.8993 10.4525 19.1239 10.4696 19.3484 10.4696C19.5557 10.4868 19.7802 10.5039 19.9875 10.5039Z" fill="#00AEEF"/>
<path fill-rule="evenodd" clip-rule="evenodd" d="M22.2158 10.4696L22.3194 9.69977L20.9722 9.73398L20.9894 10.5038L21.6285 10.4867L22.2158 10.4696Z" fill="#00AEEF"/>
<path fill-rule="evenodd" clip-rule="evenodd" d="M14.2705 4.48208L14.6159 3.79778C14.1841 3.57539 13.7177 3.45564 13.2341 3.38721L13.1305 4.15704C13.545 4.20836 13.925 4.311 14.2705 4.48208Z" fill="#00AEEF"/>
<path fill-rule="evenodd" clip-rule="evenodd" d="M15.4103 5.97044L16.1876 5.93622C16.1876 5.6625 16.1012 5.38879 15.9976 5.14928C15.8939 4.90978 15.7385 4.68739 15.5658 4.49921L14.9785 5.01243C15.0994 5.14928 15.2031 5.30325 15.2721 5.45722C15.3585 5.62829 15.4103 5.79936 15.4103 5.97044Z" fill="#00AEEF"/>
<path fill-rule="evenodd" clip-rule="evenodd" d="M16.0318 8.24573L16.7227 7.90358C16.6536 7.73251 16.5846 7.56144 16.5327 7.39036C16.4636 7.20218 16.4118 7.014 16.36 6.80872L15.6 6.9969C15.6519 7.20218 15.7037 7.40747 15.7728 7.61276C15.8591 7.81805 15.9455 8.04044 16.0318 8.24573Z" fill="#00AEEF"/>
<path fill-rule="evenodd" clip-rule="evenodd" d="M7.37878 19.7932L7.27514 19.0234C6.77425 19.0918 6.29063 19.2287 5.82428 19.4682L6.20427 20.1525C6.56698 19.9643 6.96424 19.8445 7.37878 19.7932Z" fill="#00AEEF"/>
<path d="M9.76233 18.9891H8.4151V19.7589H9.76233V18.9891Z" fill="#00AEEF"/>
<path d="M12.1456 18.9891H10.7983V19.7589H12.1456V18.9891Z" fill="#00AEEF"/>
<path fill-rule="evenodd" clip-rule="evenodd" d="M5.20242 24.9766L4.52881 25.3701C4.66699 25.5925 4.83971 25.8149 5.06425 26.0031C5.28878 26.1912 5.53059 26.3281 5.80695 26.4136L6.06603 25.6951C5.68604 25.5583 5.39242 25.3017 5.20242 24.9766Z" fill="#00AEEF"/>
<path fill-rule="evenodd" clip-rule="evenodd" d="M4.80514 22.8212L4.02789 22.7699C3.99334 23.2489 4.01061 23.7279 4.11425 24.224L4.87423 24.0701C4.78786 23.6595 4.77059 23.2489 4.80514 22.8212Z" fill="#00AEEF"/>
<path fill-rule="evenodd" clip-rule="evenodd" d="M5.46143 20.7512L4.8569 20.2722C4.52873 20.6827 4.30419 21.1617 4.18329 21.6579L4.94326 21.846C5.0469 21.4355 5.20235 21.0591 5.46143 20.7512Z" fill="#00AEEF"/>
<path d="M21.4039 18.5101H19.7458V20.3064H21.4039V18.5101Z" fill="#00AEEF"/>
<path d="M18.4158 18.5101H16.7577V20.3064H18.4158V18.5101Z" fill="#00AEEF"/>
<path d="M15.462 18.5101H13.8038V20.3064H15.462V18.5101Z" fill="#00AEEF"/>
<path d="M7.11938 26.3795C7.11938 26.7901 6.80848 27.1152 6.41122 27.1152C6.01396 27.1152 5.70306 26.7901 5.70306 26.3795C5.70306 25.969 6.01396 25.6439 6.41122 25.6439C6.80848 25.6439 7.11938 25.9861 7.11938 26.3795Z" stroke="#00AEEF" stroke-miterlimit="10" stroke-linecap="round" stroke-linejoin="round"/>
<path d="M12.097 2.48335L10.7656 3.80188L12.0724 5.0964L13.4038 3.77787L12.097 2.48335Z" stroke="#00AEEF" stroke-miterlimit="10" stroke-linecap="round" stroke-linejoin="round"/>
</g>
<defs>
<clipPath id="clip0">
<rect width="29" height="33" fill="white" transform="translate(0.625)"/>
</clipPath>
</defs>
</svg>
