<svg width="155" height="36" viewBox="0 0 155 36" fill="none" xmlns="http://www.w3.org/2000/svg">
<path d="M9.752 35V6.776H0.152V0.631999H25.832V6.776H16.232V35H9.752ZM23.8014 11.48H30.8574L34.7454 26.216H35.0814L39.7374 11.48H46.2174L50.9214 26.216H51.2574L55.0974 11.48H62.0574L54.5214 35H47.7534L43.0494 20.168H42.7134L38.0094 35H31.3374L23.8014 11.48ZM68.4264 8.072C67.8824 8.072 67.3544 7.976 66.8424 7.784C66.3624 7.56 65.9304 7.272 65.5464 6.92C65.1944 6.536 64.9064 6.104 64.6824 5.624C64.4904 5.144 64.3944 4.616 64.3944 4.04C64.3944 3.464 64.4904 2.936 64.6824 2.456C64.9064 1.976 65.1944 1.56 65.5464 1.208C65.9304 0.823998 66.3624 0.535998 66.8424 0.343997C67.3544 0.119998 67.8824 0.00799847 68.4264 0.00799847C69.5464 0.00799847 70.5064 0.407998 71.3064 1.208C72.1064 1.976 72.5064 2.92 72.5064 4.04C72.5064 5.16 72.1064 6.12 71.3064 6.92C70.5064 7.688 69.5464 8.072 68.4264 8.072ZM65.3064 35V11.48H71.5944V35H65.3064ZM85.9899 25.976C85.9899 26.52 86.0379 27.032 86.1339 27.512C86.2619 27.96 86.4859 28.344 86.8059 28.664C87.2539 29.176 87.8939 29.432 88.7259 29.432C89.1739 29.432 89.5579 29.384 89.8779 29.288C90.1979 29.192 90.5499 29.064 90.9339 28.904L91.3659 34.808C90.7259 35.032 90.1179 35.176 89.5419 35.24C88.9979 35.336 88.3259 35.384 87.5259 35.384C86.3419 35.384 85.2699 35.208 84.3099 34.856C83.3819 34.472 82.5979 33.96 81.9579 33.32C80.4539 31.88 79.7019 29.832 79.7019 27.176V16.856H75.5739V11.48H79.7019V4.28H85.9899V11.48H95.0139V4.28H101.302V11.48H107.062V16.856H101.302V25.976C101.302 26.52 101.35 27.032 101.446 27.512C101.574 27.96 101.798 28.344 102.118 28.664C102.566 29.176 103.206 29.432 104.038 29.432C104.582 29.432 105.014 29.384 105.334 29.288C105.654 29.16 105.958 29 106.246 28.808L108.022 34.328C107.286 34.68 106.486 34.936 105.622 35.096C104.79 35.288 103.862 35.384 102.838 35.384C101.654 35.384 100.582 35.208 99.6219 34.856C98.6939 34.472 97.9099 33.96 97.2699 33.32C95.7659 31.88 95.0139 29.832 95.0139 27.176V16.856H85.9899V25.976ZM133.694 29.336C132.606 31.256 131.134 32.808 129.278 33.992C127.454 35.176 125.214 35.768 122.558 35.768C120.766 35.768 119.102 35.464 117.566 34.856C116.062 34.216 114.75 33.336 113.63 32.216C112.51 31.096 111.63 29.784 110.99 28.28C110.382 26.744 110.078 25.064 110.078 23.24C110.078 21.544 110.382 19.944 110.99 18.44C111.598 16.904 112.446 15.576 113.534 14.456C114.622 13.304 115.902 12.392 117.374 11.72C118.878 11.048 120.526 10.712 122.318 10.712C124.206 10.712 125.886 11.032 127.358 11.672C128.83 12.28 130.062 13.144 131.054 14.264C132.046 15.352 132.798 16.648 133.31 18.152C133.822 19.656 134.078 21.288 134.078 23.048C134.078 23.272 134.078 23.464 134.078 23.624C134.046 23.816 134.03 23.992 134.03 24.152C133.998 24.312 133.982 24.488 133.982 24.68H116.27C116.398 25.64 116.654 26.472 117.038 27.176C117.454 27.848 117.95 28.424 118.526 28.904C119.134 29.352 119.79 29.688 120.494 29.912C121.198 30.104 121.918 30.2 122.654 30.2C124.094 30.2 125.278 29.88 126.206 29.24C127.166 28.568 127.918 27.736 128.462 26.744L133.694 29.336ZM127.982 20.216C127.95 19.8 127.806 19.336 127.55 18.824C127.326 18.312 126.974 17.832 126.494 17.384C126.046 16.936 125.47 16.568 124.766 16.28C124.094 15.992 123.278 15.848 122.318 15.848C120.974 15.848 119.79 16.232 118.766 17C117.742 17.768 117.022 18.84 116.606 20.216H127.982ZM138.094 11.48H143.998V14.744H144.382C144.67 14.168 145.054 13.64 145.534 13.16C146.014 12.68 146.542 12.264 147.118 11.912C147.726 11.56 148.366 11.288 149.038 11.096C149.742 10.904 150.43 10.808 151.102 10.808C151.934 10.808 152.638 10.888 153.214 11.048C153.822 11.208 154.334 11.416 154.75 11.672L153.07 17.384C152.686 17.192 152.254 17.048 151.774 16.952C151.326 16.824 150.766 16.76 150.094 16.76C149.23 16.76 148.446 16.936 147.742 17.288C147.038 17.608 146.43 18.072 145.918 18.68C145.438 19.288 145.054 20.008 144.766 20.84C144.51 21.64 144.382 22.52 144.382 23.48V35H138.094V11.48Z" fill="white"/>
</svg>
