<svg width="555" height="504" viewBox="0 0 555 504" fill="none" xmlns="http://www.w3.org/2000/svg">
<ellipse opacity="0.2" cx="277.142" cy="158.98" rx="158.764" ry="163.358" transform="rotate(90 277.142 158.98)" fill="#0084FF"/>
<g opacity="0.4">
<path d="M428.576 495.706C420.461 497.566 412.113 498.838 403.581 499.473L403.544 498.974C399.382 499.284 395.175 499.442 390.93 499.442C386.686 499.442 382.479 499.284 378.316 498.974L378.279 499.473C369.747 498.838 361.399 497.566 353.285 495.706L353.396 495.218C345.114 493.32 337.075 490.806 329.335 487.731L329.15 488.196C321.254 485.058 313.667 481.337 306.446 477.088L306.699 476.657C299.416 472.372 292.506 467.547 286.027 462.24L285.711 462.627C279.168 457.268 273.065 451.419 267.461 445.137L267.834 444.804C262.234 438.528 257.135 431.82 252.595 424.737L252.174 425.007C247.634 417.924 243.653 410.469 240.289 402.699L240.748 402.5C237.43 394.836 234.716 386.865 232.662 378.643L232.177 378.764C230.157 370.676 228.774 362.346 228.083 353.827L228.581 353.786C228.244 349.627 228.072 345.422 228.072 341.179C228.072 336.935 228.244 332.73 228.581 328.571L228.083 328.53C228.774 320.011 230.157 311.681 232.177 303.593L232.662 303.714C234.716 295.492 237.43 287.521 240.748 279.857L240.289 279.658C243.653 271.888 247.634 264.433 252.174 257.35L252.595 257.62C257.135 250.538 262.234 243.829 267.834 237.553L267.461 237.22C273.065 230.939 279.168 225.089 285.711 219.73L286.027 220.117C292.506 214.81 299.416 209.985 306.699 205.7L306.446 205.269C313.667 201.02 321.254 197.299 329.15 194.161L329.335 194.626C337.075 191.551 345.114 189.037 353.396 187.139L353.285 186.651C361.399 184.791 369.747 183.519 378.279 182.884L378.316 183.383C382.479 183.073 386.686 182.915 390.93 182.915C395.175 182.915 399.382 183.073 403.544 183.383L403.581 182.884C412.113 183.519 420.461 184.791 428.576 186.651L428.464 187.139C436.747 189.037 444.785 191.551 452.526 194.626L452.71 194.161C460.607 197.299 468.194 201.02 475.415 205.269L475.161 205.7C482.445 209.985 489.355 214.81 495.833 220.117L496.15 219.73C502.692 225.089 508.796 230.939 514.4 237.22L514.027 237.553C519.626 243.829 524.726 250.538 529.265 257.62L529.686 257.35C534.226 264.433 538.208 271.888 541.571 279.658L541.112 279.857C544.43 287.521 547.145 295.492 549.198 303.714L549.683 303.593C551.704 311.681 553.086 320.011 553.777 328.53L553.279 328.571C553.616 332.73 553.788 336.935 553.788 341.179C553.788 345.422 553.616 349.627 553.279 353.786L553.777 353.827C553.086 362.346 551.704 370.676 549.683 378.764L549.198 378.643C547.145 386.865 544.43 394.836 541.112 402.5L541.571 402.699C538.208 410.469 534.226 417.924 529.686 425.007L529.265 424.737C524.726 431.82 519.626 438.528 514.027 444.804L514.4 445.137C508.796 451.418 502.692 457.268 496.15 462.627L495.833 462.24C489.355 467.547 482.445 472.372 475.161 476.657L475.415 477.088C468.194 481.337 460.607 485.058 452.71 488.196L452.526 487.731C444.785 490.806 436.747 493.32 428.464 495.218L428.576 495.706Z" fill="#1AB7EA" stroke="#00AEEF" stroke-linejoin="round" stroke-dasharray="26 26"/>
<ellipse cx="163.358" cy="344.599" rx="158.764" ry="163.358" transform="rotate(90 163.358 344.599)" fill="#0077B5" fill-opacity="0.5"/>
</g>
<path d="M411.472 359.297L408.32 359.309L408.336 363.66L407.408 363.664L407.364 351.984L411.012 351.971C411.556 351.969 412.063 352.063 412.533 352.253C413.003 352.444 413.409 352.704 413.752 353.033C414.105 353.362 414.378 353.751 414.572 354.198C414.766 354.635 414.864 355.104 414.866 355.605C414.867 355.989 414.804 356.363 414.678 356.726C414.562 357.089 414.392 357.42 414.17 357.719C413.947 358.019 413.676 358.287 413.357 358.522C413.048 358.748 412.702 358.919 412.319 359.038L414.96 363.637L413.92 363.64L411.472 359.297ZM408.295 352.829L408.316 358.461L410.956 358.451C411.404 358.449 411.809 358.373 412.171 358.223C412.534 358.061 412.847 357.847 413.113 357.579C413.379 357.312 413.58 357.007 413.718 356.665C413.866 356.323 413.939 355.971 413.938 355.608C413.936 355.214 413.86 354.846 413.709 354.505C413.569 354.164 413.366 353.872 413.098 353.627C412.841 353.372 412.526 353.176 412.152 353.039C411.789 352.891 411.388 352.817 410.951 352.819L408.295 352.829ZM421.11 363.807C420.427 363.809 419.787 363.683 419.188 363.429C418.601 363.176 418.087 362.831 417.648 362.395C417.22 361.949 416.882 361.432 416.635 360.847C416.387 360.261 416.262 359.632 416.259 358.96C416.257 358.288 416.377 357.658 416.62 357.071C416.863 356.472 417.197 355.954 417.622 355.515C418.058 355.066 418.569 354.712 419.154 354.454C419.751 354.195 420.39 354.065 421.073 354.063C421.457 354.061 421.841 354.113 422.225 354.219C422.62 354.313 422.989 354.461 423.331 354.663C423.684 354.864 424.005 355.113 424.294 355.411C424.583 355.698 424.819 356.028 425.002 356.401L424.993 354.241L425.889 354.237L425.925 363.597L425.029 363.601L425.021 361.457C424.841 361.83 424.608 362.167 424.321 362.467C424.034 362.756 423.715 363.003 423.364 363.206C423.023 363.4 422.655 363.545 422.261 363.642C421.878 363.75 421.494 363.805 421.11 363.807ZM421.139 362.958C421.704 362.956 422.226 362.853 422.705 362.649C423.185 362.434 423.605 362.144 423.966 361.78C424.327 361.416 424.608 360.989 424.809 360.497C425.01 360.006 425.109 359.483 425.107 358.928C425.105 358.374 425.002 357.851 424.797 357.361C424.593 356.871 424.308 356.446 423.944 356.084C423.58 355.723 423.158 355.437 422.677 355.225C422.196 355.013 421.673 354.909 421.108 354.911C420.564 354.912 420.052 355.021 419.573 355.236C419.094 355.44 418.674 355.73 418.312 356.105C417.962 356.469 417.686 356.896 417.485 357.388C417.285 357.868 417.185 358.391 417.187 358.957C417.189 359.511 417.293 360.034 417.497 360.524C417.702 361.013 417.981 361.439 418.334 361.801C418.698 362.162 419.121 362.448 419.601 362.66C420.082 362.861 420.595 362.96 421.139 362.958ZM428.304 362.725L435.299 355.036L428.515 355.06L428.512 354.228L436.432 354.199L436.435 355.063L429.472 362.737L436.528 362.711L436.531 363.559L428.308 363.589L428.304 362.725ZM438.079 354.194L439.087 354.19L442.254 362.307L445.359 354.167L446.335 354.164L442.706 363.537L441.778 363.54L438.079 354.194ZM452.532 363.694C451.86 363.696 451.225 363.576 450.627 363.332C450.039 363.079 449.521 362.734 449.071 362.298C448.632 361.862 448.283 361.352 448.025 360.766C447.777 360.169 447.652 359.53 447.65 358.847C447.647 358.165 447.767 357.529 448.01 356.942C448.264 356.344 448.609 355.825 449.045 355.386C449.491 354.937 450.007 354.588 450.593 354.341C451.189 354.082 451.823 353.952 452.495 353.95C453.167 353.947 453.797 354.073 454.385 354.327C454.983 354.57 455.502 354.915 455.941 355.361C456.38 355.797 456.728 356.313 456.986 356.91C457.245 357.495 457.375 358.13 457.378 358.812C457.38 359.495 457.255 360.135 457.001 360.734C456.747 361.321 456.403 361.834 455.967 362.273C455.531 362.712 455.015 363.061 454.419 363.319C453.833 363.566 453.204 363.691 452.532 363.694ZM452.529 362.846C453.073 362.844 453.585 362.741 454.064 362.536C454.543 362.321 454.958 362.032 455.309 361.668C455.659 361.304 455.935 360.876 456.136 360.385C456.336 359.893 456.436 359.37 456.434 358.816C456.432 358.25 456.328 357.728 456.124 357.249C455.919 356.759 455.64 356.333 455.287 355.972C454.933 355.6 454.516 355.313 454.036 355.112C453.555 354.901 453.042 354.796 452.498 354.798C451.944 354.8 451.427 354.908 450.948 355.123C450.468 355.328 450.053 355.617 449.703 355.992C449.352 356.356 449.077 356.783 448.876 357.275C448.675 357.755 448.576 358.278 448.578 358.844C448.58 359.398 448.683 359.921 448.888 360.411C449.092 360.901 449.371 361.326 449.725 361.688C450.078 362.049 450.495 362.336 450.976 362.547C451.457 362.748 451.974 362.848 452.529 362.846ZM457.226 366.877C457.727 366.875 458.138 366.847 458.457 366.792C458.788 366.738 459.043 366.62 459.224 366.438C459.405 366.266 459.526 366.015 459.589 365.684C459.663 365.364 459.698 364.937 459.696 364.404L459.657 354.116L460.569 354.113L460.608 364.417C460.611 365.078 460.56 365.622 460.455 366.049C460.35 366.476 460.175 366.818 459.931 367.075C459.686 367.332 459.351 367.509 458.925 367.607C458.509 367.715 457.992 367.77 457.373 367.772L457.229 367.773L457.226 366.877ZM459.329 352.069C459.329 351.845 459.403 351.664 459.551 351.524C459.7 351.374 459.886 351.299 460.11 351.298C460.356 351.297 460.548 351.371 460.687 351.52C460.827 351.658 460.897 351.84 460.897 352.064C460.898 352.288 460.83 352.474 460.692 352.624C460.553 352.774 460.362 352.849 460.116 352.85C459.871 352.851 459.679 352.777 459.54 352.628C459.4 352.48 459.33 352.293 459.329 352.069Z" fill="white"/>
<path d="M55.733 345.175C54.797 345.175 53.921 345.001 53.105 344.653C52.289 344.293 51.575 343.813 50.963 343.213C50.363 342.601 49.889 341.887 49.541 341.071C49.193 340.243 49.019 339.361 49.019 338.425C49.019 337.489 49.193 336.613 49.541 335.797C49.889 334.981 50.363 334.267 50.963 333.655C51.575 333.043 52.289 332.563 53.105 332.215C53.921 331.855 54.797 331.675 55.733 331.675C56.669 331.675 57.545 331.855 58.361 332.215C59.177 332.563 59.891 333.043 60.503 333.655C61.115 334.267 61.595 334.981 61.943 335.797C62.291 336.613 62.465 337.489 62.465 338.425C62.465 339.361 62.291 340.243 61.943 341.071C61.595 341.887 61.115 342.601 60.503 343.213C59.891 343.813 59.177 344.293 58.361 344.653C57.545 345.001 56.669 345.175 55.733 345.175ZM55.733 342.763C56.333 342.763 56.891 342.649 57.407 342.421C57.935 342.193 58.391 341.887 58.775 341.503C59.171 341.107 59.477 340.645 59.693 340.117C59.921 339.589 60.035 339.025 60.035 338.425C60.035 337.825 59.921 337.261 59.693 336.733C59.477 336.205 59.171 335.749 58.775 335.365C58.391 334.969 57.935 334.657 57.407 334.429C56.891 334.201 56.333 334.087 55.733 334.087C55.133 334.087 54.569 334.201 54.041 334.429C53.525 334.657 53.075 334.969 52.691 335.365C52.307 335.749 52.001 336.205 51.773 336.733C51.557 337.261 51.449 337.825 51.449 338.425C51.449 339.025 51.557 339.589 51.773 340.117C52.001 340.645 52.307 341.107 52.691 341.503C53.075 341.887 53.525 342.193 54.041 342.421C54.569 342.649 55.133 342.763 55.733 342.763ZM63.7215 334.465H66.1335V335.761C66.4815 335.305 66.9195 334.939 67.4475 334.663C67.9875 334.387 68.5995 334.249 69.2835 334.249C70.5915 334.249 71.6115 334.645 72.3435 335.437C73.0875 336.229 73.4595 337.333 73.4595 338.749V344.995H70.9935V339.001C70.9935 338.185 70.7955 337.543 70.3995 337.075C70.0035 336.595 69.4095 336.355 68.6175 336.355C67.9215 336.355 67.3335 336.601 66.8535 337.093C66.3855 337.585 66.1515 338.293 66.1515 339.217V344.995H63.7215V334.465ZM74.8661 331.675H77.3141V344.995H74.8661V331.675ZM78.8036 334.465H81.2516V344.995H78.8036V334.465ZM78.4976 331.891C78.4976 331.435 78.6356 331.069 78.9116 330.793C79.1876 330.505 79.5596 330.361 80.0276 330.361C80.5076 330.361 80.8796 330.505 81.1436 330.793C81.4196 331.069 81.5576 331.435 81.5576 331.891C81.5576 332.347 81.4196 332.713 81.1436 332.989C80.8796 333.265 80.5076 333.403 80.0276 333.403C79.5356 333.403 79.1576 333.265 78.8936 332.989C78.6296 332.713 78.4976 332.347 78.4976 331.891ZM82.6532 334.465H85.0652V335.761C85.4132 335.305 85.8512 334.939 86.3792 334.663C86.9192 334.387 87.5312 334.249 88.2152 334.249C89.5232 334.249 90.5432 334.645 91.2752 335.437C92.0192 336.229 92.3912 337.333 92.3912 338.749V344.995H89.9252V339.001C89.9252 338.185 89.7272 337.543 89.3312 337.075C88.9352 336.595 88.3412 336.355 87.5492 336.355C86.8532 336.355 86.2652 336.601 85.7852 337.093C85.3172 337.585 85.0832 338.293 85.0832 339.217V344.995H82.6532V334.465ZM99.0177 345.211C98.1897 345.211 97.4337 345.073 96.7497 344.797C96.0657 344.509 95.4777 344.119 94.9857 343.627C94.5057 343.135 94.1277 342.559 93.8517 341.899C93.5877 341.227 93.4557 340.513 93.4557 339.757C93.4557 338.989 93.5937 338.269 93.8697 337.597C94.1577 336.925 94.5477 336.343 95.0397 335.851C95.5317 335.359 96.1077 334.969 96.7677 334.681C97.4397 334.393 98.1597 334.249 98.9277 334.249C99.7077 334.249 100.428 334.387 101.088 334.663C101.76 334.927 102.336 335.305 102.816 335.797C103.296 336.277 103.668 336.847 103.932 337.507C104.208 338.167 104.346 338.887 104.346 339.667V340.585H95.7777C95.9457 341.329 96.3117 341.929 96.8757 342.385C97.4397 342.841 98.1537 343.069 99.0177 343.069C99.7017 343.069 100.296 342.901 100.8 342.565C101.304 342.229 101.682 341.779 101.934 341.215L103.932 342.367C103.476 343.219 102.834 343.909 102.006 344.437C101.19 344.953 100.194 345.211 99.0177 345.211ZM98.9277 336.391C98.1957 336.391 97.5597 336.589 97.0197 336.985C96.4917 337.381 96.1197 337.903 95.9037 338.551H101.88C101.7 337.843 101.352 337.309 100.836 336.949C100.32 336.577 99.6837 336.391 98.9277 336.391Z" fill="white"/>
<path d="M417.57 331.855H420.108L423.222 341.251L426.318 331.855H428.856L424.446 344.995H421.98L417.57 331.855ZM433.065 345.211C432.237 345.211 431.481 345.073 430.797 344.797C430.113 344.509 429.525 344.119 429.033 343.627C428.553 343.135 428.175 342.559 427.899 341.899C427.635 341.227 427.503 340.513 427.503 339.757C427.503 338.989 427.641 338.269 427.917 337.597C428.205 336.925 428.595 336.343 429.087 335.851C429.579 335.359 430.155 334.969 430.815 334.681C431.487 334.393 432.207 334.249 432.975 334.249C433.755 334.249 434.475 334.387 435.135 334.663C435.807 334.927 436.383 335.305 436.863 335.797C437.343 336.277 437.715 336.847 437.979 337.507C438.255 338.167 438.393 338.887 438.393 339.667V340.585H429.825C429.993 341.329 430.359 341.929 430.923 342.385C431.487 342.841 432.201 343.069 433.065 343.069C433.749 343.069 434.343 342.901 434.847 342.565C435.351 342.229 435.729 341.779 435.981 341.215L437.979 342.367C437.523 343.219 436.881 343.909 436.053 344.437C435.237 344.953 434.241 345.211 433.065 345.211ZM432.975 336.391C432.243 336.391 431.607 336.589 431.067 336.985C430.539 337.381 430.167 337.903 429.951 338.551H435.927C435.747 337.843 435.399 337.309 434.883 336.949C434.367 336.577 433.731 336.391 432.975 336.391ZM445.35 345.211C444.63 345.211 443.97 345.073 443.37 344.797C442.77 344.521 442.278 344.131 441.894 343.627V344.995H439.482V331.675H441.912V335.797C442.284 335.329 442.764 334.957 443.352 334.681C443.952 334.393 444.606 334.249 445.314 334.249C445.974 334.249 446.616 334.375 447.24 334.627C447.864 334.867 448.416 335.221 448.896 335.689C449.376 336.157 449.76 336.733 450.048 337.417C450.348 338.089 450.498 338.863 450.498 339.739C450.498 340.603 450.348 341.377 450.048 342.061C449.748 342.733 449.352 343.303 448.86 343.771C448.38 344.239 447.834 344.599 447.222 344.851C446.61 345.091 445.986 345.211 445.35 345.211ZM444.936 342.979C445.38 342.979 445.794 342.895 446.178 342.727C446.562 342.559 446.898 342.331 447.186 342.043C447.474 341.743 447.696 341.395 447.852 340.999C448.02 340.591 448.104 340.159 448.104 339.703C448.104 339.247 448.02 338.821 447.852 338.425C447.696 338.029 447.474 337.687 447.186 337.399C446.898 337.111 446.562 336.883 446.178 336.715C445.794 336.547 445.38 336.463 444.936 336.463C444.492 336.463 444.078 336.547 443.694 336.715C443.31 336.883 442.974 337.117 442.686 337.417C442.41 337.705 442.194 338.047 442.038 338.443C441.882 338.839 441.804 339.259 441.804 339.703C441.804 340.159 441.882 340.585 442.038 340.981C442.194 341.377 442.41 341.725 442.686 342.025C442.974 342.325 443.31 342.559 443.694 342.727C444.078 342.895 444.492 342.979 444.936 342.979Z" fill="white"/>
<path d="M217.339 95.4002C216.283 95.404 215.391 95.2098 214.664 94.8178C213.938 94.4151 213.306 93.916 212.771 93.3206L214.749 91.7455C215.049 92.2564 215.419 92.6497 215.857 92.9255C216.296 93.1906 216.781 93.3222 217.315 93.3203C217.891 93.3182 218.328 93.1566 218.625 92.8355C218.933 92.5144 219.086 92.1512 219.085 91.7459C219.084 91.5005 219.014 91.2928 218.874 91.1226C218.735 90.9525 218.553 90.8091 218.329 90.6926C218.104 90.5654 217.843 90.4543 217.544 90.3594C217.255 90.2644 216.956 90.1695 216.646 90.0746C216.251 89.9481 215.856 89.8108 215.461 89.6629C215.066 89.515 214.708 89.3189 214.387 89.0747C214.076 88.8199 213.819 88.5115 213.615 88.1495C213.422 87.7769 213.324 87.3132 213.322 86.7586C213.32 86.2892 213.414 85.8516 213.605 85.4455C213.795 85.0395 214.061 84.6866 214.401 84.3867C214.752 84.0761 215.161 83.8346 215.63 83.6622C216.109 83.4899 216.626 83.4027 217.181 83.4007C217.65 83.399 218.072 83.4401 218.446 83.5241C218.83 83.6081 219.177 83.7242 219.487 83.8724C219.807 84.0206 220.096 84.2009 220.353 84.4133C220.62 84.615 220.872 84.8381 221.107 85.0826L219.321 86.449C218.816 85.7041 218.111 85.3333 217.204 85.3366C216.671 85.3385 216.266 85.468 215.99 85.725C215.714 85.982 215.576 86.2971 215.577 86.6705C215.578 86.9051 215.643 87.1022 215.772 87.2618C215.9 87.4213 216.072 87.5647 216.285 87.6919C216.51 87.8084 216.766 87.9142 217.055 88.0092C217.343 88.1041 217.647 88.2044 217.968 88.3099C218.363 88.4365 218.758 88.5844 219.153 88.7536C219.559 88.9122 219.923 89.1242 220.244 89.3897C220.576 89.6445 220.843 89.9635 221.048 90.3468C221.252 90.7194 221.355 91.1884 221.357 91.7537C221.359 92.2124 221.27 92.6607 221.09 93.0987C220.91 93.5367 220.65 93.9269 220.31 94.2695C219.97 94.6014 219.55 94.8749 219.05 95.09C218.549 95.2945 217.979 95.3979 217.339 95.4002ZM227.149 95.3969C226.477 95.3993 225.842 95.2789 225.243 95.0358C224.656 94.7819 224.142 94.4371 223.703 94.0013C223.264 93.5549 222.916 93.0388 222.658 92.453C222.41 91.8566 222.285 91.2224 222.282 90.5504C222.28 89.8677 222.4 89.2326 222.643 88.6451C222.897 88.0468 223.241 87.5282 223.677 87.0893C224.113 86.6398 224.623 86.2913 225.209 86.0438C225.806 85.7857 226.44 85.6554 227.112 85.653C227.784 85.6506 228.414 85.7763 229.001 86.0302C229.589 86.2734 230.102 86.6182 230.541 87.0647C230.991 87.5004 231.339 88.0165 231.587 88.6129C231.845 89.1987 231.976 89.8329 231.978 90.5155C231.981 91.1875 231.855 91.8226 231.601 92.4209C231.358 93.0084 231.014 93.527 230.567 93.9766C230.132 94.4155 229.621 94.764 229.035 95.0221C228.45 95.2696 227.821 95.3945 227.149 95.3969ZM227.141 93.3649C227.525 93.3636 227.882 93.2876 228.212 93.1371C228.542 92.9866 228.83 92.7829 229.074 92.526C229.318 92.2691 229.509 91.9697 229.646 91.6279C229.784 91.2754 229.852 90.9072 229.85 90.5232C229.849 90.1285 229.778 89.7608 229.638 89.4199C229.498 89.0684 229.305 88.7651 229.059 88.51C228.812 88.2549 228.524 88.0533 228.192 87.9051C227.861 87.757 227.503 87.6836 227.119 87.685C226.735 87.6864 226.373 87.7623 226.032 87.9129C225.702 88.0634 225.415 88.2671 225.171 88.524C224.937 88.7808 224.751 89.0855 224.614 89.438C224.477 89.7798 224.409 90.1481 224.41 90.5427C224.412 90.9267 224.482 91.2945 224.622 91.646C224.762 91.9868 224.95 92.2848 225.186 92.54C225.432 92.7951 225.721 92.9967 226.052 93.1448C226.394 93.2929 226.757 93.3663 227.141 93.3649ZM237.587 95.3594C236.904 95.3619 236.263 95.2362 235.665 94.9823C235.077 94.7284 234.564 94.3836 234.125 93.9478C233.686 93.5121 233.338 93.0013 233.079 92.4156C232.832 91.8191 232.707 91.1849 232.704 90.5129C232.702 89.8303 232.822 89.1952 233.065 88.6076C233.319 88.0094 233.663 87.4908 234.099 87.0519C234.535 86.6023 235.045 86.2538 235.631 86.0064C236.227 85.7482 236.867 85.6179 237.549 85.6155C238.072 85.6136 238.563 85.6865 239.022 85.8342C239.492 85.9712 239.92 86.167 240.305 86.4216C240.69 86.6762 241.027 86.979 241.316 87.3299C241.605 87.6809 241.842 88.0694 242.024 88.4954L240.092 89.3184C239.876 88.8071 239.544 88.403 239.095 88.1059C238.656 87.7982 238.149 87.6453 237.573 87.6474C237.179 87.6488 236.811 87.7248 236.47 87.8754C236.14 88.0259 235.847 88.2296 235.592 88.4865C235.348 88.7434 235.157 89.0481 235.02 89.4006C234.883 89.7424 234.815 90.1107 234.816 90.5053C234.818 90.8893 234.888 91.2571 235.028 91.6086C235.168 91.9494 235.361 92.2474 235.608 92.5025C235.865 92.7576 236.164 92.9592 236.506 93.1073C236.848 93.2554 237.216 93.3287 237.611 93.3273C238.219 93.3251 238.736 93.1633 239.161 92.8417C239.597 92.5095 239.921 92.087 240.132 91.5742L242.071 92.3993C241.892 92.8266 241.658 93.2221 241.372 93.5858C241.085 93.9495 240.75 94.2654 240.367 94.5334C239.995 94.7907 239.575 94.9949 239.106 95.1459C238.637 95.2863 238.131 95.3574 237.587 95.3594ZM242.865 85.7884L245.041 85.7805L245.077 95.1405L242.901 95.1483L242.865 85.7884ZM242.584 83.5014C242.583 83.096 242.704 82.7703 242.949 82.524C243.193 82.2672 243.523 82.138 243.939 82.1365C244.366 82.1349 244.697 82.2618 244.933 82.5169C245.179 82.7614 245.303 83.0863 245.304 83.4916C245.306 83.8969 245.185 84.2227 244.94 84.4689C244.706 84.7151 244.376 84.8389 243.95 84.8405C243.512 84.842 243.176 84.7206 242.94 84.4761C242.705 84.2316 242.586 83.9067 242.584 83.5014ZM244.395 97.4149C244.811 97.4134 245.147 97.3909 245.403 97.3473C245.659 97.3037 245.856 97.2124 245.994 97.0732C246.132 96.9447 246.222 96.7577 246.264 96.5122C246.306 96.2667 246.326 95.936 246.324 95.52L246.287 85.7761L248.463 85.7682L248.5 95.5282C248.503 96.2642 248.441 96.8831 248.315 97.3849C248.189 97.8866 247.977 98.2874 247.68 98.5871C247.382 98.8975 246.988 99.1176 246.498 99.2474C246.019 99.3771 245.422 99.4433 244.707 99.4458L244.403 99.4469L244.395 97.4149ZM246.006 83.4891C246.005 83.0837 246.126 82.758 246.371 82.5117C246.615 82.2549 246.945 82.1257 247.361 82.1242C247.788 82.1226 248.119 82.2495 248.355 82.5046C248.601 82.7491 248.725 83.074 248.726 83.4793C248.728 83.8846 248.606 84.2104 248.362 84.4566C248.128 84.7028 247.798 84.8266 247.371 84.8282C246.934 84.8297 246.598 84.7083 246.362 84.4638C246.126 84.2193 246.008 83.8944 246.006 83.4891ZM254.034 95.3003C253.468 95.3023 252.908 95.1977 252.352 94.9863C251.808 94.7643 251.316 94.446 250.877 94.0316C250.438 93.6172 250.084 93.1118 249.815 92.5154C249.546 91.9084 249.41 91.2209 249.407 90.4529C249.404 89.6742 249.53 88.9858 249.783 88.3875C250.048 87.7786 250.392 87.2653 250.817 86.8478C251.253 86.4302 251.748 86.1138 252.302 85.8984C252.866 85.6724 253.442 85.5583 254.029 85.5562C254.647 85.554 255.218 85.6693 255.742 85.9021C256.265 86.1349 256.699 86.4533 257.041 86.8574L257.037 85.7374L259.197 85.7297L259.233 95.0896L257.073 95.0974L257.068 93.8814C256.729 94.3199 256.293 94.6682 255.76 94.9261C255.228 95.1733 254.652 95.2981 254.034 95.3003ZM254.378 93.315C254.783 93.3136 255.156 93.2376 255.497 93.087C255.838 92.9365 256.13 92.7274 256.375 92.4599C256.619 92.1923 256.81 91.8823 256.947 91.5298C257.095 91.1773 257.168 90.7983 257.167 90.393C257.165 89.9983 257.089 89.6253 256.939 89.2738C256.799 88.9223 256.606 88.619 256.359 88.3639C256.113 88.0981 255.819 87.8912 255.477 87.743C255.135 87.5949 254.761 87.5216 254.356 87.5231C253.961 87.5245 253.588 87.6005 253.237 87.7511C252.896 87.9017 252.598 88.1054 252.343 88.3623C252.088 88.6192 251.887 88.924 251.739 89.2765C251.601 89.629 251.533 90.0079 251.535 90.4132C251.537 90.8186 251.607 91.2023 251.747 91.5645C251.898 91.9159 252.102 92.2245 252.359 92.4903C252.616 92.7454 252.915 92.947 253.257 93.0951C253.61 93.2431 253.983 93.3165 254.378 93.315ZM260.418 83.2453L262.594 83.2374L262.639 95.0774L260.463 95.0852L260.418 83.2453ZM263.849 85.7129L265.993 85.7052L265.998 86.8572C266.306 86.4508 266.694 86.1241 267.162 85.877C267.641 85.63 268.185 85.5054 268.793 85.5032C269.955 85.499 270.863 85.8477 271.517 86.5494C272.181 87.251 272.515 88.2311 272.52 89.4898L272.541 95.0418L270.349 95.0496L270.329 89.7217C270.326 88.9964 270.148 88.4263 269.794 88.0116C269.441 87.5862 268.912 87.3748 268.208 87.3773C267.589 87.3795 267.067 87.6001 266.642 88.0389C266.228 88.4777 266.022 89.1078 266.025 89.9291L266.045 95.0651L263.885 95.0729L263.849 85.7129ZM278.432 95.2126C277.696 95.2152 277.023 95.095 276.415 94.8518C275.806 94.598 275.282 94.2532 274.843 93.8175C274.414 93.3817 274.076 92.8709 273.829 92.2851C273.592 91.6886 273.472 91.0544 273.47 90.3824C273.467 89.6997 273.587 89.0593 273.83 88.4611C274.084 87.8628 274.429 87.3443 274.864 86.9054C275.3 86.4665 275.811 86.118 276.396 85.8598C276.993 85.6017 277.632 85.4714 278.315 85.4689C279.008 85.4665 279.649 85.5868 280.236 85.83C280.834 86.0626 281.348 86.3967 281.776 86.8325C282.204 87.2576 282.537 87.7631 282.774 88.3489C283.021 88.9347 283.147 89.5743 283.149 90.2676L283.152 91.0836L275.536 91.111C275.688 91.7718 276.016 92.3039 276.518 92.7075C277.021 93.111 277.657 93.3114 278.425 93.3086C279.033 93.3064 279.56 93.1552 280.007 92.8549C280.454 92.5546 280.788 92.1534 281.01 91.6513L282.79 92.6689C282.388 93.4277 281.82 94.0431 281.085 94.515C280.362 94.9763 279.477 95.2088 278.432 95.2126ZM278.322 87.3729C277.671 87.3753 277.107 87.5533 276.628 87.907C276.16 88.2607 275.831 88.7259 275.641 89.3026L280.953 89.2835C280.791 88.6547 280.48 88.1812 280.02 87.8628C279.56 87.5338 278.994 87.3705 278.322 87.3729Z" fill="white"/>
<path d="M292.616 83.5746L294.776 83.5674L298.332 88.4676L301.992 83.5434L304.056 83.5365L304.104 95.2164L301.928 95.2237L301.894 87.0317L298.33 91.8756L294.806 87.1353L294.84 95.2472L292.664 95.2545L292.616 83.5746ZM305.421 85.852L307.565 85.8449L307.571 87.2368C308.004 86.3074 308.802 85.8407 309.965 85.8369C310.306 85.8357 310.61 85.8721 310.877 85.9458C311.155 86.0196 311.401 86.1148 311.614 86.2314L310.807 88.2821C310.646 88.1759 310.465 88.0912 310.262 88.0279C310.07 87.9539 309.819 87.9174 309.509 87.9184C308.88 87.9205 308.401 88.1034 308.072 88.4672C307.753 88.8202 307.595 89.4021 307.599 90.2128L307.619 95.2047L305.459 95.2119L305.421 85.852ZM316.678 95.3666C315.942 95.369 315.27 95.2486 314.661 95.0053C314.052 94.7513 313.528 94.4064 313.088 93.9705C312.66 93.5346 312.322 93.0237 312.074 92.4379C311.837 91.8413 311.717 91.2071 311.714 90.5351C311.711 89.8524 311.832 89.212 312.074 88.6139C312.328 88.0157 312.672 87.4972 313.108 87.0584C313.544 86.6196 314.054 86.2713 314.64 86.0133C315.236 85.7553 315.875 85.6252 316.558 85.6229C317.251 85.6206 317.892 85.7412 318.48 85.9845C319.078 86.2172 319.591 86.5515 320.02 86.9874C320.448 87.4127 320.781 87.9182 321.018 88.5041C321.266 89.09 321.391 89.7295 321.394 90.4229L321.397 91.2389L313.781 91.2642C313.933 91.925 314.261 92.4573 314.764 92.8609C315.267 93.2646 315.902 93.4652 316.67 93.4626C317.278 93.4606 317.806 93.3095 318.253 93.0093C318.699 92.7092 319.034 92.3081 319.256 91.806L321.036 92.8241C320.634 93.5827 320.065 94.198 319.331 94.6698C318.608 95.1308 317.724 95.3631 316.678 95.3666ZM316.566 87.5269C315.915 87.5291 315.351 87.707 314.872 88.0606C314.404 88.4141 314.076 88.8792 313.886 89.4558L319.198 89.4382C319.035 88.8094 318.724 88.3357 318.264 88.0173C317.804 87.6881 317.238 87.5247 316.566 87.5269ZM321.885 93.1892L327.302 87.6992L321.974 87.7169L321.966 85.7969L330.11 85.7698L330.118 87.7378L324.701 93.2279L330.237 93.2095L330.245 95.1294L321.893 95.1572L321.885 93.1892ZM323.568 82.2716L325.2 82.2662L326.15 83.687L327.088 82.2599L328.72 82.2544L326.827 84.9808L325.483 84.9852L323.568 82.2716ZM335.631 95.3035C334.895 95.306 334.223 95.1855 333.614 94.9422C333.005 94.6883 332.481 94.3433 332.041 93.9075C331.613 93.4715 331.275 92.9607 331.027 92.3748C330.79 91.7783 330.67 91.144 330.667 90.472C330.665 89.7893 330.785 89.1489 331.027 88.5508C331.281 87.9526 331.626 87.4341 332.061 86.9954C332.497 86.5566 333.007 86.2082 333.593 85.9502C334.189 85.6923 334.828 85.5621 335.511 85.5599C336.204 85.5576 336.845 85.6781 337.433 85.9215C338.031 86.1541 338.544 86.4884 338.973 86.9244C339.401 87.3496 339.734 87.8552 339.971 88.441C340.219 89.0269 340.344 89.6665 340.347 90.3598L340.35 91.1758L332.734 91.2011C332.886 91.862 333.214 92.3942 333.717 92.7979C334.22 93.2015 334.855 93.4021 335.623 93.3995C336.231 93.3975 336.759 93.2464 337.206 92.9463C337.652 92.6461 337.987 92.245 338.209 91.7429L339.989 92.761C339.587 93.5197 339.018 94.1349 338.284 94.6067C337.561 95.0678 336.677 95.3 335.631 95.3035ZM335.519 87.4638C334.868 87.466 334.304 87.6439 333.825 87.9975C333.357 88.351 333.029 88.8161 332.839 89.3928L338.151 89.3751C337.988 88.7463 337.677 88.2727 337.217 87.9542C336.757 87.6251 336.191 87.4616 335.519 87.4638Z" fill="white"/>
<path d="M54.2151 360.344L52.0128 362.886L52.0243 365.91L51.2263 365.913L51.1874 355.693L51.9854 355.69L52.0087 361.808L57.3334 355.671L58.3274 355.667L54.787 359.782L58.8702 365.886L57.9323 365.889L54.2151 360.344ZM63.9122 366.035C63.3148 366.038 62.7544 365.928 62.2309 365.706C61.7167 365.483 61.2676 365.182 60.8834 364.8C60.5086 364.41 60.2129 363.958 59.9963 363.446C59.7797 362.933 59.6702 362.383 59.668 361.795C59.6658 361.207 59.771 360.656 59.9837 360.142C60.1964 359.618 60.4887 359.164 60.8605 358.78C61.2417 358.387 61.6885 358.077 62.201 357.852C62.7228 357.626 63.2824 357.512 63.8797 357.51C64.2157 357.508 64.5519 357.554 64.8883 357.646C65.2339 357.729 65.5564 357.858 65.8557 358.034C66.1644 358.211 66.4452 358.429 66.6982 358.689C66.9512 358.94 67.1576 359.229 67.3175 359.555L67.3103 357.665L68.0943 357.662L68.1255 365.852L67.3415 365.855L67.3344 363.979C67.1769 364.306 66.9727 364.601 66.7217 364.863C66.4707 365.116 66.1915 365.332 65.8842 365.51C65.5862 365.679 65.2646 365.807 64.9196 365.892C64.584 365.986 64.2482 366.034 63.9122 366.035ZM63.9373 365.293C64.432 365.292 64.889 365.201 65.3083 365.022C65.7276 364.834 66.0953 364.581 66.4114 364.262C66.7276 363.944 66.9735 363.57 67.1492 363.14C67.3249 362.71 67.4118 362.252 67.41 361.767C67.4081 361.282 67.3177 360.825 67.1387 360.396C66.9598 359.967 66.711 359.595 66.3925 359.279C66.0739 358.962 65.7043 358.712 65.2836 358.526C64.8629 358.341 64.4052 358.25 63.9105 358.251C63.4346 358.253 62.9869 358.348 62.5676 358.536C62.1483 358.715 61.7806 358.968 61.4645 359.296C61.1577 359.615 60.9165 359.989 60.7408 360.419C60.565 360.839 60.4781 361.297 60.48 361.792C60.4818 362.277 60.5722 362.734 60.7512 363.163C60.9302 363.591 61.1743 363.964 61.4835 364.28C61.802 364.596 62.1716 364.847 62.5923 365.032C63.013 365.208 63.4613 365.295 63.9373 365.293ZM70.571 357.653L71.341 357.651L71.347 359.219C71.6063 358.695 71.992 358.274 72.5042 357.955C73.0163 357.635 73.6223 357.475 74.3223 357.472C75.1437 357.469 75.821 357.653 76.3545 358.025C76.8972 358.396 77.2771 358.889 77.4941 359.505C77.7345 358.906 78.1386 358.415 78.7065 358.03C79.2837 357.645 79.9643 357.452 80.7483 357.449C81.3176 357.447 81.8266 357.534 82.2753 357.709C82.7333 357.885 83.1169 358.131 83.4261 358.447C83.7447 358.763 83.9888 359.145 84.1585 359.593C84.3282 360.031 84.414 360.52 84.4161 361.062L84.4341 365.794L83.6361 365.797L83.6179 361.009C83.6163 360.598 83.5449 360.22 83.4036 359.875C83.2715 359.521 83.0791 359.219 82.8261 358.967C82.5825 358.716 82.2831 358.521 81.9279 358.383C81.5727 358.244 81.1757 358.175 80.7371 358.177C80.3357 358.178 79.958 358.245 79.6038 358.377C79.2497 358.509 78.9424 358.701 78.682 358.954C78.4216 359.198 78.2174 359.497 78.0694 359.853C77.9214 360.198 77.8482 360.591 77.8499 361.029L77.8681 365.817L77.0701 365.82L77.0513 360.878C77.0498 360.477 76.9831 360.113 76.8512 359.787C76.7192 359.451 76.5315 359.167 76.2879 358.935C76.0537 358.702 75.7637 358.521 75.4179 358.392C75.0814 358.263 74.6984 358.199 74.2691 358.2C73.8491 358.202 73.4621 358.278 73.108 358.428C72.7538 358.57 72.4466 358.771 72.1863 359.034C71.9353 359.296 71.7358 359.614 71.5879 359.988C71.4493 360.352 71.3808 360.759 71.3825 361.207L71.4002 365.841L70.6022 365.843L70.571 357.653ZM90.9765 365.938C90.6218 365.939 90.2717 365.899 89.926 365.816C89.5897 365.733 89.2719 365.608 88.9726 365.441C88.6733 365.274 88.3972 365.07 88.1443 364.828C87.9006 364.577 87.6989 364.293 87.539 363.977L87.5602 369.548L86.7902 369.551L86.7447 357.595L87.5007 357.593L87.5079 359.469C87.6653 359.141 87.8695 358.851 88.1206 358.598C88.3716 358.345 88.6508 358.13 88.9581 357.951C89.2654 357.773 89.5869 357.641 89.9226 357.556C90.2676 357.461 90.6081 357.413 90.9441 357.412C91.5414 357.41 92.0972 357.52 92.6113 357.742C93.1255 357.964 93.57 358.271 93.9448 358.661C94.329 359.043 94.6293 359.494 94.846 360.016C95.0626 360.529 95.172 361.079 95.1743 361.667C95.1765 362.255 95.0713 362.806 94.8586 363.32C94.6459 363.834 94.3489 364.288 93.9677 364.681C93.5959 365.065 93.1537 365.37 92.6412 365.596C92.1287 365.822 91.5738 365.936 90.9765 365.938ZM90.9317 365.196C91.4077 365.195 91.8553 365.104 92.2747 364.926C92.694 364.737 93.057 364.484 93.3638 364.166C93.6799 363.847 93.9258 363.473 94.1015 363.043C94.2772 362.613 94.3641 362.155 94.3623 361.67C94.3604 361.175 94.27 360.718 94.0911 360.299C93.9121 359.87 93.6634 359.498 93.3448 359.182C93.0356 358.856 92.6706 358.605 92.2499 358.43C91.8292 358.244 91.3809 358.153 90.9049 358.154C90.4196 358.156 89.9626 358.251 89.534 358.439C89.1147 358.627 88.747 358.881 88.4308 359.199C88.1147 359.518 87.8688 359.892 87.6931 360.322C87.5174 360.752 87.4305 361.21 87.4323 361.695C87.4342 362.18 87.5246 362.637 87.7036 363.066C87.8825 363.495 88.1313 363.867 88.4498 364.183C88.7684 364.499 89.138 364.75 89.5587 364.935C89.9887 365.111 90.4464 365.198 90.9317 365.196ZM101.14 365.902C100.543 365.904 99.9827 365.794 99.4592 365.572C98.945 365.35 98.4958 365.048 98.1117 364.667C97.7369 364.276 97.4412 363.824 97.2246 363.312C97.0079 362.799 96.8985 362.249 96.8963 361.661C96.894 361.073 96.9993 360.522 97.212 360.008C97.4247 359.484 97.7169 359.031 98.0888 358.647C98.47 358.253 98.9168 357.944 99.4293 357.718C99.9511 357.492 100.511 357.378 101.108 357.376C101.444 357.375 101.78 357.42 102.117 357.512C102.462 357.595 102.785 357.724 103.084 357.901C103.393 358.077 103.674 358.295 103.927 358.556C104.179 358.807 104.386 359.095 104.546 359.421L104.539 357.531L105.323 357.529L105.354 365.719L104.57 365.721L104.563 363.845C104.405 364.173 104.201 364.467 103.95 364.73C103.699 364.982 103.42 365.198 103.112 365.377C102.814 365.546 102.493 365.673 102.148 365.758C101.812 365.853 101.476 365.9 101.14 365.902ZM101.166 365.16C101.66 365.158 102.117 365.067 102.537 364.889C102.956 364.7 103.324 364.447 103.64 364.129C103.956 363.81 104.202 363.436 104.377 363.006C104.553 362.576 104.64 362.118 104.638 361.633C104.636 361.148 104.546 360.691 104.367 360.262C104.188 359.833 103.939 359.461 103.621 359.145C103.302 358.829 102.933 358.578 102.512 358.393C102.091 358.208 101.633 358.116 101.139 358.118C100.663 358.119 100.215 358.214 99.7959 358.402C99.3766 358.581 99.0089 358.835 98.6928 359.162C98.386 359.481 98.1447 359.855 97.969 360.285C97.7933 360.706 97.7064 361.163 97.7083 361.658C97.7101 362.143 97.8005 362.6 97.9795 363.029C98.1585 363.458 98.4025 363.83 98.7117 364.146C99.0303 364.463 99.3999 364.713 99.8206 364.898C100.241 365.074 100.69 365.161 101.166 365.16ZM107.799 357.52L108.569 357.517L108.576 359.183C108.844 358.641 109.253 358.2 109.803 357.862C110.352 357.515 110.991 357.34 111.719 357.338C112.269 357.336 112.764 357.422 113.204 357.598C113.652 357.765 114.036 358.011 114.354 358.336C114.682 358.662 114.931 359.057 115.101 359.523C115.28 359.98 115.371 360.502 115.373 361.09L115.39 365.682L114.592 365.685L114.575 361.079C114.573 360.622 114.502 360.212 114.36 359.848C114.228 359.475 114.036 359.159 113.783 358.898C113.53 358.638 113.221 358.438 112.856 358.299C112.492 358.151 112.081 358.078 111.623 358.08C111.194 358.081 110.793 358.162 110.42 358.322C110.057 358.473 109.74 358.684 109.471 358.956C109.201 359.227 108.988 359.55 108.83 359.924C108.682 360.289 108.609 360.685 108.611 361.115L108.628 365.707L107.83 365.71L107.799 357.52ZM115.57 368.65C116.009 368.648 116.368 368.624 116.648 368.576C116.937 368.528 117.161 368.425 117.319 368.266C117.477 368.116 117.583 367.896 117.638 367.606C117.702 367.326 117.734 366.953 117.732 366.486L117.698 357.484L118.496 357.481L118.53 366.497C118.532 367.076 118.487 367.552 118.395 367.926C118.303 368.299 118.151 368.599 117.937 368.823C117.723 369.048 117.43 369.203 117.057 369.288C116.693 369.383 116.24 369.431 115.699 369.433L115.573 369.434L115.57 368.65ZM117.411 355.693C117.41 355.497 117.475 355.338 117.605 355.216C117.735 355.085 117.898 355.019 118.094 355.019C118.309 355.018 118.477 355.083 118.599 355.213C118.721 355.334 118.782 355.492 118.783 355.688C118.784 355.884 118.724 356.048 118.603 356.179C118.482 356.31 118.314 356.376 118.099 356.377C117.885 356.377 117.717 356.313 117.595 356.182C117.473 356.052 117.412 355.889 117.411 355.693ZM124.822 365.817C124.159 365.819 123.561 365.714 123.028 365.501C122.496 365.279 122.042 364.982 121.667 364.61C121.302 364.229 121.015 363.782 120.808 363.269C120.61 362.756 120.51 362.201 120.508 361.604C120.505 360.997 120.61 360.432 120.823 359.909C121.036 359.385 121.328 358.932 121.7 358.548C122.081 358.164 122.533 357.859 123.054 357.633C123.576 357.407 124.141 357.293 124.747 357.291C125.345 357.289 125.896 357.389 126.4 357.593C126.914 357.796 127.359 358.084 127.734 358.456C128.108 358.828 128.399 359.27 128.607 359.783C128.823 360.286 128.933 360.841 128.935 361.448L128.936 361.812L121.278 361.839C121.308 362.306 121.413 362.739 121.591 363.14C121.77 363.541 122.014 363.885 122.323 364.174C122.632 364.462 122.997 364.689 123.418 364.856C123.839 365.013 124.306 365.09 124.819 365.089C125.612 365.086 126.279 364.892 126.819 364.507C127.358 364.113 127.762 363.575 128.031 362.893L128.746 363.226C128.385 364.049 127.883 364.686 127.241 365.136C126.599 365.586 125.792 365.813 124.822 365.817ZM124.75 358.019C124.293 358.02 123.868 358.101 123.477 358.261C123.085 358.421 122.736 358.637 122.429 358.909C122.132 359.181 121.881 359.504 121.677 359.878C121.482 360.252 121.358 360.658 121.304 361.097L128.122 361.073C128.083 360.625 127.969 360.215 127.781 359.842C127.602 359.46 127.368 359.134 127.077 358.864C126.787 358.595 126.445 358.386 126.053 358.238C125.66 358.09 125.226 358.017 124.75 358.019Z" fill="white"/>
<g opacity="0.8" filter="url(#filter0_d)">
<ellipse cx="275.674" cy="271.367" rx="130.068" ry="133.832" transform="rotate(90 275.674 271.367)" fill="#0084FF"/>
</g>
<g filter="url(#filter1_d)">
<path d="M275.96 228.25C288.822 214.75 326.057 187.353 373.388 182.953" stroke="#047EE7"/>
</g>
<g filter="url(#filter2_d)">
<path d="M275.767 228.688C288.629 215.188 326.25 187.275 373.581 182.875" stroke="url(#paint0_linear)"/>
</g>
<g filter="url(#filter3_d)">
<path d="M174.866 186.375C193.766 185.326 237.468 199.391 274.694 228.138" stroke="url(#paint1_linear)"/>
</g>
<g filter="url(#filter4_d)">
<path d="M174.867 186.5C193.767 185.451 238.027 199.94 275.253 228.688" stroke="url(#paint2_linear)"/>
</g>
<g filter="url(#filter5_d)">
<path d="M437.118 189C435.06 222 396.989 286.25 322.906 312.75" stroke="url(#paint3_linear)"/>
</g>
<g filter="url(#filter6_d)">
<path d="M229.401 312C196.155 304.997 133.232 267.561 117.566 192.365" stroke="url(#paint4_linear)"/>
</g>
<path d="M229.262 312.583C233.162 280.289 259.044 243.024 275.433 228.25C306.627 254.173 319.964 291.246 324.428 312.721C290.295 326.012 229.262 316.098 229.262 312.583Z" fill="#00AEEF"/>
<g filter="url(#filter7_d)">
<path d="M221.188 284.144C220.62 284.144 220.108 284.052 219.652 283.868C219.196 283.676 218.808 283.42 218.488 283.1C218.176 282.772 217.932 282.388 217.756 281.948C217.588 281.508 217.504 281.032 217.504 280.52C217.504 280 217.596 279.516 217.78 279.068C217.964 278.62 218.216 278.232 218.536 277.904C218.864 277.576 219.252 277.316 219.7 277.124C220.148 276.932 220.632 276.836 221.152 276.836C221.664 276.836 222.136 276.924 222.568 277.1C223.008 277.276 223.388 277.524 223.708 277.844C224.028 278.164 224.276 278.544 224.452 278.984C224.636 279.416 224.728 279.892 224.728 280.412V280.724H218.164C218.188 281.124 218.276 281.496 218.428 281.84C218.58 282.184 218.788 282.48 219.052 282.728C219.316 282.976 219.628 283.172 219.988 283.316C220.348 283.452 220.748 283.52 221.188 283.52C221.868 283.52 222.44 283.356 222.904 283.028C223.368 282.692 223.716 282.232 223.948 281.648L224.56 281.936C224.248 282.64 223.816 283.184 223.264 283.568C222.712 283.952 222.02 284.144 221.188 284.144ZM221.152 277.46C220.76 277.46 220.396 277.528 220.06 277.664C219.724 277.8 219.424 277.984 219.16 278.216C218.904 278.448 218.688 278.724 218.512 279.044C218.344 279.364 218.236 279.712 218.188 280.088H224.032C224 279.704 223.904 279.352 223.744 279.032C223.592 278.704 223.392 278.424 223.144 278.192C222.896 277.96 222.604 277.78 222.268 277.652C221.932 277.524 221.56 277.46 221.152 277.46ZM225.69 276.98H226.926V276.8C226.926 276.296 226.962 275.884 227.034 275.564C227.106 275.236 227.234 274.98 227.418 274.796C227.61 274.604 227.862 274.472 228.174 274.4C228.486 274.328 228.882 274.292 229.362 274.292H229.434V274.94C229.042 274.94 228.726 274.964 228.486 275.012C228.246 275.052 228.058 275.14 227.922 275.276C227.794 275.404 227.706 275.592 227.658 275.84C227.61 276.088 227.586 276.412 227.586 276.812V276.98H229.434V277.604H227.586V284H226.926V277.604H225.69V276.98ZM233.938 284.144C233.37 284.144 232.858 284.052 232.402 283.868C231.946 283.676 231.558 283.42 231.238 283.1C230.926 282.772 230.682 282.388 230.506 281.948C230.338 281.508 230.254 281.032 230.254 280.52C230.254 280 230.346 279.516 230.53 279.068C230.714 278.62 230.966 278.232 231.286 277.904C231.614 277.576 232.002 277.316 232.45 277.124C232.898 276.932 233.382 276.836 233.902 276.836C234.414 276.836 234.886 276.924 235.318 277.1C235.758 277.276 236.138 277.524 236.458 277.844C236.778 278.164 237.026 278.544 237.202 278.984C237.386 279.416 237.478 279.892 237.478 280.412V280.724H230.914C230.938 281.124 231.026 281.496 231.178 281.84C231.33 282.184 231.538 282.48 231.802 282.728C232.066 282.976 232.378 283.172 232.738 283.316C233.098 283.452 233.498 283.52 233.938 283.52C234.618 283.52 235.19 283.356 235.654 283.028C236.118 282.692 236.466 282.232 236.698 281.648L237.31 281.936C236.998 282.64 236.566 283.184 236.014 283.568C235.462 283.952 234.77 284.144 233.938 284.144ZM233.902 277.46C233.51 277.46 233.146 277.528 232.81 277.664C232.474 277.8 232.174 277.984 231.91 278.216C231.654 278.448 231.438 278.724 231.262 279.044C231.094 279.364 230.986 279.712 230.938 280.088H236.782C236.75 279.704 236.654 279.352 236.494 279.032C236.342 278.704 236.142 278.424 235.894 278.192C235.646 277.96 235.354 277.78 235.018 277.652C234.682 277.524 234.31 277.46 233.902 277.46ZM241.543 280.34L239.911 282.032V284H239.239V275.12H239.911V281.228L243.991 276.98H244.867L242.035 279.92L245.047 284H244.243L241.543 280.34ZM249.347 284.144C248.835 284.144 248.355 284.048 247.907 283.856C247.467 283.664 247.083 283.404 246.755 283.076C246.435 282.74 246.183 282.352 245.999 281.912C245.815 281.472 245.723 281 245.723 280.496C245.723 279.992 245.815 279.52 245.999 279.08C246.183 278.632 246.435 278.244 246.755 277.916C247.083 277.58 247.467 277.316 247.907 277.124C248.355 276.932 248.835 276.836 249.347 276.836C249.635 276.836 249.923 276.876 250.211 276.956C250.507 277.028 250.783 277.14 251.039 277.292C251.303 277.444 251.543 277.632 251.759 277.856C251.975 278.072 252.151 278.32 252.287 278.6V276.98H252.959V284H252.287V282.392C252.151 282.672 251.975 282.924 251.759 283.148C251.543 283.364 251.303 283.548 251.039 283.7C250.783 283.844 250.507 283.952 250.211 284.024C249.923 284.104 249.635 284.144 249.347 284.144ZM249.371 283.508C249.795 283.508 250.187 283.432 250.547 283.28C250.907 283.12 251.223 282.904 251.495 282.632C251.767 282.36 251.979 282.04 252.131 281.672C252.283 281.304 252.359 280.912 252.359 280.496C252.359 280.08 252.283 279.688 252.131 279.32C251.979 278.952 251.767 278.632 251.495 278.36C251.223 278.088 250.907 277.872 250.547 277.712C250.187 277.552 249.795 277.472 249.371 277.472C248.963 277.472 248.579 277.552 248.219 277.712C247.859 277.864 247.543 278.08 247.271 278.36C247.007 278.632 246.799 278.952 246.647 279.32C246.495 279.68 246.419 280.072 246.419 280.496C246.419 280.912 246.495 281.304 246.647 281.672C246.799 282.04 247.007 282.36 247.271 282.632C247.543 282.904 247.859 283.12 248.219 283.28C248.579 283.432 248.963 283.508 249.371 283.508ZM254.412 276.98H255.66V275.348L256.32 274.916V276.98H258.168V277.604H256.32V281.48C256.32 281.88 256.344 282.204 256.392 282.452C256.448 282.7 256.544 282.892 256.68 283.028C256.816 283.164 257.004 283.256 257.244 283.304C257.484 283.344 257.792 283.364 258.168 283.364V284H258.06C257.58 284 257.184 283.964 256.872 283.892C256.568 283.82 256.324 283.692 256.14 283.508C255.964 283.316 255.84 283.06 255.768 282.74C255.696 282.412 255.66 281.996 255.66 281.492V277.604H254.412V276.98ZM265.191 280.34L263.559 282.032V284H262.887V275.12H263.559V281.228L267.639 276.98H268.515L265.683 279.92L268.695 284H267.891L265.191 280.34ZM272.996 284.144C272.484 284.144 272.004 284.048 271.556 283.856C271.116 283.664 270.732 283.404 270.404 283.076C270.084 282.74 269.832 282.352 269.648 281.912C269.464 281.472 269.372 281 269.372 280.496C269.372 279.992 269.464 279.52 269.648 279.08C269.832 278.632 270.084 278.244 270.404 277.916C270.732 277.58 271.116 277.316 271.556 277.124C272.004 276.932 272.484 276.836 272.996 276.836C273.284 276.836 273.572 276.876 273.86 276.956C274.156 277.028 274.432 277.14 274.688 277.292C274.952 277.444 275.192 277.632 275.408 277.856C275.624 278.072 275.8 278.32 275.936 278.6V276.98H276.608V284H275.936V282.392C275.8 282.672 275.624 282.924 275.408 283.148C275.192 283.364 274.952 283.548 274.688 283.7C274.432 283.844 274.156 283.952 273.86 284.024C273.572 284.104 273.284 284.144 272.996 284.144ZM273.02 283.508C273.444 283.508 273.836 283.432 274.196 283.28C274.556 283.12 274.872 282.904 275.144 282.632C275.416 282.36 275.628 282.04 275.78 281.672C275.932 281.304 276.008 280.912 276.008 280.496C276.008 280.08 275.932 279.688 275.78 279.32C275.628 278.952 275.416 278.632 275.144 278.36C274.872 278.088 274.556 277.872 274.196 277.712C273.836 277.552 273.444 277.472 273.02 277.472C272.612 277.472 272.228 277.552 271.868 277.712C271.508 277.864 271.192 278.08 270.92 278.36C270.656 278.632 270.448 278.952 270.296 279.32C270.144 279.68 270.068 280.072 270.068 280.496C270.068 280.912 270.144 281.304 270.296 281.672C270.448 282.04 270.656 282.36 270.92 282.632C271.192 282.904 271.508 283.12 271.868 283.28C272.228 283.432 272.612 283.508 273.02 283.508ZM278.73 276.98H279.39V278.324C279.614 277.876 279.946 277.516 280.386 277.244C280.826 276.972 281.346 276.836 281.946 276.836C282.65 276.836 283.23 276.996 283.686 277.316C284.15 277.636 284.474 278.06 284.658 278.588C284.866 278.076 285.214 277.656 285.702 277.328C286.198 277 286.782 276.836 287.454 276.836C287.942 276.836 288.378 276.912 288.762 277.064C289.154 277.216 289.482 277.428 289.746 277.7C290.018 277.972 290.226 278.3 290.37 278.684C290.514 279.06 290.586 279.48 290.586 279.944V284H289.902V279.896C289.902 279.544 289.842 279.22 289.722 278.924C289.61 278.62 289.446 278.36 289.23 278.144C289.022 277.928 288.766 277.76 288.462 277.64C288.158 277.52 287.818 277.46 287.442 277.46C287.098 277.46 286.774 277.516 286.47 277.628C286.166 277.74 285.902 277.904 285.678 278.12C285.454 278.328 285.278 278.584 285.15 278.888C285.022 279.184 284.958 279.52 284.958 279.896V284H284.274V279.764C284.274 279.42 284.218 279.108 284.106 278.828C283.994 278.54 283.834 278.296 283.626 278.096C283.426 277.896 283.178 277.74 282.882 277.628C282.594 277.516 282.266 277.46 281.898 277.46C281.538 277.46 281.206 277.524 280.902 277.652C280.598 277.772 280.334 277.944 280.11 278.168C279.894 278.392 279.722 278.664 279.594 278.984C279.474 279.296 279.414 279.644 279.414 280.028V284H278.73V276.98ZM296.194 284.144C295.89 284.144 295.59 284.108 295.294 284.036C295.006 283.964 294.734 283.856 294.478 283.712C294.222 283.568 293.986 283.392 293.77 283.184C293.562 282.968 293.39 282.724 293.254 282.452V287.228H292.594V276.98H293.242V278.588C293.378 278.308 293.554 278.06 293.77 277.844C293.986 277.628 294.226 277.444 294.49 277.292C294.754 277.14 295.03 277.028 295.318 276.956C295.614 276.876 295.906 276.836 296.194 276.836C296.706 276.836 297.182 276.932 297.622 277.124C298.062 277.316 298.442 277.58 298.762 277.916C299.09 278.244 299.346 278.632 299.53 279.08C299.714 279.52 299.806 279.992 299.806 280.496C299.806 281 299.714 281.472 299.53 281.912C299.346 282.352 299.09 282.74 298.762 283.076C298.442 283.404 298.062 283.664 297.622 283.856C297.182 284.048 296.706 284.144 296.194 284.144ZM296.158 283.508C296.566 283.508 296.95 283.432 297.31 283.28C297.67 283.12 297.982 282.904 298.246 282.632C298.518 282.36 298.73 282.04 298.882 281.672C299.034 281.304 299.11 280.912 299.11 280.496C299.11 280.072 299.034 279.68 298.882 279.32C298.73 278.952 298.518 278.632 298.246 278.36C297.982 278.08 297.67 277.864 297.31 277.712C296.95 277.552 296.566 277.472 296.158 277.472C295.742 277.472 295.35 277.552 294.982 277.712C294.622 277.872 294.306 278.088 294.034 278.36C293.762 278.632 293.55 278.952 293.398 279.32C293.246 279.688 293.17 280.08 293.17 280.496C293.17 280.912 293.246 281.304 293.398 281.672C293.55 282.04 293.762 282.36 294.034 282.632C294.306 282.904 294.622 283.12 294.982 283.28C295.35 283.432 295.742 283.508 296.158 283.508ZM304.906 284.144C304.394 284.144 303.914 284.048 303.466 283.856C303.026 283.664 302.642 283.404 302.314 283.076C301.994 282.74 301.742 282.352 301.558 281.912C301.374 281.472 301.282 281 301.282 280.496C301.282 279.992 301.374 279.52 301.558 279.08C301.742 278.632 301.994 278.244 302.314 277.916C302.642 277.58 303.026 277.316 303.466 277.124C303.914 276.932 304.394 276.836 304.906 276.836C305.194 276.836 305.482 276.876 305.77 276.956C306.066 277.028 306.342 277.14 306.598 277.292C306.862 277.444 307.102 277.632 307.318 277.856C307.534 278.072 307.71 278.32 307.846 278.6V276.98H308.518V284H307.846V282.392C307.71 282.672 307.534 282.924 307.318 283.148C307.102 283.364 306.862 283.548 306.598 283.7C306.342 283.844 306.066 283.952 305.77 284.024C305.482 284.104 305.194 284.144 304.906 284.144ZM304.93 283.508C305.354 283.508 305.746 283.432 306.106 283.28C306.466 283.12 306.782 282.904 307.054 282.632C307.326 282.36 307.538 282.04 307.69 281.672C307.842 281.304 307.918 280.912 307.918 280.496C307.918 280.08 307.842 279.688 307.69 279.32C307.538 278.952 307.326 278.632 307.054 278.36C306.782 278.088 306.466 277.872 306.106 277.712C305.746 277.552 305.354 277.472 304.93 277.472C304.522 277.472 304.138 277.552 303.778 277.712C303.418 277.864 303.102 278.08 302.83 278.36C302.566 278.632 302.358 278.952 302.206 279.32C302.054 279.68 301.978 280.072 301.978 280.496C301.978 280.912 302.054 281.304 302.206 281.672C302.358 282.04 302.566 282.36 302.83 282.632C303.102 282.904 303.418 283.12 303.778 283.28C304.138 283.432 304.522 283.508 304.93 283.508ZM310.641 276.98H311.301V278.408C311.533 277.944 311.885 277.568 312.357 277.28C312.829 276.984 313.377 276.836 314.001 276.836C314.473 276.836 314.897 276.912 315.273 277.064C315.657 277.208 315.985 277.42 316.257 277.7C316.537 277.98 316.749 278.32 316.893 278.72C317.045 279.112 317.121 279.56 317.121 280.064V284H316.437V280.052C316.437 279.66 316.377 279.308 316.257 278.996C316.145 278.676 315.981 278.404 315.765 278.18C315.549 277.956 315.285 277.784 314.973 277.664C314.661 277.536 314.309 277.472 313.917 277.472C313.549 277.472 313.205 277.54 312.885 277.676C312.573 277.804 312.301 277.984 312.069 278.216C311.837 278.448 311.653 278.724 311.517 279.044C311.389 279.356 311.325 279.696 311.325 280.064V284H310.641V276.98ZM317.265 286.544C317.641 286.544 317.949 286.524 318.189 286.484C318.437 286.444 318.629 286.356 318.765 286.22C318.901 286.092 318.993 285.904 319.041 285.656C319.097 285.416 319.125 285.096 319.125 284.696V276.98H319.809V284.708C319.809 285.204 319.769 285.612 319.689 285.932C319.609 286.252 319.477 286.508 319.293 286.7C319.109 286.892 318.857 287.024 318.537 287.096C318.225 287.176 317.837 287.216 317.373 287.216H317.265V286.544ZM318.885 275.444C318.885 275.276 318.941 275.14 319.053 275.036C319.165 274.924 319.305 274.868 319.473 274.868C319.657 274.868 319.801 274.924 319.905 275.036C320.009 275.14 320.061 275.276 320.061 275.444C320.061 275.612 320.009 275.752 319.905 275.864C319.801 275.976 319.657 276.032 319.473 276.032C319.289 276.032 319.145 275.976 319.041 275.864C318.937 275.752 318.885 275.612 318.885 275.444ZM325.204 284.144C324.636 284.144 324.124 284.052 323.668 283.868C323.212 283.676 322.824 283.42 322.504 283.1C322.192 282.772 321.948 282.388 321.772 281.948C321.604 281.508 321.52 281.032 321.52 280.52C321.52 280 321.612 279.516 321.796 279.068C321.98 278.62 322.232 278.232 322.552 277.904C322.88 277.576 323.268 277.316 323.716 277.124C324.164 276.932 324.648 276.836 325.168 276.836C325.68 276.836 326.152 276.924 326.584 277.1C327.024 277.276 327.404 277.524 327.724 277.844C328.044 278.164 328.292 278.544 328.468 278.984C328.652 279.416 328.744 279.892 328.744 280.412V280.724H322.18C322.204 281.124 322.292 281.496 322.444 281.84C322.596 282.184 322.804 282.48 323.068 282.728C323.332 282.976 323.644 283.172 324.004 283.316C324.364 283.452 324.764 283.52 325.204 283.52C325.884 283.52 326.456 283.356 326.92 283.028C327.384 282.692 327.732 282.232 327.964 281.648L328.576 281.936C328.264 282.64 327.832 283.184 327.28 283.568C326.728 283.952 326.036 284.144 325.204 284.144ZM325.168 277.46C324.776 277.46 324.412 277.528 324.076 277.664C323.74 277.8 323.44 277.984 323.176 278.216C322.92 278.448 322.704 278.724 322.528 279.044C322.36 279.364 322.252 279.712 322.204 280.088H328.048C328.016 279.704 327.92 279.352 327.76 279.032C327.608 278.704 327.408 278.424 327.16 278.192C326.912 277.96 326.62 277.78 326.284 277.652C325.948 277.524 325.576 277.46 325.168 277.46Z" fill="white"/>
</g>
<g filter="url(#filter8_d)">
<path d="M208.275 255.24C206.691 255.24 205.355 254.944 204.267 254.352C203.179 253.744 202.235 252.992 201.435 252.096L204.411 249.744C204.859 250.512 205.411 251.104 206.067 251.52C206.723 251.92 207.451 252.12 208.251 252.12C209.115 252.12 209.771 251.88 210.219 251.4C210.683 250.92 210.915 250.376 210.915 249.768C210.915 249.4 210.811 249.088 210.603 248.832C210.395 248.576 210.123 248.36 209.787 248.184C209.451 247.992 209.059 247.824 208.611 247.68C208.179 247.536 207.731 247.392 207.267 247.248C206.675 247.056 206.083 246.848 205.491 246.624C204.899 246.4 204.363 246.104 203.883 245.736C203.419 245.352 203.035 244.888 202.731 244.344C202.443 243.784 202.299 243.088 202.299 242.256C202.299 241.552 202.443 240.896 202.731 240.288C203.019 239.68 203.419 239.152 203.931 238.704C204.459 238.24 205.075 237.88 205.779 237.624C206.499 237.368 207.275 237.24 208.107 237.24C208.811 237.24 209.443 237.304 210.003 237.432C210.579 237.56 211.099 237.736 211.563 237.96C212.043 238.184 212.475 238.456 212.859 238.776C213.259 239.08 213.635 239.416 213.987 239.784L211.299 241.824C210.547 240.704 209.491 240.144 208.131 240.144C207.331 240.144 206.723 240.336 206.307 240.72C205.891 241.104 205.683 241.576 205.683 242.136C205.683 242.488 205.779 242.784 205.971 243.024C206.163 243.264 206.419 243.48 206.739 243.672C207.075 243.848 207.459 244.008 207.891 244.152C208.323 244.296 208.779 244.448 209.259 244.608C209.851 244.8 210.443 245.024 211.035 245.28C211.643 245.52 212.187 245.84 212.667 246.24C213.163 246.624 213.563 247.104 213.867 247.68C214.171 248.24 214.323 248.944 214.323 249.792C214.323 250.48 214.187 251.152 213.915 251.808C213.643 252.464 213.251 253.048 212.739 253.56C212.227 254.056 211.595 254.464 210.843 254.784C210.091 255.088 209.235 255.24 208.275 255.24ZM215.822 240.96H219.086V255H215.822V240.96ZM215.414 237.528C215.414 236.92 215.598 236.432 215.966 236.064C216.334 235.68 216.83 235.488 217.454 235.488C218.094 235.488 218.59 235.68 218.942 236.064C219.31 236.432 219.494 236.92 219.494 237.528C219.494 238.136 219.31 238.624 218.942 238.992C218.59 239.36 218.094 239.544 217.454 239.544C216.798 239.544 216.294 239.36 215.942 238.992C215.59 238.624 215.414 238.136 215.414 237.528ZM220.955 240.96H224.171V242.688C224.635 242.08 225.219 241.592 225.923 241.224C226.643 240.856 227.459 240.672 228.371 240.672C230.115 240.672 231.475 241.2 232.451 242.256C233.443 243.312 233.939 244.784 233.939 246.672V255H230.651V247.008C230.651 245.92 230.387 245.064 229.859 244.44C229.331 243.8 228.539 243.48 227.483 243.48C226.555 243.48 225.771 243.808 225.131 244.464C224.507 245.12 224.195 246.064 224.195 247.296V255H220.955V240.96ZM242.774 255.288C241.67 255.288 240.662 255.104 239.75 254.736C238.838 254.352 238.054 253.832 237.398 253.176C236.758 252.52 236.254 251.752 235.886 250.872C235.534 249.976 235.358 249.024 235.358 248.016C235.358 246.992 235.542 246.032 235.91 245.136C236.294 244.24 236.814 243.464 237.47 242.808C238.126 242.152 238.894 241.632 239.774 241.248C240.67 240.864 241.63 240.672 242.654 240.672C243.694 240.672 244.654 240.856 245.534 241.224C246.43 241.576 247.198 242.08 247.838 242.736C248.478 243.376 248.974 244.136 249.326 245.016C249.694 245.896 249.878 246.856 249.878 247.896V249.12H238.454C238.678 250.112 239.166 250.912 239.918 251.52C240.67 252.128 241.622 252.432 242.774 252.432C243.686 252.432 244.478 252.208 245.15 251.76C245.822 251.312 246.326 250.712 246.662 249.96L249.326 251.496C248.718 252.632 247.862 253.552 246.758 254.256C245.67 254.944 244.342 255.288 242.774 255.288ZM242.654 243.528C241.678 243.528 240.83 243.792 240.11 244.32C239.406 244.848 238.91 245.544 238.622 246.408H246.59C246.35 245.464 245.886 244.752 245.198 244.272C244.51 243.776 243.662 243.528 242.654 243.528ZM251.33 240.96H254.546V243.048C255.202 241.656 256.402 240.96 258.146 240.96C258.658 240.96 259.114 241.016 259.514 241.128C259.93 241.24 260.298 241.384 260.618 241.56L259.394 244.632C259.154 244.472 258.882 244.344 258.578 244.248C258.29 244.136 257.914 244.08 257.45 244.08C256.506 244.08 255.786 244.352 255.29 244.896C254.81 245.424 254.57 246.296 254.57 247.512V255H251.33V240.96ZM272.237 253.128C271.725 253.8 271.069 254.328 270.269 254.712C269.469 255.096 268.597 255.288 267.653 255.288C266.805 255.288 265.965 255.128 265.133 254.808C264.317 254.472 263.581 253.992 262.925 253.368C262.269 252.744 261.741 251.984 261.341 251.088C260.941 250.176 260.741 249.144 260.741 247.992C260.741 246.824 260.933 245.792 261.317 244.896C261.717 243.984 262.237 243.216 262.877 242.592C263.533 241.968 264.277 241.496 265.109 241.176C265.957 240.84 266.821 240.672 267.701 240.672C268.629 240.672 269.485 240.864 270.269 241.248C271.053 241.616 271.701 242.12 272.213 242.76V240.96H275.453V254.64C275.453 255.632 275.293 256.56 274.973 257.424C274.669 258.288 274.213 259.04 273.605 259.68C272.997 260.336 272.237 260.848 271.325 261.216C270.429 261.6 269.389 261.792 268.205 261.792C267.293 261.792 266.461 261.688 265.709 261.48C264.973 261.288 264.309 261.008 263.717 260.64C263.125 260.288 262.605 259.864 262.157 259.368C261.709 258.888 261.325 258.352 261.005 257.76L263.885 256.008C264.397 256.952 264.973 257.656 265.613 258.12C266.253 258.584 267.133 258.816 268.253 258.816C268.861 258.816 269.413 258.704 269.909 258.48C270.405 258.256 270.821 257.96 271.157 257.592C271.509 257.224 271.773 256.792 271.949 256.296C272.141 255.8 272.237 255.288 272.237 254.76V253.128ZM268.181 252.312C268.789 252.312 269.349 252.2 269.861 251.976C270.373 251.752 270.813 251.44 271.181 251.04C271.549 250.64 271.837 250.176 272.045 249.648C272.269 249.12 272.381 248.552 272.381 247.944C272.381 247.352 272.269 246.792 272.045 246.264C271.837 245.736 271.549 245.28 271.181 244.896C270.813 244.496 270.373 244.184 269.861 243.96C269.349 243.736 268.789 243.624 268.181 243.624C267.589 243.624 267.029 243.736 266.501 243.96C265.989 244.184 265.541 244.488 265.157 244.872C264.773 245.256 264.469 245.712 264.245 246.24C264.037 246.768 263.933 247.336 263.933 247.944C263.933 248.552 264.037 249.128 264.245 249.672C264.469 250.2 264.773 250.664 265.157 251.064C265.541 251.448 265.989 251.752 266.501 251.976C267.029 252.2 267.589 252.312 268.181 252.312ZM284.305 255.288C283.201 255.288 282.193 255.104 281.281 254.736C280.369 254.352 279.585 253.832 278.929 253.176C278.289 252.52 277.785 251.752 277.417 250.872C277.065 249.976 276.889 249.024 276.889 248.016C276.889 246.992 277.073 246.032 277.441 245.136C277.825 244.24 278.345 243.464 279.001 242.808C279.657 242.152 280.425 241.632 281.305 241.248C282.201 240.864 283.161 240.672 284.185 240.672C285.225 240.672 286.185 240.856 287.065 241.224C287.961 241.576 288.729 242.08 289.369 242.736C290.009 243.376 290.505 244.136 290.857 245.016C291.225 245.896 291.409 246.856 291.409 247.896V249.12H279.985C280.209 250.112 280.697 250.912 281.449 251.52C282.201 252.128 283.153 252.432 284.305 252.432C285.217 252.432 286.009 252.208 286.681 251.76C287.353 251.312 287.857 250.712 288.193 249.96L290.857 251.496C290.249 252.632 289.393 253.552 288.289 254.256C287.201 254.944 285.873 255.288 284.305 255.288ZM284.185 243.528C283.209 243.528 282.361 243.792 281.641 244.32C280.937 244.848 280.441 245.544 280.153 246.408H288.121C287.881 245.464 287.417 244.752 286.729 244.272C286.041 243.776 285.193 243.528 284.185 243.528ZM292.861 240.96H296.077V242.688C296.541 242.08 297.125 241.592 297.829 241.224C298.549 240.856 299.365 240.672 300.277 240.672C302.021 240.672 303.381 241.2 304.357 242.256C305.349 243.312 305.845 244.784 305.845 246.672V255H302.557V247.008C302.557 245.92 302.293 245.064 301.765 244.44C301.237 243.8 300.445 243.48 299.389 243.48C298.461 243.48 297.677 243.808 297.037 244.464C296.413 245.12 296.101 246.064 296.101 247.296V255H292.861V240.96ZM306.607 240.96H309.007V238.824L312.271 236.592V240.96H315.127V243.864H312.271V249.12C312.271 249.728 312.303 250.224 312.367 250.608C312.431 250.976 312.559 251.264 312.751 251.472C312.959 251.664 313.247 251.792 313.615 251.856C313.999 251.92 314.503 251.952 315.127 251.952V255H314.671C313.583 255 312.671 254.904 311.935 254.712C311.215 254.52 310.639 254.2 310.207 253.752C309.775 253.288 309.463 252.688 309.271 251.952C309.095 251.2 309.007 250.264 309.007 249.144V243.864H306.607V240.96ZM322.211 255.288C320.659 255.288 319.371 255 318.347 254.424C317.323 253.832 316.531 252.984 315.971 251.88L318.971 250.44C319.307 251.096 319.763 251.6 320.339 251.952C320.915 252.304 321.587 252.48 322.355 252.48C323.155 252.48 323.755 252.312 324.155 251.976C324.555 251.64 324.755 251.24 324.755 250.776C324.755 250.52 324.659 250.312 324.467 250.152C324.291 249.992 324.051 249.856 323.747 249.744C323.459 249.616 323.115 249.512 322.715 249.432C322.315 249.352 321.899 249.264 321.467 249.168C320.859 249.04 320.259 248.888 319.667 248.712C319.091 248.536 318.571 248.296 318.107 247.992C317.643 247.672 317.267 247.272 316.979 246.792C316.691 246.296 316.547 245.68 316.547 244.944C316.547 244.384 316.675 243.848 316.931 243.336C317.203 242.808 317.579 242.344 318.059 241.944C318.539 241.544 319.115 241.232 319.787 241.008C320.475 240.768 321.235 240.648 322.067 240.648C323.475 240.648 324.643 240.912 325.571 241.44C326.515 241.952 327.259 242.656 327.803 243.552L325.043 244.944C324.755 244.448 324.355 244.056 323.843 243.768C323.331 243.48 322.739 243.336 322.067 243.336C321.299 243.336 320.731 243.488 320.363 243.792C319.995 244.096 319.811 244.448 319.811 244.848C319.811 245.312 320.083 245.648 320.627 245.856C321.171 246.048 321.971 246.256 323.027 246.48C323.603 246.592 324.179 246.744 324.755 246.936C325.347 247.112 325.883 247.36 326.363 247.68C326.843 247.984 327.227 248.384 327.515 248.88C327.819 249.36 327.971 249.968 327.971 250.704C327.971 251.2 327.859 251.72 327.635 252.264C327.411 252.792 327.059 253.288 326.579 253.752C326.115 254.2 325.523 254.568 324.803 254.856C324.083 255.144 323.219 255.288 322.211 255.288ZM329.353 237.24H332.593V247.728L338.569 240.96H342.457L337.033 247.032L342.649 255H339.025L334.825 248.952L332.593 251.424V255H329.353V237.24ZM343.533 240.96H346.797V255H343.533V240.96ZM343.125 237.528C343.125 236.92 343.309 236.432 343.677 236.064C344.045 235.68 344.541 235.488 345.165 235.488C345.805 235.488 346.301 235.68 346.653 236.064C347.021 236.432 347.205 236.92 347.205 237.528C347.205 238.136 347.021 238.624 346.653 238.992C346.301 239.36 345.805 239.544 345.165 239.544C344.509 239.544 344.005 239.36 343.653 238.992C343.301 238.624 343.125 238.136 343.125 237.528Z" fill="white"/>
</g>
<g filter="url(#filter9_d)">
<path d="M323.292 312.5C328.779 342.5 327.819 413.3 280.076 456.5" stroke="url(#paint5_linear)"/>
</g>
<g filter="url(#filter10_d)">
<path d="M279.047 456.5C257.439 439.833 217.516 387.7 230.687 312.5" stroke="url(#paint6_linear)"/>
</g>
<defs>
<filter id="filter0_d" x="97.8418" y="101.299" width="355.664" height="348.136" filterUnits="userSpaceOnUse" color-interpolation-filters="sRGB">
<feFlood flood-opacity="0" result="BackgroundImageFix"/>
<feColorMatrix in="SourceAlpha" type="matrix" values="0 0 0 0 0 0 0 0 0 0 0 0 0 0 0 0 0 0 127 0"/>
<feOffset dy="4"/>
<feGaussianBlur stdDeviation="22"/>
<feColorMatrix type="matrix" values="0 0 0 0 0 0 0 0 0 0 0 0 0 0 0 0 0 0 0.75 0"/>
<feBlend mode="normal" in2="BackgroundImageFix" result="effect1_dropShadow"/>
<feBlend mode="normal" in="SourceGraphic" in2="effect1_dropShadow" result="shape"/>
</filter>
<filter id="filter1_d" x="271.598" y="176.455" width="105.836" height="54.1396" filterUnits="userSpaceOnUse" color-interpolation-filters="sRGB">
<feFlood flood-opacity="0" result="BackgroundImageFix"/>
<feColorMatrix in="SourceAlpha" type="matrix" values="0 0 0 0 0 0 0 0 0 0 0 0 0 0 0 0 0 0 127 0"/>
<feOffset dy="-2"/>
<feGaussianBlur stdDeviation="2"/>
<feColorMatrix type="matrix" values="0 0 0 0 0 0 0 0 0 0 0 0 0 0 0 0 0 0 0.25 0"/>
<feBlend mode="normal" in2="BackgroundImageFix" result="effect1_dropShadow"/>
<feBlend mode="normal" in="SourceGraphic" in2="effect1_dropShadow" result="shape"/>
</filter>
<filter id="filter2_d" x="271.405" y="176.377" width="106.222" height="54.6552" filterUnits="userSpaceOnUse" color-interpolation-filters="sRGB">
<feFlood flood-opacity="0" result="BackgroundImageFix"/>
<feColorMatrix in="SourceAlpha" type="matrix" values="0 0 0 0 0 0 0 0 0 0 0 0 0 0 0 0 0 0 127 0"/>
<feOffset dy="-2"/>
<feGaussianBlur stdDeviation="2"/>
<feColorMatrix type="matrix" values="0 0 0 0 0 0 0 0 0 0 0 0 0 0 0 0 0 0 0.17 0"/>
<feBlend mode="normal" in2="BackgroundImageFix" result="effect1_dropShadow"/>
<feBlend mode="normal" in="SourceGraphic" in2="effect1_dropShadow" result="shape"/>
</filter>
<filter id="filter3_d" x="170.838" y="179.828" width="108.172" height="50.6966" filterUnits="userSpaceOnUse" color-interpolation-filters="sRGB">
<feFlood flood-opacity="0" result="BackgroundImageFix"/>
<feColorMatrix in="SourceAlpha" type="matrix" values="0 0 0 0 0 0 0 0 0 0 0 0 0 0 0 0 0 0 127 0"/>
<feOffset dy="-2"/>
<feGaussianBlur stdDeviation="2"/>
<feColorMatrix type="matrix" values="0 0 0 0 0 0 0 0 0 0 0 0 0 0 0 0 0 0 0.25 0"/>
<feBlend mode="normal" in2="BackgroundImageFix" result="effect1_dropShadow"/>
<feBlend mode="normal" in="SourceGraphic" in2="effect1_dropShadow" result="shape"/>
</filter>
<filter id="filter4_d" x="170.838" y="179.954" width="108.731" height="51.1195" filterUnits="userSpaceOnUse" color-interpolation-filters="sRGB">
<feFlood flood-opacity="0" result="BackgroundImageFix"/>
<feColorMatrix in="SourceAlpha" type="matrix" values="0 0 0 0 0 0 0 0 0 0 0 0 0 0 0 0 0 0 127 0"/>
<feOffset dy="-2"/>
<feGaussianBlur stdDeviation="2"/>
<feColorMatrix type="matrix" values="0 0 0 0 0 0 0 0 0 0 0 0 0 0 0 0 0 0 0.17 0"/>
<feBlend mode="normal" in2="BackgroundImageFix" result="effect1_dropShadow"/>
<feBlend mode="normal" in="SourceGraphic" in2="effect1_dropShadow" result="shape"/>
</filter>
<filter id="filter5_d" x="318.737" y="186.969" width="122.88" height="132.252" filterUnits="userSpaceOnUse" color-interpolation-filters="sRGB">
<feFlood flood-opacity="0" result="BackgroundImageFix"/>
<feColorMatrix in="SourceAlpha" type="matrix" values="0 0 0 0 0 0 0 0 0 0 0 0 0 0 0 0 0 0 127 0"/>
<feOffset dy="2"/>
<feGaussianBlur stdDeviation="2"/>
<feColorMatrix type="matrix" values="0 0 0 0 0 0 0 0 0 0 0 0 0 0 0 0 0 0 0.25 0"/>
<feBlend mode="normal" in2="BackgroundImageFix" result="effect1_dropShadow"/>
<feBlend mode="normal" in="SourceGraphic" in2="effect1_dropShadow" result="shape"/>
</filter>
<filter id="filter6_d" x="113.075" y="190.259" width="120.432" height="128.229" filterUnits="userSpaceOnUse" color-interpolation-filters="sRGB">
<feFlood flood-opacity="0" result="BackgroundImageFix"/>
<feColorMatrix in="SourceAlpha" type="matrix" values="0 0 0 0 0 0 0 0 0 0 0 0 0 0 0 0 0 0 127 0"/>
<feOffset dy="2"/>
<feGaussianBlur stdDeviation="2"/>
<feColorMatrix type="matrix" values="0 0 0 0 0 0 0 0 0 0 0 0 0 0 0 0 0 0 0.25 0"/>
<feBlend mode="normal" in2="BackgroundImageFix" result="effect1_dropShadow"/>
<feBlend mode="normal" in="SourceGraphic" in2="effect1_dropShadow" result="shape"/>
</filter>
<filter id="filter7_d" x="213.504" y="274.292" width="119.24" height="20.936" filterUnits="userSpaceOnUse" color-interpolation-filters="sRGB">
<feFlood flood-opacity="0" result="BackgroundImageFix"/>
<feColorMatrix in="SourceAlpha" type="matrix" values="0 0 0 0 0 0 0 0 0 0 0 0 0 0 0 0 0 0 127 0"/>
<feOffset dy="4"/>
<feGaussianBlur stdDeviation="2"/>
<feColorMatrix type="matrix" values="0 0 0 0 0 0 0 0 0 0 0 0 0 0 0 0 0 0 0.1 0"/>
<feBlend mode="normal" in2="BackgroundImageFix" result="effect1_dropShadow"/>
<feBlend mode="normal" in="SourceGraphic" in2="effect1_dropShadow" result="shape"/>
</filter>
<filter id="filter8_d" x="197.435" y="235.488" width="153.77" height="34.304" filterUnits="userSpaceOnUse" color-interpolation-filters="sRGB">
<feFlood flood-opacity="0" result="BackgroundImageFix"/>
<feColorMatrix in="SourceAlpha" type="matrix" values="0 0 0 0 0 0 0 0 0 0 0 0 0 0 0 0 0 0 127 0"/>
<feOffset dy="4"/>
<feGaussianBlur stdDeviation="2"/>
<feColorMatrix type="matrix" values="0 0 0 0 0 0 0 0 0 0 0 0 0 0 0 0 0 0 0.1 0"/>
<feBlend mode="normal" in2="BackgroundImageFix" result="effect1_dropShadow"/>
<feBlend mode="normal" in="SourceGraphic" in2="effect1_dropShadow" result="shape"/>
</filter>
<filter id="filter9_d" x="275.741" y="310.41" width="54.3305" height="152.461" filterUnits="userSpaceOnUse" color-interpolation-filters="sRGB">
<feFlood flood-opacity="0" result="BackgroundImageFix"/>
<feColorMatrix in="SourceAlpha" type="matrix" values="0 0 0 0 0 0 0 0 0 0 0 0 0 0 0 0 0 0 127 0"/>
<feOffset dy="2"/>
<feGaussianBlur stdDeviation="2"/>
<feColorMatrix type="matrix" values="0 0 0 0 0 0 0 0 0 0 0 0 0 0 0 0 0 0 0.25 0"/>
<feBlend mode="normal" in2="BackgroundImageFix" result="effect1_dropShadow"/>
<feBlend mode="normal" in="SourceGraphic" in2="effect1_dropShadow" result="shape"/>
</filter>
<filter id="filter10_d" x="223.579" y="310.414" width="59.773" height="152.482" filterUnits="userSpaceOnUse" color-interpolation-filters="sRGB">
<feFlood flood-opacity="0" result="BackgroundImageFix"/>
<feColorMatrix in="SourceAlpha" type="matrix" values="0 0 0 0 0 0 0 0 0 0 0 0 0 0 0 0 0 0 127 0"/>
<feOffset dy="2"/>
<feGaussianBlur stdDeviation="2"/>
<feColorMatrix type="matrix" values="0 0 0 0 0 0 0 0 0 0 0 0 0 0 0 0 0 0 0.25 0"/>
<feBlend mode="normal" in2="BackgroundImageFix" result="effect1_dropShadow"/>
<feBlend mode="normal" in="SourceGraphic" in2="effect1_dropShadow" result="shape"/>
</filter>
<linearGradient id="paint0_linear" x1="370.494" y1="181.5" x2="280.392" y2="232.164" gradientUnits="userSpaceOnUse">
<stop stop-color="#047EE7"/>
<stop offset="1" stop-color="#00AEEF"/>
</linearGradient>
<linearGradient id="paint1_linear" x1="273.453" y1="225.067" x2="173.474" y2="196.965" gradientUnits="userSpaceOnUse">
<stop stop-color="#00AEEF"/>
<stop offset="1" stop-color="#047EE7" stop-opacity="0"/>
</linearGradient>
<linearGradient id="paint2_linear" x1="273.453" y1="225.067" x2="173.474" y2="196.965" gradientUnits="userSpaceOnUse">
<stop stop-color="#00AEEF"/>
<stop offset="1" stop-color="#047EE7"/>
</linearGradient>
<linearGradient id="paint3_linear" x1="433.707" y1="186.073" x2="305.202" y2="217.058" gradientUnits="userSpaceOnUse">
<stop stop-color="#047EE7"/>
<stop offset="1" stop-color="#00AEEF"/>
</linearGradient>
<linearGradient id="paint4_linear" x1="234.762" y1="307.701" x2="233.681" y2="192.918" gradientUnits="userSpaceOnUse">
<stop stop-color="#00AEEF"/>
<stop offset="1" stop-color="#047EE7"/>
</linearGradient>
<linearGradient id="paint5_linear" x1="319.176" y1="441.5" x2="334.515" y2="419.521" gradientUnits="userSpaceOnUse">
<stop stop-color="#047EE7"/>
<stop offset="1" stop-color="#00AEEF"/>
</linearGradient>
<linearGradient id="paint6_linear" x1="277.525" y1="309.094" x2="217.36" y2="314.658" gradientUnits="userSpaceOnUse">
<stop stop-color="#047EE7"/>
<stop offset="1" stop-color="#00AEEF"/>
</linearGradient>
</defs>
</svg>
